<svg width="32" height="32" viewBox="0 0 32 32" fill="none" xmlns="http://www.w3.org/2000/svg">
<path d="M8.80853 2.14003C14.3331 1.40875 17.8912 1.41084 23.2047 2.13557C24.3897 2.29721 25.3698 3.11249 25.7896 4.21927C28.7212 11.9471 29.7546 17.2882 30.4 25.9693L30.409 26.2885C30.378 27.876 29.2374 29.2864 27.6088 29.5139C18.6383 30.7658 12.9253 30.6484 4.41679 29.5039C2.67207 29.2692 1.47473 27.6777 1.60317 25.9525C2.24864 17.2839 3.28135 11.9452 6.2092 4.22597C6.63098 3.1139 7.61792 2.29764 8.80853 2.14003ZM22.8956 4.40119C17.7902 3.70486 14.4366 3.70024 9.10764 4.40566C8.7865 4.4483 8.48315 4.67613 8.34648 5.03624C5.51012 12.5142 4.51442 17.6314 3.88219 26.1222C3.83814 26.7138 4.24666 27.1755 4.72148 27.2394L6.2505 27.4369C13.7459 28.3674 19.0952 28.3946 27.2929 27.2505C27.7606 27.185 28.1649 26.7283 28.121 26.1389C27.4888 17.6359 26.4922 12.5167 23.6523 5.03066V5.02954C23.5163 4.67123 23.2145 4.44469 22.8956 4.40119Z" fill="white"/>
<path d="M5.02411 9.96425C12.3718 9.35045 19.634 9.35046 26.9817 9.96425C27.6106 10.0168 28.0787 10.5697 28.0263 11.1986C27.9738 11.8276 27.4209 12.2947 26.792 12.2422C19.5707 11.6389 12.4352 11.6389 5.21384 12.2422C4.58495 12.2946 4.03312 11.8275 3.98058 11.1986C3.92813 10.5697 4.39517 10.0168 5.02411 9.96425Z" fill="white"/>
<path d="M28.4662 18.0626C29.0957 18.017 29.6427 18.49 29.6883 19.1195C29.7339 19.7491 29.2609 20.296 28.6314 20.3416C20.1841 20.9535 11.8119 20.9535 3.36465 20.3416C2.73514 20.296 2.26213 19.749 2.30773 19.1195C2.35335 18.49 2.90031 18.017 3.52982 18.0626C11.8671 18.6665 20.1289 18.6665 28.4662 18.0626Z" fill="white"/>
<path d="M12.446 2.6212C12.5637 2.00122 13.1619 1.59412 13.7819 1.7116C14.4021 1.82921 14.8091 2.42741 14.6915 3.04754C13.0556 11.6738 11.9998 20.2996 11.5096 29.0766C11.4744 29.7067 10.9355 30.1898 10.3054 30.1547C9.67518 30.1195 9.19318 29.5795 9.22837 28.9493C9.72416 20.0718 10.7914 11.346 12.446 2.6212Z" fill="white"/>
<path d="M18.2189 1.71163C18.8389 1.59404 19.4371 2.00123 19.5548 2.62123C21.2095 11.346 22.2778 20.0718 22.7736 28.9494C22.8088 29.5796 22.3256 30.1195 21.6954 30.1547C21.0655 30.1896 20.5264 29.7066 20.4912 29.0766C20.001 20.2996 18.9452 11.6739 17.3093 3.04757C17.1917 2.42752 17.5989 1.82934 18.2189 1.71163Z" fill="white"/>
</svg>
