<svg width="28" height="29" viewBox="0 0 28 29" fill="none" xmlns="http://www.w3.org/2000/svg">
<path d="M24.8837 -1.08479e-09L3.11631 -1.35854e-10C1.40234 0 0 1.40234 1.35854e-10 3.11631L1.08683e-09 24.9304C1.16155e-09 26.6444 1.40234 28.0467 3.11631 28.0467L24.8837 28.0467C26.5977 28.0467 28 26.6444 28 24.9304L28 3.11631C28 2.28981 27.6717 1.49717 27.0873 0.912745C26.5028 0.328324 25.7102 -1.12082e-09 24.8837 -1.08479e-09ZM22.4062 21.783C22.3595 21.7986 22.2972 21.8141 22.2504 21.8141L18.729 21.8141C18.5765 21.8167 18.4267 21.7736 18.299 21.6903C18.1712 21.6069 18.0714 21.4873 18.0122 21.3467L14.1792 12.4029C14.148 12.3094 14.0545 12.2627 13.9766 12.2938C13.9517 12.3032 13.9291 12.3178 13.9103 12.3366C13.8915 12.3554 13.8769 12.378 13.8676 12.4029L11.4836 18.0902C11.4368 18.1992 11.4836 18.3083 11.5927 18.355C11.6238 18.3706 11.6394 18.3706 11.6706 18.3706L14.2883 18.3706C14.4441 18.3706 14.5999 18.4641 14.6622 18.6199L15.8152 21.1753C15.9243 21.409 15.7997 21.6895 15.5659 21.7986C15.4725 21.7986 15.4101 21.8141 15.3478 21.8141L5.81191 21.8141C5.57819 21.8141 5.37563 21.6116 5.37563 21.3779C5.37563 21.3155 5.39121 21.2688 5.40679 21.2065L11.4836 6.7468C11.6082 6.43517 11.9199 6.23261 12.2471 6.23261L15.7529 6.23261C16.0957 6.23261 16.3918 6.43517 16.5164 6.7468L22.6244 21.2065C22.7334 21.4246 22.64 21.6895 22.4062 21.783Z" fill="currentColor"/>
</svg>




