<svg width="20" height="20" viewBox="0 0 20 20" fill="none" xmlns="http://www.w3.org/2000/svg">
<path fill-rule="evenodd" clip-rule="evenodd" d="M8.56527 1.94195C7.69449 2.01951 6.91683 2.56223 6.50475 3.37997C6.31777 3.75103 6.23213 4.12013 6.23101 4.55997C6.22963 5.09629 6.31227 5.36943 6.68627 6.06459C6.82593 6.32421 6.94021 6.54619 6.94021 6.55787C6.94021 6.56957 6.81545 6.78857 6.66295 7.04455C6.21501 7.79653 5.55923 8.91335 5.08027 9.73997C4.83489 10.1635 4.56889 10.6225 4.48919 10.76L4.34427 11.01L3.94723 11.0236C3.36817 11.0434 3.08033 11.0905 2.76525 11.2172C1.94831 11.5456 1.32031 12.2843 1.13057 13.14C1.08567 13.3425 1.06957 13.7683 1.09857 13.9862C1.19085 14.6796 1.62385 15.3785 2.22111 15.7979L2.36779 15.9009L2.41499 16.0654C2.47557 16.2767 2.64835 16.637 2.78407 16.835C2.92453 17.0401 3.20171 17.3259 3.39465 17.4646C4.02659 17.919 4.83327 18.0603 5.64341 17.8582C6.11443 17.7408 6.59539 17.4586 6.90851 17.1161C7.02357 16.9902 7.40074 16.4539 7.43258 16.371C7.44193 16.3466 7.81955 16.3426 10.0768 16.3428L12.7102 16.343L12.9201 16.6662C13.0784 16.9098 13.1749 17.0342 13.3126 17.1719C13.9475 17.8068 14.8993 18.081 15.8069 17.8905C16.5758 17.7292 17.2016 17.2371 17.5753 16.5C17.6447 16.3632 17.7203 16.155 17.7909 15.907C17.7945 15.8943 17.846 15.8517 17.9053 15.8123C18.4878 15.4257 18.9321 14.7463 19.0517 14.0592C19.0963 13.8027 19.0815 13.3225 19.0215 13.08C18.8125 12.2359 18.2156 11.5431 17.4111 11.2111C17.0854 11.0767 16.831 11.036 16.15 11.0092L15.8098 10.9958L15.6811 10.7729C14.888 9.39833 13.73 7.42087 13.3629 6.81407C13.2844 6.68431 13.2202 6.56943 13.2202 6.55877C13.2202 6.54809 13.309 6.37525 13.4175 6.17467C13.7608 5.54025 13.8199 5.40165 13.8937 5.05929C13.9443 4.82453 13.9442 4.29877 13.8935 4.05997C13.6617 2.96767 12.8416 2.15067 11.7928 1.96721C11.5704 1.92829 11.129 1.92365 10.9102 1.95791C10.6719 1.99523 10.4512 2.05435 10.2552 2.13337L10.0802 2.20393L9.90333 2.13231C9.67241 2.03881 9.36411 1.96611 9.09021 1.94053C8.8488 1.91801 8.83355 1.91805 8.56527 1.94195ZM8.54767 3.39815C8.12995 3.51177 7.85245 3.78301 7.70685 4.21997C7.67913 4.30321 7.67021 4.39097 7.67021 4.58067V4.83137L7.77222 5.04067C7.82833 5.15579 8.00213 5.48337 8.15842 5.76863C8.32072 6.06485 8.45497 6.33471 8.47141 6.39783C8.54137 6.66637 8.51589 6.73311 8.03367 7.54465C7.11437 9.09173 6.48101 10.1743 5.77211 11.41C5.43037 12.0057 5.34035 12.1478 5.25067 12.2331C5.09817 12.3783 4.97285 12.4222 4.68021 12.433C3.41339 12.4798 3.41977 12.4791 3.17411 12.6031C3.02277 12.6795 2.76985 12.9224 2.67453 13.083C2.45741 13.4487 2.46073 13.8603 2.68379 14.2349C2.79977 14.4297 2.99093 14.5999 3.23885 14.7293C3.58731 14.911 3.69239 15.0565 3.74869 15.4352C3.83141 15.9913 4.15049 16.361 4.66019 16.4915C4.90063 16.5531 5.26231 16.5077 5.53021 16.3823C5.75279 16.278 5.84975 16.1778 6.10051 15.7926C6.22685 15.5985 6.37563 15.3701 6.43115 15.285C6.54431 15.1115 6.67671 14.9988 6.83021 14.9453C6.92327 14.9129 7.08425 14.9107 9.15021 14.915C10.3712 14.9175 11.4709 14.9129 11.594 14.9048L11.8178 14.89L11.744 14.7706C11.7034 14.705 11.3635 14.1424 10.9886 13.5206L10.3069 12.39L9.78857 12.38C9.27454 12.3701 9.26929 12.3695 9.15961 12.3157C8.89867 12.1875 8.75594 11.9764 8.74329 11.6997C8.73946 11.6166 8.74609 11.5125 8.75795 11.4683C8.77678 11.3984 9.23869 10.586 9.45973 10.2341C9.6307 9.96185 11.4428 6.79875 11.7594 6.21997C12.226 5.36687 12.4419 4.95141 12.4713 4.84997C12.5443 4.59811 12.4972 4.24267 12.3548 3.97067C12.2645 3.79835 12.0251 3.56447 11.8589 3.48617C11.4282 3.28337 10.9458 3.33173 10.5197 3.62045C10.3732 3.71971 10.2475 3.75999 10.0845 3.75985C9.91041 3.75971 9.83593 3.73769 9.67903 3.63999C9.35139 3.43597 9.20175 3.38459 8.89021 3.36923C8.73167 3.36141 8.66067 3.36741 8.54767 3.39815ZM11.6546 9.30645L10.9189 10.5921L11.1681 11.021C11.5841 11.7374 13.0706 14.2053 13.5948 15.05C14.2848 16.1621 14.3407 16.2347 14.6077 16.3683C14.7956 16.4623 14.9491 16.5014 15.1802 16.5138C15.5297 16.5326 15.826 16.4206 16.0625 16.1802C16.275 15.9642 16.3621 15.7607 16.4373 15.3044C16.4816 15.0357 16.6104 14.8801 16.9201 14.721C17.3358 14.5075 17.587 14.1732 17.6427 13.7592C17.6844 13.4495 17.5708 13.1243 17.3303 12.8645C17.1762 12.6981 17.0319 12.5977 16.8458 12.5275C16.7001 12.4725 16.5584 12.4606 15.6177 12.424C15.2074 12.408 15.2044 12.4075 15.0737 12.3432C14.9947 12.3043 14.912 12.2437 14.8663 12.1913C14.8244 12.1433 14.6647 11.8849 14.5114 11.617C13.7508 10.2884 12.4278 8.03255 12.4049 8.02537C12.3968 8.02285 12.0592 8.59933 11.6546 9.30645Z" fill="currentColor"/>
</svg>
