<svg width="17" height="12" viewBox="0 0 17 12" fill="none" xmlns="http://www.w3.org/2000/svg">
<path fill-rule="evenodd" clip-rule="evenodd" d="M10.4812 0.039953C10.2714 0.114995 10.1564 0.228269 10.075 0.439967C10.0238 0.573347 10.0377 0.785639 10.1069 0.927155C10.1792 1.07492 10.2772 1.16137 10.5136 1.28597C11.1256 1.60847 11.6557 1.96696 12.2311 2.4474C12.999 3.08851 13.6969 3.83583 14.2646 4.62497L14.4394 4.86797L7.46728 4.87704C1.97379 4.88417 0.481518 4.89084 0.430884 4.90848C0.339552 4.94029 0.201204 5.04295 0.132318 5.12999C-0.0456303 5.35487 -0.0439023 5.69897 0.13635 5.92759C0.193392 5.99993 0.33102 6.09816 0.432144 6.13871C0.485694 6.16019 1.54049 6.16532 7.46694 6.17297L14.4387 6.18197L14.2907 6.38897C13.6392 7.30016 12.8025 8.16969 11.906 8.86723C11.5048 9.1794 11.0222 9.49161 10.5592 9.73862C10.4217 9.81196 10.2753 9.90471 10.2338 9.94474C10.1235 10.0513 10.0585 10.1963 10.048 10.3593C10.0374 10.5237 10.0635 10.6237 10.1532 10.7624C10.2319 10.8841 10.3359 10.9617 10.4906 11.0138C10.7039 11.0856 10.8278 11.0591 11.1942 10.8629C12.1458 10.3535 12.982 9.72543 13.8663 8.85578C14.8147 7.92312 15.5112 7.00441 16.0573 5.96597C16.2857 5.53172 16.2735 5.44906 15.8796 4.75997C15.3589 3.84899 14.7219 3.0371 13.8661 2.19371C12.9882 1.32861 12.161 0.707033 11.1961 0.187571C10.8292 -0.00999692 10.6971 -0.037267 10.4812 0.039953Z" fill="white"/>
</svg>
