<svg width="28" height="36" viewBox="0 0 28 36" fill="none" xmlns="http://www.w3.org/2000/svg">
<path d="M9.10828 30.1867C7.51168 28.723 7.04563 25.6485 7.71015 23.4193C8.86197 24.8245 10.4604 25.2693 12.1154 25.5209C14.6672 25.9072 17.1764 25.7637 19.5491 24.5924C19.8203 24.4577 20.0719 24.2787 20.3678 24.0997C20.5911 24.7465 20.6496 25.4004 20.5716 26.0667C20.382 27.6881 19.5793 28.941 18.2981 29.8908C17.786 30.2718 17.2455 30.6102 16.7174 30.9682C15.0942 32.0704 14.6548 33.3604 15.2644 35.2388L15.3246 35.4408C14.544 35.1006 13.8834 34.5339 13.4285 33.8141C12.953 33.0733 12.6996 32.2117 12.6984 31.3314C12.6931 30.892 12.6931 30.4507 12.6346 30.0201C12.4911 28.9658 11.9967 28.4962 11.0699 28.4678C10.6251 28.4426 10.1863 28.5804 9.83563 28.8553C9.485 29.1303 9.24658 29.5236 9.16499 29.9617C9.14963 30.0302 9.13014 30.1046 9.10651 30.1849M1.0048e-09 23.0489C1.0048e-09 23.0489 4.72426 20.74 9.46269 20.74L13.0351 9.64698C13.168 9.10828 13.5596 8.74324 13.9991 8.74324C14.4421 8.74324 14.832 9.10828 14.9649 9.64698L18.5373 20.74C24.1494 20.74 28 23.0489 28 23.0489L19.9585 1.06677C19.7281 0.418201 19.3383 -8.43041e-10 18.8155 -8.20252e-10L9.18448 -4.00392e-10C8.65996 -3.77526e-10 8.28783 0.418201 8.04152 1.06677C8.0238 1.1093 1.0048e-09 23.0489 1.0048e-09 23.0489Z" fill="#E2E8F1"/>
</svg>
