<svg width="32" height="32" viewBox="0 0 32 32" fill="none" xmlns="http://www.w3.org/2000/svg">
<path d="M12.2824 23.851C12.2823 22.327 11.8634 21.2989 11.2266 20.6523C10.5919 20.0083 9.58718 19.5866 8.0971 19.5865C6.60683 19.5865 5.60233 20.0082 4.96763 20.6523C4.33065 21.2989 3.91081 22.3267 3.91071 23.851C3.91071 25.3756 4.33051 26.4042 4.96763 27.0508C5.60234 27.6949 6.60685 28.1166 8.0971 28.1166C9.58716 28.1166 10.5919 27.6948 11.2266 27.0508C11.8635 26.4042 12.2824 25.3753 12.2824 23.851ZM14.5681 23.851C14.5681 25.7873 14.0285 27.4636 12.8538 28.6557C11.6768 29.8499 10.017 30.4023 8.0971 30.4023C6.17689 30.4023 4.5164 29.8502 3.33929 28.6557C2.1646 27.4636 1.625 25.7873 1.625 23.851C1.6251 21.9149 2.1647 20.2394 3.33929 19.0474C4.51642 17.8529 6.17686 17.3008 8.0971 17.3008C10.0171 17.3008 11.6767 17.8531 12.8538 19.0474C14.0284 20.2394 14.568 21.9149 14.5681 23.851Z" fill="white"/>
<path d="M28.0871 23.851C28.087 22.3269 27.6681 21.2989 27.0312 20.6523C26.3966 20.0083 25.3919 19.5866 23.9018 19.5865C22.4116 19.5865 21.407 20.0082 20.7723 20.6523C20.1353 21.2989 19.7155 22.3267 19.7154 23.851C19.7154 25.3756 20.1352 26.4042 20.7723 27.0508C21.407 27.6949 22.4116 28.1166 23.9018 28.1166C25.3918 28.1166 26.3966 27.6948 27.0312 27.0508C27.6682 26.4042 28.0871 25.3753 28.0871 23.851ZM30.3728 23.851C30.3728 25.7873 29.8332 27.4636 28.6585 28.6557C27.4814 29.8499 25.8217 30.4023 23.9018 30.4023C21.9816 30.4023 20.3211 29.8502 19.144 28.6557C17.9693 27.4636 17.4297 25.7873 17.4297 23.851C17.4298 21.9149 17.9694 20.2394 19.144 19.0474C20.3211 17.8529 21.9816 17.3008 23.9018 17.3008C25.8218 17.3009 27.4814 17.8531 28.6585 19.0474C29.8331 20.2394 30.3727 21.9149 30.3728 23.851Z" fill="white"/>
<path d="M15.9897 6.94336C18.0322 6.94337 20.0128 7.65962 21.9629 8.98242C22.485 9.33681 22.6207 10.0472 22.2665 10.5695C21.9122 11.0916 21.2017 11.2283 20.6794 10.8742C19.0093 9.74133 17.4685 9.22908 15.9897 9.22907C14.5109 9.22907 12.9701 9.74132 11.3 10.8742C10.7777 11.2284 10.0673 11.0916 9.71293 10.5695C9.35867 10.0472 9.49436 9.3368 10.0165 8.98242C11.9667 7.65961 13.9473 6.94336 15.9897 6.94336Z" fill="white"/>
<path d="M8.10869 1.5918C9.98263 1.5918 11.5074 2.11765 12.5551 3.30943C13.5684 4.46238 13.9652 6.05073 14.0428 7.80385C14.0555 8.08875 14.0681 8.30774 14.083 8.60965C14.1141 9.24007 13.6275 9.77608 12.9971 9.8072C12.3669 9.83803 11.8307 9.35262 11.7995 8.72238C11.7859 8.44587 11.7722 8.19379 11.7594 7.9043C11.6916 6.37563 11.3527 5.40446 10.8375 4.81836C10.3563 4.27103 9.55703 3.87751 8.10869 3.87751C6.66056 3.87758 5.86104 4.27105 5.3799 4.81836C4.86482 5.40449 4.52685 6.37593 4.45914 7.9043C4.22053 13.293 3.69693 18.8535 3.92901 24.0951C3.99246 25.5282 4.4288 26.4988 5.06628 27.113C5.70273 27.726 6.6828 28.1219 8.10869 28.1219C9.5348 28.1219 10.5157 27.7261 11.1522 27.113C11.7896 26.4988 12.226 25.528 12.2895 24.0951C12.4194 21.1607 12.3113 18.0978 12.1478 15.0126C12.1144 14.3824 12.598 13.8442 13.2281 13.8105C13.8584 13.7771 14.3967 14.2617 14.4301 14.892C14.5945 17.9935 14.708 21.1471 14.573 24.1967C14.4911 26.0456 13.9049 27.6343 12.737 28.7592C11.568 29.8853 9.95945 30.4076 8.10869 30.4076C6.25809 30.4076 4.64931 29.8852 3.48034 28.7592C2.31272 27.6343 1.72743 26.0453 1.64552 24.1967C1.40748 18.8209 1.94411 13.0326 2.17566 7.80385C2.25329 6.05064 2.65001 4.4624 3.66338 3.30943C4.71101 2.11774 6.23494 1.59187 8.10869 1.5918Z" fill="white"/>
<path d="M23.8902 1.5918C25.7641 1.5918 27.2889 2.11766 28.3366 3.30943C29.3499 4.46238 29.7467 6.05072 29.8244 7.80385C30.0558 13.0326 30.5924 18.8209 30.3545 24.1967C30.2725 26.0456 29.6864 27.6343 28.5186 28.7592C27.3495 29.8852 25.741 30.4076 23.8902 30.4076C22.0396 30.4076 20.4308 29.8852 19.2619 28.7592C18.0942 27.6343 17.5089 26.0453 17.427 24.1967C17.292 21.1464 17.4054 17.992 17.5699 14.8898C17.6033 14.2596 18.1407 13.7752 18.7708 13.8083C19.401 13.8417 19.8856 14.3801 19.8523 15.0103C19.6887 18.0963 19.5806 21.16 19.7105 24.0951C19.774 25.5282 20.2103 26.4988 20.8478 27.113C21.4842 27.726 22.4643 28.1219 23.8902 28.1219C25.3163 28.1219 26.2972 27.7261 26.9337 27.113C27.5711 26.4988 28.0075 25.528 28.071 24.0951C28.303 18.8535 27.7794 13.293 27.5409 7.9043C27.4731 6.37565 27.1343 5.40446 26.619 4.81836C26.1378 4.27103 25.3385 3.87751 23.8902 3.87751C22.4421 3.87758 21.6425 4.27106 21.1614 4.81836C20.6463 5.40449 20.3084 6.37593 20.2406 7.9043C20.2278 8.1938 20.213 8.44586 20.1994 8.72238C20.1682 9.35279 19.6322 9.83832 19.0018 9.8072C18.3715 9.77595 17.8859 9.23998 17.917 8.60965C17.9319 8.30775 17.9446 8.08875 17.9572 7.80385C18.0348 6.05064 18.4315 4.4624 19.4449 3.30943C20.4925 2.11774 22.0164 1.59187 23.8902 1.5918Z" fill="white"/>
</svg>
