<svg width="64" height="64" viewBox="0 0 64 64" fill="none" xmlns="http://www.w3.org/2000/svg">
<path d="M24.5647 47.7015C24.5645 44.6534 23.7267 42.5973 22.4531 41.3042C21.1838 40.0161 19.1744 39.1726 16.1942 39.1725C13.2137 39.1725 11.2047 40.016 9.93527 41.3042C8.6613 42.5972 7.82162 44.6529 7.82143 47.7015C7.82143 50.7506 8.66103 52.8079 9.93527 54.1011C11.2047 55.3893 13.2137 56.2328 16.1942 56.2328C19.1743 56.2327 21.1838 55.3892 22.4531 54.1011C23.727 52.8079 24.5647 50.7501 24.5647 47.7015ZM29.1362 47.7015C29.1362 51.5741 28.057 54.9267 25.7076 57.3109C23.3535 59.6994 20.0341 60.8041 16.1942 60.8042C12.3538 60.8042 9.03281 59.6999 6.67857 57.3109C4.3292 54.9267 3.25 51.5741 3.25 47.7015C3.2502 43.8292 4.32939 40.4784 6.67857 38.0944C9.03284 35.7053 12.3537 34.6011 16.1942 34.6011C20.0341 34.6012 23.3535 35.7057 25.7076 38.0944C28.0568 40.4784 29.136 43.8292 29.1362 47.7015Z" fill="currentColor"/>
<path d="M56.1741 47.7015C56.1739 44.6534 55.3362 42.5973 54.0625 41.3042C52.7932 40.0161 50.7837 39.1726 47.8036 39.1725C44.8231 39.1725 42.814 40.016 41.5446 41.3042C40.2707 42.5972 39.431 44.6529 39.4308 47.7015C39.4308 50.7506 40.2704 52.8079 41.5446 54.1011C42.8141 55.3893 44.8232 56.2328 47.8036 56.2328C50.7837 56.2326 52.7931 55.3892 54.0625 54.1011C55.3364 52.8079 56.1741 50.7501 56.1741 47.7015ZM60.7455 47.7015C60.7455 51.5741 59.6664 54.9267 57.317 57.3109C54.9629 59.6994 51.6434 60.8041 47.8036 60.8042C43.9632 60.8042 40.6422 59.6999 38.2879 57.3109C35.9386 54.9267 34.8594 51.5741 34.8594 47.7015C34.8596 43.8292 35.9388 40.4784 38.2879 38.0944C40.6422 35.7053 43.9632 34.6011 47.8036 34.6011C51.6435 34.6012 54.9628 35.7058 57.317 38.0944C59.6662 40.4784 60.7453 43.8292 60.7455 47.7015Z" fill="currentColor"/>
<path d="M31.9716 13.8857C36.0565 13.8858 40.0177 15.3183 43.918 17.9639C44.9622 18.6726 45.2337 20.0935 44.5252 21.138C43.8165 22.1823 42.3956 22.4557 41.3511 21.7473C38.0109 19.4817 34.9292 18.4572 31.9716 18.4572C29.014 18.4572 25.9324 19.4817 22.5921 21.7473C21.5476 22.4558 20.1267 22.1823 19.418 21.138C18.7095 20.0934 18.9809 18.6726 20.0252 17.9639C23.9256 15.3182 27.8867 13.8857 31.9716 13.8857Z" fill="currentColor"/>
<path d="M16.2174 3.18359C19.9653 3.18359 23.0148 4.23531 25.1102 6.61886C27.1368 8.92477 27.9304 12.1015 28.0857 15.6077C28.1109 16.1775 28.1362 16.6155 28.166 17.2193C28.2283 18.4801 27.255 19.5522 25.9942 19.6144C24.7338 19.6761 23.6613 18.7052 23.5991 17.4448C23.5718 16.8917 23.5443 16.3876 23.5187 15.8086C23.3833 12.7513 22.7055 10.8089 21.675 9.63672C20.7126 8.54206 19.1141 7.75502 16.2174 7.75502C13.3211 7.75516 11.7221 8.54211 10.7598 9.63672C9.72964 10.809 9.05371 12.7519 8.91828 15.8086C8.44105 26.5859 7.39385 37.707 7.85801 48.1903C7.98492 51.0563 8.8576 52.9977 10.1326 54.226C11.4055 55.4521 13.3656 56.2437 16.2174 56.2439C19.0696 56.2439 21.0314 55.4522 22.3044 54.226C23.5792 52.9976 24.4521 51.0561 24.579 48.1903C24.8388 42.3213 24.6226 36.1955 24.2955 30.0251C24.2287 28.7648 25.1961 27.6884 26.4562 27.6211C27.7168 27.5543 28.7934 28.5234 28.8602 29.784C29.189 35.9871 29.416 42.2942 29.146 48.3934C28.9821 52.0911 27.8099 55.2686 25.4741 57.5184C23.136 59.7705 19.9189 60.8153 16.2174 60.8153C12.5162 60.8151 9.29863 59.7703 6.96069 57.5184C4.62545 55.2686 3.45486 52.0907 3.29105 48.3934C2.81496 37.6418 3.88822 26.0652 4.35131 15.6077C4.50659 12.1013 5.30003 8.9248 7.32676 6.61886C9.42202 4.23547 12.4699 3.18374 16.2174 3.18359Z" fill="currentColor"/>
<path d="M47.7726 3.18359C51.5204 3.18359 54.57 4.23533 56.6654 6.61886C58.692 8.92475 59.4856 12.1014 59.6409 15.6077C60.1037 26.0652 61.177 37.6418 60.7012 48.3934C60.5373 52.0911 59.3651 55.2686 57.0293 57.5184C54.6912 59.7705 51.4741 60.8153 47.7726 60.8153C44.0714 60.8151 40.8538 59.7703 38.5159 57.5184C36.1807 55.2686 35.0101 52.0907 34.8463 48.3934C34.5761 42.2928 34.8031 35.984 35.132 29.7796C35.1988 28.5193 36.2735 27.5503 37.5338 27.6166C38.7943 27.6834 39.7634 28.7602 39.6967 30.0206C39.3695 36.1925 39.1533 42.32 39.4132 48.1903C39.5401 51.0563 40.4128 52.9977 41.6878 54.226C42.9607 55.4521 44.9208 56.2437 47.7726 56.2439C50.6248 56.2439 52.5866 55.4522 53.8596 54.226C55.1344 52.9976 56.0073 51.0561 56.1342 48.1903C56.5981 37.707 55.5509 26.586 55.0739 15.8086C54.9384 12.7513 54.2607 10.8089 53.2302 9.63672C52.2678 8.54205 50.6692 7.75502 47.7726 7.75502C44.8763 7.75517 43.2773 8.54211 42.315 9.63672C41.2848 10.809 40.6089 12.7519 40.4735 15.8086C40.4479 16.3876 40.4182 16.8917 40.3909 17.4448C40.3287 18.7056 39.2566 19.6766 37.9958 19.6144C36.7352 19.5519 35.7639 18.48 35.8262 17.2193C35.856 16.6155 35.8813 16.1775 35.9065 15.6077C36.0618 12.1013 36.8552 8.9248 38.882 6.61886C40.9772 4.23548 44.0251 3.18375 47.7726 3.18359Z" fill="currentColor"/>
</svg>
