<svg width="231" height="231" viewBox="0 0 231 231" fill="none" xmlns="http://www.w3.org/2000/svg">
<path d="M129.456 46.3121C129.172 46.4021 128.079 46.6592 127.011 46.8906C125.956 47.122 124.849 47.3791 124.566 47.4691C124.283 47.5591 123.794 47.6748 123.472 47.7262C123.151 47.7648 122.43 47.9448 121.864 48.1119C121.298 48.279 119.972 48.6133 118.904 48.8704C117.849 49.1275 116.46 49.4746 115.816 49.6417C115.186 49.8089 114.079 50.066 113.372 50.2331C112.664 50.4002 111.982 50.5802 111.866 50.6445C111.737 50.7088 111.068 50.8759 110.386 51.0173C109.692 51.1587 108.263 51.5058 107.195 51.8015C105.355 52.3158 105.239 52.3672 104.596 52.9714C103.644 53.8713 103.528 54.1799 103.515 55.9797C103.502 56.8153 103.464 57.8438 103.412 58.268C103.335 58.9879 103.309 59.0522 102.885 59.2579C102.64 59.3736 101.688 59.6821 100.762 59.9393C99.8481 60.1964 98.6515 60.5435 98.1239 60.7106C97.5964 60.8777 96.7857 61.0834 96.3225 61.1606C95.8593 61.2505 94.8556 61.4948 94.0707 61.7134C93.2987 61.9191 92.3337 62.1633 91.9476 62.2533C91.5616 62.3433 90.262 62.6904 89.0525 63.0247C85.2696 64.066 85.0766 64.1174 84.356 64.2974C83.97 64.3874 83.095 64.6188 82.4259 64.7988C81.7568 64.9787 80.1613 65.3901 78.8874 65.7244C76.6357 66.3029 76.1725 66.4315 73.7406 67.1385C71.4116 67.807 67.6672 68.7327 66.4062 68.9383C65.6985 69.0669 64.9651 69.234 64.7721 69.3369C64.5791 69.4397 64.296 69.5169 64.1287 69.5169C63.7942 69.5169 62.4045 69.0026 61.002 68.3598C58.6216 67.2671 56.8716 66.9714 55.3919 67.4085C55.0059 67.5242 54.3497 67.6913 53.9251 67.7813C53.1144 67.9613 47.3885 69.4269 45.4327 69.9668C44.8022 70.1339 43.6442 70.4296 42.8593 70.6225C42.0872 70.8153 41.045 71.0853 40.5432 71.2267C40.0542 71.3552 38.4587 71.7795 37.0047 72.1523C35.5507 72.5251 34.0195 72.9879 33.5949 73.1808C32.6041 73.6564 31.7677 74.4278 31.3946 75.2377C31.1115 75.8419 31.0858 76.0348 31.0858 78.336C31.0858 80.1486 31.0472 80.83 30.9314 80.92C30.7383 81.0742 28.4351 81.7428 25.7459 82.437C25.0382 82.6169 24.0603 82.8869 23.5584 83.0283C23.0695 83.1569 22.2203 83.3883 21.6927 83.5426C21.1651 83.684 20.5604 83.8511 20.3416 83.9025C20.1358 83.9668 18.5917 84.3911 16.9318 84.8539C15.272 85.3167 13.5478 85.8695 13.1231 86.088C12.6857 86.3066 12.2868 86.4865 12.2224 86.4865C12.0552 86.4865 11.0386 87.2193 10.3567 87.8364C9.48172 88.6206 8.69682 89.8162 8.42661 90.819C8.195 91.6546 8.195 92.9016 8.18213 122.521C8.18213 149.634 8.20786 153.401 8.37514 153.813C8.47807 154.057 8.56815 154.391 8.56815 154.532C8.56815 154.97 9.46885 156.448 10.228 157.245C11.1287 158.184 11.5147 158.428 13.136 159.045C14.5514 159.585 16.3271 160.382 19.0549 161.706C20.0457 162.182 21.4611 162.837 22.2074 163.172C23.6099 163.802 25.5915 164.727 26.5822 165.241C27.7017 165.807 28.2035 166.051 29.7347 166.758C30.5839 167.144 31.5747 167.581 31.9221 167.71C32.2824 167.851 33.582 168.455 34.8172 169.06C36.0525 169.651 37.2105 170.191 37.3907 170.242C37.5708 170.294 38.034 170.499 38.4201 170.705C38.8061 170.898 40.3759 171.656 41.8942 172.364C43.4125 173.083 45.3555 174.009 46.2047 174.42C47.826 175.217 48.8554 175.693 51.2873 176.76C52.0979 177.12 52.9214 177.519 53.1144 177.66C53.3074 177.789 53.8221 178.033 54.2725 178.2C54.7228 178.367 55.9581 178.933 57.0132 179.434C58.0812 179.948 59.2006 180.463 59.5223 180.591C60.3201 180.913 61.774 181.581 64.3475 182.841C65.557 183.432 66.8823 184.062 67.3069 184.255C67.7316 184.435 68.7481 184.898 69.5587 185.284C70.3693 185.656 71.8748 186.351 72.9042 186.826C74.5641 187.585 74.9758 187.79 75.735 188.202C76.0438 188.369 80.7789 190.619 80.8304 190.619C80.8433 190.619 81.8855 191.107 83.1336 191.712C84.3817 192.316 85.4368 192.804 85.4754 192.804C85.5269 192.804 88.2419 194.051 91.3686 195.504C91.6517 195.633 93.0156 196.288 94.3924 196.957C95.7692 197.625 97.5706 198.474 98.3813 198.847C101.65 200.325 102.19 200.569 102.602 200.813C103.013 201.058 103.052 201.058 104.004 200.839C104.532 200.711 105.497 200.415 106.14 200.171C106.796 199.926 107.62 199.644 107.967 199.541C108.328 199.451 110.438 198.757 112.664 198.024C114.89 197.278 118.055 196.262 119.676 195.748C122.842 194.771 125.48 193.91 127.139 193.319C127.706 193.113 128.812 192.753 129.584 192.496C130.369 192.251 131.669 191.802 132.479 191.519C133.29 191.223 134.332 190.876 134.795 190.747C135.259 190.632 135.889 190.426 136.211 190.31C136.533 190.195 137.459 189.886 138.27 189.642C139.08 189.385 141.203 188.703 142.966 188.112C144.742 187.521 146.878 186.826 147.727 186.569C149.155 186.132 150.532 185.695 154.289 184.487C155.074 184.229 155.911 183.934 156.155 183.831C156.399 183.728 156.953 183.548 157.377 183.42C158.342 183.137 160.89 182.224 161.238 182.044C161.379 181.967 161.701 181.877 161.945 181.838C162.203 181.8 162.949 181.568 163.618 181.324C164.287 181.08 165.484 180.668 166.256 180.424C168.044 179.846 168.649 179.64 170.245 179.087C170.952 178.843 171.853 178.56 172.239 178.47C172.625 178.38 173.358 178.149 173.847 177.969C174.349 177.789 175.88 177.3 177.257 176.863C178.634 176.439 180.989 175.68 182.468 175.179C183.961 174.678 186.161 173.958 187.358 173.572C188.568 173.173 189.726 172.775 189.931 172.685C190.15 172.582 190.498 172.466 190.703 172.415C191.205 172.312 194.126 171.374 196.944 170.409C198.179 169.985 199.427 169.599 199.711 169.548C199.994 169.484 200.92 169.214 201.769 168.931C204.343 168.057 206.504 167.375 206.98 167.273C207.225 167.234 207.598 167.118 207.817 167.028C208.023 166.938 209.078 166.591 210.133 166.257C211.201 165.923 212.32 165.55 212.642 165.421C212.964 165.293 213.774 165.01 214.443 164.804C215.113 164.586 215.949 164.29 216.296 164.136C216.644 163.994 217.184 163.814 217.506 163.737C218.214 163.583 219.976 162.902 220.748 162.49C222.087 161.77 223.502 159.996 223.978 158.441C224.21 157.669 224.223 156.654 224.223 126.16V94.6886L223.927 93.9558C223.322 92.4517 222.035 90.9347 221.006 90.5104C220.761 90.4076 219.899 90.009 219.101 89.6234C218.291 89.2377 217.609 88.9292 217.583 88.9292C217.544 88.9292 217.184 88.7749 216.785 88.5949C216.386 88.4149 215.82 88.1707 215.537 88.0678C215.113 87.9007 212.912 86.9494 211.42 86.2937C211.214 86.2037 210.686 85.998 210.262 85.8309C209.837 85.6766 209.207 85.4324 208.846 85.2781C208.499 85.111 207.855 84.8539 207.444 84.6739C207.019 84.5068 205.861 83.9539 204.87 83.4654L203.056 82.5655L203.107 79.9172L203.146 77.2689L202.747 76.8061C202.49 76.5104 201.859 76.1119 200.997 75.7005C200.251 75.3405 199.62 75.0449 199.582 75.0449C199.479 75.0449 195.233 73.2836 194.306 72.8594C193.882 72.6665 193.251 72.4094 192.904 72.2937C192.286 72.088 191.733 71.8438 190.42 71.2395C190.06 71.0724 189.7 70.931 189.635 70.931C189.571 70.931 189.147 70.7639 188.696 70.5582C188.246 70.3525 187.088 69.8511 186.136 69.4526C185.183 69.0412 184.167 68.6169 183.884 68.4884C182.777 67.9999 182.378 67.9356 181.207 68.0899C180.59 68.167 179.844 68.3213 179.548 68.437C179.239 68.5398 178.505 68.7455 177.901 68.8869C175.507 69.4397 173.371 70.0182 172.715 70.2753C172.368 70.4168 171.802 70.3525 171.531 70.1597C171.467 70.1082 171.235 70.0311 171.017 69.9797C170.811 69.9282 170.116 69.6583 169.473 69.3883C168.842 69.1183 167.388 68.5141 166.256 68.0384C165.123 67.5628 163.914 67.0357 163.554 66.8686C163.206 66.7014 162.421 66.3672 161.817 66.1229C160.273 65.5058 154.096 62.729 153.736 62.4976L153.44 62.3047L153.466 59.0265L153.479 55.7483L153.131 55.2469C152.835 54.8226 152.488 54.5912 151.175 53.9613C150.288 53.5371 149.528 53.19 149.477 53.19C149.438 53.19 149.181 53.0742 148.924 52.9457C148.679 52.8043 147.778 52.4186 146.942 52.0972C144.472 51.133 143.944 50.9273 142.323 50.246C139.736 49.1918 137.832 48.3433 136.468 47.6619C135.76 47.3148 134.577 46.8263 133.843 46.5692C132.659 46.1707 132.376 46.1192 131.244 46.1321C130.549 46.1321 129.739 46.2092 129.456 46.3121ZM134.538 53.1385C135.992 53.7428 137.472 54.3855 137.845 54.5527C138.218 54.7198 139.582 55.2983 140.869 55.8125C144.87 57.4324 145.411 57.6766 145.527 57.8566C145.733 58.1652 145.514 58.448 144.999 58.538C144.729 58.5765 143.995 58.7822 143.352 58.9879C142.722 59.1936 141.062 59.6436 139.685 59.9907C138.308 60.3506 136.97 60.7106 136.726 60.8135C136.481 60.9163 135.928 61.0706 135.503 61.1606C135.079 61.2505 134.641 61.3663 134.525 61.4305C134.294 61.5462 131.849 62.2404 130.614 62.5233C130.189 62.6261 129.584 62.819 129.263 62.9475C128.941 63.0889 128.014 63.3203 127.191 63.4875L125.698 63.7703L124.682 63.3718C124.116 63.1532 122.79 62.5618 121.735 62.0605C120.667 61.5591 119.085 60.8135 118.197 60.4278C117.309 60.0421 115.585 59.2322 114.362 58.6408C113.14 58.0495 112.098 57.5609 112.033 57.5609C111.815 57.5609 111.48 57.0596 111.557 56.8153C111.622 56.6353 111.969 56.481 112.96 56.2239C113.68 56.0182 114.645 55.7611 115.109 55.6326C115.572 55.504 116.241 55.3369 116.588 55.2597C116.949 55.1826 118.184 54.9255 119.355 54.6684C122.443 53.9999 123.112 53.8585 124.823 53.4471C125.673 53.2542 127.088 52.92 127.976 52.7271C128.864 52.5343 129.906 52.3029 130.292 52.2129C131.566 51.9301 131.759 51.9686 134.538 53.1385ZM103.451 68.437C103.567 68.4755 103.721 68.7584 103.798 69.054C103.876 69.3369 104.172 69.8897 104.467 70.2753C104.982 70.9438 105.137 71.0338 108.225 72.5637C109.987 73.4379 111.879 74.3378 112.407 74.5563C112.934 74.7749 113.449 75.0063 113.526 75.0834C113.745 75.2377 117.811 77.2432 119.355 77.9374C120.024 78.246 121.452 78.9145 122.507 79.4287L124.437 80.3672L126.046 80.38C127.667 80.38 128.014 80.3286 130.292 79.673C130.755 79.5444 132.119 79.1587 133.316 78.8373C135.683 78.1945 136.906 77.8474 138.012 77.4875C138.398 77.3589 139.299 77.1018 140.007 76.909C141.589 76.4719 144.819 75.4691 145.63 75.1477C145.964 75.0191 146.312 74.9163 146.415 74.9163C146.517 74.9163 147.354 74.7106 148.255 74.4535C149.168 74.1964 150.095 73.9521 150.3 73.8878C151.626 73.5407 152.617 72.718 152.912 71.7152C153.028 71.3552 153.157 71.1881 153.389 71.1367C153.736 71.0467 154.933 71.4067 155.885 71.8823C156.206 72.0495 157.056 72.4351 157.763 72.7308C159.256 73.3607 159.655 73.6564 159.372 73.9393C159.269 74.0421 158.896 74.1835 158.535 74.2478C158.188 74.3249 157.429 74.5563 156.863 74.7877C156.297 75.0063 155.434 75.3277 154.933 75.5077C153.594 75.9962 153.003 76.3947 152.411 77.1661L151.883 77.8731L151.767 80.47C151.561 84.9953 151.381 87.9393 151.265 88.672C151.188 89.0577 151.098 90.2276 151.06 91.2689L150.97 93.1587L151.33 93.6858C151.742 94.2772 152.346 94.6757 153.582 95.1514C154.045 95.3185 155.203 95.7942 156.155 96.1927C157.107 96.5912 158.265 97.054 158.728 97.2083C159.192 97.3754 159.887 97.6583 160.273 97.8383C161.238 98.3011 164.248 99.5352 165.419 99.9723C165.947 100.165 166.745 100.512 167.182 100.731C167.62 100.962 168.057 101.142 168.147 101.142C168.25 101.142 168.752 101.348 169.28 101.605C169.807 101.849 170.862 102.312 171.634 102.633C172.972 103.173 173.075 103.199 174.375 103.199C175.43 103.199 175.868 103.148 176.331 102.942C176.665 102.813 177.296 102.608 177.746 102.492C178.197 102.376 178.943 102.158 179.419 101.991C179.895 101.824 180.924 101.476 181.696 101.232C183.292 100.705 186.341 99.6509 187.448 99.2267C187.86 99.0724 188.555 98.8282 188.992 98.6996C189.442 98.571 191.334 97.9282 193.213 97.2855C195.091 96.6298 197.15 95.9356 197.78 95.7299C200.135 94.9843 200.701 94.5343 201.589 92.6831C201.872 92.1045 202.181 91.6289 202.284 91.6289C202.618 91.6289 206.787 93.0173 207.688 93.4287C207.83 93.493 208.293 93.6858 208.718 93.8529C210.931 94.7529 212.217 95.3956 212.539 95.7428C213.478 96.7584 212.887 98.5068 211.458 98.9439C211.227 99.0081 209.94 99.4581 208.589 99.9209C207.251 100.397 205.539 100.975 204.793 101.219C204.047 101.476 202.953 101.862 202.348 102.106C201.744 102.338 200.238 102.852 199.003 103.263C197.768 103.662 196.288 104.163 195.722 104.356C195.156 104.549 193.071 105.243 191.089 105.886C189.108 106.529 187.023 107.236 186.457 107.442C185.891 107.634 184.875 107.982 184.206 108.2C182.507 108.753 179.638 109.73 177.193 110.591C176.061 110.99 174.697 111.453 174.169 111.62C173.268 111.89 172.278 112.224 169.28 113.278C168.61 113.522 167.478 113.882 166.77 114.101C166.063 114.319 164.763 114.731 163.875 115.014C162.988 115.296 162.061 115.579 161.817 115.644C161.572 115.721 160.273 116.158 158.921 116.633C157.583 117.096 155.846 117.688 155.061 117.932C154.289 118.189 153.183 118.549 152.617 118.755C152.05 118.96 150.841 119.385 149.914 119.706C149.001 120.015 147.148 120.657 145.797 121.133C144.459 121.609 142.722 122.2 141.937 122.444C141.165 122.689 140.238 122.997 139.878 123.139C139.248 123.37 136.404 124.296 134.538 124.861C134.011 125.028 132.389 125.568 130.935 126.083C129.481 126.584 127.603 127.214 126.753 127.497C124.424 128.255 122.173 129.039 121.71 129.245C121.491 129.348 121.246 129.425 121.156 129.425C121.066 129.425 120.822 129.515 120.603 129.618C120.371 129.721 119.728 129.939 119.162 130.119C118.596 130.286 117.039 130.801 115.688 131.263C114.349 131.726 112.69 132.253 112.02 132.433C111.351 132.626 110.657 132.883 110.476 133.012C110.296 133.14 109.897 133.372 109.589 133.539C108.508 134.079 107.363 135.519 106.977 136.804C106.848 137.216 106.809 143.104 106.809 164.907V192.483L106.539 192.984C106.024 193.974 104.776 194.617 103.747 194.424C103.013 194.283 102.229 193.614 101.791 192.74L101.405 191.969V164.586C101.405 138.373 101.392 137.177 101.161 136.56C101.032 136.2 100.787 135.673 100.62 135.39C100.221 134.683 98.9345 133.397 98.3684 133.14C98.1239 133.025 97.5835 132.768 97.1589 132.575C96.7343 132.382 94.1351 131.096 91.3686 129.734C88.615 128.384 85.9773 127.111 85.514 126.918C85.0508 126.725 84.0086 126.237 83.198 125.825C81.3322 124.9 76.9831 122.869 76.8673 122.869C76.7643 122.869 73.7792 121.454 72.2608 120.683C71.0513 120.079 63.6655 116.569 63.5883 116.569C63.5497 116.569 62.6876 116.158 61.6582 115.669C60.6417 115.168 59.7668 114.769 59.7153 114.769C59.6638 114.769 58.7245 114.332 57.6179 113.792C55.3404 112.674 51.0814 110.707 49.5759 110.064C49.0226 109.833 48.3793 109.537 48.1605 109.409C47.9289 109.267 46.7709 108.714 45.5614 108.161C43.0265 106.992 42.1644 106.593 39.012 105.076C37.751 104.472 36.683 103.97 36.6573 103.97C36.5801 103.97 36.0525 103.726 33.9165 102.723C32.9644 102.274 31.8321 101.746 31.4074 101.554C30.9828 101.374 30.0821 100.911 29.413 100.551C28.7439 100.178 27.4701 99.5738 26.5951 99.2138C25.7201 98.841 24.7422 98.3911 24.3948 98.1854C24.0603 97.9925 23.6485 97.7868 23.4812 97.7354C23.314 97.684 22.6835 97.3883 22.0916 97.0798C21.4868 96.7712 20.9335 96.5141 20.8563 96.5141C20.7791 96.5141 20.4446 96.347 20.1358 96.1284C18.463 95.0228 18.9391 92.6702 20.9207 92.2588C22.0916 92.0146 24.6393 91.3975 25.8102 91.0632C26.415 90.8961 27.1613 90.7033 27.4829 90.6261C29.5546 90.1376 29.9792 90.0605 30.5968 90.0348L31.2659 90.0219L31.356 90.6133C31.4846 91.4875 31.8835 92.156 32.5912 92.6573C33.3504 93.223 38.2142 95.6399 42.2159 97.4526C44.2746 98.3911 47.5687 99.9466 48.2635 100.332C48.6238 100.525 49.1127 100.782 49.3572 100.898C49.6017 101.027 50.1807 101.309 50.6439 101.541C51.3516 101.888 51.6604 101.965 52.6383 102.016C53.6162 102.055 53.9765 102.016 54.9544 101.734C55.5978 101.554 56.4599 101.322 56.8845 101.206C57.3091 101.091 57.9525 100.911 58.2999 100.821C58.6602 100.718 59.4966 100.487 60.1656 100.307C60.8347 100.114 61.8255 99.8309 62.3531 99.6638C64.9522 98.8282 66.2132 98.4425 66.4062 98.4425C66.5092 98.4425 67.2555 98.2368 68.0532 97.9925C70.3179 97.2726 70.987 97.0669 71.8105 96.8355C73.3288 96.4113 74.281 96.1156 76.3526 95.4728C78.1411 94.9071 78.5272 94.74 78.9132 94.3543C79.9168 93.3516 79.8525 94.0201 79.8525 85.4067C79.8525 77.7446 79.8525 77.7189 79.5694 77.2175C79.2348 76.6261 78.5014 76.0862 77.6779 75.8162C77.189 75.6619 77.086 75.572 77.086 75.302C77.086 75.0577 77.1761 74.9677 77.472 74.8906C78.9389 74.5435 80.6631 74.0935 81.2035 73.9393C81.5638 73.8364 82.4902 73.5922 83.2623 73.3865C85.038 72.9365 87.457 72.2809 88.7952 71.8952C90.6481 71.3552 91.8704 71.0338 92.4623 70.9053C93.5561 70.6867 96.9015 69.864 97.9309 69.5811C98.7673 69.3369 101.289 68.7069 102.434 68.4498C102.833 68.3598 103.232 68.347 103.451 68.437ZM58.3256 73.3607C58.8789 73.5664 59.741 73.9136 60.23 74.145C60.7318 74.3764 61.4266 74.672 61.774 74.8135C62.1343 74.9549 63.138 75.4048 64.0258 75.8162C66.9853 77.1789 70.3179 78.6573 70.9998 78.8888C72.0935 79.2744 72.1322 79.3001 72.1322 79.6215C72.1322 79.8915 72.0035 79.9558 70.8197 80.3158C68.0275 81.1385 67.6544 81.2542 66.4062 81.6656C65.0552 82.1027 64.206 82.3598 60.9377 83.3497C59.844 83.6711 58.2484 84.1596 57.3992 84.4296C54.5941 85.3167 54.028 85.4581 53.1788 85.4581C52.2266 85.4581 52.2394 85.4581 46.9768 82.8869C45.2783 82.0513 42.8207 80.8686 41.5082 80.2386C39.1149 79.1073 38.716 78.863 38.6774 78.5159C38.6002 77.9888 38.7031 77.7446 39.0377 77.5646C39.4108 77.3718 41.045 76.909 43.2453 76.3819C43.953 76.2147 44.9051 75.9576 45.3684 75.8162C45.8316 75.6877 46.3849 75.5334 46.5907 75.482C46.8095 75.4434 47.3499 75.302 47.8131 75.1734C48.2763 75.0449 49.3186 74.7877 50.1292 74.6078C50.9399 74.4149 52.278 74.0935 53.0887 73.9007C53.8993 73.695 55.0574 73.4379 55.6621 73.3093C56.2669 73.1936 56.8202 73.0651 56.8845 73.0522C57.1676 72.9622 57.3606 73.0008 58.3256 73.3607ZM182.932 74.4535C183.601 74.6978 184.9 75.2248 185.814 75.6234C186.74 76.0219 188.735 76.8575 190.253 77.4875C195.104 79.4544 195.027 79.4287 194.988 79.7887C194.95 80.0715 194.795 80.1743 193.985 80.4829C193.457 80.6757 192.441 81.0228 191.733 81.2285C191.025 81.4471 190.279 81.7042 190.06 81.7942C189.854 81.8842 187.731 82.6041 185.364 83.3883C182.996 84.1725 180.796 84.9053 180.474 85.021C178.737 85.6381 176.176 86.358 175.379 86.4351C174.568 86.5251 173.86 86.358 172.689 85.8309C172.406 85.7023 171.673 85.3938 171.068 85.1495C170.463 84.9053 169.601 84.5325 169.138 84.3268C168.688 84.1082 167.851 83.7483 167.285 83.5297C166.719 83.2983 166.191 83.054 166.114 82.9898C166.037 82.9383 165.664 82.7712 165.278 82.6427C164.892 82.5141 163.605 81.9356 162.421 81.3571C160.491 80.4315 160.26 80.2772 160.298 80.0201C160.324 79.7887 160.53 79.673 161.366 79.3773C161.932 79.1844 162.949 78.8888 163.618 78.7088C164.287 78.5416 165.098 78.3231 165.419 78.246C166.423 77.976 170.463 76.8318 171.338 76.5619C171.802 76.4204 172.548 76.189 173.011 76.0605C173.474 75.9319 174.426 75.6619 175.134 75.4434C176.408 75.0706 178.956 74.4149 180.088 74.1707C181.13 73.9521 181.684 74.0035 182.932 74.4535Z" fill="currentColor"/>
<path d="M111.957 88.4922C110.709 88.6207 108.534 89.2121 102.371 91.1148C101.483 91.3976 100.248 91.7704 99.6044 91.9504C97.9445 92.4389 93.6469 93.8016 93.0421 94.033C92.759 94.1359 92.2701 94.303 91.9484 94.393C91.6267 94.483 90.5073 94.8301 89.4393 95.1644C88.3842 95.4986 87.1747 95.8586 86.7758 95.9486C85.785 96.18 84.4854 96.7842 83.8292 97.3113C83.4946 97.5813 83.1858 97.9926 82.98 98.4426L82.6711 99.1497L82.684 107.107C82.6969 114.602 82.7097 115.078 82.9414 115.528C83.3274 116.274 83.9579 116.762 85.2575 117.341C85.9265 117.636 86.8015 118.022 87.1875 118.202C87.5735 118.382 88.2426 118.665 88.6673 118.819C89.658 119.205 92.9649 120.67 93.2995 120.889C93.441 120.979 93.7884 121.146 94.0715 121.236C94.3546 121.339 95.2553 121.725 96.0659 122.097C96.8765 122.47 97.9703 122.946 98.4849 123.151C99.0125 123.357 99.9389 123.769 100.544 124.051C103.349 125.35 104.404 125.813 104.88 125.941C105.806 126.198 106.964 126.108 108.418 125.684C109.165 125.466 110.246 125.157 110.825 124.99C111.404 124.823 112.677 124.424 113.655 124.103C114.633 123.781 116.306 123.254 117.361 122.92C118.429 122.599 120.655 121.866 122.315 121.3C123.975 120.735 125.545 120.22 125.789 120.143C126.034 120.079 126.497 119.912 126.819 119.783C127.14 119.655 128.182 119.308 129.135 119.012C132.943 117.829 133.793 117.495 134.32 116.981C134.59 116.724 134.963 116.222 135.131 115.888L135.452 115.258L135.414 110.039C135.388 107.159 135.375 103.508 135.375 101.914C135.375 98.6611 135.362 98.5969 134.436 98.0055C134.179 97.8255 132.081 96.8742 129.778 95.8971C127.475 94.9072 125.313 93.9559 124.953 93.7759C123.962 93.2746 122.058 92.4004 121.414 92.1432C121.093 92.0147 120.282 91.6419 119.613 91.3076C116.949 89.9963 113.501 88.5308 112.999 88.4922C112.703 88.4665 112.24 88.4665 111.957 88.4922ZM113.179 94.9715C113.591 95.1772 114.505 95.5757 115.199 95.8586C116.589 96.4114 118.107 97.1056 120.063 98.0826C121.286 98.6869 124.708 100.242 124.837 100.242C125.081 100.242 128.388 101.952 128.44 102.107C128.543 102.351 128.144 102.814 127.848 102.814C127.719 102.814 127.307 102.955 126.934 103.109C126.548 103.276 125.802 103.546 125.274 103.713C124.747 103.868 124.104 104.073 123.859 104.176C123.615 104.266 123.267 104.382 123.087 104.421C122.804 104.498 121.787 104.806 118.584 105.783C118.12 105.925 117.464 106.143 117.104 106.272C116.756 106.4 115.508 106.812 114.337 107.185C111.005 108.252 110.297 108.483 110.053 108.624C109.911 108.689 109.216 108.894 108.508 109.074C106.926 109.46 106.282 109.421 104.944 108.856C104.417 108.637 103.812 108.393 103.593 108.329C103.387 108.264 102.86 108.046 102.435 107.84C102.011 107.635 100.853 107.107 99.8617 106.67C98.871 106.233 97.7772 105.745 97.417 105.578C97.0695 105.41 96.3876 105.128 95.8986 104.935C95.4225 104.742 94.9979 104.536 94.9593 104.472C94.9207 104.408 94.8049 104.356 94.6891 104.356C94.5733 104.356 94.3803 104.279 94.2774 104.189C94.1616 104.086 93.7498 103.881 93.3638 103.726C92.1157 103.199 90.3014 102.286 90.147 102.094C90.0569 101.991 90.0312 101.772 90.0698 101.579C90.1599 101.232 90.9834 100.782 92.0899 100.5C92.6175 100.371 93.9557 99.9596 97.417 98.8925C98.2019 98.6483 99.3599 98.3012 99.9904 98.1212C100.634 97.9412 101.702 97.6198 102.371 97.4141C105.729 96.3599 108.148 95.6143 108.676 95.4858C108.997 95.4086 109.486 95.2543 109.769 95.1515C110.554 94.8815 111.661 94.5987 112.06 94.5987C112.253 94.5858 112.755 94.753 113.179 94.9715Z" fill="currentColor"/>
</svg>
