<svg width="64" height="64" viewBox="0 0 64 64" fill="none" xmlns="http://www.w3.org/2000/svg">
<path fill-rule="evenodd" clip-rule="evenodd" d="M31.6195 2.2373C30.9812 2.47462 30.6058 2.80614 30.2835 3.41708C30.1279 3.71193 30.111 3.80972 30.111 4.41593C30.111 4.99929 30.1311 5.12594 30.2628 5.37593C30.5289 5.88121 30.8099 6.16479 31.3344 6.45753C32.7849 7.26706 33.3963 7.7445 33.8432 8.41676C34.0741 8.76409 34.0738 8.72818 33.8546 9.53593C33.714 10.0537 33.4374 11.863 33.3676 12.7199L33.3246 13.2479H31.6729C29.9817 13.2479 29.5382 13.293 29.1126 13.5082C28.7736 13.6797 28.3213 14.1464 28.1155 14.5371C27.9508 14.8501 27.935 14.9384 27.935 15.5519C27.935 16.1654 27.9508 16.2538 28.1155 16.5667C28.333 16.9798 28.7637 17.4124 29.1373 17.5933C29.5881 17.8115 30.0181 17.8559 31.6809 17.8559C33.4247 17.8559 33.343 17.836 33.343 18.2612C33.3431 18.9581 33.7367 20.665 34.1225 21.6414L34.3211 22.144L34.0887 22.4939C33.6069 23.2197 32.8739 23.8076 31.6126 24.4799C30.924 24.847 30.5474 25.1873 30.2909 25.6743C30.1268 25.9859 30.111 26.0749 30.111 26.6879C30.111 27.332 30.1202 27.3768 30.3305 27.7648C30.586 28.2359 30.9289 28.5572 31.423 28.7882C31.717 28.9256 31.8699 28.9531 32.351 28.9554C32.8877 28.9579 32.9599 28.942 33.407 28.7227C34.6287 28.1238 36.0969 27.1206 36.7933 26.409L37.1396 26.0551L37.5293 26.3962C38.4429 27.1959 39.9746 28.0712 41.1124 28.4438C43.1002 29.0948 46.0564 29.1631 48.0908 28.605C49.5356 28.2086 50.883 27.4979 52.1338 26.4724L52.6225 26.0718L53.0857 26.5238C53.8362 27.2562 55.134 28.1292 56.3185 28.6983C56.8244 28.9414 56.9017 28.9599 57.4084 28.9599C57.8943 28.9599 57.9997 28.9373 58.3762 28.7519C58.878 28.5049 59.2715 28.1025 59.5074 27.5951C59.749 27.0755 59.7497 26.3018 59.509 25.7842C59.2462 25.2191 58.9462 24.9413 58.0547 24.4376C56.7113 23.6787 56.0843 23.1617 55.6208 22.4306C55.4325 22.1338 55.4305 22.1222 55.5294 21.8955C55.9272 20.9845 56.3034 19.4602 56.4187 18.293L56.4608 17.8661L58.2955 17.845L60.1302 17.8239L60.5524 17.6159C61.054 17.3689 61.4475 16.9663 61.6834 16.4591C61.8244 16.1559 61.8521 16.0061 61.8517 15.5519C61.8512 15.0907 61.8233 14.9473 61.6688 14.609C61.4484 14.1266 61.0075 13.6926 60.493 13.4514L60.127 13.2799L58.2902 13.2588L56.4534 13.2377L56.42 12.9708C56.4016 12.8241 56.3422 12.3295 56.2879 11.8719C56.1541 10.7459 56.0189 9.96556 55.844 9.3109L55.6978 8.76332L55.8864 8.46162C56.3013 7.79801 56.9234 7.29298 58.2145 6.5719C59.2845 5.97433 59.6751 5.39833 59.6776 4.41458C59.6789 3.92575 59.6572 3.82489 59.4684 3.44134C59.038 2.56716 58.1652 2.05407 57.2352 2.12876C56.8948 2.15609 56.6836 2.22636 56.1651 2.48505C55.1417 2.99558 54.1373 3.67506 53.2815 4.43583L52.9639 4.71807L52.5775 4.3959C50.6983 2.82911 48.3568 2.14745 44.863 2.14994C42.962 2.15129 41.3584 2.35833 40.127 2.76146C39.1301 3.0878 37.8984 3.7767 37.1123 4.44774L36.7814 4.73017L36.3262 4.31161C35.7631 3.79366 34.4853 2.93606 33.621 2.49574C33.0378 2.19871 32.9192 2.16172 32.469 2.13638C32.0722 2.11398 31.8942 2.13516 31.6195 2.2373ZM23.007 4.39225C17.7688 4.65874 13.7221 4.93926 12.415 5.12658C7.98597 5.76134 4.36421 9.03718 3.26072 13.4065C2.92689 14.7283 2.46827 18.8598 2.26513 22.3755C2.13016 24.7119 2.13041 29.4692 2.26565 31.8306C2.43589 34.8027 2.8467 38.7654 3.13816 40.2474C4.04926 44.88 7.87691 48.4753 12.543 49.0813C13.356 49.1869 16.8859 49.4536 19.4191 49.6008C20.649 49.6723 21.6659 49.7415 21.679 49.7546C21.6921 49.7677 21.4221 51.364 21.0789 53.3021L20.455 56.8257L20.131 56.8575C19.9528 56.875 18.799 56.9782 17.567 57.0868C16.335 57.1953 15.14 57.327 14.9114 57.3794C14.1574 57.5521 13.5437 58.0971 13.2811 58.8275C13.1221 59.2697 13.1644 60.1408 13.365 60.5553C13.6987 61.2447 14.4258 61.7816 15.1356 61.8628C15.3113 61.8829 16.3766 61.8109 17.503 61.7026C26.4924 60.8392 35.488 60.8396 44.415 61.7038C45.5238 61.8112 46.57 61.8832 46.7399 61.8639C47.4703 61.7809 48.1782 61.2617 48.527 60.5531C48.7125 60.1764 48.735 60.0714 48.735 59.5839C48.735 59.0954 48.7127 58.9919 48.525 58.6107C48.2661 58.0847 47.8121 57.6589 47.3097 57.471C46.957 57.339 44.7115 57.0847 42.28 56.9013C41.8274 56.8671 41.449 56.8304 41.4392 56.8196C41.4025 56.779 40.1794 49.7822 40.2047 49.757C40.2192 49.7425 41.2372 49.6719 42.4671 49.6001C44.9188 49.4571 48.4059 49.1932 49.311 49.0823C51.9 48.765 54.34 47.4813 56.0861 45.5176C57.4315 44.0045 58.3746 42.116 58.7456 40.1919C59.0126 38.8079 59.3548 35.7915 59.3117 35.2041C59.2556 34.4418 58.8184 33.7925 58.0996 33.4039C57.7163 33.1967 57.6613 33.1852 57.055 33.1846C56.4829 33.184 56.3804 33.2022 56.0882 33.3564C55.4636 33.6859 55.0727 34.1305 54.8861 34.7238C54.8314 34.8977 54.7412 35.4575 54.6857 35.9679C54.4972 37.7004 54.2729 39.2648 54.1394 39.7772C53.6255 41.75 52.0705 43.4687 50.1433 44.1942C49.4665 44.4489 48.856 44.5357 46.3604 44.7318C40.9679 45.1556 36.6145 45.3222 30.943 45.3221C26.7624 45.322 23.8023 45.2473 20.287 45.0531C17.2742 44.8866 13.1403 44.5603 12.607 44.4468C11.322 44.1734 10.2761 43.5693 9.29061 42.5315C8.13169 41.3111 7.73969 40.3315 7.41963 37.8561C6.4972 30.7214 6.48798 23.7186 7.39166 16.6079C7.67768 14.3575 7.83243 13.7752 8.39928 12.8162C9.29406 11.3026 10.7545 10.2005 12.4096 9.78981C13.2638 9.57791 19.159 9.1383 23.135 8.99001C24.4556 8.94073 24.8768 8.88198 25.2518 8.69471C25.631 8.50534 26.0785 8.05682 26.2908 7.65343C26.4449 7.3607 26.4622 7.26034 26.4626 6.65593C26.463 6.06662 26.4433 5.94457 26.303 5.66393C26.0837 5.22521 25.6061 4.76134 25.1664 4.56012C24.8528 4.4165 24.7023 4.39058 24.1273 4.38086C23.7575 4.37458 23.2534 4.3797 23.007 4.39225ZM43.327 6.79174C41.704 6.97836 40.8759 7.28799 39.9491 8.0549C39.2511 8.63257 38.5307 9.77068 38.3049 10.6526C38.1842 11.1239 37.9747 12.6401 37.8888 13.6639C37.7354 15.4913 37.8517 18.1067 38.135 19.205C38.6227 21.095 40.0887 22.9183 41.823 23.7918C42.7401 24.2537 43.7611 24.4218 45.3024 24.3644C46.3911 24.3239 46.872 24.2333 47.621 23.9274C49.2733 23.2525 50.9605 21.3614 51.5104 19.5678C52.0403 17.8397 52.0898 14.9217 51.6433 11.7346C51.4247 10.1742 51.0648 9.36108 50.1784 8.42444C49.2221 7.41401 48.2381 6.99641 46.3215 6.78764C45.6029 6.70937 44.0247 6.71148 43.327 6.79174ZM25.7497 53.2372C25.4277 55.0559 25.1685 56.5485 25.1737 56.5542C25.1788 56.5599 25.8454 56.5396 26.655 56.5092C28.5495 56.438 33.3366 56.438 35.231 56.5092C36.0406 56.5396 36.7067 56.5599 36.7111 56.5542C36.7156 56.5485 36.4553 55.0607 36.1327 53.2479L35.5461 49.9519L30.9405 49.9412L26.335 49.9306L25.7497 53.2372Z" fill="#CAD5E2"/>
</svg>
