<svg width="231" height="231" viewBox="0 0 231 231" fill="none" xmlns="http://www.w3.org/2000/svg">
<g clip-path="url(#clip0_8377_6614)">
<path d="M51.0538 39.1573C51.0494 39.1947 50.3157 39.856 49.4272 40.6221C46.9418 42.7615 45.6556 44.0776 43.1172 47.1409C41.9425 48.5559 38.4426 53.715 37.4292 55.5292C35.7739 58.5094 34.0764 62.0826 33.2931 64.2758C32.014 67.8426 31.1177 70.905 30.5705 73.5064C30.1142 75.6632 29.3791 81.7545 29.2891 84.1833C29.2353 85.1926 29.1986 86.1375 29.1995 86.2895C29.1647 86.7409 29.3676 91.3317 29.4531 92.3673C29.7274 95.5616 31.0866 102.637 31.742 104.225C31.8215 104.434 32.2919 105.744 32.7803 107.142C33.2605 108.529 33.7616 109.9 33.8906 110.171C34.6351 111.809 35.3243 113.354 35.4548 113.693C35.5343 113.901 35.7824 114.368 35.9982 114.708C36.2141 115.047 36.6226 115.761 36.9015 116.288C38.0154 118.331 39.1995 120.183 41.6506 123.668C42.4471 124.79 45.5598 128.299 47.1067 129.815C48.9696 131.625 50.0152 132.568 51.0121 133.362C51.612 133.824 52.5055 134.53 53.008 134.933C53.5105 135.335 54.2078 135.856 54.5598 136.088C54.9117 136.321 55.7295 136.866 56.3713 137.294C59.0335 139.088 63.849 141.767 65.136 142.198C65.3456 142.271 65.9536 142.506 66.4949 142.742C67.5154 143.179 68.5695 143.572 71.073 144.387C72.9372 144.992 73.6514 145.211 76.4572 145.958C77.1572 146.138 78.1124 146.405 78.59 146.539C79.0594 146.662 79.5849 146.792 79.7616 146.823C79.93 146.843 80.5783 146.978 81.2056 147.13C82.8593 147.51 84.6522 147.917 85.153 148.015C85.3835 148.071 86.3267 148.28 87.243 148.477C88.1675 148.683 89.2957 148.933 89.7673 149.038C90.2493 149.134 90.9119 149.309 91.2398 149.425C91.5782 149.532 92.2946 149.732 92.8389 149.865C94.2492 150.215 97.7222 151.337 98.34 151.649C98.626 151.798 99.2751 152.085 99.7813 152.298C101.291 152.927 104.087 154.48 105.417 155.419C106.599 156.255 107.589 157.105 109.335 158.788C109.76 159.2 110.215 159.606 110.337 159.697C110.459 159.787 112.16 161.844 114.13 164.265L117.696 168.674L118.443 168.935C119.427 169.282 120.057 169.329 120.991 169.138C121.779 168.977 124.255 168.185 125.42 167.728C126.765 167.197 130.892 165.379 131.46 165.068C131.787 164.88 132.727 164.395 133.565 163.974C135.304 163.083 137.658 161.725 138.286 161.232C138.516 161.051 139.226 160.595 139.867 160.227C142.822 158.533 148.616 154.031 151.687 151.041C152.19 150.561 153.123 149.658 153.763 149.071C154.394 148.473 154.933 147.931 154.969 147.869C154.986 147.804 155.415 147.315 155.914 146.787C157.87 144.707 160.733 141.151 161.896 139.355C162.071 139.082 162.284 138.813 162.378 138.739C162.514 138.632 162.82 138.137 163.359 137.12C163.433 136.977 163.673 136.551 163.88 136.167C164.446 135.163 164.88 133.991 164.976 133.186C165.144 131.849 165.233 131.983 161.317 126.849C159.379 124.317 157.769 122.139 157.734 122.03C157.71 121.913 157.388 121.352 157.036 120.797C156.687 120.223 156.233 119.409 156.031 118.957C155.829 118.506 155.462 117.759 155.232 117.294C154.995 116.82 154.732 116.161 154.641 115.808C154.539 115.464 154.351 114.815 154.205 114.37C153.354 111.713 152.59 106.732 152.477 103.139C152.458 102.577 152.426 101.738 152.385 101.277C152.354 100.827 152.343 100.038 152.366 99.5281C152.397 99.0287 152.422 97.7027 152.431 96.5931C152.448 95.4939 152.496 93.6581 152.536 92.5237C152.585 91.3999 152.6 89.9968 152.573 89.4239C152.557 88.8429 152.559 87.5521 152.592 86.5593C152.616 85.556 152.605 84.3774 152.571 83.9461C152.529 83.5043 152.473 82.6148 152.453 81.9858C152.425 81.3464 152.368 80.6275 152.331 80.3856C152.285 80.1333 152.26 79.6271 152.267 79.2482C152.273 78.2427 152.143 77.2587 151.492 73.3258C151.271 71.9891 150.426 68.6498 149.948 67.244C149.756 66.6988 149.383 65.5334 149.125 64.6669C148.857 63.8086 148.564 63.0043 148.473 62.8889C148.383 62.7735 148.263 62.4267 148.205 62.116C148.155 61.8157 147.994 61.4165 147.854 61.2382C147.714 61.0599 147.574 60.7962 147.555 60.6419C147.447 60.0309 145.76 56.7418 144.204 54.114C143.002 52.0892 142.955 52.0075 141.521 49.9451C139.73 47.365 135.677 42.7458 133.415 40.7067C131.571 39.0505 130.639 38.2733 128.463 36.539C126.771 35.2049 123.786 33.2588 122.326 32.5224C121.798 32.2592 121.333 32.0132 121.309 31.9818C121.152 31.7825 119.079 30.782 115.161 29.0082C113.919 28.4404 112.328 27.8589 110.478 27.2936C109.782 27.0767 108.867 26.7952 108.464 26.6706C108.053 26.5355 107.363 26.3477 106.948 26.2501C106.514 26.1501 105.388 25.8812 104.439 25.6431C102.326 25.1316 99.135 24.6701 96.6305 24.5004C95.5946 24.4322 94.4359 24.3586 94.0325 24.3194C93.6373 24.2906 92.7863 24.2638 92.1306 24.27C91.4937 24.2785 90.7924 24.2697 90.603 24.2658C89.9975 24.2496 86.2622 24.4533 85.433 24.562C80.3665 25.184 78.3781 25.5418 75.5579 26.3497C74.9009 26.5267 74.0583 26.7476 73.6662 26.8521C72.8364 27.0462 68.4495 28.5762 67.3781 29.0448C65.3587 29.902 64.7654 30.1816 64.5665 30.3379C64.4408 30.4367 63.8954 30.7125 63.3545 30.9509C62.1828 31.4644 60.2573 32.5703 58.6086 33.6622C57.96 34.0869 56.8073 34.84 56.0436 35.3553C54.7046 36.2378 51.0821 38.9993 51.0538 39.1573ZM81.9328 108.201C82.8823 107.879 84.581 107.562 85.4095 107.539C85.6864 107.525 86.8217 107.396 87.9428 107.228C89.8369 106.944 91.3155 106.563 92.7415 105.985C93.061 105.853 93.4763 105.713 93.6596 105.688C93.8348 105.652 94.2462 105.464 94.5746 105.257C94.8926 105.058 95.2083 104.878 95.2853 104.868C95.4582 104.851 96.7578 104.22 97.8343 103.629C100.432 102.215 103.374 100.074 105.109 98.3372C107.188 96.2626 107.833 95.4672 110.306 91.9118C111.049 90.8529 112.249 88.4347 112.517 87.4607C112.647 87.0019 112.769 86.6179 112.8 86.5932C112.832 86.5685 112.991 86.1036 113.162 85.5452C113.944 83.048 114.585 82.0527 115.991 81.0834C116.765 80.5599 117.074 80.4358 117.977 80.2696C119.49 79.9967 120.926 80.2082 122.136 80.8861C123.017 81.3817 123.18 81.5248 124.062 82.6471C124.995 83.8137 125.866 85.2669 126.504 86.7679C126.653 87.1087 126.935 87.7693 127.127 88.2292C127.432 88.94 128.32 91.601 128.54 92.463C128.623 92.8052 129.236 95.4615 129.355 95.979C129.538 96.8364 129.882 99.2799 129.947 100.095C129.984 100.574 130.063 101.105 130.129 101.275C130.186 101.434 130.236 101.886 130.246 102.286C130.259 102.971 130.449 104.484 130.709 106.044C130.783 106.461 130.861 107.078 130.888 107.414C130.906 107.739 131.009 108.387 131.118 108.827C131.216 109.276 131.319 109.924 131.344 110.279C131.433 111.599 132.416 115.136 133.327 117.372C133.525 117.861 133.839 118.649 134.01 119.126C134.32 119.951 134.658 120.618 136.04 123.045C137.402 125.469 138.788 127.383 144 134.06C149.732 141.397 149.563 141.14 149.116 141.864C149.019 142.042 147.942 142.956 146.728 143.911L144.518 145.647L143.857 145.539L143.194 145.449L137.428 138.003C132.145 131.194 131.565 130.412 130.563 128.705C129.952 127.692 129.369 126.691 129.269 126.499C129.16 126.296 128.914 125.81 128.695 125.423C127.677 123.525 126.61 121.089 126.465 120.321C126.433 120.109 126.331 119.85 126.257 119.755C126.174 119.65 126.056 119.37 125.991 119.116C125.868 118.636 125.71 118.132 125.257 116.758C125.121 116.305 124.748 114.731 124.442 113.242C123.963 110.887 123.786 109.821 123.5 107.518C123.467 107.239 123.387 106.555 123.313 105.986C123.246 105.427 123.169 104.639 123.141 104.237C123.041 102.687 122.722 100.665 122.161 97.9672C121.932 96.9428 121.721 95.9206 121.69 95.7079C121.546 94.9216 120.542 91.9618 120.221 91.382C120.043 91.0472 119.803 90.591 119.697 90.3693C119.451 89.8839 119.267 89.9946 119.053 90.7566C118.969 91.0598 118.861 91.3315 118.808 91.3727C118.756 91.4138 118.576 91.8097 118.4 92.2536C118.223 92.6975 117.895 93.3793 117.68 93.752C117.473 94.1352 117.233 94.5618 117.167 94.7153C116.82 95.3949 115.135 97.9917 114.925 98.1562C114.789 98.2632 114.598 98.5154 114.506 98.7227C114.295 99.1433 112.331 101.45 111.044 102.766C109.813 104.022 103.677 108.844 102.353 109.595C100.185 110.824 99.0525 111.409 98.0335 111.836C97.4447 112.078 96.9037 112.317 96.8304 112.374C96.7153 112.465 94.1196 113.3 93.1872 113.557C92.403 113.766 89.6387 114.344 88.9929 114.427C87.9511 114.567 87.8315 114.695 88.3191 115.143C88.9431 115.722 91.857 117.792 92.5721 118.163C94.313 119.086 95.773 119.737 96.9312 120.133C97.2322 120.236 97.8049 120.447 98.1868 120.588C98.5686 120.729 99.4341 121.033 100.09 121.264C102.049 121.947 105.266 123.152 106.014 123.48C106.402 123.65 106.997 123.912 107.342 124.049C108.34 124.435 111.893 126.156 112.567 126.56C112.894 126.761 113.321 127.002 113.509 127.091C113.698 127.18 113.917 127.33 114 127.435C114.082 127.54 114.283 127.688 114.455 127.756C114.617 127.833 114.925 128.031 115.124 128.198C115.333 128.356 115.972 128.803 116.562 129.188C118.045 130.126 120.565 132.235 122.527 134.171C124.598 136.225 129.934 142.67 133.643 147.627L136.27 151.144L136.164 151.72L136.068 152.287L134.047 153.875C132.947 154.739 131.827 155.534 131.577 155.646C131.337 155.75 130.885 155.8 130.596 155.755L130.045 155.679L128.775 153.912C123.966 147.274 119.53 141.802 117.233 139.654C116.729 139.185 116.204 138.647 116.064 138.469C115.924 138.291 115.488 137.887 115.099 137.564C114.719 137.253 113.95 136.619 113.406 136.164C112.428 135.371 109.54 133.399 109.042 133.197C108.908 133.133 108.456 132.86 108.034 132.581C106.891 131.817 104.159 130.452 102.81 129.985C101.861 129.662 101.761 129.621 101.255 129.408C100.994 129.291 100.481 129.134 100.111 129.051C99.752 128.961 98.5939 128.564 97.5584 128.173C96.5147 127.772 95.3962 127.362 95.0578 127.254C93.8143 126.857 89.7194 124.9 87.5419 123.66C86.537 123.092 84.8019 121.961 84.67 121.794C84.6041 121.71 84.3659 121.558 84.1525 121.437C83.6965 121.201 83.161 120.757 81.6135 119.326C80.3222 118.136 78.8663 116.175 78.6688 115.363C78.2212 113.543 78.1573 112.406 78.49 111.924C78.5827 111.783 78.7119 111.495 78.7679 111.265C78.9477 110.631 79.7432 109.531 80.4343 108.988C80.8239 108.665 81.3506 108.387 81.9328 108.201Z" fill="white"/>
<path d="M125.984 175.903C125.355 177.279 125.615 178.364 127.02 180.347C127.743 181.374 127.962 181.61 128.543 181.984C130.08 182.948 131.828 183.017 134.165 182.198C134.937 181.93 135.766 181.67 136.02 181.606C136.264 181.55 136.513 181.456 136.586 181.399C136.649 181.349 137.248 181.099 137.903 180.855C139.415 180.278 140.167 179.942 141.045 179.422C141.423 179.192 142.519 178.603 143.472 178.092C145.875 176.797 147.64 175.766 148.321 175.231C148.654 174.987 149.158 174.658 149.461 174.505C150.006 174.229 153.658 171.699 155.815 170.09C157.085 169.142 161.905 165.016 163.658 163.367C165.763 161.39 168.924 158.041 170.316 156.32C171.44 154.928 171.518 154.833 171.741 154.471C172.125 153.881 172.733 152.996 173.289 152.237C176.117 148.335 176.282 146.153 173.96 143.176C173.193 142.2 173.134 142.146 172.072 141.657C171.029 141.17 170.946 141.15 170.06 141.338C168.93 141.581 168.506 141.947 167.577 143.458C166.124 145.856 165.532 146.676 163.693 148.97C161.688 151.462 161.493 151.666 158.998 154.203C155.876 157.386 154.645 158.471 150.585 161.645C146.568 164.767 145.679 165.381 141.764 167.728C141.039 168.162 139.874 168.857 139.177 169.285C138.483 169.695 137.733 170.098 137.526 170.158C137.309 170.227 136.954 170.421 136.723 170.602C136.493 170.784 136.079 170.99 135.804 171.07C135.539 171.143 135.188 171.3 135.052 171.407C134.644 171.728 131.884 172.828 129.083 173.79C127.094 174.47 126.433 174.922 125.984 175.903Z" fill="white"/>
<path d="M137.112 189.569C136.756 190.324 136.713 191.088 136.962 192.266C137.098 192.871 137.232 193.106 138.18 194.312C139.177 195.581 139.305 195.701 140.012 196.062C141.069 196.588 142.627 196.738 143.897 196.436C145.304 196.094 148.39 194.891 150.715 193.776C151.227 193.544 151.973 193.178 152.384 192.99C153.74 192.366 154.996 191.702 156 191.082C156.554 190.732 157.619 190.082 158.376 189.623C162.968 186.845 163.29 186.609 167.636 183.195C171.555 180.099 173.036 178.816 174.992 176.821C177.638 174.131 179.461 172.206 179.935 171.58C180.116 171.336 180.504 170.861 180.784 170.505C181.782 169.297 183.668 166.848 184.468 165.71C185.072 164.862 185.799 163.46 186.038 162.729C186.784 160.294 185.89 157.604 183.857 156.181C182.605 155.299 181.651 155.098 180.414 155.443C179.434 155.704 179.294 155.848 177.156 159.055C175.492 161.55 173.524 163.809 170.019 167.259C169.31 167.951 168.68 168.616 168.621 168.713C168.57 168.821 167.771 169.55 166.86 170.351C165.94 171.142 164.391 172.512 163.404 173.389C160.888 175.62 155.389 179.636 153.881 180.346C153.57 180.489 152.647 181.061 151.831 181.617C149.527 183.19 147.077 184.555 144.418 185.762C144.099 185.895 143.405 186.219 142.854 186.466C142.302 186.712 141.584 187.005 141.256 187.127C140.92 187.239 140.44 187.446 140.169 187.575C139.905 187.714 139.467 187.889 139.194 187.951C138.929 188.023 138.417 188.256 138.07 188.46C137.526 188.803 137.396 188.939 137.112 189.569Z" fill="white"/>
<path d="M155.964 199.745C156.038 200.4 156.745 201.083 158.102 201.798C158.788 202.175 159.661 202.575 160.027 202.695C160.392 202.815 160.927 203.022 161.215 203.152C161.504 203.282 162.067 203.416 162.478 203.466C162.882 203.505 163.649 203.598 164.163 203.669C166.027 203.951 169.582 203.669 171.195 203.114C171.481 203.025 172.011 202.88 172.363 202.79C173.431 202.511 175.317 201.656 177.214 200.556C178.713 199.684 179.261 199.304 180.5 198.229C181.325 197.512 182.074 196.805 182.169 196.646C182.264 196.486 182.659 196.041 183.039 195.64C185.433 193.148 188.075 187.306 187.926 184.81C187.921 184.611 187.946 184.082 187.989 183.641C188.105 182.43 187.876 180.608 187.34 178.417C187.078 177.351 186.49 176.387 186.031 176.256C185.782 176.197 185.658 176.277 184.939 176.978C184.488 177.418 183.892 178.039 183.617 178.357C182.43 179.713 182.014 180.176 180.864 181.385C180.203 182.074 179.32 182.954 178.924 183.334C178.519 183.702 177.896 184.311 177.529 184.684C174.887 187.422 169.012 191.885 164.493 194.605C161.845 196.193 161.306 196.498 158.44 198.003C156.233 199.161 155.913 199.378 155.964 199.745Z" fill="white"/>
</g>
<defs>
<clipPath id="clip0_8377_6614">
<rect width="231" height="231" fill="white"/>
</clipPath>
</defs>
</svg>
