<svg width="64" height="64" viewBox="0 0 64 64" fill="none" xmlns="http://www.w3.org/2000/svg">
<path d="M6.20257 47.0763C6.90701 53.1266 12.0153 57.9301 18.3321 58.223C22.6982 58.4255 27.1583 58.5308 31.9989 58.5308C36.8396 58.5308 41.2997 58.4255 45.6658 58.223C51.9826 57.9301 57.091 53.1266 57.7952 47.0763C58.7736 38.6734 58.7736 31.5175 57.7952 23.1144C57.091 17.0643 51.9826 12.2607 45.6658 11.9678C41.2997 11.7654 36.8396 11.6602 31.9989 11.6602C27.1583 11.6602 22.6982 11.7654 18.3321 11.9678C12.0153 12.2607 6.90701 17.0643 6.20257 23.1144C5.22414 31.5175 5.22415 38.6734 6.20257 47.0763Z" stroke="currentColor" stroke-width="4" stroke-linecap="round" stroke-linejoin="round"/>
<path d="M20.3359 5.46948V17.143" stroke="currentColor" stroke-width="4" stroke-linecap="round" stroke-linejoin="round"/>
<path d="M43.6641 5.46948V17.143" stroke="currentColor" stroke-width="4" stroke-linecap="round" stroke-linejoin="round"/>
<path d="M44.7342 50.1849L39.6953 45.1458" stroke="currentColor" stroke-width="2" stroke-linecap="round" stroke-linejoin="round"/>
<path d="M30.9391 48.0623C38.4101 48.0623 42.6126 43.8601 42.6126 36.389C42.6126 28.918 38.4101 24.7156 30.9391 24.7156C23.4681 24.7156 19.2656 28.918 19.2656 36.389C19.2656 43.8601 23.4681 48.0623 30.9391 48.0623Z" stroke="currentColor" stroke-width="4" stroke-linecap="round" stroke-linejoin="round"/>
</svg>
