<svg width="20" height="20" viewBox="0 0 20 20" fill="none" xmlns="http://www.w3.org/2000/svg">
<path d="M1.93855 14.6773C2.1587 16.5867 3.75506 18.1027 5.72909 18.1951C7.09351 18.2591 8.48732 18.2922 10 18.2922C11.5128 18.2922 12.9066 18.2591 14.2709 18.1951C16.2451 18.1027 17.8414 16.5867 18.0615 14.6773C18.3673 12.0253 18.3673 9.76692 18.0615 7.11493C17.8414 5.20553 16.2451 3.68952 14.2709 3.59709C12.9066 3.5332 11.5128 3.5 10 3.5C8.48732 3.5 7.09352 3.5332 5.72909 3.59709C3.75506 3.68952 2.1587 5.20553 1.93855 7.11493C1.63279 9.76692 1.63279 12.0253 1.93855 14.6773Z" stroke="#2B7FFF" stroke-width="1.2" stroke-linecap="round" stroke-linejoin="round"/>
<path d="M18.1542 8.01153H1.84521C1.87221 7.71703 1.90321 7.41856 1.93821 7.11493C2.15836 5.20553 3.75473 3.68952 5.72875 3.59709C7.09318 3.5332 8.48698 3.5 9.99971 3.5C11.5124 3.5 12.9062 3.5332 14.2706 3.59709C16.2447 3.68952 17.841 5.20553 18.0612 7.11493C18.0962 7.41856 18.1273 7.71703 18.1542 8.01153Z" stroke="#2B7FFF" stroke-width="1.2" stroke-linecap="round" stroke-linejoin="round"/>
<path d="M6.35461 1.71094V5.3589" stroke="#2B7FFF" stroke-width="1.2" stroke-linecap="round" stroke-linejoin="round"/>
<path d="M13.6454 1.71094V5.3589" stroke="#2B7FFF" stroke-width="1.2" stroke-linecap="round" stroke-linejoin="round"/>
</svg>
