<svg width="24" height="24" viewBox="0 0 24 24" fill="none" xmlns="http://www.w3.org/2000/svg">
<path d="M1.68164 0.616211C2.11481 0.438027 2.67867 0.463052 3.17969 0.713867C3.19415 0.726242 3.21406 0.742985 3.23926 0.765625C3.30523 0.824915 3.39827 0.911713 3.5166 1.02344C3.75272 1.24636 4.0818 1.56298 4.47949 1.9502C5.2744 2.72416 6.3411 3.77572 7.48633 4.91895L11.6553 9.08105L12.0078 9.43359L12.3613 9.08105L16.5625 4.88965C18.2272 3.22873 19.2914 2.17583 19.9707 1.52344C20.3109 1.19675 20.5497 0.974839 20.7168 0.829102C20.8946 0.673976 20.9543 0.638509 20.9512 0.639648C21.0594 0.588011 21.1193 0.568182 21.1953 0.555664C21.2877 0.540466 21.4184 0.534187 21.6758 0.53418C21.9413 0.53418 22.0693 0.540759 22.1611 0.556641C22.2375 0.56985 22.303 0.591348 22.4365 0.654297C23.1422 0.98731 23.569 1.74506 23.4902 2.49902C23.4657 2.73398 23.4596 2.80552 23.4189 2.9043C23.3762 3.0083 23.2811 3.16691 23.0137 3.47852C22.4757 4.10533 21.3838 5.19481 19.0977 7.4834L14.9336 11.6523L14.5811 12.0049L14.9336 12.3584L19.123 16.5596C21.5073 18.9502 22.6043 20.0381 23.1162 20.6602C23.3674 20.9654 23.4315 21.1064 23.4551 21.1924C23.4838 21.2974 23.4747 21.367 23.4756 21.6748C23.4763 21.9062 23.4682 22.0178 23.4521 22.1025C23.4377 22.1785 23.4126 22.2535 23.3428 22.4043C23.1797 22.7565 22.888 23.0714 22.5596 23.2627L22.416 23.3369C22.2626 23.4071 22.1848 23.4333 22.1064 23.4482C22.0199 23.4647 21.907 23.4721 21.6768 23.4717C21.3691 23.4711 21.3 23.4807 21.1953 23.4521C21.1096 23.4287 20.9695 23.3646 20.6641 23.1133C20.042 22.6015 18.9537 21.5049 16.5625 19.1201L12.3613 14.9307L12.0078 14.5781L11.6543 14.9307L7.48535 19.0957C5.21333 21.3653 4.12463 22.4552 3.49902 22.9961C3.18737 23.2655 3.02825 23.3649 2.92383 23.4102C2.82783 23.4517 2.75923 23.4594 2.53809 23.4854C2.19163 23.5261 1.70185 23.4278 1.44922 23.2822C1.13813 23.1028 0.800813 22.7378 0.657227 22.4336C0.594253 22.3001 0.572778 22.2346 0.55957 22.1582C0.543703 22.0664 0.53614 21.939 0.536133 21.6738C0.536133 21.4162 0.543384 21.2848 0.558594 21.1924C0.571121 21.1164 0.590902 21.0565 0.642578 20.9482C0.640166 20.9536 0.674102 20.8949 0.832031 20.7139C0.977774 20.5468 1.19966 20.3079 1.52637 19.9678C2.17877 19.2885 3.23084 18.2241 4.8916 16.5596L9.08398 12.3584L9.43652 12.0049L9.08398 11.6523L4.92188 7.4834C3.7785 6.33801 2.72614 5.2715 1.95215 4.47656C1.56524 4.07918 1.24924 3.7507 1.02637 3.51465C0.9146 3.39627 0.82786 3.30232 0.768555 3.23633C0.745911 3.21113 0.729171 3.19122 0.716797 3.17676C0.20973 2.16703 0.624927 1.05097 1.68164 0.616211Z" fill="white" stroke="#0E172B"/>
</svg>
