<svg width="24" height="20" viewBox="0 0 24 20" fill="none" xmlns="http://www.w3.org/2000/svg">
<path d="M9.36523 0.77832C10.8269 0.339953 12.3766 0.281516 13.8672 0.608398C15.2901 0.920446 16.614 1.57461 17.7266 2.51172L17.665 3.04687L15.7949 4.91895H15.3799C14.2866 4.08001 12.9215 3.67062 11.5439 3.77539C10.1571 3.88091 8.86101 4.49914 7.90527 5.50586C7.84579 5.53368 7.79892 5.56941 7.7666 5.59668C7.70066 5.65236 7.64415 5.71903 7.60449 5.76953C7.59065 5.78717 7.57784 5.80534 7.56543 5.82227L3.63867 6.46973C3.57948 6.45735 3.51983 6.44865 3.45996 6.44336C3.89042 5.19838 4.59112 4.06054 5.51367 3.11328C6.57825 2.02033 7.90382 1.21665 9.36523 0.77832Z" fill="white" stroke="#020617" stroke-width="0.8"/>
<path d="M18.1963 2.90967C19.3632 4.03572 20.2065 5.45742 20.6328 7.02686L20.6719 7.16943L20.7949 7.25342C21.9292 8.02064 22.7868 9.13219 23.2402 10.4243C23.6936 11.7166 23.7188 13.1213 23.3125 14.4292C22.9061 15.7368 22.0901 16.8793 20.9844 17.687C19.8785 18.4948 18.5414 18.9252 17.1719 18.9146H12.123L11.8379 18.6294V15.8325L12.125 15.5415H17.1689V15.5405C17.5647 15.5435 17.9576 15.4699 18.3242 15.3208C18.6918 15.1713 19.0258 14.9498 19.3076 14.6704C19.5894 14.391 19.8132 14.0582 19.9658 13.6919C20.1184 13.3256 20.1973 12.9324 20.1973 12.5356C20.1972 12.1389 20.1184 11.7456 19.9658 11.3794C19.8132 11.0133 19.5893 10.6812 19.3076 10.4019C19.0259 10.1225 18.6917 9.90101 18.3242 9.75146C18.082 9.65293 17.8276 9.58992 17.5693 9.55713V9.41064C17.5842 8.56473 17.4071 7.72637 17.0518 6.9585C16.7571 6.32179 16.3448 5.7485 15.8398 5.26514L18.1963 2.90967Z" fill="white" stroke="#020617" stroke-width="0.8"/>
<path d="M5.63867 15.3027C5.93819 15.4209 6.25466 15.4904 6.57617 15.5078L6.73633 15.5117H11.5479V18.8848H6.73438C5.43314 18.8904 4.16405 18.4952 3.09766 17.7568L3.18848 17.3955L5.13965 15.458L5.63867 15.3027Z" fill="white" stroke="#020617" stroke-width="0.8"/>
<path d="M6.73926 6.15088C7.72192 6.14736 8.69244 6.37048 9.57422 6.8042C10.3512 7.18639 11.0401 7.72338 11.6016 8.37939L9.20215 10.7788C9.03227 10.5365 8.82754 10.3188 8.59277 10.1353C8.20973 9.83587 7.75951 9.6337 7.28125 9.54639C6.80298 9.45913 6.31079 9.4895 5.84668 9.63428C5.38243 9.77911 4.96009 10.0345 4.61621 10.3784C4.27252 10.7222 4.01689 11.1439 3.87207 11.6079C3.72724 12.0722 3.69684 12.5651 3.78418 13.0435C3.87152 13.5219 4.07449 13.9719 4.37402 14.355C4.55752 14.5896 4.77436 14.7945 5.0166 14.9644L2.61816 17.3628C1.70337 16.5756 1.02829 15.5435 0.675781 14.3843C0.289215 13.1129 0.309312 11.752 0.733398 10.4927C1.15748 9.23357 1.96436 8.13833 3.04102 7.35986C4.11765 6.5815 5.41077 6.159 6.73926 6.15088Z" fill="white" stroke="#020617" stroke-width="0.8"/>
</svg>
