<svg width="231" height="231" viewBox="0 0 231 231" fill="none" xmlns="http://www.w3.org/2000/svg">
<path d="M43.4943 32.0603C40.3784 32.1349 39.7672 32.1796 38.7236 32.4778C33.9529 33.8493 30.8818 36.6819 29.4804 40.9905C29.3313 41.4377 29.1375 41.9744 29.048 42.1682C28.9288 42.4366 28.884 56.1076 28.884 92.4841V142.442H115.576H202.269L202.313 93.0208L202.343 43.5994L202.03 42.2129C201.851 41.4526 201.658 40.7966 201.583 40.7519C201.508 40.7072 201.449 40.5581 201.449 40.409C201.449 40.0214 200.465 38.2175 199.719 37.2484C198.467 35.6234 196.052 33.7748 194.397 33.1785C194.129 33.0741 193.771 32.925 193.592 32.8206C193.413 32.7163 193.13 32.6417 192.951 32.6417C192.772 32.6417 192.504 32.5672 192.34 32.4778C192.176 32.4032 191.177 32.2392 190.118 32.12C188.449 31.9261 178.207 31.9112 117.619 31.9411C78.8272 31.956 45.4622 32.0156 43.4943 32.0603ZM186.257 44.5387C187.122 44.8666 187.435 45.1052 187.987 45.8655C188.3 46.2978 188.478 46.7749 188.568 47.3563C188.732 48.5788 188.657 129.233 188.493 129.815C188.27 130.59 187.778 131.142 186.943 131.544L186.168 131.932L115.204 131.902C44.5826 131.857 44.2397 131.857 43.6434 131.559C43.2259 131.35 42.9427 131.067 42.7041 130.575L42.3612 129.889L42.3761 88.6675C42.3761 42.3471 42.2718 46.3724 43.4943 45.2244C43.8521 44.8965 44.4037 44.5536 44.7168 44.4641C45.1193 44.3598 66.2296 44.3001 115.427 44.3001C181.233 44.2852 185.616 44.3001 186.257 44.5387Z" fill="white"/>
<path d="M122.732 57.0915C122.523 57.1511 122.165 57.2107 121.942 57.2256C121.256 57.2555 120.317 57.7623 119.571 58.5227C118.856 59.2383 118.662 59.6557 118.11 61.564C117.931 62.1752 117.708 62.9505 117.603 63.2785C117.484 63.6064 117.305 64.2475 117.171 64.6947C116.709 66.3645 116.44 67.3186 116.247 67.9001C116.142 68.228 115.934 68.8989 115.799 69.3909C115.665 69.8829 115.367 70.8817 115.143 71.6272C114.905 72.3577 114.607 73.4013 114.458 73.938C114.055 75.4288 113.787 76.3382 113.578 77.0687C113.459 77.4414 113.25 78.1421 113.116 78.6341C112.982 79.1261 112.773 79.797 112.669 80.125C112.564 80.4529 112.37 81.094 112.251 81.5412C112.117 81.9885 111.819 83.0619 111.565 83.9266C111.312 84.7913 110.999 85.82 110.88 86.2374C110.403 87.8326 109.732 90.1434 109.523 90.859C109.404 91.2615 109.12 92.2455 108.882 93.0207C108.643 93.796 108.345 94.8395 108.211 95.3315C108.077 95.8235 107.868 96.5242 107.764 96.8969C107.645 97.2696 107.451 97.9703 107.302 98.4623C107.153 98.9543 106.959 99.6251 106.854 99.9531C106.601 100.758 106.243 102.04 106.034 102.86C105.93 103.233 105.736 103.904 105.587 104.351C105.438 104.798 105.214 105.559 105.08 106.021C104.946 106.498 104.722 107.273 104.588 107.735C104.454 108.212 104.26 108.868 104.171 109.196C104.067 109.524 103.873 110.165 103.753 110.613C103.619 111.06 103.44 111.716 103.336 112.059C103.142 112.73 103.217 114.027 103.5 114.996C103.768 115.875 104.931 116.934 105.99 117.262C107.003 117.56 108.763 117.59 109.926 117.321C111.715 116.904 112.982 115.726 113.504 113.982C113.682 113.401 113.921 112.7 114.025 112.431C114.145 112.163 114.234 111.835 114.234 111.686C114.234 111.552 114.323 111.179 114.443 110.836C114.562 110.508 114.771 109.837 114.905 109.345C115.054 108.853 115.263 108.197 115.367 107.884C115.486 107.586 115.576 107.124 115.576 106.886C115.576 106.647 115.635 106.423 115.71 106.379C115.785 106.334 115.889 106.036 115.949 105.738C116.038 105.216 116.172 104.709 116.679 103.009C116.798 102.637 116.992 101.936 117.126 101.444C117.26 100.952 117.469 100.251 117.574 99.8786C117.693 99.5059 117.887 98.8052 118.021 98.3132C118.17 97.8212 118.364 97.0758 118.483 96.6733C118.602 96.2558 118.811 95.5551 118.93 95.1079C119.064 94.6606 119.333 93.7512 119.527 93.0953C119.72 92.4393 120.033 91.3957 120.212 90.7845C120.391 90.1732 120.719 89.0551 120.943 88.3246C121.181 87.5791 121.465 86.5803 121.599 86.0883C122.076 84.3738 122.314 83.539 122.747 82.063C123.462 79.6926 123.582 79.2901 123.85 78.3359C123.984 77.844 124.193 77.1433 124.297 76.7706C124.402 76.3978 124.595 75.727 124.715 75.2797C124.834 74.8325 125.147 73.7889 125.386 72.9689C125.624 72.149 125.937 71.0755 126.071 70.5836C126.384 69.4953 127.16 66.8863 127.368 66.2303C127.443 65.9769 127.607 65.4104 127.726 64.9631C127.845 64.5308 128.069 63.6661 128.233 63.0548C128.606 61.6982 128.621 60.6546 128.308 59.6557C127.845 58.2245 126.727 57.4045 124.849 57.1064C123.641 56.9275 123.269 56.9126 122.732 57.0915Z" fill="white"/>
<path d="M93.3637 69.3014C92.9015 69.3909 91.9772 69.8679 90.7398 70.6581C90.546 70.7774 89.8155 71.2395 89.0999 71.6868C88.3843 72.1191 87.2661 72.8645 86.5952 73.3267C85.9244 73.7889 84.7913 74.5343 84.0459 74.9815C82.6147 75.8313 80.781 76.9942 79.2007 78.0378C77.1284 79.4093 75.5481 80.4231 75.399 80.4827C75.3245 80.5125 74.9816 80.7213 74.6536 80.9449C73.1777 81.9587 70.0767 83.9415 69.063 84.5229C67.9896 85.1342 67.587 85.5516 66.9758 86.7443C66.6627 87.3555 66.7372 89.2787 67.11 89.9943C67.4976 90.7695 68.3175 91.5746 69.1226 91.9771C69.8531 92.3498 70.032 92.4542 71.2843 93.2443C72.4919 93.9897 72.7901 94.1686 73.1628 94.3326C73.3268 94.4221 73.8038 94.7053 74.2064 94.9886C74.8176 95.406 76.2935 96.3155 78.0825 97.3889C78.2465 97.4932 78.7385 97.8063 79.2007 98.1045C79.6479 98.3877 80.5872 98.9542 81.2879 99.3717C81.9736 99.7742 82.6594 100.162 82.8085 100.251C83.0321 100.385 88.429 103.695 89.2638 104.202C91.1721 105.38 93.2891 106.498 93.9153 106.662C95.2868 107.02 96.6137 106.602 97.6871 105.499C98.5667 104.575 98.9394 103.755 99.1779 102.338C99.3419 101.31 99.327 101.041 99.1332 100.356C98.7903 99.2077 98.4325 98.8052 97.0759 97.9852C96.4199 97.5976 95.6894 97.1503 95.4807 97.0162C95.257 96.8671 94.9738 96.7031 94.8545 96.6434C94.7352 96.5987 94.3625 96.3751 94.0345 96.1664C93.2742 95.6744 93.2295 95.6595 90.8292 94.1836C89.726 93.5127 88.7868 92.9163 88.7421 92.8716C88.6973 92.812 88.4886 92.6778 88.265 92.5585C87.5345 92.1709 83.0023 89.398 82.5252 89.0402C82.1376 88.7569 82.0333 88.578 82.0333 88.1755C82.0333 87.5344 82.1674 87.4151 86.3567 84.7465C86.968 84.3589 88.2501 83.524 89.1893 82.9128C90.1285 82.3016 91.515 81.4071 92.2455 80.93C98.7456 76.7258 99.0139 76.4575 99.0289 74.1467C99.0289 73.0136 98.9692 72.6409 98.6711 71.9849C97.9405 70.3897 96.569 69.4058 94.8545 69.2716C94.3178 69.2269 93.6469 69.2418 93.3637 69.3014Z" fill="white"/>
<path d="M135.777 69.3164C133.645 69.555 131.931 71.5229 131.722 73.9529C131.588 75.6078 132.154 76.8004 133.526 77.7248C134.718 78.5149 136.001 79.3349 136.835 79.8269C137.268 80.0654 138.132 80.617 138.773 81.0493C139.429 81.4668 140.458 82.1377 141.069 82.5253C143.097 83.7925 148.181 87.2065 148.509 87.5196C148.673 87.6836 148.822 87.9967 148.822 88.2054C148.822 88.6079 148.166 89.4428 147.853 89.4428C147.763 89.4428 147.241 89.726 146.72 90.0689C146.183 90.4267 145.616 90.7845 145.452 90.8889C145.303 90.9783 144.275 91.6194 143.171 92.3052C142.068 92.991 140.995 93.6469 140.786 93.7662C140.577 93.9004 139.996 94.2582 139.504 94.5862C139.012 94.9142 138.49 95.2421 138.356 95.3316C138.222 95.4061 137.626 95.7788 137.029 96.1516C136.448 96.5243 135.732 96.9566 135.464 97.1206C132.87 98.7009 132.587 98.9245 132.08 99.9979C131.439 101.34 131.796 103.591 132.825 104.798C133.526 105.618 134.674 106.349 135.673 106.602C136.314 106.766 136.612 106.766 137.372 106.602C138.177 106.438 138.624 106.245 139.892 105.469C141.308 104.62 141.696 104.366 142.366 103.874C142.784 103.561 143.559 103.069 144.081 102.786C144.603 102.488 145.199 102.13 145.423 101.996C146.362 101.399 147.883 100.46 148.151 100.296C148.315 100.192 148.717 99.9383 149.045 99.7147C149.373 99.5059 150.909 98.5518 152.444 97.6275C153.995 96.6883 155.411 95.8236 155.605 95.7043C155.933 95.4956 159.66 93.2146 160.883 92.4692C161.181 92.2903 161.658 92.007 161.941 91.843C162.224 91.6939 162.687 91.3063 162.97 91.0082C163.492 90.4416 164.177 88.8315 164.177 88.1457C164.177 87.0723 163.417 85.6411 162.478 84.9255C162.195 84.7019 161.926 84.523 161.882 84.523C161.837 84.523 161.33 84.2248 160.763 83.8521C160.197 83.4794 159.69 83.1812 159.63 83.1812C159.586 83.1812 159.362 83.0471 159.138 82.898C158.393 82.3762 154.785 80.0505 154.711 80.0505C154.681 80.0505 154.353 79.8567 154.01 79.6181C153.175 79.0516 150.178 77.1135 149.045 76.4128C148.553 76.0998 147.644 75.5183 147.033 75.1158C146.422 74.7133 145.81 74.3406 145.691 74.2809C145.572 74.2213 144.871 73.774 144.126 73.2821C143.395 72.805 142.322 72.1043 141.74 71.7316C141.174 71.3589 140.324 70.8222 139.877 70.5091C138.222 69.4059 137.327 69.1375 135.777 69.3164Z" fill="white"/>
<path d="M27.7662 148.882C27.0655 149.181 26.4989 149.732 25.9324 150.701C25.6641 151.134 25.3361 151.67 25.2019 151.894C25.0528 152.103 24.8739 152.416 24.7845 152.58C24.4714 153.206 23.6514 154.548 22.4289 156.456C22.3395 156.62 22.2053 156.858 22.1457 156.978C22.0861 157.097 21.3555 158.379 20.5058 159.81C18.5975 163.03 18.836 162.613 17.8819 164.208C17.4346 164.939 16.883 165.878 16.6594 166.295C16.4209 166.698 16.0631 167.309 15.8543 167.637C15.3176 168.487 15.1238 168.8 14.9896 169.053C14.93 169.173 14.2144 170.38 13.4094 171.737C12.5894 173.094 11.8887 174.301 11.844 174.421C11.7993 174.54 11.3669 175.3 10.8898 176.105C10.4128 176.895 10.0252 177.656 10.0252 177.775C10.0252 177.879 9.96552 178.013 9.90588 178.058C9.83134 178.103 9.62262 178.655 9.42882 179.281C9.11574 180.339 9.10083 180.637 9.16046 183.052C9.20519 184.499 9.30955 185.84 9.38409 186.049C9.47354 186.258 9.66735 186.824 9.81643 187.316C11.0836 191.476 14.1995 195.143 18.18 197.141C19.3429 197.722 21.5941 198.423 23.234 198.706C24.5012 198.93 206.622 198.93 207.74 198.706C211.289 197.991 213.018 197.26 215.463 195.441C218.609 193.101 220.606 190.015 221.68 185.9C221.978 184.767 222.112 180.309 221.888 179.385C221.665 178.535 221.247 177.611 220.591 176.582C219.891 175.479 217.997 172.333 217.997 172.259C217.997 172.229 217.789 171.901 217.55 171.543C217.312 171.17 217.103 170.842 217.103 170.798C217.103 170.753 216.507 169.695 215.761 168.442C215.031 167.205 214.419 166.176 214.419 166.146C214.419 166.117 214.017 165.446 213.51 164.641C213.018 163.821 212.556 163.06 212.481 162.941C212.407 162.822 212.079 162.285 211.766 161.748C211.438 161.212 210.99 160.436 210.767 160.034C210.543 159.616 210.26 159.184 210.156 159.05C210.036 158.931 209.947 158.782 209.947 158.722C209.947 158.424 204.744 149.986 204.282 149.538C203.939 149.21 203.447 148.927 203.029 148.808C202.478 148.674 184.185 148.629 115.308 148.644C38.2169 148.659 28.2283 148.674 27.7662 148.882ZM138.387 164.894C138.759 164.969 139.4 165.267 139.818 165.565C140.563 166.072 140.682 166.251 141.264 167.786C141.383 168.114 141.577 168.651 141.711 168.979C141.83 169.307 142.054 169.873 142.188 170.246C142.322 170.619 142.531 171.156 142.635 171.439C142.755 171.722 143.038 172.482 143.291 173.123C143.947 174.793 143.992 175.226 143.619 175.598L143.306 175.911H115.577C87.8768 175.911 87.847 175.911 87.5489 175.613C87.2954 175.36 87.2656 175.196 87.3401 174.749C87.3998 174.45 87.5041 174.078 87.5787 173.929C87.6532 173.779 87.8768 173.183 88.0706 172.587C88.2645 171.99 88.5775 171.141 88.7415 170.693C88.9204 170.246 89.0993 169.739 89.1441 169.575C89.1888 169.411 89.2931 169.203 89.3677 169.098C89.4571 168.994 89.5764 168.696 89.636 168.427C89.8597 167.563 90.3665 166.34 90.6349 166.027C91.0672 165.55 91.9319 165.073 92.6326 164.909C93.542 164.7 137.477 164.685 138.387 164.894ZM212.69 181.591C213.033 181.86 213.078 181.994 213.078 182.859C213.078 184.588 212.004 186.064 210.096 186.973L209.127 187.436H115.636C25.1572 187.436 22.1308 187.421 21.4152 187.167C19.328 186.377 18.0757 184.812 18.0757 182.993C18.0906 182.083 18.2248 181.755 18.7466 181.457C18.9702 181.323 43.2709 181.293 115.666 181.278H212.287L212.69 181.591Z" fill="white"/>
</svg>
