<svg width="24" height="24" viewBox="0 0 24 24" fill="none" xmlns="http://www.w3.org/2000/svg">
<path fill-rule="evenodd" clip-rule="evenodd" d="M9.88825 2.01386C8.20917 2.17082 6.97352 2.96727 6.33141 4.30643C6.02778 4.93967 5.89378 5.56897 5.87436 6.45296C5.86207 7.01225 5.88042 7.30145 5.95581 7.73684C6.24763 9.42247 7.30076 10.6177 8.88057 11.0561C9.58114 11.2505 9.84732 11.2314 10.1191 10.9673C10.4202 10.6746 10.4191 10.1965 10.1166 9.8896C9.98573 9.75691 9.90085 9.71843 9.57634 9.64476C8.94834 9.50218 8.57003 9.31613 8.21245 8.97399C7.8767 8.65273 7.65188 8.24488 7.52161 7.72071C7.35063 7.03268 7.36268 6.08227 7.55064 5.43204C7.68662 4.96164 7.87312 4.63149 8.1789 4.31986C8.54297 3.94884 9.03004 3.71173 9.67046 3.59375C9.89826 3.55179 10.0028 3.54574 10.4993 3.54574C10.9967 3.54574 11.1001 3.55175 11.3296 3.59401C12.5693 3.8223 13.2908 4.5278 13.5224 5.73816C13.5467 5.86538 13.579 6.1622 13.5941 6.39778C13.6259 6.89223 13.6574 6.99398 13.8326 7.16923C14.1624 7.499 14.7017 7.45861 14.9848 7.08291C15.11 6.91675 15.1304 6.8311 15.13 6.47342C15.1285 5.22527 14.7373 4.11969 14.0226 3.34404C13.3644 2.62961 12.4828 2.19631 11.3783 2.04432C11.0816 2.0035 10.1933 1.98532 9.88825 2.01386ZM14.7122 8.23066C13.1853 8.40182 12.1032 9.26877 11.7091 10.6367C11.5935 11.0381 11.5446 11.4234 11.544 11.9391C11.5426 13.118 11.8452 13.9789 12.4986 14.6544C13.0626 15.2376 13.7723 15.5666 14.6846 15.6679C14.9508 15.6975 15.6067 15.6978 15.8762 15.6684C17.1512 15.5295 18.1152 14.896 18.6313 13.858C18.8035 13.5118 18.9112 13.1534 18.9824 12.6895C19.0355 12.344 19.0354 11.5542 18.9822 11.2101C18.8497 10.3528 18.561 9.75046 18.0258 9.21487C17.5181 8.70669 16.926 8.41125 16.138 8.27283C15.9274 8.23583 15.7645 8.22423 15.3769 8.21859C15.1057 8.21467 14.8066 8.22009 14.7122 8.23066ZM14.7848 9.77511C13.757 9.92616 13.2089 10.5136 13.0919 11.5893C13.0499 11.9745 13.0909 12.5137 13.1862 12.8328C13.2777 13.1391 13.4352 13.4133 13.6316 13.6085C13.7712 13.7472 13.8705 13.8174 14.069 13.9176C14.7602 14.2667 15.9746 14.2376 16.625 13.8564C17.0794 13.5901 17.3811 13.0718 17.4666 12.4108C17.478 12.3223 17.4877 12.1161 17.4881 11.9525C17.491 10.6567 16.918 9.9319 15.7666 9.77505C15.5742 9.74883 14.9634 9.74887 14.7848 9.77511ZM9.13785 12.1779C6.942 12.4183 4.89483 13.1539 3.15609 14.327C2.57661 14.718 2.22437 15.1953 2.05703 15.8161C2.00849 15.9961 2.00101 16.0671 2.00004 16.3557C1.99888 16.7124 2.02159 16.8522 2.12956 17.1528C2.36336 17.8039 2.85286 18.3434 3.51465 18.6793C3.76069 18.8042 3.99505 18.8853 4.31385 18.9557C4.51982 19.0012 4.57246 19.003 5.65385 19.0033L6.77945 19.0036L6.88665 18.9509C7.58435 18.6085 7.43339 17.6032 6.66764 17.4925C6.58762 17.4809 6.11607 17.4713 5.61976 17.471C4.79005 17.4706 4.70369 17.4671 4.54776 17.4278C3.9323 17.2727 3.50157 16.7977 3.53628 16.3124C3.55764 16.0141 3.72354 15.7922 4.12089 15.5305C4.75034 15.116 5.51485 14.7237 6.24973 14.4382C7.24643 14.0511 8.04507 13.8621 9.38441 13.6964C9.70163 13.6572 9.9129 13.5154 10.0401 13.2565C10.0962 13.1421 10.1025 13.1081 10.1016 12.9253C10.1008 12.7571 10.0919 12.7038 10.0507 12.6192C9.9825 12.479 9.83853 12.3242 9.71282 12.2557C9.62901 12.2101 9.36899 12.1444 9.32009 12.1564C9.31419 12.1579 9.23218 12.1675 9.13785 12.1779ZM14.3459 16.3882C12.6096 16.5459 10.8473 17.1699 9.50188 18.1035C8.95175 18.4852 8.64327 18.9785 8.56812 19.5967C8.49655 20.1852 8.75778 20.8615 9.23107 21.3132C9.62025 21.6845 10.1379 21.9257 10.6917 21.9936C10.812 22.0083 12.3684 22.0159 15.2985 22.0159C19.2007 22.0159 19.7504 22.0119 19.9494 21.9824C20.3554 21.9221 20.6666 21.8027 21.0036 21.5781C21.3644 21.3375 21.6163 21.0519 21.7992 20.6759C21.9591 20.3471 22.0011 20.1611 22 19.7861C21.9991 19.5105 21.9924 19.4533 21.9405 19.2823C21.7766 18.7419 21.4899 18.3795 20.9412 18.0188C19.5275 17.0896 17.8121 16.5094 16.0867 16.3769C15.7115 16.3481 14.7163 16.3546 14.3459 16.3882ZM14.8194 17.8926C13.3647 17.9668 11.8669 18.4359 10.6172 19.2089C10.1978 19.4683 10.0656 19.6343 10.1012 19.8569C10.1442 20.1262 10.4421 20.3884 10.7756 20.4506C10.8506 20.4646 12.4362 20.4722 15.3003 20.4722C20.105 20.4722 19.8145 20.4795 20.0638 20.3531C20.3868 20.1894 20.5512 19.858 20.4278 19.6191C20.3461 19.4608 20.1229 19.2954 19.5898 18.9982C18.1561 18.1987 16.4719 17.8084 14.8194 17.8926Z" fill="white"/>
</svg>
