<svg width="24" height="24" viewBox="0 0 24 24" fill="none" xmlns="http://www.w3.org/2000/svg">
<g clip-path="url(#clip0_9045_14032)">
<path d="M9.55162 6.03213C9.55162 5.54808 9.52652 5.06412 9.48717 4.57901C9.39687 3.46759 8.48537 2.58433 7.39286 2.53995C6.4669 2.50233 5.59589 2.50233 4.66992 2.53995C3.5775 2.58443 2.66675 3.46767 2.57645 4.57901C2.53709 5.06413 2.51116 5.54808 2.51116 6.03213C2.51117 6.51607 2.5371 6.99942 2.57645 7.48442C2.66662 8.59589 3.57741 9.47985 4.66992 9.52432C5.59589 9.56193 6.4669 9.56193 7.39286 9.52432C8.48544 9.47993 9.39698 8.59596 9.48717 7.48442C9.52651 6.99944 9.55161 6.51606 9.55162 6.03213ZM11.2659 6.03213C11.2659 6.57605 11.2374 7.10827 11.1956 7.62337C11.037 9.57662 9.44211 11.1565 7.46233 11.2369C6.49004 11.2764 5.57274 11.2764 4.60045 11.2369C2.62072 11.1565 1.02662 9.57659 0.868025 7.62337C0.826235 7.10827 0.796883 6.57605 0.796875 6.03213C0.796875 5.48819 0.826238 4.95602 0.868025 4.4409C1.0265 2.48755 2.62063 0.906961 4.60045 0.826498C5.57274 0.786996 6.49005 0.787005 7.46233 0.826498C9.44218 0.906936 11.0371 2.48754 11.1956 4.4409C11.2374 4.95601 11.2659 5.48821 11.2659 6.03213Z" fill="white"/>
<path d="M15.5184 6.03181C15.5184 5.54775 15.4925 5.0638 15.4531 4.57868C15.3628 3.46729 14.4521 2.58401 13.3597 2.53962C12.8712 2.51977 12.8343 2.51116 12.3962 2.51116C11.9228 2.51116 11.5391 2.1274 11.5391 1.65402C11.5391 1.18063 11.9228 0.796875 12.3962 0.796875C12.8797 0.796875 12.9686 0.80746 13.4291 0.826172C15.409 0.90661 17.0039 2.48721 17.1624 4.44057C17.2042 4.95568 17.2327 5.48789 17.2327 6.03181C17.2327 6.57572 17.2042 7.10794 17.1624 7.62305C17.0038 9.5763 15.4089 11.1562 13.4291 11.2366C12.9686 11.2553 12.8797 11.2659 12.3962 11.2659C11.9228 11.2659 11.5391 10.8821 11.5391 10.4088C11.5393 9.93554 11.9229 9.55162 12.3962 9.55162C12.8343 9.55162 12.8712 9.54384 13.3597 9.524C14.4522 9.4796 15.3629 8.59563 15.4531 7.4841C15.4925 6.9991 15.5184 6.51575 15.5184 6.03181Z" fill="white"/>
<path d="M21.4872 6.03181C21.4872 5.54771 21.4612 5.06372 21.4219 4.57868C21.3316 3.46733 20.421 2.58402 19.3284 2.53962C18.84 2.51977 18.8031 2.51116 18.365 2.51116C17.8916 2.51116 17.5078 2.1274 17.5078 1.65402C17.5078 1.18063 17.8916 0.796875 18.365 0.796875C18.8484 0.796875 18.9374 0.807459 19.3979 0.826172C21.3778 0.906608 22.9727 2.48718 23.1311 4.44057C23.1729 4.95576 23.2015 5.48794 23.2015 6.03181C23.2014 6.57568 23.173 7.10786 23.1311 7.62305C22.9726 9.57634 21.3777 11.1562 19.3979 11.2366C18.9374 11.2553 18.8484 11.2659 18.365 11.2659C17.8916 11.2659 17.5078 10.8821 17.5078 10.4088C17.508 9.93554 17.8917 9.55162 18.365 9.55162C18.8031 9.55162 18.8399 9.54384 19.3284 9.524C20.4211 9.4796 21.3317 8.5956 21.4219 7.4841C21.4612 6.99917 21.4872 6.51581 21.4872 6.03181Z" fill="white"/>
<path d="M21.4891 17.9696C21.4891 17.4856 21.464 17.0015 21.4247 16.5165C21.3344 15.4051 20.423 14.5218 19.3304 14.4775C18.4044 14.4398 17.5335 14.4398 16.6074 14.4775C15.515 14.5219 14.6043 15.4052 14.514 16.5165C14.4746 17.0016 14.4487 17.4856 14.4487 17.9696C14.4487 18.4536 14.4746 18.9369 14.514 19.4219C14.6041 20.5334 15.5149 21.4174 16.6074 21.4618C17.5334 21.4996 18.4044 21.4996 19.3304 21.4618C20.4231 21.4174 21.3345 20.5334 21.4247 19.4219C21.464 18.937 21.4891 18.4536 21.4891 17.9696ZM23.2034 17.9696C23.2034 18.5135 23.1749 19.0457 23.1331 19.5609C22.9745 21.5142 21.3796 23.094 19.3998 23.1744C18.6706 23.2042 17.9724 23.2119 17.2586 23.197L16.5379 23.1744C14.5582 23.094 12.9641 21.5141 12.8055 19.5609C12.7637 19.0458 12.7344 18.5135 12.7344 17.9696C12.7344 17.4257 12.7637 16.8935 12.8055 16.3784C12.964 14.425 14.5581 12.8445 16.5379 12.764C17.5103 12.7245 18.4275 12.7245 19.3998 12.764C21.3797 12.8444 22.9746 14.425 23.1331 16.3784C23.1749 16.8936 23.2034 17.4258 23.2034 17.9696Z" fill="white"/>
<path d="M1.96094 14.0183C1.96094 13.5449 2.34469 13.1611 2.81808 13.1611C3.29147 13.1611 3.67522 13.5449 3.67522 14.0183C3.67522 16.1176 5.37699 17.8192 7.47628 17.8193C7.83827 17.8193 8.18718 17.7689 8.51674 17.6754L9.72042 17.2602C10.168 17.106 10.6561 17.3441 10.8103 17.7917C10.9643 18.2391 10.7268 18.7264 10.2796 18.8807L9.04408 19.3068C9.03006 19.3116 9.01566 19.3161 9.00139 19.3202C8.51611 19.4595 8.00389 19.5336 7.47628 19.5336C4.43024 19.5335 1.96094 17.0644 1.96094 14.0183Z" fill="white"/>
<path d="M7.26254 15.9125C7.47425 15.4891 7.98925 15.3174 8.41266 15.5291C9.53039 16.088 10.6169 17.1744 11.1758 18.2923C11.2964 18.5336 11.2964 18.8177 11.1758 19.059C10.6169 20.1766 9.53039 21.2632 8.41266 21.8221C7.98931 22.0337 7.47428 21.862 7.26254 21.4387C7.05084 21.0154 7.22254 20.5004 7.64592 20.2886C8.30426 19.9594 8.9834 19.3316 9.41796 18.6748C8.98339 18.0183 8.30392 17.3916 7.64592 17.0626C7.22251 16.8509 7.05084 16.3359 7.26254 15.9125Z" fill="white"/>
</g>
<defs>
<clipPath id="clip0_9045_14032">
<rect width="24" height="24" fill="white"/>
</clipPath>
</defs>
</svg>
