<svg width="12" height="12" viewBox="0 0 12 12" fill="none" xmlns="http://www.w3.org/2000/svg">
<g clip-path="url(#clip0_2916_3495)">
<path fill-rule="evenodd" clip-rule="evenodd" d="M5.79604 0.404248C5.63063 0.412012 5.25479 0.44668 5.09952 0.468496C4.21925 0.59218 3.46881 0.863356 2.83204 1.28788C2.33679 1.61805 1.92112 2.04171 1.59969 2.54396C1.14529 3.25392 0.886285 4.06114 0.785317 5.08196C0.758845 5.34958 0.748981 6.017 0.767161 6.31067C0.799741 6.83718 0.883909 7.35225 1.00759 7.78204C1.04874 7.92503 1.14985 8.22088 1.18793 8.30969L1.21159 8.3649L0.829249 9.41744C0.618961 9.99632 0.437989 10.5011 0.427081 10.5391C0.398257 10.6398 0.390469 10.7797 0.407893 10.8841C0.439201 11.0718 0.518653 11.2244 0.654565 11.358C0.794341 11.4953 0.936625 11.5655 1.13259 11.5938C1.32094 11.621 1.32679 11.6195 2.57704 11.2029L3.71056 10.8252L3.7963 10.8591C4.09009 10.9753 4.56436 11.0991 4.95004 11.1603C5.81521 11.2975 6.82074 11.2815 7.63903 11.1174C8.90617 10.8634 9.88441 10.2824 10.5681 9.37776C11.2494 8.47643 11.6035 7.25997 11.6039 5.81996C11.6043 4.28087 11.1897 2.98365 10.4053 2.06996C9.65946 1.20111 8.60808 0.66226 7.29263 0.474652C6.82681 0.408208 6.26965 0.382 5.79604 0.404248ZM5.77204 1.26699C5.74234 1.26942 5.64244 1.27739 5.55004 1.28469C4.6909 1.35262 3.88554 1.61109 3.30604 2.00489C2.78769 2.35713 2.39856 2.8069 2.11812 3.37796C1.91669 3.78812 1.78851 4.19236 1.70527 4.67996C1.58723 5.37147 1.58501 6.24071 1.69953 6.92996C1.77269 7.37038 1.87031 7.71252 2.0299 8.08796C2.09193 8.23386 2.09367 8.24106 2.09364 8.35196L2.09363 8.46596L1.68273 9.59285C1.45673 10.2126 1.27355 10.7215 1.27565 10.7236C1.27775 10.7257 1.80835 10.5507 2.45476 10.3348C3.61552 9.94708 3.63123 9.94223 3.72604 9.9429C3.80971 9.9435 3.83898 9.9502 3.95404 9.9951C4.56138 10.2321 5.03128 10.3339 5.73604 10.381C6.1168 10.4065 6.75394 10.384 7.13404 10.3317C7.98191 10.215 8.73113 9.91631 9.28804 9.47285C9.41931 9.36833 9.71641 9.07122 9.82093 8.93996C10.092 8.5996 10.345 8.11533 10.4794 7.67996C10.6051 7.27271 10.6673 6.95433 10.7184 6.45596C10.7392 6.25374 10.7392 5.39817 10.7184 5.19596C10.6109 4.14788 10.3483 3.40629 9.85375 2.75396C9.73668 2.59955 9.40044 2.26331 9.24604 2.14624C8.60652 1.66137 7.87222 1.39576 6.87604 1.28897C6.7129 1.27148 5.91202 1.25554 5.77204 1.26699Z" fill="white"/>
</g>
<defs>
<clipPath id="clip0_2916_3495">
<rect width="12" height="12" fill="white"/>
</clipPath>
</defs>
</svg>
