<svg width="28" height="28" viewBox="0 0 28 28" fill="none" xmlns="http://www.w3.org/2000/svg">
<path d="M0 14C0 6.26801 6.26801 0 14 0C21.732 0 28 6.26801 28 14C28 21.732 21.732 28 14 28C6.26801 28 0 21.732 0 14Z" fill="#2B7FFF"/>
<g clip-path="url(#clip0_2860_1834)">
<path fill-rule="evenodd" clip-rule="evenodd" d="M13.796 8.4062C13.6306 8.41397 13.2548 8.44863 13.0995 8.47045C12.2192 8.59413 11.4688 8.86531 10.832 9.28983C10.3368 9.62 9.92112 10.0437 9.59969 10.5459C9.14529 11.2559 8.88629 12.0631 8.78532 13.0839C8.75885 13.3515 8.74898 14.0189 8.76716 14.3126C8.79974 14.8391 8.88391 15.3542 9.00759 15.784C9.04874 15.927 9.14985 16.2228 9.18793 16.3116L9.21159 16.3669L8.82925 17.4194C8.61896 17.9983 8.43799 18.503 8.42708 18.5411C8.39826 18.6417 8.39047 18.7816 8.40789 18.8861C8.4392 19.0738 8.51865 19.2264 8.65457 19.3599C8.79434 19.4972 8.93663 19.5674 9.13259 19.5958C9.32094 19.623 9.32679 19.6214 10.577 19.2048L11.7106 18.8272L11.7963 18.8611C12.0901 18.9773 12.5644 19.1011 12.95 19.1622C13.8152 19.2994 14.8207 19.2834 15.639 19.1194C16.9062 18.8654 17.8844 18.2843 18.5681 17.3797C19.2494 16.4784 19.6035 15.2619 19.6039 13.8219C19.6043 12.2828 19.1897 10.9856 18.4053 10.0719C17.6595 9.20306 16.6081 8.66421 15.2926 8.47661C14.8268 8.41016 14.2697 8.38395 13.796 8.4062ZM13.772 9.26894C13.7423 9.27138 13.6424 9.27935 13.55 9.28664C12.6909 9.35457 11.8855 9.61304 11.306 10.0068C10.7877 10.3591 10.3986 10.8089 10.1181 11.3799C9.91669 11.7901 9.78851 12.1943 9.70527 12.6819C9.58723 13.3734 9.58501 14.2427 9.69953 14.9319C9.77269 15.3723 9.87031 15.7145 10.0299 16.0899C10.0919 16.2358 10.0937 16.243 10.0936 16.3539L10.0936 16.4679L9.68273 17.5948C9.45673 18.2146 9.27355 18.7234 9.27565 18.7255C9.27775 18.7276 9.80835 18.5527 10.4548 18.3368C11.6155 17.949 11.6312 17.9442 11.726 17.9449C11.8097 17.9455 11.839 17.9522 11.954 17.9971C12.5614 18.2341 13.0313 18.3359 13.736 18.383C14.1168 18.4084 14.7539 18.386 15.134 18.3337C15.9819 18.217 16.7311 17.9183 17.288 17.4748C17.4193 17.3703 17.7164 17.0732 17.8209 16.9419C18.092 16.6016 18.345 16.1173 18.4794 15.6819C18.6051 15.2747 18.6673 14.9563 18.7184 14.4579C18.7392 14.2557 18.7392 13.4001 18.7184 13.1979C18.6109 12.1498 18.3483 11.4082 17.8538 10.7559C17.7367 10.6015 17.4004 10.2653 17.246 10.1482C16.6065 9.66332 15.8722 9.39771 14.876 9.29093C14.7129 9.27343 13.912 9.25749 13.772 9.26894Z" fill="white"/>
</g>
<defs>
<clipPath id="clip0_2860_1834">
<rect width="12" height="12" fill="white" transform="translate(8 8)"/>
</clipPath>
</defs>
</svg>
