<svg width="64" height="50" viewBox="0 0 64 50" fill="none" xmlns="http://www.w3.org/2000/svg">
<path d="M27.3155 3.54927L24.9933 0C8.92618 10.7358 0 23.7801 0 34.5159C0 44.8968 7.67794 49.7778 14.1933 49.7778C22.4054 49.7778 28.2067 42.8553 28.2067 35.5807C28.2067 29.4589 24.2792 24.223 19.0121 22.2695C17.4953 21.7357 16.0671 21.2928 16.0671 18.7203C16.0671 15.4379 18.4779 10.5598 27.3155 3.54927ZM62.7518 3.54927L60.4295 0C44.5395 10.7358 35.4362 23.7801 35.4362 34.5159C35.4362 44.8968 43.2913 49.7778 49.8067 49.7778C58.1073 49.7778 64 42.8553 64 35.5807C64 29.4589 59.9839 24.223 54.5368 22.2695C53.0201 21.7357 51.6804 21.2928 51.6804 18.7203C51.6804 15.4379 54.1798 10.5569 62.7489 3.54643L62.7518 3.54927Z" fill="white"/>
</svg>
