<svg width="12" height="12" viewBox="0 0 12 12" fill="none" xmlns="http://www.w3.org/2000/svg">
<g clip-path="url(#clip0_4152_1932)">
<path fill-rule="evenodd" clip-rule="evenodd" d="M5.79604 0.406201C5.63063 0.413965 5.25479 0.448633 5.09952 0.470449C4.21925 0.594133 3.46881 0.865309 2.83204 1.28983C2.33679 1.62 1.92112 2.04366 1.59969 2.54591C1.14529 3.25588 0.886285 4.06309 0.785317 5.08391C0.758845 5.35153 0.748981 6.01895 0.767161 6.31262C0.799741 6.83914 0.883909 7.3542 1.00759 7.78399C1.04874 7.92698 1.14985 8.22283 1.18793 8.31164L1.21159 8.36686L0.829249 9.41939C0.618961 9.99827 0.437989 10.503 0.427081 10.5411C0.398257 10.6417 0.390469 10.7816 0.407893 10.8861C0.439201 11.0738 0.518653 11.2264 0.654565 11.3599C0.794341 11.4972 0.936625 11.5674 1.13259 11.5958C1.32094 11.623 1.32679 11.6214 2.57704 11.2048L3.71056 10.8272L3.7963 10.8611C4.09009 10.9773 4.56436 11.1011 4.95004 11.1622C5.81521 11.2994 6.82074 11.2834 7.63903 11.1194C8.90617 10.8654 9.88441 10.2843 10.5681 9.37972C11.2494 8.47838 11.6035 7.26192 11.6039 5.82191C11.6043 4.28282 11.1897 2.9856 10.4053 2.07191C9.65946 1.20306 8.60808 0.664213 7.29263 0.476605C6.82681 0.410161 6.26965 0.383953 5.79604 0.406201ZM5.77204 1.26894C5.74234 1.27138 5.64244 1.27935 5.55004 1.28664C4.6909 1.35457 3.88554 1.61304 3.30604 2.00685C2.78769 2.35908 2.39856 2.80885 2.11812 3.37991C1.91669 3.79007 1.78851 4.19431 1.70527 4.68191C1.58723 5.37342 1.58501 6.24266 1.69953 6.93191C1.77269 7.37233 1.87031 7.71448 2.0299 8.08991C2.09193 8.23582 2.09367 8.24302 2.09364 8.35391L2.09363 8.46791L1.68273 9.59481C1.45673 10.2146 1.27355 10.7234 1.27565 10.7255C1.27775 10.7276 1.80835 10.5527 2.45476 10.3368C3.61552 9.94903 3.63123 9.94419 3.72604 9.94486C3.80971 9.94546 3.83898 9.95215 3.95404 9.99706C4.56138 10.2341 5.03128 10.3359 5.73604 10.383C6.1168 10.4084 6.75394 10.386 7.13404 10.3337C7.98191 10.217 8.73113 9.91826 9.28804 9.47481C9.41931 9.37029 9.71641 9.07318 9.82093 8.94191C10.092 8.60155 10.345 8.11728 10.4794 7.68191C10.6051 7.27467 10.6673 6.95628 10.7184 6.45791C10.7392 6.2557 10.7392 5.40012 10.7184 5.19791C10.6109 4.14983 10.3483 3.40824 9.85375 2.75591C9.73668 2.60151 9.40044 2.26527 9.24604 2.14819C8.60652 1.66332 7.87222 1.39771 6.87604 1.29093C6.7129 1.27343 5.91202 1.25749 5.77204 1.26894Z" fill="white"/>
</g>
<defs>
<clipPath id="clip0_4152_1932">
<rect width="12" height="12" fill="white"/>
</clipPath>
</defs>
</svg>
