<svg width="64" height="64" viewBox="0 0 64 64" fill="none" xmlns="http://www.w3.org/2000/svg">
<path d="M56.2467 38.0537C56.2467 34.4865 56.0504 30.9765 55.8114 27.5113L55.7377 26.7747C55.5202 25.0836 54.9932 23.5931 54.2824 22.4845C53.5543 21.3493 52.4179 20.6771 50.8359 20.2925C49.2 19.8949 47.3269 19.8617 45.3672 19.8617C43.4075 19.8617 41.5344 19.8951 39.8984 20.2925C38.3163 20.6771 37.1801 21.3494 36.452 22.4845C35.641 23.7489 35.0669 25.51 34.9208 27.5001L34.923 27.5023C34.6839 30.9703 34.4855 34.4871 34.4855 38.0537C34.4855 41.6202 34.6839 45.1357 34.923 48.6073H34.9208C35.0666 50.5981 35.6406 52.3599 36.452 53.6251C37.1797 54.7598 38.3141 55.4309 39.8962 55.8148C41.5326 56.2118 43.4063 56.2456 45.3672 56.2456C47.3269 56.2456 49.2 56.2102 50.8359 55.8126C52.4177 55.428 53.5544 54.758 54.2824 53.6229C55.0948 52.3558 55.6666 50.5898 55.8114 48.5961C56.0504 45.1341 56.2466 41.6211 56.2467 38.0537ZM60.8181 38.0537C60.8181 41.7831 60.6129 45.4231 60.3717 48.9175L60.3694 48.9264C60.1796 51.5408 59.4238 54.0722 58.1306 56.0894H58.1283C56.5625 58.5308 54.2116 59.6984 51.9141 60.2568C49.6711 60.8018 47.2718 60.8171 45.3672 60.8171C43.463 60.8171 41.0616 60.8011 38.8181 60.2568C36.5209 59.6993 34.1698 58.5352 32.6038 56.0939C31.3099 54.0762 30.5525 51.5434 30.3627 48.9287V48.922C30.1216 45.4211 29.9141 41.7801 29.9141 38.0537C29.9141 34.3274 30.1216 30.6872 30.3627 27.1898V27.1809C30.5526 24.566 31.3098 22.0333 32.6038 20.0157C34.1696 17.5748 36.5208 16.4089 38.8181 15.8506C41.0616 15.3053 43.4621 15.2903 45.3672 15.2903C47.2718 15.2903 49.671 15.3055 51.9141 15.8506C54.2112 16.4089 56.5625 17.575 58.1283 20.0157H58.1306C59.2627 21.7811 59.9837 23.941 60.2734 26.2055L60.3694 27.1809L60.3717 27.1898C60.6129 30.6872 60.8181 34.3243 60.8181 38.0537Z" fill="currentColor"/>
<path d="M58.5324 35.9236C59.7945 35.9238 60.8181 36.9471 60.8181 38.2093C60.8181 39.4715 59.7945 40.4948 58.5324 40.495H43.4185C42.1562 40.495 41.1328 39.4717 41.1328 38.2093C41.1328 36.9469 42.1562 35.9236 43.4185 35.9236H58.5324Z" fill="currentColor"/>
<path d="M49.0247 29.3889C50.1538 28.8245 51.5271 29.2822 52.0916 30.4113C52.6561 31.5403 52.1982 32.9137 51.0693 33.4782C49.2038 34.4109 47.2793 36.1926 46.0626 38.0541C47.2793 39.9155 49.204 41.6975 51.0693 42.63C52.198 43.1947 52.656 44.5681 52.0916 45.697C51.527 46.8255 50.1535 47.2834 49.0247 46.7193C45.934 45.1742 42.927 42.1669 41.3818 39.0764C41.0602 38.4331 41.0603 37.6752 41.3818 37.0318C42.9269 33.9415 45.9338 30.9342 49.0247 29.3889Z" fill="currentColor"/>
<path d="M29.5201 25.947C29.5201 22.3804 29.3217 18.8636 29.0826 15.3956V15.3934C28.9364 13.4036 28.3666 11.6421 27.5558 10.3778C26.8277 9.2426 25.6914 8.57043 24.1094 8.18583C22.4734 7.7882 20.6004 7.75503 18.6406 7.75502C16.6811 7.75502 14.8078 7.78838 13.1719 8.18583C11.5897 8.57038 10.4536 9.24272 9.72545 10.3778C8.91301 11.6445 8.34127 13.41 8.19643 15.4046C7.95753 18.87 7.75893 22.3798 7.75893 25.947C7.75894 29.5144 7.95753 33.0273 8.19643 36.4894L8.27009 37.226C8.48775 38.9172 9.01465 40.4079 9.72545 41.5162C10.4534 42.6508 11.5884 43.3214 13.1696 43.7059C14.8059 44.1035 16.6805 44.139 18.6406 44.139C20.601 44.1389 22.4732 44.1051 24.1094 43.7081C25.6917 43.3243 26.828 42.6532 27.5558 41.5184C28.3669 40.2535 28.9368 38.4912 29.0826 36.5006L29.2522 33.889C29.4088 31.2684 29.5201 28.6222 29.5201 25.947ZM34.0915 25.947C34.0915 29.6734 33.8862 33.3146 33.6451 36.8153L33.6429 36.822C33.4531 39.4369 32.6979 41.9697 31.404 43.9872C29.8379 46.429 27.485 47.5927 25.1875 48.1501C22.9444 48.6943 20.5446 48.7104 18.6406 48.7104C16.7358 48.7104 14.335 48.6952 12.0915 48.1501C9.79393 47.5918 7.4431 46.4244 5.87723 43.9827C4.58343 41.9653 3.82601 39.4343 3.63616 36.8198V36.8108C3.39498 33.3165 3.18751 29.6766 3.1875 25.947C3.1875 22.2174 3.39501 18.5805 3.63616 15.0831V15.0742C3.82596 12.4593 4.58324 9.92659 5.87723 7.90904C7.44307 5.46814 9.79424 4.30223 12.0915 3.74386C14.335 3.19863 16.7357 3.18359 18.6406 3.18359C20.5453 3.1836 22.9445 3.19884 25.1875 3.74386C27.485 4.30228 29.8382 5.46759 31.404 7.90904C32.5364 9.67459 33.2572 11.8345 33.5469 14.0988L33.6429 15.0742L33.6451 15.0831C33.8862 18.5805 34.0915 22.2208 34.0915 25.947Z" fill="currentColor"/>
<path d="M20.5871 23.8169C21.8492 23.8171 22.8728 24.8404 22.8728 26.1026C22.8728 27.3648 21.8492 28.3881 20.5871 28.3883H5.47321C4.21085 28.3883 3.1875 27.365 3.1875 26.1026C3.1875 24.8402 4.21085 23.8169 5.47321 23.8169H20.5871Z" fill="currentColor"/>
<path d="M11.9137 18.3046C12.4782 17.1755 13.8515 16.7178 14.9806 17.2823C18.071 18.8275 21.0783 21.8349 22.6235 24.9252C22.9449 25.5685 22.9451 26.3265 22.6235 26.9698C21.0782 30.0603 18.071 33.0676 14.9806 34.6127C13.8518 35.1768 12.4784 34.7188 11.9137 33.5903C11.3492 32.4614 11.8071 31.088 12.936 30.5234C14.8008 29.591 16.7236 27.8086 17.9404 25.9475C16.7236 24.0863 14.801 22.3041 12.936 21.3716C11.8069 20.8071 11.3491 19.4337 11.9137 18.3046Z" fill="currentColor"/>
</svg>
