<svg width="28" height="27" viewBox="0 0 28 27" fill="none" xmlns="http://www.w3.org/2000/svg">
<path d="M21.2734 0.00085167C21.1277 0.00658188 20.9857 0.0484686 20.8601 0.12274C20.7346 0.197011 20.6295 0.301335 20.5544 0.426317C20.2829 0.911944 20.001 1.3917 19.7089 1.86524C17.4245 5.63077 15.0997 5.20793 10.9559 3.21886L5.20394 0.511847C4.73932 0.299662 4.2327 0.511847 4.02051 0.934688L1.27238 7.15392C1.06063 7.57763 1.27238 8.12822 1.69544 8.3391C2.9213 8.88947 5.33191 10.0322 7.44523 11.0892C15.2692 14.8138 21.9078 14.6016 26.981 6.35067H26.9814C27.2832 5.87464 27.5794 5.39511 27.87 4.91219C28.1237 4.48935 27.9962 3.93919 27.5736 3.68501L21.78 0.129913C21.6275 0.0380238 21.4513 -0.00686753 21.2734 0.00085167ZM11.6319 13.4112C7.59529 13.504 4.03079 15.5838 1.01863 20.4829C0.716726 20.9589 0.420375 21.4385 0.129637 21.9214C-0.123236 22.3442 0.00341901 22.8944 0.426041 23.1486L6.21959 26.7034C6.64243 26.9572 7.19127 26.8297 7.44523 26.407C7.71719 25.9217 7.99907 25.4419 8.2907 24.9681C10.5751 21.2026 12.9004 21.6254 17.0441 23.6145L22.7957 26.3215C23.2603 26.5337 23.7682 26.3215 23.9791 25.8987L26.7285 19.6797C26.939 19.2559 26.7283 18.7064 26.3042 18.4945C25.0783 17.9441 22.669 16.8014 20.5544 15.7444C17.3764 14.2142 14.3938 13.3476 11.6319 13.4112Z" fill="currentColor"/>
</svg>




