<svg width="17" height="19" viewBox="0 0 17 19" fill="none" xmlns="http://www.w3.org/2000/svg">
<path fill-rule="evenodd" clip-rule="evenodd" d="M7.85056 0.0125184C7.64004 0.0656584 7.4561 0.219738 7.36166 0.422058L7.30564 0.542058L7.29924 1.214L7.29284 1.88592L6.90924 1.89944C5.84532 1.93694 4.04986 2.09686 3.15564 2.23378C2.22186 2.37678 1.46956 2.88232 1.0005 3.68206C0.811836 4.00374 0.709036 4.32868 0.607736 4.92344C0.243976 7.0595 0.0486762 9.45578 0.00389617 12.3321C-0.0249638 14.1867 0.110836 16.725 0.267976 17.268C0.457216 17.9219 0.994656 18.4281 1.70126 18.6179L1.86564 18.6621H8.01564H14.1656L14.33 18.6179C14.9249 18.4581 15.3869 18.0879 15.653 17.558C15.7854 17.2943 15.8312 17.0426 15.9053 16.1721C16.118 13.6711 16.0505 10.1099 15.735 7.19206C15.5911 5.8615 15.3907 4.59256 15.2652 4.21696C14.9272 3.20546 14.0944 2.47266 13.0456 2.2641C12.8767 2.2305 11.9518 2.11434 11.4456 2.06314C10.6734 1.98504 9.80344 1.92366 9.13204 1.89992L8.73844 1.886L8.73204 1.21404L8.72564 0.542058L8.67204 0.427698C8.55386 0.175538 8.32716 0.0175984 8.06052 0.00163845C7.98634 -0.00280155 7.89186 0.00209842 7.85056 0.0125184ZM7.13564 3.32396C5.71724 3.38884 4.88608 3.45822 3.68046 3.6123C2.997 3.69966 2.81504 3.7731 2.49302 4.09156C2.32406 4.25864 2.28928 4.30542 2.21004 4.47206C2.10762 4.68744 2.08002 4.79494 1.9969 5.30206C1.7296 6.93304 1.57296 8.58248 1.47176 10.8321C1.43724 11.5997 1.4372 14.1426 1.4717 14.7921C1.50242 15.3701 1.56326 16.1919 1.60362 16.5737C1.64392 16.9551 1.6981 17.0575 1.92332 17.178L2.00564 17.2221L3.73064 17.2275L5.45564 17.2329V16.4439C5.45564 15.659 5.46688 15.4692 5.52918 15.2021C5.7136 14.4112 6.3208 13.7169 7.08564 13.4222C7.38334 13.3075 7.5712 13.2701 7.91098 13.2578C8.32496 13.2427 8.58254 13.2838 8.94564 13.4227C9.70698 13.7139 10.318 14.4124 10.5021 15.2021C10.5644 15.4692 10.5756 15.659 10.5756 16.4439V17.2329L12.3006 17.2275L14.0256 17.2221L14.108 17.178C14.3332 17.0575 14.3874 16.9551 14.4277 16.5737C14.4692 16.1811 14.5297 15.3595 14.5596 14.7821C14.5939 14.1208 14.5938 11.6188 14.5595 10.8421C14.458 8.54864 14.297 6.87744 14.0147 5.18938C13.9106 4.5665 13.8316 4.3851 13.5369 4.09156C13.3348 3.89022 13.186 3.7959 12.9408 3.71364C12.6654 3.6212 10.8518 3.4274 9.55564 3.35186C9.19308 3.33072 7.43152 3.31042 7.13564 3.32396ZM4.97032 6.17366C4.77906 6.21912 4.58698 6.37992 4.49968 6.56766C4.42498 6.72828 4.41488 6.95596 4.47532 7.117C4.52854 7.2588 4.68584 7.43628 4.81734 7.50292C4.86978 7.5295 4.9741 7.56072 5.04916 7.57228C5.14132 7.5865 6.13714 7.5915 8.11564 7.5877L11.0456 7.58206L11.1756 7.5199C11.3316 7.4453 11.4581 7.32172 11.5315 7.1722C11.5795 7.07466 11.5856 7.0392 11.5854 6.86206C11.5852 6.68198 11.5796 6.65142 11.5292 6.5553C11.4543 6.41256 11.3186 6.28062 11.1796 6.21546L11.0656 6.16206L8.05564 6.1589C6.34088 6.15712 5.01324 6.16346 4.97032 6.17366ZM4.92164 9.30916C4.72902 9.37598 4.5957 9.49554 4.49472 9.69206C4.46034 9.75898 4.44634 9.82566 4.44014 9.95206C4.42934 10.1724 4.47636 10.3059 4.62022 10.4633C4.74104 10.5955 4.86494 10.663 5.0384 10.6911C5.21364 10.7195 10.8176 10.7195 10.9929 10.6911C11.1663 10.663 11.2902 10.5955 11.4111 10.4633C11.5546 10.3062 11.6018 10.1725 11.5916 9.95206C11.5856 9.8231 11.5718 9.75826 11.5346 9.68352C11.4664 9.5463 11.3176 9.40016 11.181 9.33614L11.0656 9.28206L8.04564 9.27758C5.1805 9.27332 5.0203 9.27494 4.92164 9.30916ZM7.8309 14.6915C7.57288 14.7383 7.37702 14.8488 7.18288 15.057C7.11536 15.1295 7.03668 15.2383 7.00804 15.2988C6.90058 15.526 6.89564 15.5759 6.89564 16.4363V17.2321H8.01564H9.13564V16.4363C9.13564 15.796 9.12982 15.6181 9.10586 15.5261C9.01218 15.1665 8.7042 14.8381 8.36128 14.7322C8.21204 14.6861 7.96516 14.6671 7.8309 14.6915Z" fill="#0E172B"/>
</svg>
