<svg width="19" height="19" viewBox="0 0 19 19" fill="none" xmlns="http://www.w3.org/2000/svg">
<path d="M0.928916 10.1588C1.32131 10.1183 1.67244 10.4033 1.71296 10.7957C1.72211 10.8843 1.73127 10.9729 1.74086 11.0614C1.79316 11.5443 2.10504 11.963 2.53955 12.165C2.89717 12.3312 3.05235 12.7559 2.88623 13.1136C2.71998 13.4713 2.29528 13.6265 1.93757 13.4603C1.06708 13.0557 0.428993 12.2153 0.320657 11.2156C0.310853 11.1251 0.301508 11.0337 0.292057 10.9422C0.251645 10.5498 0.536572 10.1993 0.928916 10.1588ZM0.748949 5.47481C1.14312 5.48705 1.45299 5.81653 1.44091 6.21072C1.42443 6.7467 1.42443 7.2777 1.44091 7.81368C1.4529 8.2078 1.14307 8.53735 0.748949 8.54959C0.35474 8.56171 0.025315 8.25179 0.0130395 7.85762C-0.0043465 7.29237 -0.0043465 6.73203 0.0130395 6.16677C0.0252297 5.77253 0.354686 5.46268 0.748949 5.47481ZM3.07526 0.294145C3.46748 0.2519 3.81984 0.535993 3.86209 0.928214C3.90418 1.32033 3.62016 1.67211 3.22802 1.71435C3.13764 1.72408 3.04702 1.73416 2.95668 1.74434C2.31983 1.81627 1.80534 2.33244 1.73667 2.96644C1.72708 3.05499 1.71792 3.14357 1.70877 3.2322C1.66825 3.62461 1.31713 3.91028 0.92473 3.86976C0.532419 3.82915 0.247361 3.47806 0.287872 3.08572C0.297311 2.9943 0.306685 2.90334 0.316471 2.81298C0.457513 1.51081 1.49859 0.471202 2.79694 0.324837C2.88911 0.314449 2.98195 0.304196 3.07526 0.294145ZM10.9645 0.291355C11.0578 0.301402 11.1507 0.311663 11.2428 0.322047C12.2304 0.433415 13.0644 1.06016 13.4715 1.91942C13.6403 2.2759 13.4882 2.70197 13.1318 2.87088C12.7753 3.03973 12.3492 2.88763 12.1803 2.53117C11.978 2.10397 11.5625 1.79567 11.0824 1.74155C10.992 1.73137 10.9014 1.72199 10.811 1.71225C10.419 1.66987 10.1355 1.31748 10.1777 0.925423C10.2199 0.533203 10.5723 0.24911 10.9645 0.291355ZM6.17306 0.0130349C6.73821 -0.00434522 7.29805 -0.00434472 7.86321 0.0130349C8.25751 0.0251628 8.5673 0.354642 8.55517 0.748945C8.54293 1.14314 8.21349 1.45303 7.81926 1.44091C7.2834 1.42443 6.75286 1.42443 6.217 1.44091C5.82277 1.45303 5.49334 1.14314 5.48109 0.748945C5.46896 0.354642 5.77875 0.0251628 6.17306 0.0130349Z" fill="#CAD5E2"/>
<path d="M17.2445 11.6579C17.2445 10.5748 17.1513 9.50531 17.0373 8.44287C16.983 7.96279 16.7877 7.51131 16.4786 7.14404L16.3398 6.99198C15.9497 6.60094 15.4382 6.35359 14.8896 6.29025C13.8196 6.17016 12.7452 6.07122 11.6578 6.07122C10.5708 6.07122 9.49804 6.1706 8.42542 6.28885C7.87702 6.3523 7.36652 6.6004 6.97662 6.99128C6.58766 7.38126 6.34113 7.89088 6.27838 8.43799C6.1642 9.50366 6.07121 10.5746 6.07121 11.6579C6.07121 12.7398 6.16438 13.8094 6.27838 14.8728L6.31047 15.0765C6.40441 15.5473 6.63538 15.9815 6.97662 16.3237C7.36667 16.7147 7.87755 16.9621 8.42612 17.0255C9.49644 17.1456 10.5702 17.2445 11.6578 17.2445C12.7452 17.2445 13.8184 17.1456 14.8896 17.0255C15.4381 16.9621 15.949 16.7147 16.3391 16.3237C16.7291 15.9326 16.9753 15.4209 17.0373 14.8721C17.1512 13.8088 17.2445 12.7406 17.2445 11.6579ZM18.673 11.6579C18.673 12.8198 18.5731 13.9504 18.4575 15.0291L18.4568 15.0326C18.3586 15.902 17.9689 16.7127 17.3512 17.3324C16.7331 17.9519 15.923 18.3446 15.0535 18.445H15.0514C13.9659 18.5667 12.8279 18.6731 11.6578 18.6731C10.4878 18.6731 9.34882 18.5667 8.26429 18.445H8.2622C7.39286 18.3446 6.58319 17.9525 5.96518 17.3331C5.3472 16.7134 4.95705 15.9022 4.85888 15.0326L4.85818 15.0291C4.74249 13.9503 4.64264 12.8188 4.64264 11.6579C4.64264 10.497 4.7425 9.36556 4.85818 8.28592L4.85888 8.28243C4.95704 7.41277 5.34714 6.60155 5.96518 5.98193C6.58321 5.36243 7.39289 4.97041 8.2622 4.87005H8.26568C9.34945 4.75053 10.4877 4.64265 11.6578 4.64265C12.5354 4.64265 13.3956 4.70223 14.2283 4.78355L15.0514 4.87074L15.0535 4.87144C15.9229 4.97182 16.7331 5.36373 17.3512 5.98333C17.9304 6.56415 18.3091 7.31289 18.4352 8.1206L18.4568 8.28313L18.4575 8.28732C18.5731 9.36496 18.673 10.496 18.673 11.6579Z" fill="#CAD5E2"/>
</svg>
