<svg width="36" height="36" viewBox="0 0 36 36" fill="none" xmlns="http://www.w3.org/2000/svg">
<path fill-rule="evenodd" clip-rule="evenodd" d="M13.8997 1.27922C12.6248 1.5147 11.441 1.84806 10.3772 2.27116C9.31237 2.69467 9.0464 2.87395 8.84163 3.30616C8.74144 3.51763 8.72816 3.58196 8.7291 3.85189C8.73007 4.12588 8.74285 4.18338 8.85128 4.40139C9.04338 4.78749 9.38487 5.03956 9.80514 5.10548C10.1473 5.15912 10.2779 5.12474 11.1303 4.7565C12.0111 4.37598 13.2026 4.03387 14.413 3.81394C14.7478 3.7531 15.0799 3.67362 15.151 3.63729C15.6538 3.38014 15.9476 2.78352 15.8375 2.24326C15.7516 1.82188 15.4831 1.4846 15.0903 1.30481C14.8066 1.17489 14.5001 1.16834 13.8997 1.27922ZM21.0683 1.24012C20.5913 1.3892 20.26 1.75474 20.1592 2.24326C20.0479 2.78236 20.342 3.37996 20.8451 3.63729C20.9162 3.67362 21.2483 3.7531 21.5831 3.81394C22.7935 4.03387 23.985 4.37598 24.8658 4.7565C25.7183 5.12474 25.8488 5.15912 26.191 5.10548C26.6112 5.03956 26.9527 4.78749 27.1448 4.40139C27.2533 4.18338 27.266 4.12588 27.267 3.85189C27.2679 3.58261 27.2546 3.51741 27.1556 3.30861C26.9537 2.88244 26.6656 2.6875 25.6275 2.27462C24.5242 1.83578 23.3224 1.50055 22.049 1.27641C21.4883 1.17777 21.2912 1.17046 21.0683 1.24012ZM4.69605 6.81652C4.31118 6.94285 4.13758 7.11194 3.7368 7.75065C3.15388 8.67963 2.52842 10.0261 2.19492 11.0699C2.09858 11.3713 2.08184 11.474 2.09196 11.7007C2.11413 12.1971 2.37157 12.5777 2.84072 12.8076C3.0124 12.8917 3.08502 12.9053 3.36405 12.9056C3.64402 12.9059 3.71509 12.8926 3.88713 12.8081C4.32799 12.5916 4.4587 12.4093 4.73356 11.6279C5.07218 10.6653 5.44564 9.88761 5.98251 9.02728C6.16276 8.73842 6.28884 8.49196 6.32322 8.36128C6.47546 7.78212 6.16734 7.13696 5.61585 6.88035C5.3793 6.77026 4.93156 6.7392 4.69605 6.81652ZM30.4484 6.85123C30.0266 7.02914 29.7557 7.34702 29.6664 7.76865C29.5752 8.19982 29.6363 8.42277 30.0104 9.02221C30.5506 9.88783 30.9232 10.6633 31.2625 11.6279C31.5374 12.4093 31.6681 12.5916 32.109 12.8081C32.281 12.8926 32.3521 12.9059 32.632 12.9056C32.9111 12.9053 32.9837 12.8917 33.1554 12.8076C33.4526 12.662 33.6287 12.4924 33.768 12.218C33.9488 11.8619 33.9575 11.5592 33.8012 11.0699C33.4677 10.0261 32.8422 8.67963 32.2593 7.75065C31.7762 6.98065 31.5353 6.80054 30.958 6.77754C30.699 6.7672 30.6208 6.77851 30.4484 6.85123ZM17.7101 9.03193C17.3921 9.13478 17.0675 9.41032 16.9227 9.70038C16.878 9.78987 16.8257 9.96451 16.8065 10.0885C16.785 10.227 16.7755 11.8335 16.7818 14.2559L16.7921 18.1979L16.9071 18.4409C17.0133 18.665 17.2023 18.8659 19.3549 21.0429C20.6379 22.3404 21.7489 23.4512 21.8237 23.5113C22.0726 23.7113 22.2649 23.775 22.6241 23.7766C22.9022 23.7777 22.9773 23.7642 23.1545 23.6811C23.4032 23.5646 23.6714 23.3032 23.7941 23.0579C23.8721 22.9019 23.8841 22.8299 23.8841 22.5179C23.8841 21.9012 24.0107 22.0598 21.5263 19.5646L19.3677 17.3966L19.3579 13.6752L19.3481 9.95389L19.2513 9.74739C19.1335 9.49604 18.8704 9.22543 18.6281 9.10638C18.483 9.0351 18.3851 9.01645 18.1241 9.01036C17.9459 9.00622 17.7596 9.01591 17.7101 9.03193ZM2.0084 16.6814C1.60682 16.8466 1.34352 17.1418 1.2353 17.5482C1.098 18.0638 1.27324 20.6295 1.54767 22.1219C1.8072 23.5331 2.22645 24.9411 2.72728 26.0834C4.71214 30.6104 8.51418 33.4821 13.8041 34.4499C14.7092 34.6155 15.6173 34.7154 16.7902 34.7783C17.872 34.8363 18.2399 34.8171 18.5285 34.6874C19.0625 34.4475 19.3742 33.8432 19.2569 33.2753C19.1987 32.9931 19.1047 32.8191 18.8998 32.6142C18.5645 32.279 18.379 32.2341 17.2061 32.2042C14.0746 32.1243 11.2941 31.3517 9.20808 29.9821C7.39389 28.7908 6.02787 27.1644 5.13284 25.1299C4.28432 23.2012 3.86834 21.1614 3.78219 18.5069C3.75285 17.6024 3.7499 17.5763 3.65169 17.3575C3.52274 17.0702 3.21537 16.777 2.93194 16.6709C2.65129 16.5659 2.2788 16.5701 2.0084 16.6814ZM33.0539 16.671C32.7799 16.7788 32.4693 17.0794 32.3444 17.3576C32.2463 17.576 32.2431 17.6039 32.2146 18.4853C32.1433 20.6898 31.8593 22.393 31.2885 24.0409C31.1904 24.3241 31.1041 24.5619 31.0967 24.5693C31.0893 24.5767 30.9781 24.5607 30.8497 24.5337C29.6242 24.277 28.1515 24.4284 27.1589 24.9133C25.9321 25.5125 25.1191 26.5899 24.8236 28.0079C24.6702 28.7439 24.6757 29.8646 24.8362 30.6C25.1918 32.2292 26.2426 33.4029 27.7809 33.8889C28.3805 34.0782 28.6392 34.1096 29.5901 34.1082C30.3655 34.107 30.5155 34.0972 30.8321 34.027C31.8173 33.8085 32.5091 33.4441 33.1384 32.8124C34.0925 31.8546 34.5356 30.453 34.4123 28.7832C34.3333 27.7144 34.0603 26.921 33.5118 26.1657L33.3374 25.9256L33.4617 25.6173C34.0473 24.1651 34.4595 22.4377 34.6652 20.5741C34.7717 19.6092 34.8369 17.917 34.7786 17.6308C34.6961 17.226 34.4267 16.8828 34.0541 16.708C33.7803 16.5794 33.329 16.5628 33.0539 16.671ZM28.9961 27.0234C28.2852 27.1363 27.7748 27.4716 27.5369 27.9819C27.3471 28.389 27.3067 28.6147 27.3065 29.2679C27.3064 29.7132 27.322 29.9241 27.3689 30.1103C27.5564 30.8544 27.9659 31.2668 28.7209 31.4714C29.1205 31.5797 30.0266 31.5789 30.4294 31.4698C31.1665 31.2702 31.5697 30.8586 31.7751 30.0959C31.8711 29.7396 31.8605 28.7748 31.7564 28.3926C31.563 27.6825 31.1695 27.2896 30.4457 27.0838C30.2567 27.0301 29.2248 26.9871 28.9961 27.0234Z" fill="currentColor"/>
</svg>
