<svg width="32" height="32" viewBox="0 0 32 32" fill="none" xmlns="http://www.w3.org/2000/svg">
<path d="M25.1417 8.66434C25.1417 8.03333 25.6537 7.52177 26.2846 7.52148C26.9158 7.52148 27.4275 8.03316 27.4275 8.66434C27.4275 15.4688 21.8878 20.9757 15.0647 20.9757C14.4335 20.9757 13.9219 20.4641 13.9219 19.8329C13.9219 19.2017 14.4336 18.69 15.0647 18.69C20.6354 18.69 25.1417 14.1964 25.1417 8.66434Z" fill="white"/>
<path d="M13.9342 19.8329C13.9342 19.0959 13.73 18.6801 13.4967 18.4478C13.2625 18.2148 12.8424 18.0103 12.0982 18.0103C11.354 18.0103 10.9339 18.2148 10.6998 18.4478C10.4664 18.6801 10.2623 19.0959 10.2623 19.8329C10.2623 20.5696 10.4665 20.9846 10.6998 21.2168C10.9339 21.4498 11.3539 21.6543 12.0982 21.6543C12.8425 21.6543 13.2625 21.4498 13.4967 21.2168C13.7299 20.9846 13.9341 20.5695 13.9342 19.8329ZM16.2199 19.8329C16.2198 20.9934 15.8876 22.0605 15.1083 22.8362C14.3296 23.6112 13.2603 23.94 12.0982 23.94C10.9361 23.94 9.86683 23.6112 9.08817 22.8362C8.3088 22.0605 7.97663 20.9933 7.97656 19.8329C7.97656 18.6722 8.30874 17.6042 9.08817 16.8284C9.86681 16.0535 10.9362 15.7246 12.0982 15.7246C13.2602 15.7246 14.3296 16.0535 15.1083 16.8284C15.8877 17.6042 16.2199 18.6722 16.2199 19.8329Z" fill="white"/>
<path d="M28.1217 5.70006C28.1217 4.96365 27.9173 4.54851 27.6842 4.31613C27.45 4.08308 27.0299 3.87754 26.2857 3.87751C25.5415 3.87751 25.1214 4.08202 24.8873 4.31501C24.654 4.54727 24.4498 4.96303 24.4498 5.70006C24.4498 6.43675 24.654 6.85175 24.8873 7.08398C25.1214 7.317 25.5415 7.52148 26.2857 7.52148C27.0299 7.52146 27.45 7.31703 27.6842 7.08398C27.9174 6.85171 28.1216 6.43663 28.1217 5.70006ZM30.4074 5.70006C30.4073 6.86055 30.0751 7.92766 29.2958 8.7034C28.5171 9.47842 27.4478 9.80717 26.2857 9.8072C25.1236 9.8072 24.0532 9.47849 23.2746 8.7034C22.4956 7.92767 22.1641 6.86028 22.1641 5.70006C22.1641 4.53959 22.4953 3.47142 23.2746 2.69559C24.0532 1.9205 25.1236 1.5918 26.2857 1.5918C27.4477 1.59183 28.5171 1.92069 29.2958 2.69559C30.0752 3.47142 30.4074 4.5394 30.4074 5.70006Z" fill="white"/>
<path d="M2.96265 23.0443C3.59035 22.9792 4.15295 23.4356 4.21823 24.0632C4.23857 24.2593 4.25944 24.4556 4.28073 24.6514C4.45425 26.2447 5.74902 27.5406 7.36332 27.7217C7.56339 27.7442 7.7646 27.767 7.966 27.7887C8.59334 27.8562 9.04768 28.4192 8.98051 29.0465C8.91301 29.674 8.34911 30.1285 7.72158 30.061C7.51653 30.039 7.3115 30.017 7.10774 29.994V29.9929C4.44236 29.6935 2.29883 27.567 2.00841 24.8981C1.98683 24.6997 1.96448 24.5004 1.94368 24.2998C1.87859 23.6722 2.33503 23.1096 2.96265 23.0443Z" fill="white"/>
<path d="M2.77475 12.9229C3.401 12.9298 3.90533 13.4395 3.90533 14.0658V18.7153C3.90513 19.3414 3.40087 19.8513 2.77475 19.8582C2.1486 19.865 1.63338 19.3659 1.61962 18.7399C1.58513 17.171 1.58513 15.6091 1.61962 14.0401C1.63367 13.4143 2.14878 12.9162 2.77475 12.9229Z" fill="white"/>
<path d="M2.77475 2.24812C3.401 2.255 3.90533 2.76469 3.90533 3.39097V8.04053C3.90513 8.66664 3.40087 9.1765 2.77475 9.18338C2.1486 9.19015 1.63338 8.69114 1.61962 8.06508C1.58513 6.49613 1.58513 4.93426 1.61962 3.3653C1.63367 2.7395 2.14878 2.24135 2.77475 2.24812Z" fill="white"/>
<path d="M18.0168 28.0967C18.6431 28.0967 19.1528 28.601 19.1597 29.2273C19.1664 29.8534 18.6674 30.3687 18.0414 30.3824C16.4655 30.4169 14.8973 30.4169 13.3215 30.3824C12.6954 30.3687 12.1965 29.8534 12.2032 29.2273C12.2101 28.601 12.7198 28.0967 13.346 28.0967H18.0168Z" fill="white"/>
<path d="M28.7356 28.0967C29.3618 28.0967 29.8716 28.601 29.8784 29.2273C29.8851 29.8534 29.3862 30.3687 28.7601 30.3824C27.1844 30.4169 25.616 30.4169 24.0402 30.3824C23.4142 30.3687 22.9152 29.8534 22.9219 29.2273C22.9288 28.601 23.4385 28.0967 24.0648 28.0967H28.7356Z" fill="white"/>
</svg>
