<svg width="16" height="16" viewBox="0 0 16 16" fill="none" xmlns="http://www.w3.org/2000/svg">
<g clip-path="url(#clip0_137_191)">
<path d="M0.958597 0.671296C1.19644 0.463952 1.55755 0.488733 1.76496 0.726542C5.97244 5.55074 10.4491 10.0275 15.2733 14.2349C15.5111 14.4423 15.5359 14.8034 15.3286 15.0413C15.1212 15.2791 14.7601 15.3039 14.5222 15.0965C9.65879 10.8549 5.14504 6.34109 0.903352 1.47766C0.696008 1.23982 0.720789 0.878703 0.958597 0.671296Z" fill="#0E172B"/>
<path d="M14.2348 0.726542C14.4422 0.488732 14.8033 0.463952 15.0412 0.671297C15.279 0.878703 15.3037 1.23982 15.0964 1.47766C10.8547 6.34109 6.34096 10.8549 1.47754 15.0965C1.23969 15.3039 0.878582 15.2791 0.671175 15.0413C0.463829 14.8034 0.488611 14.4423 0.726421 14.2349C5.55061 10.0275 10.0273 5.55074 14.2348 0.726542Z" fill="#0E172B"/>
</g>
<defs>
<clipPath id="clip0_137_191">
<rect width="16" height="16" fill="white"/>
</clipPath>
</defs>
</svg>
