<svg width="28" height="28" viewBox="0 0 28 28" fill="none" xmlns="http://www.w3.org/2000/svg">
<g clip-path="url(#clip0_9849_3098)">
<path fill-rule="evenodd" clip-rule="evenodd" d="M5.34138 4.40758C4.38045 4.634 3.46432 4.95929 2.7665 5.32182C2.26136 5.58424 2.18307 5.76234 2.10726 6.82167C2.04132 7.74316 2.08338 8.47161 2.26526 9.55729C2.46072 10.7241 2.69834 11.5288 3.11683 12.4409C3.41486 13.0906 3.54657 13.2486 3.8764 13.3518C4.03257 13.4006 4.06961 13.4028 4.2413 13.3733C4.59152 13.313 4.84014 13.0965 4.93345 12.7706C5.00715 12.5132 4.98506 12.365 4.82274 12.0285C4.32816 11.0033 4.10373 10.2563 3.92413 9.03755C3.84207 8.48068 3.77798 7.78801 3.805 7.75008C3.80807 7.74577 8.09551 10.7948 13.3326 14.5258C18.5698 18.2568 22.8441 21.3114 22.8311 21.3138C22.8182 21.3163 22.6825 21.3559 22.5296 21.402C22.1342 21.521 21.0433 21.7245 20.5581 21.7698C19.7749 21.8428 19.2312 21.8352 18.4496 21.7403C18.0818 21.6956 17.9327 21.7237 17.7182 21.878C17.44 22.0783 17.3177 22.3831 17.3768 22.7285C17.4054 22.8951 17.4223 22.936 17.5158 23.066C17.6602 23.2667 17.8326 23.3709 18.1009 23.42C18.7231 23.5337 19.6228 23.5639 20.546 23.5021C21.0252 23.47 22.3255 23.2441 22.8161 23.1077C23.5618 22.9004 24.2299 22.6482 24.8185 22.3517C25.3821 22.0678 25.459 21.904 25.5364 20.8225C25.602 19.9057 25.5601 19.173 25.3804 18.0987C25.1851 16.9305 24.9439 16.1121 24.5269 15.2032C24.2288 14.5535 24.0971 14.3956 23.7673 14.2924C23.6111 14.2435 23.5741 14.2413 23.4024 14.2709C23.0529 14.3311 22.8035 14.5477 22.7107 14.872C22.6326 15.1444 22.653 15.2587 22.8565 15.6903C23.1325 16.2755 23.2557 16.5969 23.4341 17.1966C23.5742 17.6677 23.8126 19.0868 23.8314 19.5617C23.8385 19.7402 23.8417 19.8898 23.8387 19.8941C23.8356 19.8984 19.5482 16.8493 14.3111 13.1183C9.0739 9.38736 4.79959 6.33277 4.81256 6.3303C4.82551 6.32786 4.9612 6.28813 5.11408 6.24206C5.50038 6.12561 6.64646 5.91154 7.09685 5.87169C7.88631 5.80187 8.44528 5.81064 9.19084 5.90454C9.55557 5.95049 9.70954 5.92146 9.92544 5.76608C10.2037 5.56578 10.326 5.26106 10.2668 4.91558C10.2383 4.74907 10.2214 4.70809 10.1279 4.57815C9.92679 4.29877 9.73175 4.22452 9.0194 4.15609C8.44028 4.10048 7.90915 4.09314 7.2541 4.13168C6.91923 4.15139 5.65425 4.33386 5.34138 4.40758Z" fill="white"/>
</g>
<defs>
<clipPath id="clip0_9849_3098">
<rect width="24" height="24" fill="white" transform="translate(0 3.97515) rotate(-9.5339)"/>
</clipPath>
</defs>
</svg>
