<svg xmlns="http://www.w3.org/2000/svg" width="28" height="28" viewBox="0 0 28 28" fill="none">
  <path fill-rule="evenodd" clip-rule="evenodd" d="M6.062 1.52945C4.91265 1.60427 3.79573 1.8015 2.92281 2.08377C2.2909 2.28809 2.16642 2.47787 1.87449 3.68204C1.62056 4.72952 1.52818 5.57576 1.52765 6.86004C1.52706 8.24033 1.64497 9.21204 1.9502 10.3424C2.16756 11.1475 2.28858 11.3546 2.64813 11.5371C2.81837 11.6235 2.86056 11.6332 3.06382 11.6324C3.47841 11.6307 3.80629 11.4296 3.97661 11.0727C4.11116 10.7908 4.11437 10.616 3.99263 10.1976C3.62172 8.92235 3.50784 8.01952 3.53671 6.58261C3.5499 5.92604 3.61001 5.1167 3.64843 5.07829C3.6528 5.07392 7.99652 9.41053 13.3011 14.7152C18.6058 20.0199 22.9334 24.3603 22.918 24.3606C22.9026 24.3609 22.7388 24.3804 22.554 24.4038C22.076 24.4643 20.7816 24.4876 20.2147 24.446C19.2994 24.3787 18.6753 24.2649 17.7943 24.0046C17.3799 23.8822 17.2028 23.8857 16.9263 24.0218C16.5674 24.1985 16.3678 24.5254 16.3692 24.9344C16.3698 25.1315 16.3813 25.1819 16.4638 25.3494C16.5912 25.6083 16.7694 25.7615 17.0686 25.8698C17.7625 26.1209 18.7918 26.3295 19.866 26.4367C20.4235 26.4924 21.9632 26.4838 22.554 26.4217C23.4521 26.3273 24.2695 26.1662 25.004 25.9388C25.7073 25.7211 25.8275 25.5475 26.1255 24.318C26.3781 23.276 26.4715 22.4249 26.4724 21.154C26.4734 19.7723 26.354 18.7841 26.0498 17.6577C25.8324 16.8526 25.7114 16.6455 25.3519 16.463C25.1816 16.3765 25.1394 16.3669 24.9362 16.3677C24.5224 16.3694 24.1937 16.5706 24.0242 16.9256C23.8818 17.2241 23.8831 17.3595 24.0339 17.8953C24.2383 18.622 24.318 19.0156 24.4073 19.74C24.4775 20.3092 24.4775 21.988 24.4074 22.538C24.3811 22.7447 24.3559 22.9174 24.3516 22.9218C24.3472 22.9262 20.0035 18.5895 14.6989 13.2849C9.39419 7.98021 5.06663 3.63979 5.08203 3.63945C5.0974 3.63914 5.2612 3.61965 5.446 3.59619C5.91296 3.53686 7.27294 3.51202 7.79884 3.55321C8.72065 3.62542 9.36208 3.74353 10.2017 3.99564C10.6125 4.11898 10.7953 4.11534 11.0737 3.97828C11.4326 3.8016 11.6322 3.47464 11.6308 3.0657C11.6302 2.86861 11.6187 2.81821 11.5362 2.65063C11.3588 2.29033 11.1487 2.16721 10.3424 1.95083C9.68679 1.77493 9.07712 1.66385 8.316 1.58162C7.92691 1.53959 6.43622 1.50509 6.062 1.52945Z" fill="white"/>
</svg>