<svg width="24" height="24" viewBox="0 0 24 24" fill="none" xmlns="http://www.w3.org/2000/svg">
<path fill-rule="evenodd" clip-rule="evenodd" d="M10.2134 0.819265C9.08804 0.955321 8.21751 1.14905 7.32245 1.46259C7.13163 1.52945 6.92643 1.61775 6.86645 1.65881C6.63588 1.81666 6.49901 2.08059 6.49954 2.36638C6.50041 2.84347 6.86936 3.21689 7.3399 3.21689C7.47574 3.21689 7.58317 3.19008 8.00564 3.05081C8.80393 2.7876 9.50439 2.63475 10.3694 2.5349C10.5476 2.51434 10.7294 2.48707 10.7734 2.47431C10.9822 2.41371 11.1783 2.24079 11.298 2.01175C11.357 1.89869 11.3642 1.8601 11.3635 1.65689C11.3624 1.3632 11.2978 1.21517 11.0875 1.02485C10.8557 0.815161 10.6492 0.766585 10.2134 0.819265ZM13.208 0.845089C13.0111 0.911137 12.7979 1.10086 12.7062 1.29166C12.6487 1.41113 12.6401 1.45841 12.6393 1.65689C12.6386 1.8601 12.6457 1.89869 12.7048 2.01175C12.8245 2.24081 13.0207 2.41383 13.2294 2.47426C13.2734 2.487 13.4498 2.51391 13.6214 2.53407C15.9561 2.80824 17.6925 3.55966 18.9984 4.86089C20.1751 6.03336 20.917 7.52955 21.2654 9.43289C21.4088 10.2162 21.4553 10.7223 21.4734 11.7009C21.4935 12.7822 21.4428 13.5297 21.2873 14.4465C20.8506 17.0197 19.6203 18.9815 17.7014 20.1645C16.5766 20.858 15.2759 21.2734 13.6214 21.4677C13.4498 21.4879 13.2734 21.5148 13.2294 21.5275C13.0206 21.588 12.8243 21.7611 12.7049 21.99C12.6463 22.1025 12.6388 22.1428 12.6388 22.3449C12.6387 22.5453 12.6468 22.5895 12.7055 22.7101C12.8055 22.9159 13.0202 23.1002 13.2364 23.1659C13.3965 23.2145 13.4212 23.2157 13.7054 23.1879C15.7986 22.9837 17.6699 22.3226 19.1414 21.2676C19.6865 20.8767 20.3812 20.2335 20.7771 19.7529C22.061 18.1944 22.8268 16.2718 23.0999 13.9209C23.1769 13.2579 23.1961 12.8759 23.1961 12.0009C23.1961 10.9415 23.1529 10.3341 23.0163 9.47343C22.6854 7.38871 21.9498 5.67233 20.7771 4.24889C20.5406 3.96185 19.8826 3.31087 19.5974 3.08182C18.0312 1.82405 16.1968 1.10388 13.8614 0.829921C13.4599 0.782833 13.3886 0.784489 13.208 0.845089ZM4.18517 3.44186C4.02044 3.49596 3.91527 3.57341 3.62849 3.85188C2.96218 4.4989 2.39501 5.2571 1.94012 6.10889C1.70931 6.54108 1.67228 6.65304 1.68653 6.87531C1.70693 7.19307 1.87095 7.44355 2.15201 7.58621C2.30211 7.66241 2.33197 7.66889 2.53265 7.66889C2.72909 7.66889 2.76562 7.66138 2.9059 7.59223C3.12505 7.48419 3.21284 7.38118 3.42104 6.98777C3.84303 6.19042 4.24738 5.65166 4.90923 5.00489C5.08921 4.82902 5.17162 4.72863 5.21773 4.62917C5.41745 4.1983 5.24041 3.70644 4.80778 3.49037C4.6537 3.41343 4.34511 3.38938 4.18517 3.44186ZM11.8543 6.38506C11.6796 6.41499 11.5321 6.49195 11.404 6.62004C11.2669 6.75708 11.2021 6.87394 11.1643 7.05206C11.145 7.14324 11.1374 8.31022 11.1374 11.1741C11.1374 13.3712 11.1307 15.1689 11.1226 15.1689C11.09 15.1689 10.5445 14.6665 10.318 14.4277C9.83996 13.9239 9.44696 13.3961 9.14537 12.8529C8.95198 12.5046 8.83061 12.3624 8.6534 12.2765C8.30451 12.1075 7.89478 12.1849 7.63973 12.468C7.4941 12.6297 7.4377 12.7652 7.42335 12.9879C7.4089 13.2124 7.44152 13.321 7.62605 13.6628C8.28284 14.8795 9.49438 16.1937 10.7054 17.0031C11.0638 17.2427 11.5216 17.5069 11.6956 17.5746C11.8666 17.6412 12.1362 17.6412 12.3072 17.5746C12.5798 17.4685 13.3198 17.0119 13.7206 16.7026C14.4241 16.1597 15.1815 15.3987 15.6888 14.7249C15.9965 14.3161 16.3109 13.8119 16.4819 13.4529C16.5685 13.2711 16.5733 13.2488 16.572 13.0329C16.5704 12.7653 16.528 12.6517 16.3598 12.4647C16.0472 12.1169 15.5034 12.0926 15.1581 12.4108C15.0971 12.467 15.0081 12.5841 14.9603 12.671C14.662 13.2129 14.4519 13.5277 14.107 13.9501C13.8601 14.2524 13.332 14.7938 13.0574 15.026L12.8774 15.1782L12.8654 11.1115C12.8545 7.40633 12.8499 7.0357 12.8137 6.94157C12.6632 6.54936 12.2601 6.31555 11.8543 6.38506ZM1.5734 9.48171C1.22045 9.55361 0.949493 9.84197 0.893357 10.2054C0.775757 10.967 0.774965 13.042 0.891989 13.8C0.981221 14.3778 1.60858 14.7064 2.12221 14.4444C2.26796 14.37 2.44201 14.1926 2.51506 14.0439C2.57557 13.9208 2.58133 13.8857 2.58049 13.6449C2.57998 13.4997 2.56647 13.2153 2.55049 13.013C2.51288 12.5372 2.51329 11.4979 2.55128 10.9929C2.59846 10.3659 2.59191 10.1159 2.52471 9.9797C2.4014 9.72974 2.18134 9.54989 1.92493 9.48953C1.77476 9.4542 1.715 9.45286 1.5734 9.48171ZM2.29263 16.353C1.93654 16.4698 1.71044 16.7588 1.68656 17.1278C1.67218 17.3497 1.7101 17.4643 1.93978 17.8929C2.40272 18.7568 2.96482 19.5065 3.64181 20.163C4.01597 20.5258 4.12141 20.5809 4.4414 20.5809C4.64228 20.5809 4.68509 20.573 4.8014 20.5148C5.13742 20.3465 5.32753 20.0226 5.29561 19.6726C5.2718 19.4113 5.19385 19.275 4.90923 18.9969C4.24222 18.3451 3.84531 17.8157 3.41751 17.0074C3.21368 16.6222 3.12421 16.5172 2.90984 16.4115C2.78828 16.3516 2.72182 16.3352 2.57384 16.329C2.46428 16.3244 2.35011 16.3341 2.29263 16.353ZM7.05015 20.8322C6.7124 20.9641 6.50019 21.2737 6.49954 21.6354C6.49901 21.9216 6.63586 22.1851 6.86729 22.3436C6.9853 22.4244 7.56087 22.6332 8.0294 22.7653C8.73704 22.9648 9.69843 23.1401 10.4085 23.1991C10.6928 23.2227 10.8842 23.1608 11.083 22.981C11.2981 22.7863 11.3624 22.6405 11.3635 22.3449C11.3642 22.1417 11.357 22.1031 11.298 21.99C11.1783 21.761 10.9822 21.5881 10.7734 21.5275C10.7294 21.5147 10.5476 21.4874 10.3694 21.4669C9.41866 21.3571 8.68256 21.189 7.75757 20.8703C7.46453 20.7693 7.24174 20.7573 7.05015 20.8322Z" fill="white"/>
</svg>
