<svg width="16" height="16" viewBox="0 0 16 16" fill="none" xmlns="http://www.w3.org/2000/svg">
<path fill-rule="evenodd" clip-rule="evenodd" d="M1.49745 4.25808C1.40279 4.28029 1.27284 4.36123 1.20117 4.44264C1.10738 4.54918 1.06559 4.6673 1.06497 4.82752L1.06445 4.95885L1.2281 5.28352C1.66113 6.14256 2.20354 7.03539 2.69017 7.69005C3.71237 9.06525 4.86877 10.0738 6.54399 11.0513C6.97061 11.3002 7.1776 11.3876 7.50962 11.4593C7.72978 11.5068 8.23647 11.5108 8.45541 11.4667C8.78717 11.4 9.0357 11.2972 9.44799 11.0562C11.1367 10.0691 12.2694 9.08213 13.305 7.69554C13.7943 7.04042 14.3714 6.08835 14.7959 5.23566L14.9336 4.95914L14.9341 4.82766C14.935 4.5919 14.8256 4.41005 14.6212 4.30739C14.4469 4.21982 14.2671 4.22307 14.0914 4.31701C13.9714 4.38112 13.9049 4.46819 13.7528 4.76046C13.2658 5.6961 12.8302 6.41446 12.3997 6.99219C11.4631 8.24888 10.4252 9.15658 8.91999 10.0352C8.45317 10.3077 8.3444 10.3442 7.99999 10.3442C7.65557 10.3442 7.5468 10.3077 7.07999 10.0352C6.09287 9.45896 5.38042 8.9252 4.67431 8.2328C3.78599 7.36175 3.05711 6.32157 2.26456 4.79387C2.17829 4.6276 2.08228 4.46341 2.05119 4.42899C1.91636 4.27974 1.69557 4.2116 1.49745 4.25808Z" fill="white"/>
</svg>
