<svg width="32" height="32" viewBox="0 0 32 32" fill="none" xmlns="http://www.w3.org/2000/svg">
<path d="M28.6574 27.1496C28.6574 26.5139 28.4819 26.1781 28.3036 26C28.1247 25.8216 27.7867 25.6451 27.1473 25.6451C26.508 25.6451 26.1699 25.8216 25.9911 26C25.8128 26.1781 25.6373 26.5141 25.6373 27.1496C25.6374 27.7852 25.8127 28.121 25.9911 28.2991C26.1699 28.4776 26.5081 28.6529 27.1473 28.6529C27.7866 28.6529 28.1247 28.4776 28.3036 28.2991C28.482 28.121 28.6573 27.7853 28.6574 27.1496ZM30.9431 27.1496C30.943 28.2075 30.6409 29.1956 29.9174 29.9174C29.1943 30.6386 28.2057 30.9386 27.1473 30.9386C26.0889 30.9386 25.1003 30.6387 24.3772 29.9174C23.6538 29.1956 23.3516 28.2075 23.3516 27.1496C23.3516 26.0915 23.6537 25.1036 24.3772 24.3817C25.1004 23.6602 26.0888 23.3594 27.1473 23.3594C28.2059 23.3594 29.1942 23.6602 29.9174 24.3817C30.641 25.1036 30.9431 26.0914 30.9431 27.1496Z" fill="white"/>
<path d="M24.4286 26.1719C25.0596 26.1721 25.5714 26.6837 25.5714 27.3147C25.5714 27.9458 25.0596 28.4574 24.4286 28.4576H21.2444C20.6132 28.4576 20.1016 27.9459 20.1016 27.3147C20.1016 26.6835 20.6132 26.1719 21.2444 26.1719H24.4286Z" fill="white"/>
<path d="M17.0614 26.1719C17.6923 26.1721 18.2042 26.6837 18.2042 27.3147C18.2042 27.9458 17.6923 28.4573 17.0614 28.4576H13.8772C13.246 28.4576 12.7344 27.9459 12.7344 27.3147C12.7344 26.6835 13.246 26.1719 13.8772 26.1719H17.0614Z" fill="white"/>
<path d="M23.8207 1.65441C24.1239 1.10092 24.8185 0.898103 25.372 1.20128C25.9255 1.50453 26.1283 2.19908 25.8251 2.75262L18.7024 15.7571C18.6979 15.7652 18.6936 15.7736 18.689 15.7816C16.0399 20.3461 13.619 23.6919 11.0082 25.8386C8.34121 28.0312 5.49818 28.9532 2.12872 28.727C1.49923 28.6844 1.02291 28.14 1.0651 27.5104C1.10738 26.8807 1.65297 26.4045 2.28273 26.4468C5.05871 26.6331 7.3304 25.9039 9.55729 24.0729C11.8363 22.1991 14.0861 19.1561 16.6979 14.6589L23.8207 1.65441Z" fill="white"/>
</svg>
