<svg width="14" height="14" viewBox="0 0 14 14" fill="none" xmlns="http://www.w3.org/2000/svg">
<g clip-path="url(#clip0_1282_2773)">
<path d="M7.00005 0.464355C8.61123 0.464355 10.2608 0.932143 11.4375 1.91504C12.7639 3.02294 13.4323 4.80444 13.525 6.57129C13.6176 8.3387 13.1403 10.1902 12.0499 11.4707C10.8551 12.8737 8.89687 13.5356 7.00005 13.5356C5.10325 13.5356 3.14498 12.8737 1.95024 11.4707C0.859875 10.1902 0.382459 8.33865 0.475146 6.57129C0.567805 4.8045 1.23628 3.02295 2.56255 1.91504C3.73923 0.932168 5.38891 0.464378 7.00005 0.464355ZM7.00005 1.46436C5.55944 1.46438 4.15696 1.88634 3.20366 2.68262C2.15213 3.56106 1.55658 5.04326 1.47368 6.62354C1.39083 8.2034 1.82662 9.78262 2.71196 10.8223C3.66227 11.9382 5.30042 12.5356 7.00005 12.5356C8.69974 12.5356 10.3383 11.9383 11.2886 10.8223C12.1739 9.78262 12.6093 8.20336 12.5264 6.62354C12.4435 5.0432 11.8481 3.56105 10.7964 2.68262C9.84312 1.88632 8.44069 1.46436 7.00005 1.46436Z" fill="#E7000B"/>
<path d="M6.72559 9.30688V7.00024C6.72559 6.77838 6.55689 6.59597 6.34082 6.57397L6.29688 6.57153H5.83594C5.5598 6.57153 5.33594 6.34768 5.33594 6.07153C5.33594 5.79539 5.5598 5.57153 5.83594 5.57153H6.29688L6.44287 5.57886C7.16331 5.65196 7.72561 6.26051 7.72559 7.00024V9.30688C7.72559 9.58299 7.50168 9.80683 7.22559 9.80688C6.94944 9.80688 6.72559 9.58303 6.72559 9.30688Z" fill="#E7000B"/>
<path d="M5.7151 9.05782C6.75142 8.7698 7.71197 8.76978 8.7483 9.05782C9.01432 9.13176 9.16985 9.40751 9.09595 9.67354C9.02202 9.93952 8.7467 10.0955 8.48072 10.0217C7.61952 9.78231 6.84387 9.78231 5.98267 10.0217C5.71666 10.0955 5.44089 9.93955 5.36695 9.67354C5.29313 9.40754 5.4491 9.13175 5.7151 9.05782Z" fill="#E7000B"/>
<path d="M6.73926 4.25391V3.9541C6.73926 3.67796 6.96312 3.4541 7.23926 3.4541C7.5154 3.4541 7.73926 3.67796 7.73926 3.9541V4.25391C7.73921 4.53001 7.51537 4.75391 7.23926 4.75391C6.96314 4.75391 6.7393 4.53001 6.73926 4.25391Z" fill="#E7000B"/>
</g>
<defs>
<clipPath id="clip0_1282_2773">
<rect width="14" height="14" fill="white"/>
</clipPath>
</defs>
</svg>
