<svg width="14" height="14" viewBox="0 0 14 14" fill="none" xmlns="http://www.w3.org/2000/svg">
<path d="M6.53618 0C8.14736 1.57338e-08 9.79697 0.467788 10.9737 1.45068C12.3001 2.55859 12.9684 4.34009 13.0611 6.10693C13.1538 7.87434 12.6764 9.72588 11.586 11.0063C10.3912 12.4094 8.433 13.0713 6.53618 13.0713C4.63938 13.0713 2.68111 12.4094 1.48638 11.0063C0.396007 9.72589 -0.0814085 7.8743 0.0112789 6.10693C0.103938 4.34015 0.772417 2.5586 2.09868 1.45068C3.27536 0.467812 4.92504 2.26017e-05 6.53618 0ZM6.53618 1C5.09558 1.00002 3.69309 1.42199 2.73979 2.21826C1.68827 3.09671 1.09272 4.57891 1.00981 6.15918C0.926959 7.73904 1.36276 9.31827 2.2481 10.3579C3.1984 11.4738 4.83656 12.0713 6.53618 12.0713C8.23587 12.0713 9.87444 11.4739 10.8248 10.3579C11.7101 9.31827 12.1454 7.739 12.0625 6.15918C11.9796 4.57885 11.3842 3.09669 10.3326 2.21826C9.37925 1.42196 7.97683 1 6.53618 1Z" fill="#E7000B"/>
<path d="M6.26147 8.84229V6.53564C6.26148 6.31378 6.09278 6.13137 5.87671 6.10938L5.83276 6.10693H5.37183C5.09568 6.10693 4.87183 5.88308 4.87183 5.60693C4.87183 5.33079 5.09568 5.10693 5.37183 5.10693H5.83276L5.97876 5.11426C6.6992 5.18736 7.2615 5.79591 7.26147 6.53564V8.84229C7.26147 9.11839 7.03757 9.34223 6.76147 9.34229C6.48533 9.34229 6.26147 9.11843 6.26147 8.84229Z" fill="#E7000B"/>
<path d="M5.25172 8.59346C6.28804 8.30544 7.24859 8.30543 8.28492 8.59346C8.55095 8.66741 8.70647 8.94316 8.63258 9.20919C8.55865 9.47516 8.28332 9.63113 8.01734 9.55733C7.15614 9.31796 6.38049 9.31796 5.51929 9.55733C5.25328 9.63119 4.97751 9.47519 4.90357 9.20919C4.82975 8.94319 4.98572 8.6674 5.25172 8.59346Z" fill="#E7000B"/>
<path d="M6.27515 3.78955V3.48975C6.27515 3.2136 6.499 2.98975 6.77515 2.98975C7.05129 2.98975 7.27515 3.2136 7.27515 3.48975V3.78955C7.2751 4.06566 7.05126 4.28955 6.77515 4.28955C6.49903 4.28955 6.27519 4.06566 6.27515 3.78955Z" fill="#E7000B"/>
</svg>
