<svg width="15" height="15" viewBox="0 0 15 15" fill="none" xmlns="http://www.w3.org/2000/svg">
<path fill-rule="evenodd" clip-rule="evenodd" d="M7.31671 0.0193599C7.10169 0.0909919 6.60285 0.399872 6.25271 0.678192C5.88913 0.967184 5.48681 1.36922 5.18831 1.74181C4.93108 2.0629 4.58705 2.61984 4.53252 2.80344C4.44765 3.08923 4.60933 3.40235 4.89188 3.49941C5.04145 3.55077 5.97079 3.6761 6.44471 3.7088C6.58111 3.71821 6.73697 3.72998 6.79106 3.73496L6.88941 3.744L6.89697 4.05891C6.90113 4.2321 6.91287 4.40032 6.92306 4.43272C6.96953 4.58027 7.13101 4.7411 7.28393 4.7921C7.32749 4.80662 7.41065 4.81851 7.46871 4.81851C7.66185 4.81851 7.83364 4.72802 7.94292 4.56872C8.02322 4.45166 8.03289 4.40115 8.04053 4.05893L8.04757 3.74405L8.14613 3.73498C8.20036 3.73 8.35631 3.71821 8.49271 3.7088C8.9678 3.67602 9.89727 3.55059 10.0455 3.49925C10.2842 3.41662 10.4422 3.1745 10.4243 2.91886C10.4176 2.82238 10.4034 2.78174 10.3152 2.60698C10.2022 2.38307 9.9343 1.97379 9.74889 1.74181C9.1874 1.0393 8.39545 0.38112 7.73519 0.0682879C7.59138 0.000143949 7.43074 -0.0186401 7.31671 0.0193599ZM7.27666 1.34914C7.02681 1.51798 6.82257 1.68581 6.57485 1.92581C6.3842 2.11053 6.04471 2.48504 6.04471 2.51064C6.04471 2.51595 6.1221 2.52862 6.21671 2.53882C6.9402 2.61674 7.99722 2.61674 8.72071 2.53882C8.81532 2.52862 8.89271 2.51595 8.89271 2.51064C8.89271 2.50534 8.82174 2.41838 8.73498 2.31741C8.54276 2.09366 8.20229 1.7615 7.9926 1.59314C7.82789 1.4609 7.49469 1.22981 7.46871 1.22981C7.4602 1.22981 7.37378 1.2835 7.27666 1.34914ZM0.41271 5.75674C0.277062 5.79827 0.122214 5.92525 0.0610943 6.04506C-0.0928257 6.34677 0.0558783 6.72589 0.374966 6.84528L0.462198 6.87792L7.48946 6.87386L14.5167 6.86981L14.6047 6.82851C14.7041 6.78192 14.8315 6.66288 14.8752 6.57589C14.9523 6.42229 14.9571 6.22328 14.8873 6.07118C14.8396 5.96736 14.728 5.85264 14.6184 5.79493L14.5327 5.74981L7.49271 5.74715C3.62071 5.74568 0.43471 5.75 0.41271 5.75674ZM0.363526 8.09923C0.24391 8.14848 0.167382 8.21141 0.0933823 8.32133C-0.0166017 8.48474 -0.0296737 8.71666 0.0610943 8.89456C0.10767 8.98586 0.228774 9.09984 0.32919 9.14691L0.42071 9.18981H7.46871H14.5167L14.6082 9.14691C14.72 9.09453 14.8372 8.97757 14.8873 8.86843C14.9571 8.71634 14.9523 8.51733 14.8752 8.36373C14.8315 8.27674 14.7041 8.15769 14.6047 8.1111L14.5167 8.06981L7.48471 8.06616L0.45271 8.06251L0.363526 8.09923ZM7.36842 10.1264C7.25831 10.1449 7.15154 10.2016 7.06617 10.2869C6.92223 10.4307 6.89271 10.5411 6.89271 10.9355V11.1953L6.79271 11.2045C6.73772 11.2096 6.58111 11.2214 6.44471 11.2307C5.93692 11.2656 5.03842 11.3887 4.87781 11.4454C4.60693 11.541 4.44938 11.8562 4.53252 12.1362C4.58708 12.3199 4.92725 12.8704 5.1886 13.1978C5.74901 13.9 6.53724 14.5549 7.20471 14.8728C7.32188 14.9286 7.34423 14.9338 7.46871 14.9338C7.59319 14.9338 7.61554 14.9286 7.73271 14.8728C8.39961 14.5552 9.18663 13.9013 9.74889 13.1978C9.9343 12.9658 10.2022 12.5565 10.3152 12.3326C10.4034 12.1579 10.4176 12.1172 10.4243 12.0208C10.4422 11.7651 10.2842 11.523 10.0455 11.4404C9.89497 11.3882 8.97253 11.2637 8.49271 11.2307C8.35631 11.2214 8.19972 11.2096 8.14471 11.2045L8.04471 11.1953V10.9253C8.04471 10.5304 8.01561 10.4284 7.8594 10.2758C7.73199 10.1514 7.54962 10.096 7.36842 10.1264ZM7.05271 12.3434C6.61361 12.3614 6.04471 12.4097 6.04471 12.429C6.04471 12.4343 6.11569 12.5212 6.20244 12.6222C6.39466 12.846 6.73513 13.1781 6.94482 13.3465C7.10953 13.4787 7.44273 13.7098 7.46871 13.7098C7.49465 13.7098 7.82789 13.4787 7.99009 13.3483C8.20103 13.1786 8.54649 12.842 8.73511 12.6222C8.8218 12.5212 8.89271 12.4342 8.89271 12.4288C8.89271 12.3848 7.55633 12.3228 7.05271 12.3434Z" fill="#324158"/>
</svg>
