<svg width="32" height="19" viewBox="0 0 32 19" fill="none" xmlns="http://www.w3.org/2000/svg">
<path d="M32 18.0813C30.8361 18.3774 30.1163 18.094 29.4705 17.1241C28.0207 14.952 26.4204 12.8794 24.8761 10.7685C24.677 10.4954 24.4703 10.2274 24.2125 9.88794C22.3849 12.3536 20.5599 14.7018 18.8473 17.1445C18.2347 18.0175 17.5914 18.3978 16.448 18.0889L23.3191 8.86696L16.9227 0.538332C18.0228 0.323927 18.7834 0.433682 19.4573 1.41893C20.9454 3.59361 22.5866 5.66364 24.2227 7.85364C25.869 5.6713 27.4898 3.59871 29.0213 1.44445C29.6364 0.571513 30.2975 0.239696 31.4027 0.561304C30.5655 1.67162 29.7462 2.76406 28.9218 3.84885C27.8089 5.3114 26.7164 6.79182 25.5627 8.22374C25.1518 8.73423 25.2182 9.06605 25.5857 9.54846C27.7196 12.3536 29.8279 15.1868 32 18.0813ZM0.00765736 8.71381C0.191433 7.79238 0.313951 6.85308 0.569195 5.94951C2.10066 0.479626 8.37968 -1.7946 12.6933 1.59504C15.2202 3.5834 15.8481 6.38598 15.7231 9.54591H1.48042C1.26601 15.2149 5.34737 18.6377 10.5493 16.8918C12.3743 16.2793 13.4488 14.8499 13.9874 13.0632C14.2605 12.1673 14.7123 12.0269 15.5546 12.2821C15.1232 14.5181 14.1456 16.3865 12.1037 17.5555C9.04076 19.3065 4.66842 18.7398 2.36867 16.3073C1.01077 14.878 0.433916 13.0989 0.178671 11.1769C0.140384 10.8706 0.0612587 10.5694 0 10.2657C0.00510489 9.7484 0.00765736 9.23111 0.00765736 8.71381ZM1.50594 8.3335H14.3779C14.2937 4.23427 11.7412 1.32193 8.25206 1.29641C4.42339 1.26578 1.67185 4.1092 1.50594 8.3335Z" fill="white"/>
</svg>
