<svg width="13" height="13" viewBox="0 0 13 13" fill="none" xmlns="http://www.w3.org/2000/svg">
<path fill-rule="evenodd" clip-rule="evenodd" d="M3.72195 0.870804C3.62661 1.07227 3.62539 1.23369 3.71757 1.44089C3.77567 1.57143 3.9356 1.71171 4.08462 1.76283C4.24023 1.81618 4.37064 1.80804 4.62592 1.72897C5.28667 1.52431 5.91502 1.40293 6.66164 1.33575C7.65794 1.24612 8.67985 1.28109 9.63929 1.43765L9.93473 1.48587L5.0111 6.42233C1.13166 10.3119 0.0811821 11.3718 0.0578516 11.42C0.0157604 11.5071 -0.00947874 11.6775 0.00336377 11.7878C0.0365452 12.0726 0.281087 12.3147 0.570201 12.3489C0.66169 12.3598 0.828464 12.3319 0.928645 12.2891C0.981695 12.2664 1.73118 11.5242 5.92722 7.33893L10.8634 2.41549L10.9051 2.66652C11.0887 3.77155 11.1119 4.97804 10.9712 6.10519C10.9083 6.60963 10.7878 7.17161 10.6351 7.67369C10.5897 7.82274 10.5518 7.99186 10.5507 8.04949C10.548 8.20288 10.6046 8.35135 10.7125 8.47402C10.8213 8.59776 10.9104 8.64999 11.0719 8.68468C11.2136 8.71512 11.342 8.69636 11.4882 8.62386C11.6899 8.52382 11.7587 8.41744 11.8791 8.01964C12.1918 6.98658 12.3389 5.95119 12.3493 4.71094C12.3604 3.38084 12.2033 2.23866 11.8552 1.11824C11.7096 0.649708 11.6425 0.599865 10.8767 0.391127C9.86437 0.115173 8.83982 -0.00846637 7.63832 0.000303209C6.40586 0.00932752 5.38139 0.154757 4.33185 0.469671C3.93268 0.58944 3.82001 0.663543 3.72195 0.870804Z" 
fill="currentColor"/>
</svg>
