<svg width="24" height="24" viewBox="0 0 24 24" fill="none" xmlns="http://www.w3.org/2000/svg">
<path d="M18.4276 2.48986C19.5542 2.3696 20.6897 2.35447 21.8185 2.44466L22.3023 2.48986L22.4471 2.51832C22.7753 2.61222 23.0221 2.89555 23.0623 3.24405C23.8766 10.3135 21.1508 15.8049 17.439 18.8442C13.7849 21.8361 8.92045 22.5703 5.82237 19.5155C4.39801 18.111 3.58116 16.6348 3.35892 15.1143C3.13611 13.5899 3.52631 12.1264 4.32237 10.7809C5.88961 8.13198 9.09577 5.82081 12.8201 4.01916L12.898 3.98568C13.2924 3.8404 13.7407 4.0036 13.946 4.37993L15.2802 6.8258L17.7964 2.8816L17.8525 2.80292C17.9944 2.62765 18.2008 2.51413 18.4276 2.48986ZM21.4259 4.13635C20.623 4.08472 19.8173 4.09075 19.0152 4.15644L15.9449 8.97117C15.7818 9.22677 15.4962 9.37744 15.1932 9.36709C14.8902 9.35672 14.6151 9.18711 14.47 8.92094L12.836 5.92597C9.56056 7.6068 7.01656 9.59452 5.79809 11.6539C5.15676 12.7379 4.90022 13.809 5.05479 14.8665C5.20996 15.928 5.79446 17.0807 7.02605 18.2951C9.24009 20.4782 13.0511 20.2214 16.3533 17.5175C19.4811 14.9563 21.9259 10.3014 21.4259 4.13635Z" fill="white"/>
<path d="M12.0698 12.3747C12.3288 11.9784 12.8605 11.8671 13.2568 12.1261C13.6527 12.3851 13.7641 12.916 13.5054 13.3122C12.5865 14.7182 10.7215 16.3503 8.6421 17.8138C6.53984 19.2934 4.11305 20.6737 1.97915 21.5479C1.54115 21.7273 1.04029 21.5172 0.860848 21.0792C0.681709 20.6412 0.8917 20.1411 1.3296 19.9617C3.32153 19.1456 5.63535 17.8334 7.65521 16.4118C9.69782 14.9742 11.337 13.4958 12.0698 12.3747Z" fill="white"/>
</svg>
