<svg width="24" height="24" viewBox="0 0 24 24" fill="none" xmlns="http://www.w3.org/2000/svg">
<path fill-rule="evenodd" clip-rule="evenodd" d="M10.8963 1.32091C10.1169 1.37963 9.27617 1.50467 9.11791 1.58541C8.69172 1.80285 8.52271 2.32727 8.73864 2.76237C8.79998 2.88602 8.98831 3.06278 9.13524 3.13468C9.31399 3.22211 9.48278 3.23054 9.86431 3.17099C10.9607 2.99992 12.104 2.96291 13.2563 3.06122C17.3233 3.40816 19.8823 5.50442 20.7113 9.16819C20.9106 10.0488 20.9998 10.9249 20.9998 12.0002C20.9998 13.3068 20.8619 14.3767 20.5579 15.428C20.314 16.2715 19.8665 17.2168 19.4269 17.8173L19.2884 18.0065L19.2422 17.8893C19.2168 17.8249 19.1728 17.6858 19.1445 17.5802C19.0914 17.3825 19.0896 17.3064 19.112 16.2482C19.1158 16.0682 19.1084 16.028 19.0489 15.907C18.9601 15.7262 18.7992 15.564 18.6296 15.4845C18.5109 15.4289 18.4615 15.4202 18.2643 15.4202C18.0502 15.4202 18.0271 15.4252 17.8846 15.5024C17.4737 15.7253 17.366 16.0315 17.3652 16.9802C17.3647 17.5982 17.3958 17.8133 17.5559 18.3016C17.7584 18.9193 18.1462 19.5583 18.5842 19.9963C18.8165 20.2285 19.0816 20.3005 19.7834 20.3218C20.2552 20.3361 20.4957 20.3135 20.9136 20.2156C21.5875 20.0578 22.2375 19.7144 22.8003 19.2189C22.9847 19.0566 23.0444 18.9867 23.1123 18.8537C23.1889 18.7035 23.1962 18.6713 23.1963 18.4827C23.1963 18.3067 23.1864 18.2549 23.1291 18.1322C22.9709 17.7937 22.639 17.5937 22.2827 17.6223C22.0847 17.6382 21.9148 17.7195 21.696 17.9032C21.5407 18.0335 21.3389 18.1807 21.2163 18.2531C21.186 18.271 21.1864 18.265 21.2187 18.2153C21.3125 18.0708 21.5944 17.5329 21.7024 17.2922C22.1503 16.2936 22.4553 15.1721 22.6063 13.9682C22.6937 13.2714 22.7163 12.8677 22.7163 12.0002C22.7163 11.1326 22.6937 10.729 22.6063 10.0322C22.3347 7.86763 21.608 6.0875 20.4018 4.63219C20.1973 4.38547 19.7395 3.92351 19.4643 3.68632C18.0892 2.50087 16.3292 1.74424 14.2443 1.44223C13.5049 1.33509 13.216 1.31632 12.1803 1.30811C11.6259 1.30372 11.0481 1.30948 10.8963 1.32091ZM3.82831 3.68803C2.88232 3.7446 2.02864 4.09214 1.27231 4.7286C0.902397 5.03985 0.805293 5.21174 0.804693 5.55619C0.804405 5.71485 0.815541 5.77209 0.868845 5.88585C0.947349 6.05339 1.12274 6.2338 1.28431 6.31322C1.38873 6.36453 1.43702 6.37216 1.65631 6.37202C1.88282 6.37187 1.92045 6.36539 2.02831 6.30806C2.09431 6.27297 2.20771 6.19296 2.28031 6.13024C2.4474 5.98588 2.67926 5.81411 2.77108 5.76662L2.84188 5.72999L2.80252 5.79007C2.62375 6.06292 2.27481 6.79168 2.08003 7.29909C1.03588 10.019 1.03627 13.9872 2.08096 16.7017C2.59075 18.0264 3.25229 19.0504 4.19191 19.9692C5.56209 21.3091 7.34925 22.1602 9.55231 22.5219C10.3673 22.6557 11.01 22.7033 12.0078 22.7038C12.9386 22.7043 13.6223 22.6558 14.4003 22.5342C14.8066 22.4707 14.9215 22.4431 15.0483 22.3789C15.2951 22.2539 15.4826 21.9604 15.4998 21.6721C15.521 21.3161 15.3402 21.0127 15.0075 20.8456C14.8203 20.7515 14.6801 20.7464 14.2316 20.8173C13.0731 21.0004 11.9525 21.0398 10.7684 20.9391C7.82179 20.6884 5.64744 19.5106 4.37174 17.4743C3.65791 16.3349 3.24612 15.0009 3.06715 13.2482C3.02594 12.8448 3.02594 11.1556 3.06715 10.7522C3.21684 9.28615 3.50726 8.1905 4.01918 7.16037C4.237 6.72203 4.65232 6.05239 4.70834 6.04912C4.71717 6.04862 4.74662 6.1157 4.77379 6.19819C4.91037 6.61288 4.94402 6.9796 4.88882 7.45219C4.86429 7.66216 4.85911 7.80542 4.87293 7.89033C4.91421 8.14399 5.11303 8.40412 5.35231 8.51759C5.46722 8.57207 5.51539 8.58019 5.72431 8.58019C5.93095 8.58019 5.97931 8.57224 6.07231 8.52299C6.41169 8.34326 6.53839 8.13405 6.59726 7.65619C6.71311 6.7157 6.585 5.89511 6.2038 5.13619C6.01929 4.76887 5.67384 4.28399 5.40525 4.01543C5.2008 3.81095 5.00469 3.74558 4.45231 3.69765C4.1753 3.67363 4.09063 3.67233 3.82831 3.68803ZM10.1643 8.35271C9.38297 8.4244 8.69604 8.75203 8.13972 9.31828C7.51658 9.95253 7.19308 10.7973 7.23084 11.6917C7.26136 12.4151 7.48298 13.0556 7.93961 13.7402C8.41284 14.4497 9.19325 15.2114 10.1321 15.88C10.7972 16.3536 11.5613 16.8365 11.7478 16.9009C11.8964 16.9523 12.0974 16.9555 12.2539 16.909C12.3889 16.8689 12.7921 16.6276 13.3683 16.2421C14.2192 15.6728 14.7785 15.2209 15.3244 14.6613C16.1221 13.8437 16.5712 13.0662 16.7439 12.2033C16.8047 11.8999 16.8052 11.2272 16.7448 10.9442C16.5215 9.89627 15.8314 9.03475 14.8802 8.61611C14.0183 8.23687 13.0319 8.24829 12.1921 8.64727L12.0119 8.73287L11.8321 8.64722C11.6067 8.53979 11.4425 8.48253 11.1895 8.42301C11.0087 8.38046 10.5216 8.32391 10.4043 8.33183C10.3779 8.33363 10.2699 8.34302 10.1643 8.35271ZM10.1057 10.0932C9.68719 10.189 9.28651 10.51 9.1014 10.8975C8.98358 11.1443 8.95231 11.2869 8.95231 11.5775C8.95231 11.8747 9.01509 12.1144 9.18098 12.4505C9.54379 13.1857 10.3163 13.9407 11.565 14.7807C11.7582 14.9106 11.9404 15.0296 11.9697 15.0451C12.0179 15.0705 12.0684 15.0427 12.4857 14.7616C13.7252 13.9265 14.4806 13.1861 14.8436 12.4505C15.0095 12.1144 15.0723 11.8747 15.0723 11.5775C15.0723 11.2869 15.041 11.1443 14.9232 10.8975C14.8456 10.735 14.7879 10.6565 14.6314 10.5008C14.3072 10.1782 13.9457 10.0386 13.4991 10.0636C13.1421 10.0836 12.9056 10.1789 12.5544 10.4443C12.3774 10.5781 12.2214 10.6322 12.0123 10.6322C11.8032 10.6322 11.6472 10.5781 11.4702 10.4443C11.2302 10.2629 11.1276 10.205 10.9268 10.1374C10.6935 10.0589 10.3389 10.0398 10.1057 10.0932Z" fill="white"/>
</svg>
