<svg width="28" height="34" viewBox="0 0 28 34" fill="none" xmlns="http://www.w3.org/2000/svg">
<path d="M20.977 12.7054L20.7713 12.5931C20.8796 12.8547 20.9149 13.0778 20.9111 13.2773C20.9516 13.1131 20.9742 12.945 20.9784 12.776C20.9816 12.9803 20.9566 13.184 20.9043 13.3815L20.9111 13.2773C20.8526 13.5231 20.7541 13.7573 20.6196 13.9712L20.6834 13.9034C19.9018 15.2112 17.7694 15.497 16.7178 14.1462C15.0297 11.9778 16.7525 9.64008 16.9938 7.34384C17.2953 4.46601 15.4908 1.67204 13.2532 0C14.4856 1.99364 12.8619 4.63156 11.5627 6.10575C10.3029 7.53571 8.7712 8.72929 7.3806 10.0276C5.88713 11.4234 4.45039 12.8922 3.22316 14.5295C0.767343 17.8062 -0.736435 21.9276 0.368669 26.0161C1.47269 30.1021 5.01162 32.7029 9.00813 33.6223C6.99196 32.7506 5.10525 30.5358 5.10091 28.2697C5.09576 25.7984 6.66141 23.7008 8.60918 22.3224C8.37497 23.2069 8.24715 24.0159 8.82711 24.807C9.36663 25.5428 10.3111 25.8999 11.2026 25.7059C13.2866 25.2502 13.3819 22.9594 12.1468 21.6247C10.9252 20.3036 9.7436 18.8101 10.2082 16.8935C10.4411 15.9328 11.0311 15.0334 11.7788 14.3897C11.2039 15.8994 12.8364 17.3883 13.9116 18.1292C15.7777 19.4158 17.824 20.3885 19.5397 21.8964C21.3439 23.4813 22.6767 25.6242 22.4075 28.1101C22.1155 30.8042 19.9748 32.6782 17.5738 33.624C22.6477 32.5037 27.8915 28.5655 27.9982 22.9377C28.0874 18.3083 24.9116 14.7452 20.977 12.7054Z" fill="currentColor"/>
</svg>




