<svg width="32" height="32" viewBox="0 0 32 32" fill="none" xmlns="http://www.w3.org/2000/svg">
<path d="M6.28762 2.01642C12.8462 1.45027 19.1576 1.45024 25.7162 2.01642C27.8528 2.201 29.5833 3.85115 29.8981 5.96843C30.5809 10.5593 30.5809 14.8196 29.8981 19.4104C29.5832 21.5276 27.8527 23.1767 25.7162 23.3613C19.1576 23.9274 12.8462 23.9274 6.28762 23.3613C4.15096 23.1768 2.42075 21.5276 2.1057 19.4104C1.4231 14.8196 1.4231 10.5592 2.1057 5.96843C2.42072 3.85117 4.15093 2.20088 6.28762 2.01642ZM25.5198 4.29433C19.092 3.73943 12.9119 3.73944 6.48404 4.29433C5.41572 4.38655 4.527 5.22099 4.36574 6.30549C3.71639 10.673 3.71638 14.7058 4.36574 19.0733C4.527 20.1578 5.41572 20.9923 6.48404 21.0845C12.9119 21.6393 19.092 21.6393 25.5198 21.0845C26.588 20.9921 27.4758 20.1576 27.6369 19.0733C28.2865 14.7058 28.2865 10.6731 27.6369 6.30549V6.30437C27.4756 5.2204 26.5878 4.38676 25.5198 4.29433Z" fill="white"/>
<path d="M5.38281 28.1221C6.01399 28.1221 6.52567 28.6337 6.52567 29.2649C6.52567 29.8961 6.01399 30.4078 5.38281 30.4078H3.15848C2.5273 30.4078 2.01562 29.8961 2.01562 29.2649C2.01562 28.6337 2.5273 28.1221 3.15848 28.1221H5.38281Z" fill="white"/>
<path d="M13.2031 28.1221C13.8343 28.1221 14.346 28.6337 14.346 29.2649C14.346 29.8961 13.8343 30.4078 13.2031 30.4078H10.9788C10.3476 30.4078 9.83594 29.8961 9.83594 29.2649C9.83594 28.6337 10.3476 28.1221 10.9788 28.1221H13.2031Z" fill="white"/>
<path d="M21.0156 28.1221C21.6468 28.1221 22.1585 28.6337 22.1585 29.2649C22.1585 29.8961 21.6468 30.4078 21.0156 30.4078H18.7913C18.1601 30.4078 17.6484 29.8961 17.6484 29.2649C17.6484 28.6337 18.1601 28.1221 18.7913 28.1221H21.0156Z" fill="white"/>
<path d="M28.8359 28.1221C29.4671 28.1221 29.9788 28.6337 29.9788 29.2649C29.9788 29.8961 29.4671 30.4078 28.8359 30.4078H26.6116C25.9804 30.4078 25.4688 29.8961 25.4688 29.2649C25.4688 28.6337 25.9804 28.1221 26.6116 28.1221H28.8359Z" fill="white"/>
</svg>
