<svg width="28" height="28" viewBox="0 0 28 28" fill="none" xmlns="http://www.w3.org/2000/svg">
<path d="M0.830123 12.0245L8.9282 3.91243L11.296 6.29422C10.9597 7.48511 11.5061 8.78809 12.5989 9.41856V17.1804C11.7583 17.6567 11.1979 18.5674 11.1979 19.6042C11.1979 20.3474 11.4931 21.0601 12.0186 21.5856C12.5441 22.1111 13.2568 22.4063 14 22.4063C14.7432 22.4063 15.4559 22.1111 15.9814 21.5856C16.5069 21.0601 16.8021 20.3474 16.8021 19.6042C16.8021 18.5674 16.2417 17.6567 15.4011 17.1804V10.3713L18.3012 13.2995C18.2032 13.5096 18.2032 13.7478 18.2032 14C18.2032 14.7432 18.4984 15.4559 19.0239 15.9814C19.5494 16.5069 20.2621 16.8021 21.0053 16.8021C21.7484 16.8021 22.4611 16.5069 22.9866 15.9814C23.5121 15.4559 23.8074 14.7432 23.8074 14C23.8074 13.2568 23.5121 12.5441 22.9866 12.0186C22.4611 11.4931 21.7484 11.1979 21.0053 11.1979C20.7531 11.1979 20.5149 11.1979 20.3047 11.296L16.704 7.69527C16.878 7.04635 16.8105 6.35635 16.5142 5.7534C16.2179 5.15045 15.7128 4.67552 15.0928 4.41681C14.4904 4.19264 13.8599 4.1366 13.2995 4.29072L10.9177 1.92294L12.0245 0.830123C13.1173 -0.276708 14.8827 -0.276708 15.9755 0.830123L27.1699 12.0245C28.2767 13.1173 28.2767 14.8827 27.1699 15.9755L15.9755 27.1699C14.8827 28.2767 13.1173 28.2767 12.0245 27.1699L0.830123 15.9755C-0.276708 14.8827 -0.276708 13.1173 0.830123 12.0245Z" fill="white"/>
</svg>
