<svg width="28" height="17" viewBox="0 0 28 17" fill="none" xmlns="http://www.w3.org/2000/svg">
<path d="M3.29733 5.01628C3.21001 5.01628 3.18817 4.97261 3.23184 4.90712L3.67939 4.32639C3.72305 4.2609 3.82785 4.21723 3.91299 4.21723L11.5017 4.21723C11.589 4.21723 11.6087 4.28273 11.5672 4.34822L11.2048 4.9093C11.1611 4.9748 11.0564 5.03811 10.993 5.03811L3.29733 5.01628ZM0.0858779 7.00297C0.000733952 7.00297 -0.0210978 6.95931 0.0203826 6.89381L0.467934 6.3109C0.511598 6.24541 0.61639 6.20174 0.701534 6.20174L10.3948 6.20174C10.4822 6.20174 10.5258 6.26724 10.504 6.33273L10.3337 6.85015C10.3119 6.93748 10.2267 6.98114 10.1416 6.98114L0.0858779 7.00297ZM5.23163 8.98966C5.1443 8.98966 5.12465 8.92417 5.16613 8.85867L5.46523 8.31943C5.50889 8.25393 5.59185 8.18844 5.677 8.18844H9.92983C10.015 8.18844 10.0565 8.25393 10.0565 8.34126L10.0128 8.85867C10.0128 8.946 9.92983 9.01149 9.86652 9.01149L5.23163 8.98966ZM27.2992 4.62767C25.9587 4.97261 25.0462 5.23241 23.7275 5.57735C23.4088 5.66468 23.3869 5.68651 23.1097 5.36122C22.7909 4.99445 22.5573 4.75648 22.112 4.54034C20.7715 3.87229 19.4747 4.06659 18.263 4.86564C16.8178 5.81532 16.0733 7.2191 16.0951 8.96783C16.117 10.6947 17.285 12.1203 18.966 12.3583C20.4113 12.5526 21.6229 12.033 22.5792 10.9327C22.7713 10.6947 22.9394 10.4349 23.1533 10.1336H19.049C18.6036 10.1336 18.4966 9.85202 18.6473 9.48524C18.9223 8.81719 19.4332 7.69504 19.7301 7.13178C19.7743 7.02811 19.8484 6.93995 19.9428 6.87852C20.0373 6.81709 20.1479 6.78518 20.2606 6.78684L28 6.78684C27.9563 7.36974 27.9563 7.95265 27.8734 8.53556C27.6547 10.0702 27.055 11.5255 26.129 12.7687C24.6008 14.8209 22.601 16.0937 20.0707 16.4365C17.9879 16.7203 16.0536 16.3077 14.3508 15.0131C12.7818 13.8036 11.8823 12.2055 11.6524 10.2188C11.3751 7.86751 12.0562 5.74983 13.4578 3.89412C14.9686 1.8856 16.9662 0.610623 19.4114 0.158705C21.409 -0.208069 23.3236 0.0277143 25.044 1.21536C26.1727 1.97074 26.9805 3.00775 27.511 4.2609C27.6398 4.4552 27.5546 4.56218 27.2992 4.62767Z" fill="#E2E8F1"/>
</svg>
