<svg width="375" height="412" viewBox="0 0 375 412" fill="none" xmlns="http://www.w3.org/2000/svg">
<path fill-rule="evenodd" clip-rule="evenodd" d="M179.699 6.65812C172.973 11.5052 171.705 20.9061 176.963 26.9368C179.583 29.9414 183.689 31.9031 187.197 31.827C187.919 31.8109 191.973 31.3262 196.208 30.7493C209.014 29.0042 227.629 27.278 229.409 27.6704C229.693 27.7331 227.761 30.0734 224.987 33.0266C178.732 82.2544 144.8 114.548 118.539 134.335C94.0638 152.777 52.9789 179.306 14.6492 201.418C9.8518 204.186 5.21152 207.079 4.33766 207.847C-2.65429 213.994 -0.912598 226.069 7.54728 230.099C11.4451 231.956 13.2456 232.075 17.5257 230.758C20.8926 229.722 22.3239 228.962 34.8275 221.563C87.2898 190.518 125.768 164.768 150.658 144.049C174.252 124.41 211.327 88.1646 246.108 50.7375C248.92 47.7116 251.289 45.2754 251.374 45.3241C251.602 45.4549 252.156 59.79 252.122 64.659C252.105 66.9765 251.938 73.6036 251.751 79.3858C251.441 88.9217 251.486 90.1553 252.242 92.656C254.296 99.4499 261.222 103.443 268.211 101.861C271.577 101.1 273.473 99.9479 275.777 97.2627C278.374 94.2377 278.898 91.9565 279.274 82.0526C280.135 59.3972 279.477 44.013 276.78 23.7222C274.981 10.1855 274.369 7.95889 271.651 5.09729C270.094 3.45689 266.875 1.57831 264.734 1.05981C260.997 0.155054 236.995 -0.329844 224.925 0.255699C212.52 0.8578 187.22 3.74853 182.976 5.0494C181.976 5.35582 180.501 6.07974 179.699 6.65812ZM247.825 158.476C237.52 162.075 229.233 165.526 226.097 167.526C220.324 171.206 216.269 175.653 213.03 181.857C207.959 191.569 207.213 201.159 210.626 212.737C211.08 214.277 211.711 216.8 212.03 218.344L212.609 221.153L209.873 221.26C201.605 221.583 169.272 230.379 146.396 238.53C135.975 242.242 132.393 244.135 128.021 248.238C121.658 254.209 117.594 261.817 116.17 270.422C115.243 276.03 115.541 279.616 117.698 288.768C119.293 295.536 119.448 296.539 118.893 296.486C115.08 296.117 92.3997 301.908 69.3548 309.135C43.7919 317.152 40.312 318.641 34.3428 324.116C26.3664 331.432 21.7201 342.316 22.1813 352.604C22.5617 361.087 30.1817 386.954 34.3548 393.929C41.9433 406.612 57.5332 413.753 72.4347 411.371C74.7019 411.009 115.839 398.928 213.682 369.89L351.731 328.92L355.113 326.817C361.378 322.923 365.931 318.156 369.349 311.916C373.445 304.438 374.902 296.488 373.702 288.178C371.525 273.114 342.167 174.998 336.881 165.122C334.021 159.78 330.847 156.038 326.249 152.589C318.853 147.043 310.022 144.289 301.303 144.812C292.823 145.32 265.525 152.295 247.825 158.476ZM254.191 185.397C241.275 190.128 238.758 191.508 237.306 194.651C235.893 197.709 235.827 199.437 236.933 204.311C241.417 224.051 259.895 286.879 268.516 311.699C270.77 318.19 272.632 323.541 272.652 323.59C272.673 323.639 287.928 319.169 306.552 313.658C339.815 303.813 340.445 303.612 342.212 302.281C344.545 300.523 346.292 297.295 346.499 294.363C346.917 288.419 327.097 219.653 314.66 183.895C312.155 176.696 311.293 175.333 308.162 173.632C305.26 172.056 303.579 172.037 296.255 173.501C288.607 175.03 261.775 182.618 254.191 185.397ZM156.187 264.25C147.513 267.368 146.718 267.84 144.836 270.992C142.871 274.282 142.884 275.905 144.944 284.676C148.487 299.761 161.451 342.066 165.822 352.804L166.731 355.038L204.945 343.728L243.161 332.418L242.754 330.236C240.737 319.429 228.297 275.857 223.094 261.375C220.976 255.479 220.295 253.951 219.193 252.627C217.685 250.815 214.446 249.055 212.165 248.807C208.389 248.398 173.542 258.011 156.187 264.25ZM61.7909 340.408C54.0163 343.038 52.4283 344.056 50.7358 347.498C49.0969 350.831 49.137 351.093 53.5775 366.101C57.5257 379.445 57.5639 379.551 58.9321 381.034C60.6316 382.875 63.2123 384.069 65.8103 384.216C67.6279 384.318 70.4999 383.522 102.819 373.955L137.858 363.583L137.214 360.27C136.859 358.448 134.681 350.577 132.374 342.78C128.253 328.857 128.156 328.581 126.914 327.323C125.454 325.844 123.147 324.507 121.517 324.194C118.817 323.676 115.781 324.408 92.1267 331.277C79.146 335.047 65.4948 339.156 61.7909 340.408Z" fill="currentColor"/>
</svg>
