<svg width="684" height="684" viewBox="0 0 684 684" fill="none" xmlns="http://www.w3.org/2000/svg">
<g clip-path="url(#clip0_8730_683)">
<path fill-rule="evenodd" clip-rule="evenodd" d="M367.238 67.2679C357.604 74.2102 355.788 87.6751 363.319 96.3128C367.071 100.616 372.953 103.426 377.978 103.317C379.011 103.294 384.819 102.6 390.884 101.774C409.225 99.274 435.888 96.8015 438.437 97.3636C438.845 97.4534 436.077 100.805 432.103 105.035C365.853 175.544 317.253 221.797 279.639 250.139C244.584 276.553 185.738 314.55 130.839 346.221C123.967 350.186 117.321 354.329 116.069 355.429C106.055 364.233 108.55 381.529 120.667 387.301C126.249 389.96 128.828 390.13 134.959 388.244C139.781 386.761 141.831 385.672 159.74 375.074C234.881 330.608 289.994 293.727 325.643 264.052C359.436 235.922 412.538 184.009 462.355 130.402C466.382 126.068 469.776 122.579 469.897 122.649C470.224 122.836 471.018 143.368 470.969 150.342C470.945 153.661 470.706 163.153 470.437 171.435C469.993 185.093 470.058 186.86 471.141 190.442C474.083 200.173 484.003 205.891 494.013 203.627C498.835 202.536 501.55 200.886 504.85 197.04C508.569 192.707 509.32 189.44 509.859 175.255C511.091 142.806 510.149 120.771 506.287 91.7086C503.71 72.3201 502.832 69.131 498.94 65.0323C496.71 62.6828 492.099 59.9921 489.033 59.2495C483.68 57.9536 449.303 57.2591 432.015 58.0977C414.247 58.9601 378.01 63.1005 371.932 64.9637C370.499 65.4026 368.387 66.4395 367.238 67.2679ZM464.815 284.716C450.055 289.87 438.186 294.814 433.693 297.678C425.424 302.948 419.617 309.318 414.977 318.204C407.715 332.114 406.645 345.85 411.534 362.433C412.184 364.638 413.089 368.252 413.545 370.464L414.375 374.487L410.456 374.64C398.613 375.103 352.304 387.702 319.538 399.375C304.613 404.693 299.482 407.404 293.22 413.281C284.107 421.833 278.286 432.73 276.247 445.055C274.918 453.087 275.345 458.224 278.434 471.332C280.719 481.026 280.941 482.462 280.146 482.385C274.685 481.857 242.2 490.152 209.193 500.503C172.579 511.985 167.595 514.118 159.046 521.96C147.621 532.439 140.966 548.028 141.627 562.763C142.172 574.913 153.086 611.962 159.063 621.952C169.932 640.119 192.261 650.347 213.604 646.935C216.852 646.417 275.771 629.113 415.912 587.522L613.638 528.841L618.482 525.829C627.455 520.251 633.977 513.424 638.872 504.486C644.739 493.776 646.826 482.389 645.106 470.486C641.989 448.911 599.939 308.379 592.368 294.234C588.273 286.583 583.726 281.223 577.14 276.283C566.548 268.34 553.899 264.396 541.41 265.144C529.265 265.872 490.166 275.863 464.815 284.716ZM473.932 323.274C455.433 330.05 451.828 332.026 449.749 336.528C447.725 340.909 447.629 343.384 449.214 350.364C455.636 378.637 482.102 468.626 494.45 504.176C497.679 513.473 500.345 521.136 500.375 521.207C500.404 521.277 522.253 514.875 548.928 506.981C596.571 492.88 597.474 492.593 600.004 490.686C603.345 488.168 605.848 483.544 606.144 479.345C606.743 470.832 578.355 372.339 560.541 321.123C556.954 310.812 555.719 308.86 551.235 306.424C547.078 304.165 544.67 304.139 534.18 306.236C523.226 308.426 484.795 319.294 473.932 323.274ZM333.562 436.214C321.139 440.68 320 441.356 317.305 445.871C314.49 450.583 314.509 452.907 317.459 465.47C322.534 487.077 341.102 547.669 347.361 563.05L348.663 566.25L403.398 550.051L458.134 533.852L457.551 530.726C454.662 515.248 436.845 452.84 429.393 432.096C426.359 423.652 425.383 421.464 423.805 419.567C421.645 416.972 417.006 414.451 413.739 414.096C408.331 413.51 358.42 427.278 333.562 436.214ZM198.359 545.296C187.224 549.061 184.949 550.52 182.525 555.45C180.178 560.224 180.235 560.598 186.595 582.094C192.25 601.208 192.305 601.36 194.265 603.483C196.699 606.12 200.395 607.83 204.116 608.041C206.72 608.187 210.833 607.047 257.124 593.344L307.309 578.489L306.387 573.743C305.879 571.133 302.76 559.86 299.455 548.693C293.553 528.75 293.413 528.356 291.634 526.553C289.543 524.435 286.24 522.52 283.904 522.072C280.037 521.33 275.689 522.378 241.809 532.217C223.217 537.616 203.664 543.501 198.359 545.296Z" fill="currentColor"/>
</g>
<defs>
<clipPath id="clip0_8730_683">
<rect width="550" height="550" fill="white" transform="translate(0 156.083) rotate(-16.4864)"/>
</clipPath>
</defs>
</svg>
