<svg width="64" height="64" viewBox="0 0 64 64" fill="none" xmlns="http://www.w3.org/2000/svg">
<path fill-rule="evenodd" clip-rule="evenodd" d="M28.8024 3.23829C28.6088 3.25058 27.86 3.29148 27.1384 3.32911C24.2796 3.47836 18.649 3.98268 17.0995 4.22825C10.8019 5.22633 5.6338 10.134 4.33217 16.3521C4.11592 17.3851 3.87432 19.5902 3.58888 23.1361C3.0059 30.3785 3.06267 35.5397 3.81211 43.4241C4.05537 45.9836 4.15764 46.8144 4.33217 47.6481C5.63348 53.8646 10.8036 58.7741 17.0995 59.7719C18.5228 59.9975 23.4666 60.4485 27.1064 60.6849C28.823 60.7964 35.1817 60.7964 36.8984 60.6849C40.5382 60.4485 45.4819 59.9975 46.9052 59.7719C52.6595 58.8599 57.4794 54.7102 59.2885 49.1103C59.7196 47.7761 59.8771 46.7818 60.1897 43.4241C60.7045 37.8943 60.879 34.0192 60.7915 30.0641C60.6961 25.7527 60.1068 18.5139 59.6787 16.3939C58.4266 10.193 53.2135 5.22799 46.9052 4.22825C45.5754 4.01749 40.8965 3.58261 37.5064 3.35465C36.1204 3.26146 29.7731 3.1766 28.8024 3.23829ZM29.3784 7.81372C25.4897 7.95439 19.0216 8.52022 17.3004 8.8703C16.4123 9.0509 15.4442 9.39138 14.5855 9.82511C11.5292 11.3689 9.26587 14.44 8.738 17.7593C8.44123 19.6252 7.81275 27.5095 7.8107 29.3921L7.81038 29.6961H32.0024H56.1944L56.1941 29.3921C56.192 27.5365 55.558 19.5786 55.2673 17.7593C54.7364 14.4382 52.4734 11.3678 49.4193 9.82511C47.9685 9.09231 46.8353 8.80649 44.3544 8.54761C37.9086 7.87503 33.5663 7.66223 29.3784 7.81372ZM18.1371 11.7778C17.4904 11.9078 16.7834 12.4793 16.4939 13.1062C16.3816 13.3492 16.3544 13.5266 16.3544 14.0161C16.3544 14.5474 16.3762 14.6686 16.5275 14.9765C16.7624 15.455 17.1672 15.8505 17.6664 16.0892L18.0824 16.2881H25.3144H32.5464L32.9096 16.1178C33.4163 15.8803 33.8199 15.486 34.0641 14.9899C34.2479 14.6167 34.2698 14.5127 34.2698 14.0161C34.2698 13.5194 34.2479 13.4155 34.0641 13.0423C33.8199 12.5462 33.4163 12.1519 32.9096 11.9143L32.5464 11.7441L25.4744 11.7343C21.5848 11.7289 18.283 11.7485 18.1371 11.7778ZM17.7817 20.3769C16.6812 20.8302 16.0801 22.0258 16.3984 23.1287C16.5898 23.792 17.2184 24.4543 17.8731 24.6825C18.1964 24.7952 18.7839 24.8001 32.0344 24.8001H45.8584L46.2154 24.6556C46.661 24.4752 47.0628 24.1359 47.3283 23.7155C48.0612 22.5556 47.603 21.0138 46.3509 20.427L45.9864 20.2561L32.0664 20.2414L18.1464 20.2266L17.7817 20.3769ZM7.8107 34.6081C7.81275 36.4907 8.44123 44.3749 8.738 46.2409C9.2692 49.5811 11.5464 52.6537 14.6353 54.1979C16.0097 54.8851 17.0417 55.1586 19.1666 55.3992L20.5708 55.5582L21.6305 54.5152C22.2132 53.9415 23.7845 52.39 25.1222 51.0675C26.4599 49.745 27.7704 48.4759 28.0344 48.2471C31.4098 45.3217 35.6417 43.5111 40.1304 43.0714C41.0783 42.9786 43.2816 42.9782 44.2264 43.0707C47.9071 43.4309 51.4991 44.7321 54.4202 46.7633C54.694 46.9537 54.9555 47.1239 55.0014 47.1415C55.1506 47.1987 55.2876 46.3829 55.518 44.0641C55.8571 40.6505 56.1926 35.9587 56.1941 34.6081L56.1944 34.3041H32.0024H7.81038L7.8107 34.6081ZM19.3944 36.3893C19.3064 36.4049 19.0616 36.4476 18.8504 36.4842C17.0567 36.7952 15.5371 37.9242 14.7209 39.5521C14.4988 39.995 14.4678 40.0828 14.2686 40.8321C14.0165 41.7796 14.0361 43.5253 14.3105 44.5833C14.7581 46.3087 16.027 47.7466 17.6868 48.4094C18.5151 48.7402 19.1914 48.8537 20.3544 48.8572C22.1037 48.8624 23.2364 48.5298 24.3996 47.6695C26.0031 46.4836 26.7712 44.648 26.6716 42.2401C26.5941 40.365 26.0264 39.0417 24.8156 37.914C24.0759 37.225 23.1517 36.747 22.0973 36.508C21.6812 36.4137 19.7392 36.3284 19.3944 36.3893ZM19.9605 40.9696C19.0092 41.065 18.6875 41.4616 18.6804 42.5479C18.6744 43.4561 18.8479 43.8764 19.3262 44.1121C19.58 44.2372 19.7192 44.2561 20.3864 44.2561C21.3254 44.2561 21.6428 44.1381 21.8924 43.6961C22.1804 43.1861 22.1404 41.849 21.8238 41.4045C21.5733 41.0527 20.8398 40.8815 19.9605 40.9696ZM40.7532 47.6198C37.4047 47.9171 34.1824 49.1957 31.5914 51.2549C30.9742 51.7456 29.5903 53.0553 27.9805 54.6727L26.6146 56.0449L27.2445 56.0867C29.9278 56.2642 32.7779 56.2764 35.9704 56.124C39.6634 55.9477 45.5341 55.3978 46.8504 55.1049C48.475 54.7435 50.079 53.9569 51.4288 52.8601C51.9871 52.4064 52.9571 51.3898 52.8865 51.3322C51.4035 50.1221 49.5007 49.0824 47.6078 48.4478C45.4344 47.7193 42.9764 47.4224 40.7532 47.6198Z" fill="#CAD5E2"/>
</svg>
