<svg width="20" height="21" viewBox="0 0 20 21" fill="none" xmlns="http://www.w3.org/2000/svg">
<path fill-rule="evenodd" clip-rule="evenodd" d="M9.94951 0.00755651C9.94059 0.016491 9.63567 0.0317817 9.27191 0.0415163C8.26612 0.0684974 7.26311 0.137261 5.888 0.273523C4.7343 0.387848 4.40053 0.448367 3.85008 0.64308C3.53242 0.755427 3.03796 1.00317 2.73448 1.20199C1.55831 1.97262 0.707337 3.18477 0.411967 4.51016C0.324489 4.90276 0.293108 5.16126 0.16707 6.52863C-0.0202423 8.56051 -0.0503794 10.5383 0.0783255 12.3516C0.0961055 12.6022 0.115708 12.9622 0.121864 13.1517C0.128021 13.3411 0.14749 13.5712 0.165114 13.6629C0.182738 13.7545 0.223344 14.1046 0.255348 14.4407C0.317355 15.0923 0.383519 15.5078 0.47613 15.8274C0.875047 17.2038 1.83857 18.4041 3.09366 19.0882C3.62921 19.3801 4.16783 19.5657 4.78996 19.6729C5.28759 19.7586 7.03455 19.9196 8.35498 20.0015C8.95658 20.0388 11.0427 20.0388 11.6443 20.0015C12.9518 19.9204 14.7165 19.7578 15.2093 19.6729C15.8314 19.5657 16.37 19.3801 16.9056 19.0882C18.2828 18.3375 19.3082 16.962 19.6104 15.4597C19.6654 15.1867 19.7319 14.6475 19.7787 14.0962C19.7922 13.9373 19.8171 13.7423 19.8341 13.6629C19.851 13.5834 19.8702 13.3584 19.8767 13.1628C19.8831 12.9672 19.903 12.6022 19.9208 12.3516C20.0526 10.5003 20.0201 8.557 19.8215 6.41751C19.6613 4.6918 19.592 4.31716 19.3073 3.63939C18.6636 2.10695 17.2674 0.900223 15.6692 0.495106C15.3354 0.410518 14.972 0.358822 14.1112 0.273523C12.7727 0.140884 11.7669 0.0710088 10.733 0.0388715C10.3724 0.0276701 10.0523 0.0123793 10.0216 0.00491172C9.99087 -0.00255587 9.95844 -0.00137793 9.94951 0.00755651ZM8.48833 1.66338C7.40697 1.72284 5.47213 1.89979 4.9962 1.9828C3.84884 2.18287 2.80286 2.96352 2.27993 4.01003C2.02254 4.52516 1.93178 4.87318 1.85495 5.63963C1.83594 5.8291 1.81614 6.01661 1.8109 6.05635L1.80141 6.12858H5.50047H9.19952V3.88386V1.63914L9.00506 1.6424C8.89811 1.6442 8.66557 1.65365 8.48833 1.66338ZM10.7997 3.88386V6.12858H14.4996H18.1995L18.1893 6.06746C18.1837 6.03386 18.1636 5.84633 18.1447 5.65075C18.07 4.88063 17.9797 4.53325 17.7176 4.00814C17.196 2.96306 16.1503 2.18285 15.003 1.9828C14.3875 1.87546 11.5808 1.63947 10.9164 1.63918L10.7997 1.63914V3.88386ZM1.66448 7.81213C1.66403 7.85798 1.65463 8.0268 1.64354 8.18731C1.63247 8.34781 1.61165 8.83288 1.59729 9.26522C1.56638 10.1969 1.59525 11.3194 1.67855 12.4238L1.69322 12.6183H5.44637H9.19952V10.1735V7.72878H5.43239H1.66526L1.66448 7.81213ZM10.7997 10.1735V12.6183H14.5557C18.118 12.6183 18.3118 12.6163 18.312 12.5794C18.3121 12.558 18.3267 12.3205 18.3446 12.0515C18.4303 10.757 18.4343 9.40584 18.3558 8.19551C18.3444 8.01826 18.3347 7.84075 18.3345 7.80101L18.334 7.72878H14.5669H10.7997V10.1735ZM1.84306 14.2908C1.84306 14.4089 1.90709 14.9269 1.94538 15.1186C2.03717 15.5781 2.29042 16.1587 2.57061 16.5519C2.76335 16.8224 3.19513 17.2542 3.46564 17.447C3.85657 17.7255 4.43307 17.9777 4.89899 18.074C5.40923 18.1795 8.41525 18.4398 9.13841 18.4411L9.19952 18.4412V16.3299V14.2185H5.52129H1.84306V14.2908ZM10.7997 16.3299V18.4412L10.8608 18.4411C11.584 18.4398 14.59 18.1795 15.1003 18.074C16.2555 17.8353 17.2577 17.0437 17.7668 15.9679C17.8975 15.6918 17.9999 15.3888 18.0539 15.1186C18.0922 14.9269 18.1562 14.4089 18.1562 14.2908V14.2185H14.478H10.7997V16.3299Z" fill="white"/>
</svg>
