<svg width="16" height="16" viewBox="0 0 16 16" fill="none" xmlns="http://www.w3.org/2000/svg">
<g clip-path="url(#clip0_1738_566)">
<path fill-rule="evenodd" clip-rule="evenodd" d="M0.507052 1.15438C0.16864 1.21179 -0.0550251 1.5386 0.0118174 1.87798C0.0560363 2.10244 0.228901 2.28773 0.448625 2.34619C0.577237 2.38039 15.4209 2.38039 15.5495 2.34619C15.8389 2.26919 16.033 1.97818 15.9953 1.67741C15.9692 1.46869 15.8099 1.26527 15.6088 1.18379L15.5146 1.1456L8.05047 1.14327C3.94523 1.14198 0.550688 1.14698 0.507052 1.15438ZM0.481069 7.40295C0.302223 7.43845 0.134516 7.57538 0.0520258 7.75326C0.0116804 7.84025 0.00443047 7.87822 0.00455044 8.00147C0.00468756 8.12484 0.0121431 8.16321 0.053534 8.25369C0.112561 8.38271 0.230615 8.49879 0.368414 8.56329L0.466415 8.60917H7.99905H15.5317L15.6297 8.56329C15.7675 8.49879 15.8855 8.38271 15.9446 8.25369C15.986 8.16307 15.9934 8.12505 15.9934 8.00147C15.9934 7.8779 15.986 7.83988 15.9446 7.74925C15.8855 7.62023 15.7675 7.50415 15.6297 7.43965L15.5317 7.39377L8.0419 7.39131C3.92252 7.38996 0.520146 7.39519 0.481069 7.40295ZM0.440569 13.6578C0.228079 13.7164 0.0551965 13.9048 0.0118174 14.125C-0.0454272 14.4156 0.113212 14.7073 0.389289 14.8192L0.483554 14.8574H7.99905H15.5146L15.6088 14.8192C15.8099 14.7377 15.9692 14.5343 15.9953 14.3255C16.033 14.0248 15.8389 13.7338 15.5495 13.6568C15.4264 13.624 0.559258 13.625 0.440569 13.6578Z" fill="currentColor"/>
</g>
<defs>
<clipPath id="clip0_1738_566">
<rect width="16" height="16" fill="white"/>
</clipPath>
</defs>
</svg>
