<svg width="24" height="24" viewBox="0 0 24 24" fill="none" xmlns="http://www.w3.org/2000/svg">
<path fill-rule="evenodd" clip-rule="evenodd" d="M22.0921 2.24128C22.0393 2.25784 20.9437 2.89046 19.6575 3.6471L17.3189 5.02281L15.9015 4.94615C14.3911 4.86448 14.1245 4.86582 13.585 4.95772C13.1051 5.03946 12.4963 5.22542 12.0742 5.41914C11.9599 5.47161 11.9634 5.47216 11.7241 5.36426C10.586 4.85104 8.91941 4.47395 7.31361 4.36631C6.83453 4.3342 5.78654 4.34838 5.55122 4.39019L5.40233 4.41664L3.70322 3.5758C2.76871 3.11337 1.95084 2.719 1.88573 2.69946C1.72212 2.65036 1.56115 2.65504 1.38533 2.71398C0.783767 2.91573 0.601583 3.64612 1.03545 4.11681C1.12949 4.21883 1.29386 4.30602 2.80759 5.05684C3.72528 5.512 4.61109 5.94717 4.77609 6.02385C5.15186 6.19852 5.26113 6.21546 5.55696 6.14481C6.29873 5.96762 7.96533 6.07881 9.32409 6.39611C9.74486 6.49437 10.2985 6.65373 10.29 6.6741C10.2868 6.6819 9.83049 7.11532 9.27609 7.63725C8.72169 8.15918 8.21273 8.65502 8.14505 8.73909C7.07846 10.0641 7.20314 11.8963 8.43869 13.0544C9.55197 14.0979 11.2737 14.2284 12.5449 13.3657C12.6083 13.3227 12.9268 13.0842 13.2527 12.8357C13.5786 12.5872 13.8506 12.3839 13.857 12.3839C13.8634 12.3839 13.9738 12.5378 14.1023 12.7259C14.8224 13.7805 15.5397 14.7077 16.2639 15.5205C16.7616 16.0791 17.5621 16.841 18.0435 17.2143L18.2189 17.3503L17.9671 17.5371C16.6464 18.517 14.4264 19.4484 12.4321 19.8592C11.6654 20.0172 11.36 20.0504 10.6681 20.0511C10.105 20.0516 10.0195 20.0463 9.79209 19.9966C8.56171 19.7274 7.22361 18.9421 5.67609 17.5808C4.84733 16.8518 3.97188 15.9784 2.75239 14.6639C2.09299 13.9532 1.99812 13.887 1.64469 13.8906C1.42512 13.8929 1.24807 13.9595 1.08713 14.1004C0.771551 14.3768 0.703703 14.8668 0.934127 15.2055C1.14547 15.516 3.14321 17.5903 3.97401 18.3618C5.91199 20.1614 7.57068 21.2028 9.13209 21.6002C9.74093 21.7552 9.94219 21.7794 10.6201 21.7796C11.6142 21.7799 12.5114 21.6461 13.7622 21.3113C16.3973 20.6057 19.0067 19.2178 20.0206 17.9823C20.0559 17.9394 20.1385 17.8834 20.2055 17.857C20.2721 17.8307 20.416 17.7646 20.5253 17.71C21.5042 17.221 22.3041 16.4473 22.9649 15.3498C23.2089 14.9447 23.2484 14.7808 23.1724 14.489C23.1272 14.3154 23.0513 14.1953 22.9043 14.0646C22.7213 13.9019 22.6095 13.8602 22.3561 13.8601C21.9813 13.8598 21.7783 13.9936 21.5245 14.4078C21.2105 14.9205 20.9771 15.2167 20.6232 15.5516C20.3789 15.7828 20.0076 16.0453 19.7609 16.161L19.6137 16.2301L19.4969 16.151C18.6547 15.5805 17.5743 14.4909 16.5707 13.1999C16.2271 12.758 15.8332 12.2148 15.8466 12.2014C15.8534 12.1947 15.9791 12.1734 16.126 12.1541C16.6949 12.0796 17.2715 11.8933 17.8223 11.606C18.6012 11.1997 18.8103 10.9599 18.787 10.4998C18.7749 10.2596 18.7106 10.1192 18.5279 9.93386C18.3251 9.72813 18.0565 9.64996 17.7438 9.70571C17.6856 9.71608 17.5096 9.8033 17.3238 9.91382C16.3284 10.5061 15.5384 10.6103 14.3763 10.3026C14.1051 10.2309 13.9393 10.2371 13.7475 10.3265C13.6774 10.3591 13.1611 10.7381 12.6001 11.1686C12.0391 11.5992 11.5077 11.9896 11.4193 12.0364C11.0985 12.2058 10.7269 12.2551 10.3491 12.1784C9.6557 12.0375 9.14311 11.4309 9.14445 10.7529C9.14522 10.3618 9.27108 10.0526 9.54701 9.76379C9.84501 9.45186 11.8338 7.59359 12.0386 7.43577C12.1428 7.35539 12.2657 7.2737 12.3115 7.25418C12.3575 7.2347 12.442 7.18643 12.4994 7.14693C12.7377 6.98294 13.2281 6.79403 13.6682 6.69666C14.1653 6.5867 14.3781 6.5842 15.9241 6.67036C17.5186 6.75921 17.6583 6.76216 17.8034 6.71018C17.9551 6.65582 22.8104 3.79612 22.9341 3.68829C22.999 3.63174 23.0675 3.53735 23.1131 3.44186C23.3398 2.96682 23.1162 2.42829 22.6198 2.25381C22.4703 2.20127 22.2373 2.19573 22.0921 2.24128Z" fill="white"/>
</svg>
