<svg width="24" height="24" viewBox="0 0 24 24" fill="none" xmlns="http://www.w3.org/2000/svg">
<path fill-rule="evenodd" clip-rule="evenodd" d="M18.7888 0.675265C18.0548 0.832074 16.6867 1.52577 15.2536 2.46778C14.6701 2.85133 14.4776 3.00151 14.2894 3.22007C13.9496 3.61488 13.7705 4.04103 13.6997 4.62338C13.549 5.8634 13.5603 7.52844 13.7268 8.62137C13.8014 9.11154 14.0175 9.55019 14.3764 9.94012C14.6181 10.2027 15.9386 11.0664 16.8803 11.5778C17.5542 11.9437 18.3857 12.2957 18.7646 12.3754C18.999 12.4247 19.3824 12.4243 19.6239 12.3744C19.9826 12.3003 20.598 12.045 21.3284 11.6671C21.8982 11.3724 22.3995 11.071 23.1853 10.5507C23.7186 10.1976 23.8467 10.1001 24.0209 9.91518C24.3371 9.5793 24.55 9.17929 24.6342 8.76278C24.7187 8.34432 24.8045 7.21907 24.8047 6.52596C24.8049 5.90448 24.7217 4.75268 24.6487 4.36627C24.5519 3.85391 24.2855 3.37161 23.9052 3.02033C23.653 2.78731 22.4246 1.99172 21.6555 1.56323C20.9998 1.19788 20.1472 0.817805 19.7272 0.703573C19.5136 0.645441 19.0007 0.629989 18.7888 0.675265ZM18.8016 2.60729C18.0991 2.89154 17.2207 3.37804 16.261 4.01445C15.7079 4.38126 15.6514 4.4287 15.5887 4.57862C15.5371 4.70234 15.4808 5.23172 15.442 5.95819C15.4089 6.58042 15.4344 7.35073 15.5113 8.04288C15.5722 8.5908 15.57 8.58777 16.201 9.00634C16.4859 9.19536 16.9025 9.46036 17.1268 9.59524C17.8719 10.0434 18.9711 10.564 19.1849 10.5701C19.3978 10.5761 20.4468 10.0833 21.2527 9.59853C21.9552 9.17597 22.675 8.68624 22.7418 8.58535C22.8222 8.46397 22.842 8.37262 22.8899 7.90148C22.9789 7.02547 22.9679 5.82514 22.8627 4.92283C22.8098 4.46963 22.8065 4.46541 22.1747 4.04631C21.4378 3.55752 20.9085 3.24419 20.331 2.95487C19.7478 2.66277 19.3156 2.48866 19.1796 2.49113C19.1273 2.49208 18.9572 2.54435 18.8016 2.60729ZM18.874 4.77785C18.5061 4.83163 18.1791 4.9906 17.9271 5.2382C17.7336 5.42833 17.6109 5.62154 17.518 5.88207C17.4428 6.09323 17.4397 6.11817 17.4399 6.52596C17.4401 6.9191 17.4452 6.96541 17.51 7.15788C17.6304 7.5161 17.849 7.80684 18.1462 8.00442C18.4832 8.22851 18.8496 8.31822 19.3238 8.29279C19.7788 8.26837 20.1205 8.13346 20.4195 7.86018C20.7045 7.59974 20.8662 7.2944 20.9384 6.88036C21.0127 6.45425 20.9557 6.0433 20.7699 5.66466C20.4464 5.00572 19.7008 4.65696 18.874 4.77785ZM3.68382 11.0424C3.19259 11.0586 1.97494 11.1336 1.84719 11.1555C1.56473 11.2042 1.32377 11.3828 1.18545 11.6461C1.11955 11.7716 1.1131 11.8077 1.11294 12.0537C1.11279 12.3023 1.11883 12.3356 1.18905 12.4743C1.3166 12.726 1.60111 12.9317 1.87331 12.969C1.93579 12.9775 2.29352 12.9633 2.66825 12.9373C3.5329 12.8774 4.63964 12.8775 5.24767 12.9376C5.78234 12.9904 6.33353 13.0787 6.87193 13.1979C7.40615 13.3162 9.17765 13.7664 9.32729 13.8219C9.73472 13.9731 10.0389 14.3062 10.1634 14.7374C10.2194 14.9315 10.205 15.3444 10.1351 15.5504C10.0038 15.9367 9.61975 16.2841 9.19552 16.4002C8.95881 16.4649 8.7135 16.4406 7.64325 16.2462C6.48164 16.0352 6.42302 16.0321 6.15098 16.166C5.83497 16.3216 5.64806 16.6203 5.64327 16.9773C5.64039 17.1905 5.67747 17.3147 5.79916 17.4994C5.91066 17.6687 6.08066 17.8011 6.25236 17.8524C6.48764 17.9226 13.1134 19.1008 13.2739 19.1009C13.3874 19.101 14.3617 18.8792 16.9633 18.2611C18.9077 17.7991 20.5682 17.4154 20.6533 17.4083C21.105 17.3708 21.5824 17.6441 21.7865 18.0571C22.0834 18.6578 21.8628 19.372 21.2877 19.6718C21.1338 19.752 16.3031 21.7247 15.4094 22.0723C14.0675 22.5942 12.7103 22.8268 11.2048 22.7931C10.2806 22.7724 9.68053 22.6936 8.81172 22.479C8.30303 22.3534 8.15422 22.3029 4.93773 21.1653C3.32243 20.594 1.94175 20.1139 1.86958 20.0984C1.49354 20.0177 1.07183 20.2377 0.888594 20.6101C0.813082 20.7636 0.804289 20.8045 0.804701 21.0005C0.805112 21.1923 0.815165 21.2404 0.885303 21.3867C0.978658 21.5813 1.09718 21.7092 1.27124 21.8031C1.39602 21.8703 6.99444 23.8605 7.61322 24.0576C8.38549 24.3035 9.3259 24.4967 10.2143 24.592C10.72 24.6462 12.0802 24.6537 12.5668 24.6049C13.8517 24.476 14.9141 24.232 16.0377 23.8075C16.715 23.5517 21.9846 21.3972 22.1518 21.3078C22.8862 20.915 23.4202 20.2486 23.6578 19.4282C23.8735 18.6836 23.7659 17.8051 23.3743 17.112C22.9295 16.3248 22.1138 15.7566 21.2056 15.6012C20.9441 15.5565 20.4431 15.5619 20.1796 15.6123C20.0607 15.635 18.451 16.0126 16.6024 16.4513L13.2414 17.249L12.3714 17.0925C11.8929 17.0065 11.4967 16.9313 11.4909 16.9255C11.4851 16.9197 11.5153 16.8596 11.558 16.7919C12.1048 15.9249 12.2033 14.8441 11.8224 13.8903C11.4842 13.0434 10.7489 12.3498 9.88007 12.058C9.62363 11.9719 7.17971 11.3665 6.80765 11.2969C6.04058 11.1535 5.44661 11.0862 4.63511 11.0508C4.32401 11.0373 4.02899 11.0283 3.97949 11.0309C3.93 11.0335 3.79695 11.0387 3.68382 11.0424Z" fill="white"/>
<defs>
<clipPath id="clip0_9431_7411">
<rect width="24" height="24" fill="white"/>
</clipPath>
<clipPath id="clip1_9431_7411">
<rect width="24" height="24" fill="white"/>
</clipPath>
</defs>
</svg>
