<svg width="639" height="530" viewBox="0 0 639 530" fill="none" xmlns="http://www.w3.org/2000/svg">
<path d="M30.575 170.395C23.3526 173.959 18.3624 178.826 14.5271 186.103C10.7526 193.253 9.65574 199.99 10.8843 207.997C12.0481 215.819 107.366 488.741 111.167 495.434C117.744 506.781 129.801 514.965 142.177 516.579C155.707 518.207 138.621 523.758 380.58 439.253L602.321 361.81L608.223 357.457C621.878 347.168 628.106 332.078 625.393 315.632C624.68 311.194 609.985 268.519 574.946 168.791L525.548 28.2505L521.172 22.9047C512.291 11.8416 500.445 7.85469 485.951 11.2503C476.217 13.6084 39.0087 166.408 30.575 170.395ZM63.5338 197.421C70.3478 198.374 75.9433 206.314 74.4089 212.995C73.4899 216.649 69.4031 221.41 66.1422 222.548C62.8813 223.687 56.124 222.298 53.4095 219.913C51.9266 218.66 50.1438 215.95 49.3657 213.722C48.1985 210.38 48.4009 209.164 50.4987 204.994C53.5402 199.036 57.6274 196.672 63.5338 197.421ZM105.812 183.488C111.942 184.576 116.399 191.352 115.488 198.024C115.201 199.895 113.585 202.75 111.831 204.613C107.768 208.844 103.13 209.63 97.6042 206.978C89.3153 202.998 87.7584 193.752 94.2836 186.994C97.8844 183.237 100.432 182.451 105.812 183.488ZM147.43 169.162C153.908 170.649 158.26 178.919 156.069 185.517C154.66 189.863 149.816 193.95 145.765 194.324C141.839 194.757 136.22 192.137 133.619 188.879C126.476 179.5 135.54 166.544 147.43 169.162ZM566.873 204.94C605.941 316.801 606.427 318.194 606.314 323.857C606.177 330.05 603.326 336.254 598.855 340.211C596.635 342.236 560.364 355.112 373.375 420.418C168.403 492.004 150.296 498.224 146.829 497.873C141.485 497.239 135.988 494.368 131.559 489.77L127.702 485.909L88.051 372.377L48.4323 258.938L287.876 175.312L527.319 91.6866L566.873 204.94Z" fill="currentColor"/>
<path d="M95.0521 273.902C91.8076 276.285 90.135 279.578 89.7022 284.624C89.2572 288.737 90.7202 293.226 115.782 364.984C135.17 420.497 142.939 441.843 144.717 444.242C147.801 448.581 153.946 450.913 159.237 449.899C161.57 449.396 200.3 436.078 245.329 420.144C323.307 392.597 327.281 391.105 329.12 388.588C330.193 387.172 331.497 384.321 331.999 382.167C332.76 378.36 332.723 377.956 305.234 299.546C289.445 254.338 277.012 219.935 276.031 218.923C274.001 216.404 269.452 214.451 265.676 214.416C261.994 214.348 98.73 271.264 95.0521 273.902ZM130.448 289.349C134.025 290.912 141.054 293.978 146.106 296.171C151.19 298.457 160.103 302.427 165.876 304.889C171.682 307.445 181.129 311.748 186.935 314.303C192.773 316.951 199.457 319.929 201.872 320.856L206.324 322.53L216.676 303.083C222.337 292.357 231.681 274.512 237.431 263.442C248.905 241.521 250.136 240.257 256.691 242.863C259.324 243.818 260.337 244.923 261.278 247.615C262.672 251.607 264.219 248.254 235.695 302.169L221.233 329.301L230.49 333.358C235.542 335.552 251.893 342.86 266.737 349.446C306.184 366.915 306.058 366.855 303.312 373.959C301.385 379.214 297.314 380.428 290.479 377.92C287.688 376.812 272.188 370.143 256.181 362.922C216.795 345.328 214.381 344.401 212.789 346.727C211.991 347.735 204.835 361.066 196.832 376.464C175.043 418.236 172.204 422.977 168.571 424.246C164.998 425.39 162.15 424.718 159.772 421.799C156.952 418.513 157.522 414.46 161.702 407.272C165.485 400.743 169.259 393.593 184.904 363.861C189.744 354.671 194.826 344.981 196.228 342.408L198.755 337.672L191.945 334.634C151.712 316.711 140.068 311.507 129.871 307.153C118.358 302.321 117.823 301.987 116.526 298.274C115.035 294.004 115.204 292.694 117.388 290.265C120.462 286.796 123.828 286.558 130.448 289.349Z" fill="currentColor"/>
<path d="M327.841 210.724C320.967 217.082 325.044 228.157 334.442 228.728C336.658 228.788 359.489 221.127 420.915 199.465L504.483 169.966L506.03 166.614C507.399 163.949 507.379 162.393 506.179 158.959C504.915 155.338 504.028 154.294 500.669 152.759L496.743 150.797L413.479 179.669C344.842 203.432 329.907 208.857 327.841 210.724Z" fill="currentColor"/>
<path d="M343.726 256.211C340.336 259.374 339.482 263.213 341.038 267.669C342.108 270.733 343.121 271.837 346.228 273.252L349.964 274.967L433.633 246.058C495.282 224.736 517.825 216.55 519.522 215.124C522.698 212.244 523.309 208.906 521.623 204.079C520.067 199.623 517.673 197.856 512.171 197.069C508.327 196.537 346.963 253.206 343.726 256.211Z" fill="currentColor"/>
<path d="M363.926 299.671C359.057 301.892 357.947 302.905 356.829 305.691C354.837 310.761 357.127 316.419 362.118 318.738L365.853 320.454L413.653 304.072C460.116 288.053 461.513 287.565 463.846 284.667C468.176 279.405 466.802 272.178 460.737 268.88L456.965 266.76L413.236 281.928C389.292 290.291 366.996 298.286 363.926 299.671Z" fill="currentColor"/>
</svg>
