<svg width="36" height="11" viewBox="0 0 36 11" fill="none" xmlns="http://www.w3.org/2000/svg">
<path d="M-0.000498551 9.99999L0.0117188 0L2.26172 0.00274889L2.25764 3.33608L5.25764 3.33974L5.26171 0.00641408L7.51171 0.00916298L7.4995 10.0092L5.2495 10.0064L5.25459 5.83974L2.25459 5.83608L2.2495 10.0027L-0.000498551 9.99999ZM11.6245 10.0142L11.6337 2.5142L9.00866 2.51099L9.01171 0.0109956L16.5117 0.0201585L16.5087 2.52016L13.8837 2.51695L13.8745 10.0169L11.6245 10.0142ZM17.9995 10.022L18.0097 1.68866C18.0102 1.21643 18.1547 0.821055 18.4431 0.502519C18.7315 0.183982 19.0877 0.0244168 19.5117 0.0238237L26.2617 0.0320704C26.6867 0.0325897 27.043 0.193025 27.3306 0.513377C27.6182 0.833728 27.7612 1.22946 27.7597 1.70057L27.7495 10.0339L25.4995 10.0311L25.5086 2.53115L24.0086 2.52932L24.0015 8.36265L21.7515 8.3599L21.7586 2.52657L20.2586 2.52474L20.2495 10.0247L17.9995 10.022ZM29.9995 10.0366L30.0117 0.0366519L32.2617 0.0394008L32.2525 7.53939L36.0025 7.54398L35.9995 10.044L29.9995 10.0366Z" fill="#E2E8F1"/>
</svg>
