<svg width="20" height="20" viewBox="0 0 20 20" fill="none" xmlns="http://www.w3.org/2000/svg">
<path fill-rule="evenodd" clip-rule="evenodd" d="M8.88815 0.0073035C8.82086 0.0115751 8.56055 0.0257916 8.30971 0.0388734C7.31593 0.0907557 5.35858 0.26607 4.81995 0.351435C2.63075 0.698393 0.834183 2.40441 0.381703 4.56598C0.281209 5.04614 0.128588 6.64377 0.0289169 8.25915C-0.00970561 8.88503 -0.00961664 11.1284 0.0290504 11.7521C0.131881 13.4102 0.279629 14.9576 0.381703 15.4452C0.834072 17.6063 2.63133 19.3129 4.81995 19.6598C5.31473 19.7382 7.0333 19.895 8.29858 19.9772C8.89534 20.0159 11.1058 20.0159 11.7025 19.9772C12.9678 19.895 14.6864 19.7382 15.1812 19.6598C17.1815 19.3428 18.857 17.9002 19.4859 15.9535C19.6357 15.4897 19.6905 15.1441 19.7992 13.9769C19.9707 12.1343 20 11.555 20 10.0056C20 8.64226 19.987 8.29822 19.8886 7.05776C19.7896 5.80884 19.6979 4.95884 19.6215 4.58051C19.1863 2.42493 17.3741 0.698971 15.1812 0.351435C14.7189 0.278173 13.0924 0.126998 11.9139 0.0477504C11.4321 0.0153573 9.22559 -0.0141436 8.88815 0.0073035ZM9.08839 1.59783C7.7366 1.64674 5.48811 1.84343 4.88977 1.96513C3.52223 2.24325 2.39851 3.29028 2.00309 4.65475C1.92718 4.9167 1.89301 5.1396 1.82566 5.81187C1.56309 8.43364 1.5184 10.159 1.65909 12.2415C1.7199 13.1415 1.85619 14.5972 1.91328 14.9561C2.09794 16.1172 2.88956 17.1853 3.96332 17.7221C4.43987 17.9604 4.8016 18.0565 5.52871 18.1382C8.19833 18.4381 10.1073 18.494 12.3032 18.3365C13.4863 18.2516 14.8324 18.1108 15.1621 18.0374C16.5117 17.7371 17.6086 16.7002 17.998 15.3565C18.0745 15.0925 18.109 14.8674 18.1751 14.1994C18.4738 11.1838 18.4946 9.45035 18.2646 6.76853C18.2056 6.08089 18.1214 5.26426 18.088 5.05517C17.9035 3.90066 17.1168 2.83333 16.0551 2.29704C15.5508 2.0423 15.1569 1.94295 14.2944 1.85295C12.0537 1.61915 10.5442 1.54517 9.08839 1.59783ZM14.8805 3.84506C14.6345 3.88613 14.4264 4.00004 14.2492 4.19059C14.1198 4.32973 14.0653 4.42044 14.0036 4.59935C13.938 4.78953 13.9322 5.14663 13.9914 5.34466C14.1087 5.73701 14.4335 6.04163 14.8224 6.12403C15.7227 6.31481 16.4326 5.6049 16.2418 4.70459C16.1152 4.10703 15.5287 3.73676 14.8805 3.84506ZM9.62234 6.00207C8.56754 6.06841 7.75934 6.39381 7.11099 7.01315C6.50417 7.59278 6.1557 8.3236 6.02891 9.28256C5.98179 9.63886 5.98179 10.3724 6.02891 10.7287C6.1557 11.6876 6.50417 12.4185 7.11099 12.9981C7.83834 13.6929 8.75335 14.0148 10.0006 14.0148C10.5109 14.0148 10.8804 13.9727 11.3041 13.8662C12.4286 13.5835 13.2895 12.8361 13.7138 11.7743C14.0576 10.9141 14.1151 9.66871 13.857 8.671C13.6229 7.76631 13.0566 7.00443 12.2698 6.53604C11.5929 6.133 10.6296 5.93871 9.62234 6.00207ZM9.64459 7.59404C8.57824 7.72308 8.00909 8.12715 7.73299 8.95122C7.62645 9.26925 7.59001 9.53745 7.58974 10.0056C7.58936 10.6394 7.69217 11.0937 7.92239 11.4756C8.22563 11.9786 8.71515 12.2748 9.43323 12.39C9.6964 12.4322 10.3844 12.4251 10.6457 12.3774C11.0691 12.3003 11.4004 12.1618 11.6635 11.9522C11.9505 11.7236 12.1401 11.4431 12.2691 11.0562C12.3802 10.7231 12.4121 10.4891 12.4121 10.0056C12.4121 9.41186 12.3333 9.01643 12.1381 8.62973C11.9885 8.33335 11.6628 8.01015 11.363 7.86046C11.1908 7.77452 10.8848 7.67743 10.6569 7.63636C10.4646 7.60172 9.80791 7.57427 9.64459 7.59404Z" fill="#CAD5E2"/>
</svg>
