<svg width="28" height="28" viewBox="0 0 28 28" fill="none" xmlns="http://www.w3.org/2000/svg">
<path d="M14 7.61877C12.7379 7.61877 11.5042 7.99302 10.4548 8.6942C9.40537 9.39538 8.58747 10.392 8.10449 11.558C7.62151 12.724 7.49514 14.0071 7.74136 15.2449C7.98758 16.4828 8.59534 17.6198 9.48777 18.5122C10.3802 19.4047 11.5172 20.0124 12.7551 20.2586C13.9929 20.5049 15.276 20.3785 16.442 19.8955C17.608 19.4125 18.6046 18.5946 19.3058 17.5452C20.007 16.4959 20.3812 15.2621 20.3812 14C20.3791 12.3083 19.7061 10.6864 18.5098 9.49017C17.3136 8.29392 15.6917 7.62092 14 7.61877Z" fill="currentColor"/>
<path d="M23.1619 8.18565C24.7676 8.18565 26.0694 6.88391 26.0694 5.27815C26.0694 3.67238 24.7676 2.37065 23.1619 2.37065C21.5561 2.37065 20.2544 3.67238 20.2544 5.27815C20.2544 6.88391 21.5561 8.18565 23.1619 8.18565Z" fill="currentColor"/>
<path d="M26.7412 8.20002L26.6194 7.93252L26.425 8.15252C25.9488 8.6933 25.3463 9.10809 24.6712 9.36002L24.4837 9.42877L24.56 9.61189C25.1411 11.0018 25.4394 12.4935 25.4375 14C25.4375 20.3075 20.3062 25.4375 14 25.4375C7.69375 25.4375 2.5625 20.3075 2.5625 14C2.5625 7.69252 7.6925 2.56253 14 2.56253C15.6962 2.55898 17.3715 2.93707 18.9019 3.66878L19.0812 3.75003L19.1594 3.56753C19.4443 2.90591 19.8878 2.32464 20.4506 1.87503L20.68 1.6919L20.4194 1.56253C18.4369 0.531482 16.2345 -0.0046025 14 2.97668e-05C6.28062 2.97671e-05 -3.36522e-10 6.28065 0 14C3.36522e-10 21.7194 6.28062 28 14 28C21.7194 28 28 21.7194 28 14C28.0032 11.9986 27.5739 10.0201 26.7412 8.20002Z" fill="currentColor"/>
</svg>




