<svg width="28" height="39" viewBox="0 0 28 39" fill="none" xmlns="http://www.w3.org/2000/svg">
<path d="M21.1721 7.98427L21.2704 8.04041C19.9405 8.74218 16.1405 11.0054 16.1405 13.8861C16.1405 14.858 16.6966 15.7949 17.2177 16.6756C17.6774 17.451 18.1107 18.1808 18.1107 18.8475C18.1107 20.5265 16.4738 21.83 15.5493 22.43L15.3738 22.3282C15.723 21.9019 16.1528 21.1879 16.1528 20.4265C16.1528 19.3773 15.6142 18.5387 15.0686 17.6879C14.5036 16.8089 13.9317 15.9159 13.9317 14.758C13.9317 10.7369 19.3967 8.57902 21.1721 7.98427ZM13.9879 10.1106C16.1861 8.14568 18.5879 5.99829 18.5879 2.76844C18.5879 1.30703 17.9896 0.373687 17.6931 0L17.5967 0.0543864C17.6668 0.345617 17.7721 0.882463 17.7721 1.58422C17.7721 4.5246 15.2773 6.58426 12.8633 8.58077C10.5984 10.4545 8.4036 12.2685 8.4036 14.6966C8.4036 18.1791 11.8387 20.3212 13.2896 21.2265L13.4001 21.2967L13.4879 21.244C13.4095 21.1575 13.3264 21.0686 13.2387 20.9774C12.1229 19.7896 10.4282 17.9879 10.4282 15.2317C10.4282 13.2966 12.1352 11.7685 13.9879 10.1106ZM13.1966 27.4932C16.2914 27.4932 18.4563 27.0493 19.4177 26.7774L20.8774 27.6195C19.4861 28.3265 16.4019 28.8651 13.1896 28.8651C9.41238 28.8651 5.28252 28.0546 5.27024 26.9739C5.26147 26.3774 6.61236 25.9809 8.06851 25.7248L8.15623 25.7756C8.15623 25.7756 7.66324 25.9528 7.66851 26.3599C7.67552 26.9739 10.1598 27.4932 13.1949 27.4932M7.00359 31.302C7.00359 30.588 8.47553 30.2494 9.14922 30.1143L9.23694 30.1669C9.12115 30.2529 9.05799 30.3704 9.05799 30.4704C9.05799 30.9388 10.6896 31.3669 13.1914 31.3669C15.4335 31.3669 16.6791 31.0915 17.4195 30.9143L19.1563 31.9196C19.0774 31.9757 17.3668 33.0511 13.1878 33.0511C10.151 33.0511 7.00359 32.2932 7.00359 31.302ZM21.9669 28.2704C24.0371 27.0897 26.109 25.6932 26.2265 23.4511C26.3037 21.9791 24.9511 20.9002 23.4721 21.1879L23.5511 20.9914V20.9879C23.923 20.8756 24.3827 20.7844 24.8967 20.7844C26.5511 20.7844 27.8195 21.7756 27.9809 23.1633C28.3073 25.9458 24.3634 27.7564 22.1546 28.3792L21.9669 28.2704ZM25.4318 33.5126C25.4494 35.4248 18.944 36.5617 13.13 36.6126C8.11061 36.6564 0.0175676 35.7091 2.35602e-05 33.7968C-0.0105028 32.4757 3.50882 31.5617 5.42112 31.2985L5.62288 31.4125C5.62288 31.4125 2.77198 32.0739 2.78075 33.2757C2.79127 34.474 8.78957 35.5108 13.1212 35.474C19.8318 35.4143 24.3739 34.3213 24.9107 32.8389L25.0055 32.7845C25.202 32.9283 25.4265 33.1652 25.4318 33.5126ZM5.01761 37.4073C7.49998 37.8039 10.0109 37.9946 12.5247 37.9775C23.416 37.8828 26.4897 35.2055 26.9634 34.6231L27.0459 34.6722C26.9336 36.7915 21.1739 38.5529 14.0703 38.6143C10.4545 38.6459 7.16324 38.2284 4.79831 37.5354L5.01761 37.4073ZM9.58256 21.1212C7.68956 21.2668 3.62461 21.8686 3.62461 22.9388C3.62461 23.7493 7.35096 24.8914 13.1896 24.8914C18.4423 24.8914 21.7581 23.9002 22.5318 23.523L21.4037 22.8651C20.5967 23.0844 17.5984 23.7528 13.1896 23.7528C10.5931 23.7528 6.11937 23.2739 6.11937 22.5423C6.11937 21.8861 8.91062 21.3809 9.71238 21.2353L9.76326 21.2265L9.58256 21.1212Z" fill="currentColor"/>
</svg>




