<svg width="29" height="31" viewBox="0 0 29 31" fill="none" xmlns="http://www.w3.org/2000/svg">
<path d="M22.7353 16.9706L28.4407 13.6765L28.4407 7.08824L22.7353 3.79412L17.0299 7.08824L17.0299 13.6765M22.7353 16.9706L17.0299 13.6765M22.7353 16.9706L22.7353 23.5588L11.2059 30.1471M22.7353 16.9706L22.7353 10.3824M22.7353 16.9706L11.2059 23.5588M17.0299 13.6765L12.0294 16.5341M11.2059 30.1471L5.50047 26.6355M11.2059 30.1471L11.2059 23.5588M22.7353 10.3824L28.5 7.08824M22.7353 10.3824L16.9706 7.08824M11.2059 23.5588L5.44118 20.2647M12.0294 16.5341L5.50047 20.2647L5.50047 26.6355M12.0294 16.5341L12.0294 3.79412M5.50047 26.6355L5.50047 26.8529M5.50047 26.6355L0.5 23.5588L0.5 3.79412M0.5 3.79412L6.26471 0.5L12.0294 3.79412M0.5 3.79412L5.44118 7.08824M12.0294 3.79412L5.44118 7.08824M5.44118 7.08824L5.44118 21.0882" stroke="#E2E8F1" stroke-linejoin="round"/>
</svg>
