<svg width="32" height="32" viewBox="0 0 32 32" fill="none" xmlns="http://www.w3.org/2000/svg">
<path d="M21.8672 1.06152C24.9864 1.06152 26.7905 3.50837 27.317 4.68876C27.574 5.2652 27.3153 5.9406 26.7388 6.19768C26.1624 6.45475 25.487 6.19602 25.2299 5.61956C24.8792 4.83322 23.6925 3.34724 21.8672 3.34724C20.8134 3.3473 20.0416 3.58431 19.4286 4.00237C18.8049 4.42778 18.2487 5.10611 17.7455 6.14858V6.14969C16.5574 8.6115 14.8445 13.06 12.952 17.5068C12.017 19.7038 11.0462 21.8803 10.096 23.7457C9.16692 25.5695 8.21303 27.1821 7.29129 28.2211L7.29241 28.2222C6.80405 28.8073 5.08115 30.9388 2.20536 30.9388C1.57417 30.9388 1.0625 30.4271 1.0625 29.7959C1.06267 29.1649 1.57428 28.653 2.20536 28.653C3.91397 28.653 5.01856 27.3802 5.53795 26.7579L5.56362 26.7278C6.28171 25.9266 7.13229 24.5272 8.05915 22.7077C8.97389 20.912 9.92151 18.7918 10.8493 16.6117C12.6823 12.3048 14.4719 7.67385 15.6875 5.15527C16.3042 3.87763 17.0874 2.83231 18.1406 2.11398C19.2047 1.38833 20.4489 1.06158 21.8672 1.06152Z" fill="white"/>
<path d="M17.1083 13.708C17.7394 13.708 18.2511 14.2197 18.2511 14.8509C18.2511 15.482 17.7394 15.9937 17.1083 15.9937H7.93973C7.30855 15.9937 6.79688 15.482 6.79688 14.8509C6.79688 14.2197 7.30855 13.708 7.93973 13.708H17.1083Z" fill="white"/>
<path d="M19.9759 18.4557C20.5243 18.1432 21.2226 18.3347 21.535 18.8831L26.7638 28.0628C26.7713 28.076 26.7792 28.0895 26.7862 28.103C26.9576 28.4339 27.2986 28.6096 27.6422 28.5784C27.9365 28.5515 28.4138 28.3436 28.7248 27.5059C28.9445 26.9144 29.6019 26.6123 30.1935 26.8318C30.7853 27.0514 31.0872 27.7099 30.8676 28.3016C30.2996 29.8319 29.1527 30.7367 27.8487 30.8552C26.6083 30.9678 25.3906 30.3369 24.7783 29.1945L19.5484 20.0148C19.236 19.4664 19.4274 18.7681 19.9759 18.4557Z" fill="white"/>
<path d="M29.021 18.5364C29.5252 18.1571 30.2419 18.2578 30.6214 18.7619C31.0007 19.2661 30.8999 19.9828 30.396 20.3623L16.6426 30.7094C16.1382 31.0889 15.4216 30.9872 15.0422 30.4829C14.663 29.9787 14.7637 29.263 15.2676 28.8835L29.021 18.5364Z" fill="white"/>
</svg>
