<svg width="64" height="64" viewBox="0 0 64 64" fill="none" xmlns="http://www.w3.org/2000/svg">
<path fill-rule="evenodd" clip-rule="evenodd" d="M3.25541 23.8084C3.44524 24.3898 3.98866 24.994 4.54687 25.2445C4.9054 25.4054 5.05157 25.425 6.73714 25.538C10.2708 25.7747 17.0919 26.1331 21.2792 26.3019C31.1927 26.7016 37.4068 26.626 50.2072 25.9495C53.818 25.7587 54.1627 25.7197 55.0246 25.4043C56.5608 24.8421 57.8209 23.698 58.4958 22.2523C58.8419 21.5109 58.9471 21.0705 58.9877 20.1921C59.05 18.8447 58.7699 17.9418 57.8631 16.568C56.5867 14.6342 55.1733 13.0838 53.3432 11.6097C51.8626 10.4171 49.5274 9.07469 47.6152 8.31699C46.0184 7.68429 45.9005 7.65107 45.2472 7.6496C44.6993 7.64832 44.6023 7.66688 44.2657 7.83725C43.4674 8.24115 42.9926 9.01817 42.9868 9.92998C42.9841 10.3563 43.01 10.4725 43.1873 10.826C43.5738 11.5967 43.874 11.8202 45.1512 12.288C47.0481 12.9827 49.2328 14.1904 50.5979 15.299C51.3401 15.9017 52.3551 16.9043 52.9496 17.6217C53.6033 18.4108 54.3137 19.4518 54.3859 19.7268C54.4614 20.0137 54.3807 20.3231 54.1585 20.5997C53.8773 20.9496 53.5297 21.1139 52.9171 21.1862C52.0573 21.2877 45.5842 21.6047 39.6152 21.8376C36.8593 21.9451 27.2097 21.9447 24.4152 21.8369C18.2616 21.5996 13.0609 21.3408 8.51122 21.0456C7.36722 20.9713 6.08562 20.9073 5.66322 20.9033C4.95525 20.8966 4.86655 20.9095 4.52812 21.0681C4.07909 21.2785 3.59903 21.7476 3.3941 22.1761C3.275 22.4251 3.23685 22.6239 3.22207 23.0721C3.21164 23.3889 3.22661 23.7203 3.25541 23.8084ZM5.11295 45.2801C5.36793 46.2628 5.78853 47.0409 6.80063 48.4019C9.45765 51.9749 12.8371 54.3995 17.5992 56.1493C18.0645 56.3203 18.2312 56.3494 18.7512 56.3505C19.2978 56.3518 19.3965 56.3331 19.729 56.1647C21.1013 55.4701 21.44 53.6957 20.4164 52.5638C20.1184 52.2342 19.7979 52.0604 18.8472 51.7121C16.1156 50.7117 13.6728 49.1606 11.8555 47.2723C10.8003 46.1758 9.74687 44.7612 9.60626 44.2519C9.45471 43.7032 9.92383 43.0834 10.6515 42.871C10.8984 42.7988 16.4631 42.5358 20.8312 42.3898C25.5602 42.2317 38.2881 42.231 43.0392 42.3887C47.5388 42.538 51.3384 42.7119 55.3514 42.9521C59.1281 43.1782 59.1067 43.1791 59.7715 42.7494C60.4435 42.3151 60.7919 41.6698 60.7965 40.8505C60.8017 39.9573 60.3155 39.1871 59.4901 38.7807L59.087 38.5823L56.0871 38.3973C46.3575 37.7975 35.9613 37.5432 27.0072 37.6859C20.8401 37.7841 12.4668 38.0679 10.5912 38.2422C8.00921 38.4821 5.81849 40.2596 5.15097 42.6561C4.98597 43.2485 4.96479 44.7089 5.11295 45.2801Z" fill="currentColor"/>
</svg>
