<svg width="20" height="20" viewBox="0 0 20 20" fill="none" xmlns="http://www.w3.org/2000/svg">
<path fill-rule="evenodd" clip-rule="evenodd" d="M2.62144 0.0115619C2.57866 0.0160517 2.43601 0.0397899 2.30443 0.0642837C1.13023 0.282928 0.301845 1.10996 0.0639082 2.30116C-0.0270879 2.75674 -0.0200199 3.50844 0.0794224 3.9526C0.336852 5.10232 1.13748 5.88477 2.2948 6.11766C2.61042 6.18116 3.06391 6.20472 3.42081 6.17614C4.25913 6.10899 4.85412 5.85627 5.35642 5.35397C5.85872 4.85167 6.11144 4.25668 6.17858 3.41836C6.23235 2.74696 6.12893 2.0926 5.88768 1.57779C5.47889 0.705457 4.68406 0.160481 3.61449 0.0192079C3.45315 -0.00210748 2.79899 -0.00715293 2.62144 0.0115619ZM2.78815 1.59735C2.13075 1.67132 1.76272 1.99172 1.62738 2.60788C1.57915 2.82742 1.58086 3.35386 1.63056 3.58586C1.74027 4.09812 2.02104 4.39693 2.52143 4.53407C2.75974 4.59937 3.39 4.60575 3.63214 4.5453C4.12601 4.42203 4.42447 4.12357 4.54774 3.62969C4.60818 3.3876 4.60182 2.75734 4.53654 2.51898C4.46871 2.27131 4.39318 2.12741 4.24968 1.97242C4.10205 1.81295 3.85638 1.6845 3.59942 1.63238C3.38164 1.58823 3.01137 1.57223 2.78815 1.59735ZM2.66894 7.3107C1.5785 7.43206 0.635868 8.19514 0.288376 9.23786C0.133656 9.70207 0.143169 9.4137 0.143169 13.6434C0.143169 17.1583 0.146147 17.4711 0.181465 17.6575C0.413334 18.8813 1.37695 19.8081 2.59626 19.9799C2.88263 20.0203 3.38171 19.9946 3.65499 19.9254C4.19585 19.7885 4.65297 19.5255 5.02904 19.1348C5.3866 18.7633 5.61196 18.3514 5.75954 17.7998L5.81009 17.6109L5.81687 13.7546C5.82429 9.51934 5.82925 9.69476 5.69069 9.27076C5.36846 8.28474 4.55621 7.55452 3.55968 7.35502C3.29451 7.30194 2.91668 7.28314 2.66894 7.3107ZM13.2903 7.29958C12.9251 7.33077 12.6668 7.36404 12.4339 7.40994C10.6472 7.7619 9.1158 8.84514 8.17565 10.422C7.81854 11.0209 7.55204 11.7225 7.41239 12.4315C7.30341 12.9847 7.30016 13.069 7.30016 15.3549V17.4998L7.35042 17.7267C7.58647 18.7928 8.33731 19.6021 9.36571 19.899C9.77395 20.0168 10.3855 20.0321 10.7786 19.9342C11.8763 19.6609 12.6638 18.8618 12.9256 17.7554C12.9613 17.6043 12.9662 17.3974 12.9776 15.5438L12.9902 13.499L13.0415 13.3856C13.1058 13.2437 13.2462 13.1044 13.3883 13.0418C13.5129 12.9868 13.7173 12.9759 13.857 13.0168C13.9909 13.0559 14.1543 13.1932 14.2327 13.3323L14.3016 13.4545L14.314 15.466C14.3277 17.6914 14.3242 17.6356 14.4766 18.0837C14.7752 18.9618 15.4981 19.6452 16.397 19.899C16.6957 19.9833 16.9238 20.0076 17.2881 19.9939C18.0023 19.9671 18.6215 19.7036 19.1372 19.2072C19.5253 18.8337 19.7829 18.3877 19.931 17.8332L19.9903 17.6109L19.998 15.4771C20.0034 14.0015 19.998 13.2577 19.9805 13.0655C19.7812 10.8753 18.4727 8.96019 16.4959 7.96574C15.8436 7.63759 15.1987 7.44066 14.4572 7.34324C14.1967 7.30901 13.4896 7.28256 13.2903 7.29958ZM2.68023 8.92213C2.23183 9.03069 1.83035 9.45628 1.75625 9.90162C1.73785 10.0123 1.73264 11.0602 1.7372 13.7435L1.74349 17.4331L1.8029 17.586C2.13999 18.4536 3.21643 18.6924 3.86532 18.0435C4.01608 17.8927 4.12152 17.7207 4.19176 17.5109C4.23075 17.3944 4.23299 17.2156 4.23886 13.7451C4.24566 9.72665 4.25055 9.88208 4.10792 9.58689C4.00021 9.36396 3.75452 9.11922 3.53274 9.01391C3.26613 8.8873 2.96016 8.85436 2.68023 8.92213ZM13.1371 8.91233C12.7083 8.95714 12.1955 9.09341 11.7713 9.27523C10.1845 9.95536 9.08677 11.4523 8.91267 13.1735C8.88006 13.4957 8.88104 17.2684 8.91376 17.4264C8.99764 17.8317 9.33191 18.2068 9.73523 18.3483C9.94379 18.4215 10.2689 18.4304 10.4786 18.3686C10.8886 18.2479 11.2107 17.93 11.3478 17.5109C11.3847 17.398 11.3889 17.2295 11.4014 15.3216C11.4164 13.0246 11.4069 13.1667 11.5719 12.7766C11.8475 12.125 12.42 11.6359 13.1236 11.451C13.3484 11.3919 13.9451 11.3925 14.1793 11.452C14.5957 11.5579 14.9219 11.7423 15.2253 12.0431C15.5469 12.3621 15.7376 12.6899 15.8524 13.1211C15.8986 13.2946 15.9 13.3485 15.9122 15.3549L15.9246 17.4109L15.9746 17.5587C16.1177 17.982 16.5036 18.3134 16.946 18.3929C17.5764 18.5061 18.1801 18.1281 18.3726 17.4998C18.4111 17.3744 18.4135 17.2431 18.4135 15.3104C18.4135 13.0417 18.4132 13.0356 18.2683 12.4735C17.6753 10.174 15.5014 8.66519 13.1371 8.91233Z" fill="currentColor"/>
</svg>
