<svg width="24" height="24" viewBox="0 0 24 24" fill="none" xmlns="http://www.w3.org/2000/svg">
<path fill-rule="evenodd" clip-rule="evenodd" d="M10.626 0.00924719C10.5527 0.0143656 10.2288 0.0317203 9.90622 0.0477954C8.34104 0.125852 6.08099 0.338427 5.4809 0.464042C2.89044 1.0063 0.849912 3.15506 0.430653 5.78215C0.366352 6.18502 0.19907 7.88831 0.123359 8.91072C-0.0887092 11.775 -0.0336861 13.9579 0.337721 17.4148C0.431506 18.2875 0.475572 18.5409 0.616969 19.0205C1.29794 21.3298 3.28896 23.119 5.65418 23.547C6.22403 23.6501 8.23446 23.8351 9.90622 23.9382C10.6544 23.9844 13.3437 23.9844 14.0916 23.9382C16.0172 23.8194 17.8926 23.6406 18.4995 23.5181C21.082 22.9966 23.1506 20.8246 23.567 18.1974C23.6312 17.7925 23.797 16.1038 23.8743 15.0688C24.0419 12.8226 24.0419 11.157 23.8743 8.91072C23.797 7.87578 23.6312 6.1871 23.567 5.78215C23.1514 3.15965 21.1064 1.00609 18.5169 0.464042C17.961 0.347677 16.2393 0.179462 14.3582 0.057739C13.7467 0.0181511 11.008 -0.0174114 10.626 0.00924719ZM11.2125 1.90198C9.4092 1.96924 6.94656 2.15934 6.06707 2.29924C4.25775 2.58699 2.73246 4.05623 2.36444 5.86581C2.22981 6.52774 2.01396 8.9212 1.93294 10.6502L1.91516 11.0301H11.9985H22.0819L22.0636 10.6235C21.9906 9.00272 21.7507 6.37888 21.623 5.805C21.5105 5.29921 21.2591 4.70942 20.9771 4.28917C20.2655 3.22907 19.1354 2.49081 17.9308 2.29924C17.2872 2.19687 15.0899 2.00906 13.7317 1.94031C13.1639 1.91157 11.5953 1.88771 11.2125 1.90198ZM1.93294 13.3294C2.01396 15.0584 2.22981 17.4518 2.36444 18.1138C2.69756 19.7517 3.95299 21.0991 5.58727 21.5727C5.90357 21.6644 6.17325 21.7057 6.97378 21.7849C10.5872 22.1428 12.6643 22.1678 15.8777 21.8921C17.4392 21.7581 18.026 21.6841 18.4106 21.5727C20.0119 21.1087 21.2261 19.835 21.6119 18.2146C21.7451 17.6552 21.9873 15.0494 22.0636 13.356L22.0819 12.9495H11.9985H1.91516L1.93294 13.3294Z" fill="currentColor"/>
</svg>
