<svg width="20" height="24" viewBox="0 0 20 24" fill="none" xmlns="http://www.w3.org/2000/svg">
<path fill-rule="evenodd" clip-rule="evenodd" d="M9.31614 0.00820369C9.02642 0.031206 8.47679 0.0964665 8.27966 0.131282C6.51698 0.442575 4.92613 1.20063 3.55933 2.38058C3.28827 2.61458 2.71901 3.18716 2.48204 3.46414C1.21776 4.94195 0.36176 6.86525 0.103265 8.80886C-0.00163111 9.59756 -0.0308523 10.7346 0.0352325 11.4562C0.210285 13.3678 0.756944 15.0199 1.67739 16.4192C2.58012 17.7915 4.0639 19.4453 5.48243 20.6603C6.55132 21.5758 8.15843 22.7611 8.66678 23.0088C9.51449 23.4219 10.4914 23.4219 11.3391 23.0088C11.8447 22.7624 13.4528 21.5764 14.5235 20.6601C15.8685 19.5091 17.2047 18.0382 18.1995 16.6136C19.1855 15.2017 19.8001 13.4076 19.9705 11.4438C20.0099 10.9902 20.0098 9.83912 19.9704 9.40827C19.7648 7.16271 18.9888 5.252 17.5866 3.53907C17.3116 3.20307 16.5157 2.42457 16.148 2.13186C14.6863 0.96813 13.0283 0.275015 11.1768 0.0536338C10.8549 0.0151468 9.61127 -0.0152232 9.31614 0.00820369ZM9.31614 1.8052C9.27493 1.81067 9.1232 1.82763 8.97897 1.84287C8.62692 1.88008 8.15978 1.97276 7.78016 2.08073C5.29826 2.78653 3.29214 4.67157 2.34755 7.18546C1.43647 9.61014 1.64414 12.6941 2.86896 14.9288C3.08025 15.3143 3.25588 15.5794 3.61262 16.0517C5.0263 17.9231 6.51618 19.338 8.77495 20.9541C9.46729 21.4494 9.62179 21.5207 10.003 21.5207C10.3752 21.5207 10.546 21.4434 11.194 20.9814C13.3339 19.4557 14.8686 18.021 16.2082 16.2939C17.0073 15.2635 17.3737 14.6097 17.7085 13.6166C18.344 11.7318 18.3899 9.53734 17.8323 7.69786C17.5879 6.89158 17.238 6.15159 16.7573 5.4247C16.4364 4.93928 16.1482 4.58858 15.7102 4.15021C15.0165 3.4558 14.3598 2.98511 13.512 2.57444C12.7426 2.20176 11.9976 1.97529 11.1305 1.85038C10.8793 1.81422 9.50575 1.78 9.31614 1.8052ZM9.75321 4.53079C9.19476 4.54964 8.59595 4.64442 7.89854 4.8244C7.36437 4.96221 7.22121 5.01144 6.98736 5.13756C6.63461 5.32782 6.30963 5.6262 6.09682 5.95518C5.80456 6.40693 5.73493 6.7408 5.62136 8.23443C5.50455 9.77058 5.42086 12.3532 5.4364 13.9413L5.44496 14.8154L5.51489 14.9653C5.6059 15.1603 5.77571 15.331 5.9667 15.4192L6.1193 15.4898H10.003H13.8866L14.0392 15.4192C14.2302 15.331 14.4 15.1603 14.491 14.9653L14.561 14.8154L14.5585 13.3169C14.5547 10.9832 14.4636 8.86533 14.2983 7.27288C14.2295 6.60973 14.1429 6.31652 13.9091 5.95518C13.631 5.52523 13.1564 5.1495 12.6858 4.98664C12.4435 4.90282 11.7007 4.71765 11.3456 4.65262C10.849 4.56163 10.2339 4.51458 9.75321 4.53079ZM9.61584 6.32679C9.19241 6.36108 8.37332 6.52741 7.96662 6.66166C7.77971 6.72337 7.65116 6.82689 7.58068 6.97252C7.43799 7.26726 7.27458 9.92136 7.23884 12.5239L7.22263 13.704H8.16185H9.10105L9.10869 12.5739L9.11634 11.4438L9.18277 11.302C9.27548 11.1043 9.42935 10.9468 9.62294 10.8515C9.76859 10.7798 9.80915 10.7712 10.003 10.7712C10.1968 10.7712 10.2373 10.7798 10.383 10.8515C10.5766 10.9468 10.7304 11.1043 10.8231 11.302L10.8896 11.4438L10.8972 12.5739L10.9049 13.704H11.8441H12.7833L12.7671 12.5239C12.7401 10.5583 12.655 8.79939 12.5261 7.54074C12.4471 6.76937 12.4156 6.73851 11.4765 6.51293C11.2499 6.45848 10.9427 6.39612 10.7939 6.37437C10.5236 6.33483 9.85158 6.30768 9.61584 6.32679Z" fill="currentColor"/>
</svg>
