<svg width="28" height="33" viewBox="0 0 28 33" fill="none" xmlns="http://www.w3.org/2000/svg">
<path fill-rule="evenodd" clip-rule="evenodd" d="M13.0426 0.0114852C12.637 0.0436884 11.8675 0.135053 11.5915 0.183795C9.12377 0.619604 6.89658 1.68088 4.98306 3.33282C4.60358 3.66041 3.80661 4.46203 3.47486 4.8498C1.70487 6.91874 0.506464 9.61136 0.144571 12.3324C-0.00228355 13.4366 -0.0431932 15.0284 0.0493255 16.0387C0.294398 18.715 1.05972 21.0279 2.34834 22.9869C3.61217 24.9081 5.68946 27.2235 7.6754 28.9244C9.17185 30.2062 11.4218 31.8655 12.1335 32.2124C13.3203 32.7907 14.688 32.7907 15.8748 32.2124C16.5826 31.8674 18.8339 30.2069 20.3329 28.9241C22.216 27.3127 24.0866 25.2535 25.4793 23.2591C26.8597 21.2824 27.7201 18.7706 27.9587 16.0213C28.0139 15.3863 28.0137 13.7748 27.9585 13.1716C27.6707 10.0278 26.5843 7.3528 24.6212 4.95469C24.2362 4.4843 23.122 3.39439 22.6073 2.9846C20.5608 1.35538 18.2396 0.385021 15.6475 0.0750873C15.1969 0.0212056 13.4558 -0.0213124 13.0426 0.0114852ZM13.0426 2.52729C12.9849 2.53494 12.7725 2.55868 12.5706 2.58001C12.0777 2.63211 11.4237 2.76187 10.8922 2.91302C7.41756 3.90115 4.609 6.5402 3.28657 10.0596C2.01106 13.4542 2.3018 17.7718 4.01654 20.9003C4.31235 21.44 4.55823 21.8112 5.05767 22.4724C7.03682 25.0924 9.12265 27.0731 12.2849 29.3357C13.2542 30.0292 13.4705 30.129 14.0041 30.129C14.5253 30.129 14.7644 30.0207 15.6716 29.3739C18.6675 27.238 20.8161 25.2294 22.6914 22.8114C23.8102 21.3689 24.3232 20.4535 24.792 19.0633C25.6816 16.4245 25.7459 13.3523 24.9653 10.777C24.6231 9.64821 24.1332 8.61222 23.4603 7.59458C23.0109 6.915 22.6075 6.42401 21.9943 5.8103C21.023 4.83812 20.1037 4.17916 18.9168 3.60422C17.8396 3.08247 16.7967 2.7654 15.5827 2.59054C15.2311 2.53991 13.3081 2.49201 13.0426 2.52729ZM13.6545 6.3431C12.8727 6.3695 12.0343 6.50219 11.058 6.75416C10.3101 6.94709 10.1097 7.01601 9.78231 7.19259C9.28846 7.45895 8.83349 7.87669 8.53555 8.33725C8.12638 8.96971 8.0289 9.43712 7.86991 11.5282C7.70638 13.6788 7.58921 17.2945 7.61096 19.5178L7.62295 20.7416L7.72085 20.9514C7.84827 21.2245 8.086 21.4634 8.35338 21.5869L8.56702 21.6857H14.0041H19.4413L19.6549 21.5869C19.9223 21.4634 20.16 21.2245 20.2874 20.9514L20.3853 20.7416L20.382 18.6437C20.3766 15.3765 20.249 12.4115 20.0176 10.182C19.9212 9.25363 19.8 8.84313 19.4727 8.33725C19.0834 7.73532 18.419 7.2093 17.7601 6.98129C17.421 6.86395 16.381 6.60471 15.8839 6.51366C15.1887 6.38628 14.3274 6.32041 13.6545 6.3431ZM13.4622 8.8575C12.8694 8.90551 11.7226 9.13838 11.1533 9.32632C10.8916 9.41272 10.7116 9.55765 10.6129 9.76154C10.4132 10.1742 10.1844 13.8899 10.1344 17.5335L10.1117 19.1856H11.4266H12.7415L12.7522 17.6034L12.7629 16.0213L12.8559 15.8228C12.9857 15.546 13.2011 15.3255 13.4721 15.1921C13.676 15.0917 13.7328 15.0797 14.0041 15.0797C14.2755 15.0797 14.3323 15.0917 14.5362 15.1921C14.8072 15.3255 15.0226 15.546 15.1524 15.8228L15.2454 16.0213L15.2561 17.6034L15.2668 19.1856H16.5817H17.8966L17.8739 17.5335C17.8361 14.7817 17.7171 12.3192 17.5366 10.557C17.426 9.47713 17.3818 9.43391 16.0671 9.1181C15.7498 9.04188 15.3198 8.95457 15.1115 8.92411C14.7331 8.86876 13.7922 8.83076 13.4622 8.8575Z" fill="#ffffff"/>
</svg>
