<svg width="240" height="240" viewBox="0 0 240 240" fill="none" xmlns="http://www.w3.org/2000/svg">
<path fill-rule="evenodd" clip-rule="evenodd" d="M128.459 4.11771C143.142 -4.35923 161.918 0.671706 170.395 15.3544L235.695 128.459C244.173 143.141 239.141 161.917 224.459 170.395L111.355 235.695C96.6716 244.172 77.8957 239.141 69.4185 224.459L4.11783 111.354C-4.35923 96.6715 0.671686 77.8956 15.3546 69.4184L128.459 4.11771ZM75.1109 42.3089C32.2561 67.0511 17.569 121.851 42.3113 164.706C67.0537 207.56 121.856 222.242 164.71 197.5C207.563 172.757 222.247 117.959 197.506 75.1045C172.764 32.2504 117.965 17.5682 75.1109 42.3089Z" fill="#2B7FFF"/>
</svg>
