<svg width="20" height="18" viewBox="0 0 20 18" fill="none" xmlns="http://www.w3.org/2000/svg">
<path fill-rule="evenodd" clip-rule="evenodd" d="M9.26113 0.00345315C7.62759 0.0574069 5.55137 0.196222 4.79974 0.30173C2.57847 0.613544 0.784572 2.14939 0.384535 4.08175C0.304729 4.4673 0.143746 5.88582 0.0734287 6.82334C-0.0243905 8.12748 -0.0244761 9.06065 0.0731717 10.3467C0.14304 11.2673 0.306443 12.7004 0.384535 13.0776C0.717168 14.6844 1.99856 16.024 3.76456 16.611C4.30951 16.7922 4.6768 16.8595 5.51877 16.9324C8.38579 17.1807 10.2344 17.2169 12.6132 17.0712C13.6616 17.007 14.8136 16.9119 15.2004 16.8576C16.8438 16.6269 18.2965 15.7132 19.0842 14.4149C19.3447 13.9856 19.5256 13.5338 19.6154 13.0883C19.6962 12.6872 19.8549 11.28 19.9271 10.3253C20.0244 9.03833 20.0243 8.12438 19.9267 6.82334C19.8572 5.8963 19.6944 4.46173 19.6157 4.08175C19.3511 2.80521 18.4715 1.66929 17.2057 0.969372C16.6063 0.637961 15.8829 0.397536 15.194 0.300852C14.6463 0.223959 12.8352 0.0896635 11.5958 0.0340177C11.0881 0.0112282 9.61107 -0.00811295 9.26113 0.00345315ZM8.74708 1.55659C7.40338 1.60527 5.28995 1.76651 4.81863 1.85634C4.25391 1.96397 3.7066 2.1842 3.25318 2.48627C3.05273 2.61983 2.63204 2.97429 2.63204 3.00963C2.63204 3.03112 3.46656 3.80334 4.01355 4.28805C5.36999 5.49002 6.7041 6.5513 7.99987 7.45915C8.75387 7.9874 9.24562 8.15961 10.0001 8.15961C10.7546 8.15961 11.2465 7.98734 12.0003 7.45907C13.2948 6.55186 14.6317 5.48835 15.9866 4.28799C16.5327 3.80414 17.3681 3.03114 17.3681 3.00963C17.3681 2.97429 16.9474 2.61983 16.747 2.48627C16.4143 2.26467 15.9615 2.05744 15.5582 1.94236C15.1825 1.83512 14.7473 1.78183 13.4485 1.68401C11.6216 1.54643 10.1379 1.50623 8.74708 1.55659ZM1.87438 4.48221C1.82409 4.6493 1.65353 6.24527 1.57839 7.25171C1.53577 7.82244 1.54226 9.45058 1.58962 10.0683C1.65702 10.9479 1.79481 12.215 1.87296 12.6745C1.97931 13.2994 2.32794 13.899 2.85694 14.3667C3.38431 14.8329 4.07046 15.1604 4.81863 15.303C5.53807 15.4401 8.52009 15.626 10.0001 15.626C11.4801 15.626 14.4621 15.4401 15.1815 15.303C16.3955 15.0716 17.405 14.3693 17.8793 13.426C18.0595 13.0676 18.1157 12.8429 18.2024 12.1334C18.5133 9.5886 18.5359 8.11975 18.2986 5.8595C18.2425 5.32435 18.1362 4.50108 18.1195 4.4712C18.1081 4.45085 17.9866 4.54964 17.698 4.81371C16.1538 6.22702 14.6376 7.46494 13.1577 8.52058C12.2509 9.16738 11.8792 9.36373 11.2215 9.54328C10.4567 9.75207 9.54345 9.75207 8.7787 9.54328C8.13213 9.36677 7.76041 9.17239 6.88948 8.55538C5.47212 7.55123 3.84273 6.22323 2.32147 4.83232C1.86459 4.41459 1.88898 4.4337 1.87438 4.48221Z" fill="white"/>
</svg>
