<svg width="16" height="16" viewBox="0 0 16 16" fill="none" xmlns="http://www.w3.org/2000/svg">
<path fill-rule="evenodd" clip-rule="evenodd" d="M0.507052 1.15413C0.16864 1.21155 -0.0550251 1.53835 0.0118174 1.87774C0.0560363 2.1022 0.228901 2.28748 0.448625 2.34594C0.577237 2.38015 15.4209 2.38015 15.5495 2.34594C15.8389 2.26895 16.033 1.97793 15.9953 1.67717C15.9692 1.46844 15.8099 1.26503 15.6088 1.18354L15.5146 1.14535L8.05047 1.14302C3.94523 1.14174 0.550688 1.14674 0.507052 1.15413ZM0.481069 7.4027C0.302223 7.43821 0.134516 7.57514 0.0520258 7.75301C0.0116804 7.84001 0.00443047 7.87798 0.00455044 8.00123C0.00468756 8.1246 0.0121431 8.16296 0.053534 8.25345C0.112561 8.38247 0.230615 8.49855 0.368414 8.56305L0.466415 8.60893H7.99905H15.5317L15.6297 8.56305C15.7675 8.49855 15.8855 8.38247 15.9446 8.25345C15.986 8.16283 15.9934 8.12481 15.9934 8.00123C15.9934 7.87765 15.986 7.83963 15.9446 7.74901C15.8855 7.61999 15.7675 7.50391 15.6297 7.43941L15.5317 7.39353L8.0419 7.39106C3.92252 7.38971 0.520146 7.39495 0.481069 7.4027ZM0.440569 13.6575C0.228079 13.7162 0.0551965 13.9045 0.0118174 14.1247C-0.0454272 14.4153 0.113212 14.7071 0.389289 14.8189L0.483554 14.8571H7.99905H15.5146L15.6088 14.8189C15.8099 14.7374 15.9692 14.534 15.9953 14.3253C16.033 14.0245 15.8389 13.7335 15.5495 13.6565C15.4264 13.6238 0.559258 13.6248 0.440569 13.6575Z" fill="#0E172B"/>
</svg>
