<svg width="19" height="20" viewBox="0 0 19 20" fill="none" xmlns="http://www.w3.org/2000/svg">
<path d="M7.05155 0.12484C8.39822 -0.0899649 9.78069 -0.0279835 11.113 0.314003C12.9902 0.795861 14.687 1.81284 15.9969 3.24125C17.3068 4.66965 18.1734 6.44792 18.4913 8.35976C18.8092 10.2716 18.5647 12.2346 17.7875 14.0101C17.0103 15.7855 15.734 17.2968 14.1137 18.3603C12.4934 19.4237 10.599 19.9933 8.6609 19.9999C6.72282 20.0066 4.82457 19.4498 3.19706 18.3975C1.9534 17.5934 0.908783 16.5263 0.133028 15.2779C-0.223873 14.7036 0.178555 13.9949 0.850468 13.9188C3.27596 14.6125 10.0667 15.2779 11.113 9C11.613 6 10.127 2.99262 6.6541 1.66938C5.62695 1.27802 6.30313 0.244217 7.05155 0.12484Z" fill="white"/>
</svg>
