<svg width="28" height="28" viewBox="0 0 28 28" fill="none" xmlns="http://www.w3.org/2000/svg">
<path fill-rule="evenodd" clip-rule="evenodd" d="M25.7908 21.1339C24.2676 21.0919 23.086 21.2473 22.0948 21.6645C21.8106 21.7793 21.3528 21.7793 21.315 22.1377C21.469 22.2889 21.4858 22.5353 21.6202 22.7439C21.8484 23.1219 22.2488 23.6329 22.61 23.8975L23.828 24.7683C24.5714 25.2233 25.41 25.4879 26.1338 25.9415C26.5524 26.2075 26.971 26.5477 27.391 26.8319C27.6038 26.9831 27.7326 27.2295 28 27.3247L28 27.2673C27.867 27.0965 27.8278 26.8515 27.6962 26.6611L27.1236 26.1123C26.5656 25.377 25.8974 24.7324 25.1426 24.2013C24.5336 23.7841 23.2008 23.2171 22.953 22.5171L22.9152 22.4751C23.3338 22.4331 23.8294 22.2847 24.2298 22.1713C24.878 22.0019 25.4674 22.0383 26.1338 21.8689L27.048 21.6029L27.048 21.4349C26.705 21.0933 26.4572 20.6383 26.096 20.3177C25.1102 19.4614 24.0594 18.683 22.953 17.9895C22.3622 17.6115 21.6006 17.3637 20.972 17.0431C20.7424 16.9297 20.363 16.8723 20.23 16.6833C19.8856 16.2675 19.6966 15.7173 19.4488 15.2259L17.8864 11.9317C17.5434 11.1939 17.3334 10.4561 16.9148 9.77572C14.9549 6.55574 12.8199 4.60695 9.54387 2.69455C8.83967 2.29695 8.00248 2.12615 7.11068 1.91896L5.68269 1.84196C5.37749 1.71036 5.07229 1.35056 4.80629 1.17976C3.72129 0.497961 0.921305 -0.977633 0.120509 0.96836C-0.394689 2.19755 0.882106 3.40855 1.3161 4.03435C1.6395 4.46835 2.0581 4.96114 2.2877 5.45394C2.4151 5.77594 2.4585 6.11614 2.5915 6.45634C2.8967 7.28933 3.1823 8.21753 3.5827 8.99313C3.79549 9.39073 4.01949 9.80792 4.28689 10.1677C4.43949 10.3791 4.70689 10.4701 4.76289 10.8117C4.49689 11.1897 4.47729 11.7567 4.32469 12.2313C3.6387 14.3705 3.90469 17.0193 4.87769 18.5943C5.18289 19.0675 5.90109 20.1091 6.87688 19.7115C7.73508 19.3699 7.54328 18.2919 7.79108 17.3455C7.84848 17.1187 7.81068 16.9675 7.92408 16.8149L7.92408 16.8569L8.70528 18.4291C9.29607 19.3559 10.3251 20.3219 11.1819 20.9659C11.6383 21.3061 11.9995 21.8927 12.5707 22.0999L12.5707 22.0439L12.5343 22.0439C12.4195 21.8745 12.2473 21.7975 12.0947 21.6659C11.7343 21.3145 11.4033 20.9343 11.1049 20.5291C10.2998 19.4423 9.58656 18.2903 8.97267 17.0851C8.66747 16.4971 8.40007 15.8545 8.15368 15.2679C8.03748 15.0411 8.03748 14.6995 7.84848 14.5861C7.56148 15.0019 7.14428 15.3631 6.93288 15.8741C6.57168 16.6861 6.53388 17.6899 6.40088 18.7315C6.32388 18.7511 6.35888 18.7315 6.32388 18.7735C5.71489 18.6237 5.50489 17.9979 5.27669 17.4687C4.70549 16.1247 4.61029 13.9673 5.10449 12.4147C5.23889 12.0171 5.81009 10.7669 5.58189 10.3889C5.46709 10.0291 5.08629 9.82192 4.87629 9.53773C4.61154 9.1556 4.38193 8.75028 4.19029 8.32673C3.73529 7.26554 3.5057 6.09234 3.0101 5.03254C2.7819 4.53975 2.3815 4.02875 2.0581 3.57515C1.6955 3.06415 1.2965 2.70435 1.01091 2.09815C0.915705 1.88676 0.782706 1.54936 0.935305 1.32256C0.971705 1.17136 1.04871 1.10976 1.2013 1.07616C1.4477 0.86476 2.1533 1.13216 2.4011 1.24556C3.1053 1.52976 3.69609 1.79436 4.28689 2.19195C4.55289 2.38095 4.83849 2.74075 5.18289 2.83595L5.58189 2.83595C6.19228 2.96895 6.87688 2.87795 7.44808 3.04875C8.45608 3.37075 9.37167 3.84255 10.1921 4.35495C12.7118 5.94748 14.7625 8.18176 16.1336 10.8285C16.3618 11.2639 16.4556 11.6615 16.6656 12.1165C17.0674 13.0433 17.5616 13.9897 17.962 14.8983C18.3624 15.7887 18.7432 16.6973 19.3144 17.4351C19.6 17.8327 20.7424 18.0413 21.2562 18.2499C21.637 18.4179 22.2278 18.5719 22.5722 18.7791C23.2176 19.1767 23.8658 19.6317 24.4748 20.0671C24.7786 20.2939 25.732 20.7671 25.7894 21.1451L25.7908 21.1339ZM6.36728 4.68534C6.10435 4.68366 5.84229 4.71566 5.58749 4.78054L5.58749 4.82254L5.62529 4.82254C5.77789 5.12494 6.04529 5.33354 6.23428 5.59954L6.67248 6.50814L6.71028 6.46614C6.97628 6.27574 7.11068 5.97334 7.11068 5.51974C6.99588 5.38674 6.97768 5.25374 6.88248 5.12214C6.76768 4.93314 6.51988 4.83794 6.36728 4.68674" fill="#E2E8F1"/>
</svg>
