<svg width="28" height="28" viewBox="0 0 28 28" fill="none" xmlns="http://www.w3.org/2000/svg">
<path d="M13.9909 20.2222C15.7196 20.2243 17.1893 19.621 18.4 18.4123C19.6117 17.2046 20.2186 15.7363 20.2207 14.0076L20.2283 7.78539L14.0061 7.77779C12.2774 7.77567 10.8077 8.37899 9.59701 9.58773C8.38531 10.7954 7.7784 12.2637 7.77629 13.9924C7.77542 14.708 7.87517 15.3967 8.07555 16.0585C8.27592 16.7204 8.60705 17.3166 9.06892 17.8471L7.99742 18.888C7.8313 19.0527 7.74811 19.2356 7.74786 19.4368C7.74762 19.638 7.83036 19.8217 7.99608 19.9878C8.1618 20.1539 8.34526 20.2371 8.54644 20.2373C8.74763 20.2376 8.93128 20.1549 9.09741 19.9891L10.1394 18.9202C10.6885 19.3626 11.2947 19.69 11.9582 19.9024C12.6185 20.1148 13.2961 20.2214 13.9909 20.2222ZM15.268 13.8336C15.4394 13.6627 15.5236 13.4782 15.5207 13.2801C15.5179 13.081 15.4341 12.8989 15.2694 12.7338C15.1037 12.5677 14.9213 12.4829 14.7221 12.4796C14.523 12.4762 14.3383 12.5605 14.1681 12.7324L10.6062 16.2747C10.4349 16.4467 10.3491 16.6301 10.3488 16.8251C10.3486 17.0201 10.4339 17.2037 10.6048 17.3761C10.7757 17.5484 10.9659 17.6296 11.1754 17.6194C11.3849 17.6093 11.5649 17.5287 11.7155 17.3774L15.268 13.8336ZM13.9861 28C12.051 27.9976 10.2314 27.6283 8.52742 26.892C6.82447 26.1547 5.34325 25.1552 4.08375 23.8937C2.82425 22.6321 1.82791 21.15 1.09473 19.4474C0.361555 17.7447 -0.00385164 15.9248 -0.00148492 13.9876C0.000881794 12.0504 0.370735 10.2308 1.10807 8.52892C1.84438 6.82596 2.84226 5.34474 4.10173 4.08524C5.36119 2.82574 6.84382 1.8294 8.54961 1.09623C10.2554 0.36305 12.0758 -0.00235551 14.0109 8.67606e-06C15.9461 0.00237286 17.7656 0.372226 19.4696 1.10957C21.1725 1.84587 22.6538 2.84427 23.9133 4.10478C25.1728 5.36528 26.1691 6.8479 26.9023 8.55265C27.6355 10.2574 28.0009 12.0773 27.9985 14.0124C27.9961 15.9476 27.6268 17.7671 26.8905 19.4711C26.1542 21.1751 25.1548 22.6563 23.8922 23.9148C22.6296 25.1732 21.1475 26.1696 19.4459 26.9038C17.7442 27.638 15.9243 28.0034 13.9861 28Z" fill="currentColor"/>
</svg>




