<svg width="28" height="28" viewBox="0 0 28 28" fill="none" xmlns="http://www.w3.org/2000/svg">
<path fill-rule="evenodd" clip-rule="evenodd" d="M4.02953e-07 13.9982C0.000307705 11.5826 0.625649 9.20813 1.81523 7.10571C3.0048 5.00328 4.71814 3.24443 6.78866 2.00015C8.85917 0.755863 11.2164 0.0684914 13.6312 0.00485907C16.046 -0.0587733 18.4362 0.503499 20.5694 1.63701C22.7025 2.77052 24.5061 4.4367 25.8048 6.47356C27.1034 8.51041 27.8529 10.8486 27.9805 13.2609C28.108 15.6732 27.6092 18.0774 26.5325 20.2398C25.4559 22.4022 23.838 24.2493 21.8363 25.6014L9.15787 7.85689C9.04276 7.69674 8.87989 7.57718 8.69261 7.51535C8.50534 7.45352 8.30329 7.4526 8.11546 7.51272C7.92764 7.57284 7.76368 7.69091 7.64712 7.85C7.53056 8.00908 7.46739 8.201 7.46667 8.39822V22.3982H9.33333V11.3102L20.216 26.546C18.0813 27.6037 15.7119 28.0993 13.3322 27.9856C10.9525 27.872 8.64118 27.153 6.61697 25.8966C4.59277 24.6402 2.92267 22.888 1.76476 20.8059C0.606846 18.7238 -0.000571129 16.3806 4.02953e-07 13.9982ZM18.6667 18.6649V7.46489H20.5333V18.6649H18.6667Z" fill="#E2E8F1"/>
</svg>
