<svg width="36" height="23" viewBox="0 0 36 23" fill="none" xmlns="http://www.w3.org/2000/svg">
<path d="M17.7919 22.0492C17.6737 22.0492 17.5556 22.0154 17.4487 21.9592L16.3687 21.3179C16.2056 21.2279 16.2844 21.1942 16.3406 21.1773C16.5544 21.1042 16.5994 21.0873 16.83 20.9523C16.8525 20.9411 16.8862 20.9467 16.9088 20.9579L17.7412 21.4529C17.7694 21.4698 17.8144 21.4698 17.8425 21.4529L21.0938 19.5742C21.1219 19.5573 21.1444 19.5236 21.1444 19.4842L21.1444 15.7323C21.1444 15.6929 21.1275 15.6592 21.0938 15.6423L17.8425 13.7692C17.8144 13.7523 17.775 13.7523 17.7412 13.7692L14.49 15.6423C14.4563 15.6592 14.4394 15.6986 14.4394 15.7323L14.4394 19.4842C14.4394 19.5179 14.4619 19.5517 14.49 19.5686L15.3787 20.0804C15.8625 20.3223 16.1606 20.0354 16.1606 19.7542L16.1606 16.0473C16.1606 15.9967 16.2 15.9517 16.2563 15.9517L16.6669 15.9517C16.7175 15.9517 16.7625 15.9911 16.7625 16.0473L16.7625 19.7542C16.7625 20.4011 16.4137 20.7667 15.8006 20.7667C15.615 20.7667 15.4631 20.7667 15.0525 20.5642L14.1975 20.0748C13.9894 19.9511 13.8544 19.7261 13.8544 19.4842L13.8544 15.7323C13.8544 15.4904 13.9837 15.2598 14.1975 15.1417L17.4487 13.2629C17.6569 13.1448 17.9269 13.1448 18.1294 13.2629L21.3806 15.1417C21.5887 15.2654 21.7237 15.4904 21.7237 15.7323L21.7237 19.4842C21.7237 19.7261 21.5944 19.9567 21.3806 20.0748L18.1294 21.9536C18.0337 22.0154 17.9156 22.0492 17.7919 22.0492ZM20.4187 18.3479C20.4187 17.6448 19.9462 17.4592 18.945 17.3242C17.9325 17.1892 17.8312 17.1217 17.8312 16.8854C17.8312 16.6886 17.9156 16.4298 18.6637 16.4298C19.3331 16.4298 19.5806 16.5761 19.6819 17.0261C19.6931 17.0711 19.7269 17.0992 19.7719 17.0992L20.1938 17.0992C20.2219 17.0992 20.2444 17.0879 20.2612 17.0711C20.2781 17.0486 20.2894 17.0261 20.2838 16.9979C20.2162 16.2217 19.7044 15.8617 18.6637 15.8617C17.7356 15.8617 17.1844 16.2554 17.1844 16.9079C17.1844 17.6223 17.7356 17.8136 18.6244 17.9036C19.6875 18.0104 19.7719 18.1623 19.7719 18.3704C19.7719 18.7361 19.4794 18.8879 18.7931 18.8879C17.9325 18.8879 17.7412 18.6742 17.6794 18.2467C17.6737 18.2017 17.6344 18.1679 17.5837 18.1679L17.1619 18.1679C17.1112 18.1679 17.0662 18.2073 17.0662 18.2636C17.0662 18.8092 17.3644 19.4617 18.7875 19.4617C19.8281 19.4617 20.4187 19.0567 20.4187 18.3479ZM23.4844 15.5298C23.4844 15.8729 23.2031 16.1542 22.86 16.1542C22.5169 16.1542 22.2356 15.8729 22.2356 15.5298C22.2356 15.1754 22.5281 14.9054 22.86 14.9054C23.1975 14.8998 23.4844 15.1754 23.4844 15.5298ZM23.3831 15.5298C23.3831 15.2373 23.1469 15.0067 22.8544 15.0067C22.5675 15.0067 22.3312 15.2373 22.3312 15.5298C22.3312 15.8223 22.5675 16.0586 22.8544 16.0586C23.1469 16.0529 23.3831 15.8167 23.3831 15.5298ZM23.13 15.8786L22.9837 15.8786C22.9781 15.8448 22.9556 15.6648 22.9556 15.6592C22.9444 15.6198 22.9331 15.5973 22.8825 15.5973L22.7587 15.5973L22.7587 15.8786L22.6238 15.8786L22.6238 15.1754L22.8656 15.1754C22.95 15.1754 23.1131 15.1754 23.1131 15.3611C23.1131 15.4904 23.0287 15.5186 22.9781 15.5354C23.0737 15.5411 23.0794 15.6029 23.0963 15.6929C23.1019 15.7492 23.1131 15.8448 23.13 15.8786ZM22.9725 15.3836C22.9725 15.2879 22.905 15.2879 22.8713 15.2879L22.7587 15.2879L22.7587 15.4848L22.8656 15.4848C22.9556 15.4848 22.9725 15.4229 22.9725 15.3836ZM7.72312 7.36793C7.72312 7.21606 7.64438 7.08106 7.515 7.00793L4.06687 5.02231C4.01062 4.98856 3.94313 4.97168 3.87562 4.96606L3.84188 4.96606C3.77437 4.96606 3.7125 4.98856 3.65062 5.02231L0.208125 7.00793C0.07875 7.08106 3.14825e-10 7.22168 3.21201e-10 7.36793L0.005625 12.7117C0.005625 12.7848 0.045 12.8523 0.106875 12.8917C0.16875 12.9311 0.2475 12.9311 0.315 12.8917L2.3625 11.7161C2.49187 11.6373 2.57063 11.5023 2.57063 11.3561L2.57063 8.85856C2.57063 8.71231 2.64937 8.57168 2.77875 8.49856L3.65062 7.99793C3.71813 7.95856 3.78562 7.94168 3.85875 7.94168C3.93187 7.94168 4.005 7.95856 4.06687 7.99793L4.93875 8.49856C5.06813 8.57168 5.14687 8.71231 5.14687 8.85856L5.14687 11.3561C5.14687 11.5023 5.22562 11.6429 5.355 11.7161L7.4025 12.8917C7.46438 12.9311 7.54875 12.9311 7.61062 12.8917C7.6725 12.8579 7.71187 12.7848 7.71187 12.7117L7.72312 7.36793ZM26.5781 1.53481L26.5781 11.4573C26.5781 11.6036 26.4994 11.7442 26.37 11.8173L22.9219 13.8086C22.7925 13.8817 22.635 13.8817 22.5056 13.8086L19.0575 11.8173C18.9281 11.7442 18.8494 11.6036 18.8494 11.4573L18.8494 7.47481C18.8494 7.32856 18.9281 7.18793 19.0575 7.11481L22.5056 5.12356C22.635 5.05043 22.7925 5.05043 22.9219 5.12356L23.7825 5.61856C23.8781 5.67481 24.0019 5.60168 24.0019 5.49481L24.0019 0.207308C24.0019 0.0498081 24.1706 -0.0514419 24.3113 0.0273081L26.3644 1.17481C26.4937 1.24231 26.5781 1.38293 26.5781 1.53481ZM23.9906 8.78543C23.9906 8.74606 23.9681 8.71231 23.94 8.69543L22.7587 8.00918C22.725 7.99231 22.6856 7.99231 22.6519 8.00918L21.4706 8.69543C21.4369 8.71231 21.42 8.74606 21.42 8.78543L21.42 10.1523C21.42 10.1917 21.4425 10.2254 21.4706 10.2423L22.6519 10.9229C22.6856 10.9398 22.725 10.9398 22.7531 10.9229L23.9344 10.2423C23.9681 10.2254 23.985 10.1917 23.985 10.1523L23.985 8.78543L23.9906 8.78543ZM35.7919 8.74606C35.9212 8.67293 36 8.53231 36 8.38606L36 7.42418C36 7.27793 35.9212 7.13731 35.7919 7.06418L32.3662 5.07293C32.2369 4.99981 32.0794 4.99981 31.95 5.07293L28.5019 7.06418C28.3725 7.13731 28.2937 7.27793 28.2937 7.42418L28.2937 11.4067C28.2937 11.5586 28.3725 11.6936 28.5019 11.7667L31.9275 13.7186C32.0512 13.7917 32.2088 13.7917 32.3381 13.7186L34.4081 12.5654C34.5487 12.4867 34.5487 12.2842 34.4081 12.2054L30.9375 10.2142C30.87 10.1748 30.8306 10.1073 30.8306 10.0342L30.8306 8.78543C30.8306 8.71231 30.87 8.64481 30.9375 8.60543L32.0175 7.98106C32.0794 7.94168 32.1637 7.94168 32.2256 7.98106L33.3056 8.60543C33.3675 8.64481 33.4125 8.71231 33.4125 8.78543L33.4125 9.76418C33.4125 9.92168 33.5869 10.0229 33.7275 9.94418L35.7919 8.74606ZM31.4437 8.94293C31.4212 8.95981 31.4044 8.98231 31.4044 9.01043L31.4044 9.77543C31.4044 9.80356 31.4212 9.83168 31.4437 9.84293L32.1075 10.2254C32.13 10.2423 32.1637 10.2423 32.1862 10.2254L32.85 9.84293C32.8725 9.82606 32.8894 9.80356 32.8894 9.77543L32.8894 9.01043C32.8894 8.98231 32.8725 8.95418 32.85 8.94293L32.1862 8.56043C32.1637 8.54356 32.13 8.54356 32.1075 8.56043L31.4437 8.94293ZM17.145 11.3898L17.145 7.42981C17.145 7.28356 17.055 7.14293 16.9256 7.06981L13.4887 5.08981C13.3706 5.02231 13.2075 5.01106 13.0725 5.08981L9.63562 7.06981C9.50625 7.14293 9.41625 7.27793 9.41625 7.42981L9.41625 11.3898C9.41625 11.5473 9.52312 11.6823 9.64125 11.7498L13.0837 13.7298C13.2188 13.8086 13.3762 13.8029 13.5 13.7298L16.9312 11.7498C17.0325 11.6936 17.1056 11.5979 17.1337 11.4854C17.1394 11.4573 17.145 11.4236 17.145 11.3898ZM12.9656 4.36418L12.9206 4.39231L12.9825 4.39231L12.9656 4.36418ZM17.2519 11.6879L17.2294 11.6486L17.2294 11.6992L17.2519 11.6879Z" fill="#E2E8F1"/>
</svg>
