<svg width="24" height="24" viewBox="0 0 24 24" fill="none" xmlns="http://www.w3.org/2000/svg">
<path d="M12.0014 3.51562C13.8292 3.51563 15.5151 3.55543 17.166 3.63198C19.9481 3.76108 22.2123 5.87719 22.5256 8.56892C22.9002 11.7859 22.9002 14.5361 22.5256 17.7531C22.2122 20.4448 19.9481 22.5609 17.166 22.69C15.5151 22.7666 13.8292 22.8064 12.0014 22.8064C10.1733 22.8064 8.48685 22.7666 6.8359 22.69C4.05379 22.5609 1.78972 20.4448 1.47625 17.7531C1.10167 14.5361 1.10167 11.7859 1.47625 8.56892C1.7897 5.87723 4.05377 3.76111 6.8359 3.63198C8.48685 3.55543 10.1733 3.51562 12.0014 3.51562ZM12.0014 5.22991C10.1989 5.22991 8.53904 5.26931 6.91542 5.34459C4.96022 5.43532 3.39371 6.92163 3.17881 8.7673C2.81958 11.8526 2.81958 14.4695 3.17881 17.5547C3.39371 19.4004 4.96021 20.8867 6.91542 20.9774C8.53904 21.0527 10.1989 21.0921 12.0014 21.0921C13.8037 21.0921 15.4629 21.0527 17.0865 20.9774C19.0417 20.8867 20.6082 19.4004 20.8231 17.5547C21.1823 14.4695 21.1823 11.8526 20.8231 8.7673C20.6082 6.92164 19.0417 5.4353 17.0865 5.34459C15.463 5.26931 13.8037 5.22992 12.0014 5.22991Z" fill="white"/>
<path d="M6.77344 6.42927V2.05148C6.77344 1.57809 7.15719 1.19434 7.63058 1.19434C8.10397 1.19434 8.48772 1.57809 8.48772 2.05148V6.42927C8.48759 6.90255 8.10389 7.28641 7.63058 7.28641C7.15727 7.28641 6.77357 6.90255 6.77344 6.42927Z" fill="white"/>
<path d="M15.5156 6.42927V2.05148C15.5156 1.57809 15.8994 1.19434 16.3728 1.19434C16.8462 1.19434 17.2299 1.57809 17.2299 2.05148V6.42927C17.2298 6.90255 16.8461 7.28641 16.3728 7.28641C15.8995 7.28641 15.5158 6.90255 15.5156 6.42927Z" fill="white"/>
<path d="M7.05232 9.87569C7.3199 9.48522 7.85379 9.38548 8.24428 9.65303C8.63474 9.92061 8.73449 10.4545 8.46694 10.845C7.75326 11.8866 7.09667 13.2351 6.81125 14.2845C6.69375 14.7165 6.66093 15.0247 6.66895 15.2136C6.80376 15.1649 7.02515 15.0497 7.34613 14.7992C7.77862 14.4618 8.2498 13.9988 8.74819 13.4934C9.22739 13.0075 9.74201 12.4711 10.2097 12.0663C10.4455 11.8621 10.6968 11.6669 10.9513 11.5188C11.1929 11.3783 11.5221 11.2301 11.8947 11.23L12.0453 11.2384C12.2048 11.2568 12.3877 11.3089 12.561 11.4301C12.8061 11.6018 12.9323 11.8423 12.9845 12.0587C13.0712 12.4179 12.9714 12.7761 12.9083 12.9745C12.7661 13.4217 12.4707 14.0079 12.2588 14.4594C12.1242 14.7461 12.019 14.9874 11.9466 15.1826C12.3523 15.0676 12.7494 14.7977 13.2306 14.4159C13.5225 14.1843 13.8801 13.8848 14.2342 13.6592C14.5977 13.4276 15.0591 13.2038 15.6037 13.1887C15.8514 13.1819 16.2946 13.2209 16.6006 13.6014C16.8876 13.9585 16.8446 14.3686 16.8232 14.5205C16.7985 14.6969 16.7404 14.8952 16.7136 14.9951C16.6901 15.0825 16.6753 15.147 16.6659 15.1977C16.8444 15.2536 17.2614 15.3193 18.1182 15.2487C18.5898 15.21 19.0034 15.5606 19.0423 16.0322C19.0811 16.5039 18.7305 16.9182 18.2588 16.9572C17.1769 17.0462 16.3511 16.9833 15.7803 16.6809C15.4634 16.513 15.2153 16.2661 15.0721 15.9452C14.9622 15.6987 14.9364 15.456 14.9407 15.2529C14.7514 15.3915 14.5494 15.5584 14.2962 15.7593C13.6608 16.2635 12.7419 16.9596 11.5138 16.9597C11.1408 16.9596 10.6813 16.8518 10.3763 16.4432C10.0983 16.0709 10.1007 15.6422 10.1335 15.3718C10.1814 14.9773 10.3479 14.5337 10.5211 14.138C10.3453 14.315 10.1608 14.5022 9.96862 14.6971C9.47705 15.1956 8.93321 15.7356 8.40081 16.1511C7.90637 16.5369 7.2463 16.9596 6.53586 16.9597C6.17126 16.9597 5.80161 16.854 5.50126 16.5872C5.21114 16.3294 5.06995 15.9961 5.00572 15.6949C4.88387 15.1234 4.99011 14.4495 5.15723 13.835C5.50256 12.5652 6.25279 11.0426 7.05232 9.87569Z" fill="white"/>
</svg>
