<svg width="64" height="64" viewBox="0 0 64 64" fill="none" xmlns="http://www.w3.org/2000/svg">
<path d="M32.0036 9.37427C36.878 9.37428 41.3737 9.48042 45.7759 9.68454C53.195 10.0288 59.2327 15.6718 60.0684 22.8497C61.0673 31.4284 61.0673 38.7622 60.0684 47.3408C59.2326 54.5188 53.195 60.1616 45.7759 60.506C41.3737 60.7101 36.878 60.8162 32.0036 60.8162C27.1289 60.8162 22.6316 60.7101 18.2291 60.506C10.8101 60.1616 4.77259 54.5188 3.93666 47.3408C2.93778 38.7622 2.93778 31.4284 3.93666 22.8497C4.77254 15.6719 10.81 10.0289 18.2291 9.68454C22.6316 9.48041 27.1289 9.37427 32.0036 9.37427ZM32.0036 13.9457C27.1971 13.9457 22.7708 14.0508 18.4411 14.2515C13.2273 14.4935 9.0499 18.4569 8.47684 23.3787C7.51887 31.6061 7.51887 38.5845 8.47684 46.8118C9.0499 51.7337 13.2272 55.697 18.4411 55.939C22.7708 56.1398 27.1971 56.2448 32.0036 56.2448C36.8098 56.2448 41.2345 56.1398 45.5639 55.939C50.7779 55.6971 54.9553 51.7337 55.5282 46.8118C56.4862 38.5845 56.4862 31.6061 55.5282 23.3787C54.9553 18.457 50.7779 14.4934 45.5639 14.2515C41.2346 14.0508 36.8098 13.9457 32.0036 13.9457Z" fill="currentColor"/>
<path d="M18.0547 17.1434V5.46931C18.0547 4.20694 19.078 3.18359 20.3404 3.18359C21.6028 3.18359 22.6261 4.20694 22.6261 5.46931V17.1434C22.6258 18.4055 21.6026 19.4291 20.3404 19.4291C19.0782 19.4291 18.055 18.4055 18.0547 17.1434Z" fill="currentColor"/>
<path d="M41.3828 17.1434V5.46931C41.3828 4.20694 42.4062 3.18359 43.6685 3.18359C44.9309 3.18359 45.9542 4.20694 45.9542 5.46931V17.1434C45.9539 18.4055 44.9307 19.4291 43.6685 19.4291C42.4064 19.4291 41.3832 18.4055 41.3828 17.1434Z" fill="currentColor"/>
<path d="M18.8166 26.3331C19.5301 25.2919 20.9538 25.0259 21.9952 25.7394C23.0364 26.4529 23.3024 27.8766 22.5889 28.918C20.6858 31.6956 18.9349 35.2916 18.1737 38.0898C17.8604 39.2419 17.7729 40.0639 17.7943 40.5675C18.1538 40.4378 18.7442 40.1305 19.6001 39.4626C20.7534 38.5627 22.0099 37.3282 23.3389 35.9805C24.6168 34.6846 25.9891 33.2543 27.2362 32.1747C27.865 31.6304 28.5352 31.1097 29.2139 30.7148C29.8581 30.3401 30.7361 29.9448 31.7296 29.9447L32.1313 29.9671C32.5567 30.016 33.0444 30.1549 33.5063 30.4782C34.16 30.936 34.4966 31.5775 34.6358 32.1546C34.8668 33.1125 34.6008 34.0675 34.4327 34.5965C34.0535 35.7892 33.2655 37.3524 32.7005 38.5564C32.3417 39.321 32.0611 39.9644 31.8679 40.4849C32.9499 40.1784 34.0089 39.4585 35.2921 38.4403C36.0704 37.8227 37.0241 37.0241 37.9684 36.4224C38.9375 35.805 40.1679 35.2082 41.6202 35.168C42.2809 35.1498 43.4627 35.2537 44.2787 36.2684C45.0441 37.2206 44.9292 38.3142 44.8724 38.7193C44.8064 39.1898 44.6515 39.7186 44.58 39.9849C44.5174 40.2179 44.4779 40.3901 44.4528 40.5251C44.9289 40.6743 46.0407 40.8494 48.3255 40.6613C49.5832 40.558 50.686 41.4929 50.7898 42.7505C50.8934 44.0085 49.9584 45.1132 48.7005 45.2171C45.8155 45.4546 43.6134 45.2869 42.0912 44.4805C41.246 44.0325 40.5846 43.3743 40.2028 42.5184C39.9096 41.8611 39.8407 41.2141 39.8523 40.6724C39.3474 41.0421 38.8088 41.4871 38.1336 42.0229C36.4391 43.3674 33.9889 45.2236 30.7139 45.2238C29.7193 45.2236 28.4939 44.936 27.6804 43.8465C26.9393 42.8537 26.9456 41.7104 27.0331 40.9894C27.1609 39.9374 27.6049 38.7544 28.0666 37.6992C27.5978 38.1713 27.1059 38.6706 26.5934 39.1903C25.2825 40.5196 23.8323 41.9597 22.4126 43.0675C21.0941 44.0963 19.3339 45.2237 17.4394 45.2238C16.4671 45.2237 15.4814 44.9421 14.6804 44.2305C13.9068 43.543 13.5303 42.6541 13.359 41.851C13.0341 40.327 13.3174 38.5299 13.763 36.8912C14.6839 33.5052 16.6845 29.4449 18.8166 26.3331Z" fill="currentColor"/>
</svg>
