<svg width="24" height="24" viewBox="0 0 24 24" fill="none" xmlns="http://www.w3.org/2000/svg">
<g clip-path="url(#clip0_8693_6852)">
<path d="M20.028 9.28691C19.9807 7.86227 19.8881 6.43202 19.7501 4.98537C19.6042 3.45743 18.4075 2.21907 16.8867 2.01227C13.3622 1.53302 10.0407 1.53302 6.51621 2.01227C4.99533 2.21907 3.79862 3.45743 3.65281 4.98537C3.23292 9.38545 3.23292 13.6339 3.65281 18.0339C3.79862 19.562 4.99533 20.8002 6.51621 21.0072C7.57293 21.1508 8.61141 21.2514 9.64261 21.309" stroke="white" stroke-width="2" stroke-linecap="round" stroke-linejoin="round"/>
<path d="M1.65234 6.9073C2.75569 6.44562 3.73267 6.44562 4.83602 6.9073" stroke="white" stroke-width="2" stroke-linecap="round" stroke-linejoin="round"/>
<path d="M1.65234 16.4586C2.75569 15.9969 3.73267 15.9969 4.83602 16.4586" stroke="white" stroke-width="2" stroke-linecap="round" stroke-linejoin="round"/>
<path d="M1.65234 11.5562C2.75569 11.0945 3.73267 11.0945 4.83602 11.5562" stroke="white" stroke-width="2" stroke-linecap="round" stroke-linejoin="round"/>
<path d="M18.5323 13.4276L13.9702 18.6042L13.3452 21.5437C13.2446 22.0168 13.7377 22.4642 14.1994 22.3191L17.1247 21.3995L21.837 16.4411C22.6195 15.6176 22.483 14.2402 21.5356 13.4023C20.6105 12.584 19.2658 12.5953 18.5323 13.4276Z" stroke="white" stroke-width="2" stroke-linecap="round" stroke-linejoin="round"/>
</g>
<defs>
<clipPath id="clip0_8693_6852">
<rect width="24" height="24" fill="white"/>
</clipPath>
</defs>
</svg>
