<svg width="20" height="20" viewBox="0 0 20 20" fill="none" xmlns="http://www.w3.org/2000/svg">
<path fill-rule="evenodd" clip-rule="evenodd" d="M14.8295 0.0102911C14.1755 0.0887367 13.5777 0.328272 13.0883 0.708032C12.6256 1.06697 10.6025 2.90652 10.3801 3.17041C9.9945 3.62804 9.80644 4.1498 9.80629 4.76246C9.80614 5.42982 10.0242 5.9505 10.5689 6.58365C10.6501 6.6781 10.7286 6.7706 10.7432 6.78917C10.7657 6.81766 10.7328 6.87749 10.5331 7.17156C9.56487 8.59742 8.5966 9.56694 7.18722 10.5217L6.84963 10.7504L6.58739 10.5296C6.26202 10.2556 6.11074 10.1522 5.85863 10.0315C5.31907 9.77327 4.73972 9.71961 4.1402 9.87234C3.91435 9.9299 3.53757 10.1151 3.32355 10.2738C3.02849 10.4926 1.33223 12.3213 0.749712 13.0486C0.197701 13.7379 -0.0620347 14.5551 0.0125336 15.3681C0.0672226 15.9642 0.215995 16.3989 0.524679 16.8644C0.74215 17.1924 1.05328 17.4903 1.57384 17.869C1.81179 18.0421 2.18774 18.3249 2.40928 18.4975C3.11347 19.046 3.61625 19.3445 4.23921 19.584C5.94642 20.2402 7.85645 20.1173 9.47415 19.2473C9.93048 19.0018 10.3021 18.7243 11.4128 17.7993C13.6277 15.9547 15.0175 14.6159 16.6191 12.784C17.6526 11.6019 18.6779 10.3512 18.9559 9.93337C20.1379 8.15712 20.3291 5.89351 19.4641 3.91672C19.2374 3.39874 18.9916 3.00403 18.5102 2.38467C18.3453 2.1726 18.0797 1.82075 17.9199 1.60279C17.5523 1.10125 17.4168 0.940906 17.2173 0.77129C16.7263 0.353892 16.1827 0.111593 15.5476 0.0270213C15.3413 -0.000441033 14.9878 -0.0086883 14.8295 0.0102911ZM14.7802 1.5698C14.374 1.66234 14.1693 1.78581 13.6085 2.27658C12.9574 2.84633 11.6663 4.03633 11.5466 4.17699C11.3779 4.37522 11.3148 4.60023 11.3498 4.87865C11.3861 5.16803 11.4632 5.28392 12.0656 5.95401C12.4305 6.35992 12.4681 6.42706 12.48 6.69378C12.4905 6.92702 12.4688 6.9852 12.2232 7.38287C11.0381 9.30215 9.81694 10.5923 8.05541 11.7862C7.62389 12.0787 7.16504 12.3643 7.03857 12.4193C6.84601 12.5029 6.60414 12.4935 6.40629 12.3946C6.35413 12.3686 6.17477 12.2224 6.00771 12.0697C5.58996 11.688 5.34546 11.487 5.22638 11.4274C4.90137 11.2645 4.47121 11.3064 4.21697 11.5257C3.98434 11.7263 2.50225 13.3422 2.02088 13.9201C1.64971 14.3657 1.51778 14.7263 1.5434 15.2253C1.56981 15.7395 1.78296 16.1161 2.23531 16.4479C2.50244 16.6438 3.29878 17.2417 3.60361 17.4752C3.8795 17.6865 4.10211 17.8272 4.38055 17.9663C5.82599 18.6886 7.58019 18.6172 8.93862 17.7808C9.2364 17.5975 9.35657 17.505 10.1811 16.8243C12.882 14.5946 14.3785 13.1083 16.5455 10.5034C17.3355 9.55379 17.5674 9.25828 17.7489 8.97018C18.5371 7.71905 18.6798 6.13821 18.1327 4.71807C17.9405 4.2193 17.7657 3.93516 17.1979 3.19869C17.0617 3.02196 16.8233 2.70342 16.6682 2.49082C16.2498 1.91743 16.0295 1.73044 15.6221 1.60292C15.4265 1.54167 14.9807 1.52413 14.7802 1.5698Z" fill="currentColor"/>
</svg>
