<svg width="36" height="12" viewBox="0 0 36 12" fill="none" xmlns="http://www.w3.org/2000/svg">
<path d="M5.08995e-10 11.6757L0 0L6.81081 -2.96913e-10C7.58919 -3.30846e-10 8.27027 0.291891 8.85405 0.875675C9.43784 1.45946 9.72973 2.14054 9.72973 2.91892L9.72973 4.86486C9.72973 5.64324 9.43784 6.32432 8.85405 6.90811C8.27027 7.49189 7.58919 7.78378 6.81081 7.78378L2.91892 7.78378L2.91892 11.6757L5.08995e-10 11.6757ZM12.6486 11.6757L12.6486 -5.51411e-10L15.5676 -6.78659e-10L15.5676 3.89189L19.4595 3.89189L19.4595 -8.48324e-10L22.3784 -9.75573e-10L22.3784 11.6757L19.4595 11.6757L19.4595 6.81081L15.5676 6.81081L15.5676 11.6757L12.6486 11.6757ZM26.2703 11.6757L26.2703 -1.14524e-09L33.0811 -1.44215e-09C33.8595 -1.47608e-09 34.5405 0.291891 35.1243 0.875675C35.7081 1.45946 36 2.14054 36 2.91892L36 4.86486C36 5.64324 35.7081 6.32432 35.1243 6.90811C34.5405 7.49189 33.8595 7.78378 33.0811 7.78378L29.1892 7.78378L29.1892 11.6757L26.2703 11.6757ZM2.91892 4.86486L6.81081 4.86486L6.81081 2.91892L2.91892 2.91892L2.91892 4.86486ZM29.1892 4.86486L33.0811 4.86486L33.0811 2.91892L29.1892 2.91892L29.1892 4.86486Z" fill="#E2E8F1"/>
</svg>
