<svg width="142" height="41" viewBox="0 0 142 41" fill="none" xmlns="http://www.w3.org/2000/svg">
<path fill-rule="evenodd" clip-rule="evenodd" d="M33.8579 0C37.4168 4.60804e-06 40.3017 2.8851 40.3017 6.44392V33.8579C40.3017 37.4168 37.4168 40.3019 33.8579 40.3019H6.44381C2.88499 40.3019 0 37.4168 0 33.8579V6.44392C0 2.8851 2.88499 7.50744e-06 6.44381 0H33.8579ZM20.1513 1.3433C9.7642 1.3433 1.34378 9.76363 1.34375 20.1507C1.34375 30.5378 9.76419 38.9582 20.1513 38.9582C30.5383 38.9582 38.9587 30.5378 38.9587 20.1507C38.9587 9.76364 30.5383 1.34331 20.1513 1.3433Z" fill="#2B7FFF"/>
<path d="M136.863 27.4917C135.609 28.1326 134.231 28.4531 132.729 28.4531C131.228 28.4531 129.85 28.1326 128.595 27.4917C127.341 26.8508 126.334 25.9214 125.574 24.7037C124.814 23.4768 124.434 22.0805 124.434 20.5148C124.434 18.9491 124.814 17.5574 125.574 16.3397C126.334 15.1127 127.341 14.1788 128.595 13.5379C129.85 12.8878 131.228 12.5628 132.729 12.5628C134.231 12.5628 135.609 12.8878 136.863 13.5379C138.118 14.1788 139.125 15.1127 139.885 16.3397C140.654 17.5574 141.038 18.9491 141.038 20.5148C141.038 22.0805 140.654 23.4768 139.885 24.7037C139.125 25.9214 138.118 26.8508 136.863 27.4917ZM129.268 24.0994C130.221 25.0516 131.374 25.5277 132.729 25.5277C134.094 25.5277 135.247 25.0516 136.19 24.0994C137.133 23.1471 137.605 21.9523 137.605 20.5148C137.605 19.0681 137.133 17.8687 136.19 16.9165C135.247 15.9643 134.094 15.4881 132.729 15.4881C131.374 15.4881 130.221 15.9643 129.268 16.9165C128.325 17.8687 127.854 19.0681 127.854 20.5148C127.854 21.9523 128.325 23.1471 129.268 24.0994Z" fill="currentColor"/>
<path d="M117.904 7.15165H121.351V28.2471H117.904V7.15165Z" fill="currentColor"/>
<path d="M110.618 27.4917C109.364 28.1326 107.986 28.4531 106.484 28.4531C104.982 28.4531 103.604 28.1326 102.35 27.4917C101.096 26.8508 100.089 25.9214 99.3286 24.7037C98.5687 23.4768 98.1887 22.0805 98.1887 20.5148C98.1887 18.9491 98.5687 17.5574 99.3286 16.3397C100.089 15.1127 101.096 14.1788 102.35 13.5379C103.604 12.8878 104.982 12.5628 106.484 12.5628C107.986 12.5628 109.364 12.8878 110.618 13.5379C111.872 14.1788 112.88 15.1127 113.639 16.3397C114.409 17.5574 114.793 18.9491 114.793 20.5148C114.793 22.0805 114.409 23.4768 113.639 24.7037C112.88 25.9214 111.872 26.8508 110.618 27.4917ZM103.023 24.0994C103.975 25.0516 105.129 25.5277 106.484 25.5277C107.848 25.5277 109.002 25.0516 109.945 24.0994C110.888 23.1471 111.36 21.9523 111.36 20.5148C111.36 19.0681 110.888 17.8687 109.945 16.9165C109.002 15.9643 107.848 15.4881 106.484 15.4881C105.129 15.4881 103.975 15.9643 103.023 16.9165C102.08 17.8687 101.608 19.0681 101.608 20.5148C101.608 21.9523 102.08 23.1471 103.023 24.0994Z" fill="currentColor"/>
<path d="M97.0838 12.7825L91.604 20.5148L97.0838 28.247H93.2246L89.1044 22.4925L84.9842 28.247H81.1249L86.6048 20.5148L81.1249 12.7825H84.9842L89.1044 18.5234L93.2246 12.7825H97.0838Z" fill="currentColor"/>
<path d="M76.6822 10.5715C76.1054 10.5715 75.6109 10.3701 75.1989 9.9672C74.7961 9.55518 74.5946 9.06076 74.5946 8.48393C74.5946 7.92541 74.7961 7.44472 75.1989 7.04186C75.6109 6.62984 76.1008 6.42383 76.6685 6.42383C77.2453 6.42383 77.7351 6.62984 78.138 7.04186C78.5409 7.44472 78.7423 7.92541 78.7423 8.48393C78.7423 9.0516 78.5409 9.54145 78.138 9.95347C77.7351 10.3655 77.2499 10.5715 76.6822 10.5715ZM74.9517 12.7827H78.3989V28.2472H74.9517V12.7827Z" fill="currentColor"/>
<path d="M64.4793 28.4667C63.1333 28.4667 61.9476 28.2333 60.9221 27.7663C59.9058 27.2902 59.1596 26.6355 58.6835 25.8024V33.878H55.25V12.7825H58.5324L58.6835 15.2272C59.5899 13.4417 61.5219 12.549 64.4793 12.549C65.8343 12.549 67.075 12.8924 68.2012 13.5791C69.3365 14.2566 70.2292 15.2043 70.8793 16.422C71.5385 17.6398 71.8682 19.004 71.8682 20.5148C71.8682 22.0255 71.5385 23.3897 70.8793 24.6075C70.2292 25.8252 69.3365 26.7729 68.2012 27.4504C67.075 28.128 65.8343 28.4667 64.4793 28.4667ZM63.5591 15.4881C62.2131 15.4881 61.0641 15.9688 60.1118 16.9302C59.1596 17.8824 58.6835 19.0773 58.6835 20.5148C58.6835 21.9431 59.155 23.138 60.0981 24.0993C61.0503 25.0516 62.204 25.5277 63.5591 25.5277C64.9142 25.5277 66.0632 25.0516 67.0063 24.0993C67.9494 23.1471 68.4209 21.9522 68.4209 20.5148C68.4209 19.0681 67.9494 17.8687 67.0063 16.9164C66.0632 15.9642 64.9142 15.4881 63.5591 15.4881Z" fill="currentColor"/>
</svg>
