<svg width="192" height="192" viewBox="0 0 192 192" fill="none" xmlns="http://www.w3.org/2000/svg">
<path fill-rule="evenodd" clip-rule="evenodd" d="M161.301 0C178.255 0.000175956 192 13.7451 192 30.6993V161.301C192 178.255 178.255 192 161.301 192H30.6993C13.7449 192 0 178.255 0 161.301L0 30.6993C9.18861e-05 13.745 13.745 0 30.6993 0L161.301 0ZM96.0045 6.40061C46.5201 6.40061 6.40061 46.5155 6.40061 96C6.40113 145.484 46.5204 185.599 96.0045 185.599C145.488 185.598 185.603 145.483 185.604 96C185.604 46.5163 145.488 6.40177 96.0045 6.40061Z" fill="#2B7FFF"/>
</svg>
