<svg width="327" height="111" viewBox="0 0 327 111" fill="none" xmlns="http://www.w3.org/2000/svg">
<path d="M311.086 85.1791C306.304 87.7704 301.052 89.066 295.328 89.066C289.605 89.066 284.352 87.7704 279.571 85.1791C274.79 82.5878 270.951 78.8304 268.054 73.9069C265.157 68.9464 263.709 63.3011 263.709 56.9709C263.709 50.6408 265.157 45.0139 268.054 40.0905C270.951 35.13 274.79 31.3541 279.571 28.7628C284.352 26.1345 289.605 24.8203 295.328 24.8203C301.052 24.8203 306.304 26.1345 311.086 28.7628C315.867 31.3541 319.706 35.13 322.603 40.0905C325.534 45.0139 327 50.6408 327 56.9709C327 63.3011 325.534 68.9464 322.603 73.9069C319.706 78.8304 315.867 82.5878 311.086 85.1791ZM282.136 71.4637C285.766 75.3136 290.163 77.2386 295.328 77.2386C300.528 77.2386 304.926 75.3136 308.52 71.4637C312.115 67.6138 313.913 62.7829 313.913 56.9709C313.913 51.122 312.115 46.2726 308.52 42.4226C304.926 38.5727 300.528 36.6477 295.328 36.6477C290.163 36.6477 285.766 38.5727 282.136 42.4226C278.541 46.2726 276.744 51.122 276.744 56.9709C276.744 62.7829 278.541 67.6138 282.136 71.4637Z" fill="white"/>
<path d="M238.819 2.94272H251.959V88.2335H238.819V2.94272Z" fill="white"/>
<path d="M211.047 85.1791C206.265 87.7704 201.013 89.066 195.289 89.066C189.566 89.066 184.313 87.7704 179.532 85.1791C174.751 82.5878 170.912 78.8304 168.015 73.9069C165.118 68.9464 163.67 63.3011 163.67 56.9709C163.67 50.6408 165.118 45.0139 168.015 40.0905C170.912 35.13 174.751 31.3541 179.532 28.7628C184.313 26.1345 189.566 24.8203 195.289 24.8203C201.013 24.8203 206.265 26.1345 211.047 28.7628C215.828 31.3541 219.667 35.13 222.564 40.0905C225.495 45.0139 226.961 50.6408 226.961 56.9709C226.961 63.3011 225.495 68.9464 222.564 73.9069C219.667 78.8304 215.828 82.5878 211.047 85.1791ZM182.097 71.4637C185.727 75.3136 190.124 77.2386 195.289 77.2386C200.49 77.2386 204.887 75.3136 208.482 71.4637C212.076 67.6138 213.874 62.7829 213.874 56.9709C213.874 51.122 212.076 46.2726 208.482 42.4226C204.887 38.5727 200.49 36.6477 195.289 36.6477C190.124 36.6477 185.727 38.5727 182.097 42.4226C178.503 46.2726 176.705 51.122 176.705 56.9709C176.705 62.7829 178.503 67.6138 182.097 71.4637Z" fill="white"/>
<path d="M159.458 25.7087L138.571 56.9708L159.458 88.233H144.748L129.043 64.9668L113.338 88.233H98.6278L119.515 56.9708L98.6278 25.7087H113.338L129.043 48.9193L144.748 25.7087H159.458Z" fill="white"/>
<path d="M81.693 16.7694C79.4943 16.7694 77.6097 15.955 76.0392 14.3262C74.5036 12.6603 73.7358 10.6613 73.7358 8.32918C73.7358 6.07104 74.5036 4.12757 76.0392 2.49875C77.6097 0.832918 79.4768 0 81.6406 0C83.8393 0 85.7065 0.832918 87.2421 2.49875C88.7777 4.12757 89.5455 6.07104 89.5455 8.32918C89.5455 10.6243 88.7777 12.6048 87.2421 14.2707C85.7065 15.9365 83.8568 16.7694 81.693 16.7694ZM75.0969 25.7094H88.2367V88.2337H75.0969V25.7094Z" fill="white"/>
<path d="M35.1792 89.122C30.0489 89.122 25.5294 88.1781 21.6206 86.2901C17.7467 84.3652 14.9023 81.7183 13.0875 78.3496V111H0V25.7092H12.5117L13.0875 35.5932C16.5426 28.3746 23.9065 24.7653 35.1792 24.7653C40.3444 24.7653 45.0734 26.1535 49.3661 28.9298C53.6937 31.6692 57.0964 35.5006 59.5743 40.4241C62.0871 45.3476 63.3435 50.8633 63.3435 56.9714C63.3435 63.0795 62.0871 68.5952 59.5743 73.5187C57.0964 78.4422 53.6937 82.2736 49.3661 85.013C45.0734 87.7523 40.3444 89.122 35.1792 89.122ZM31.6718 36.6482C26.5415 36.6482 22.1615 38.5917 18.5319 42.4786C14.9023 46.3286 13.0875 51.1595 13.0875 56.9714C13.0875 62.7463 14.8849 67.5772 18.4796 71.4642C22.1092 75.3141 26.5066 77.2391 31.6718 77.2391C36.837 77.2391 41.2169 75.3141 44.8116 71.4642C48.4063 67.6142 50.2037 62.7833 50.2037 56.9714C50.2037 51.1225 48.4063 46.273 44.8116 42.4231C41.2169 38.5732 36.837 36.6482 31.6718 36.6482Z" fill="white"/>
</svg>
