<svg width="44" height="44" viewBox="0 0 44 44" fill="none" xmlns="http://www.w3.org/2000/svg">
<path fill-rule="evenodd" clip-rule="evenodd" d="M36.9651 0C40.8504 6.26177e-05 44 3.14997 44 7.03534V36.9651C44 40.8504 40.8504 43.9999 36.9651 44H7.03534C3.14995 44 2.22851e-05 40.8504 0 36.9651V7.03534C0 3.14994 3.14994 0 7.03534 0H36.9651ZM22.0004 1.46637C10.6602 1.46639 1.46718 10.6597 1.46718 22C1.46723 33.3402 10.6602 42.5332 22.0004 42.5332C33.3406 42.5332 42.5336 33.3402 42.5336 22C42.5336 10.6597 33.3407 1.46637 22.0004 1.46637Z" fill="#2B7FFF"/>
</svg>
