<svg width="216" height="69" viewBox="0 0 216 69" fill="none" xmlns="http://www.w3.org/2000/svg">
<path d="M204.659 52.8302C201.513 54.4375 198.058 55.2411 194.292 55.2411C190.527 55.2411 187.071 54.4375 183.926 52.8302C180.78 51.223 178.255 48.8926 176.349 45.8388C174.443 42.7622 173.49 39.2607 173.49 35.3345C173.49 31.4083 174.443 27.9184 176.349 24.8647C178.255 21.788 180.78 19.446 183.926 17.8388C187.071 16.2086 190.527 15.3936 194.292 15.3936C198.058 15.3936 201.513 16.2086 204.659 17.8388C207.805 19.446 210.33 21.788 212.236 24.8647C214.165 27.9184 215.129 31.4083 215.129 35.3345C215.129 39.2607 214.165 42.7622 212.236 45.8388C210.33 48.8926 207.805 51.223 204.659 52.8302ZM185.613 44.3235C188.001 46.7113 190.894 47.9053 194.292 47.9053C197.714 47.9053 200.607 46.7113 202.971 44.3235C205.336 41.9356 206.519 38.9393 206.519 35.3345C206.519 31.7068 205.336 28.699 202.971 26.3112C200.607 23.9233 197.714 22.7294 194.292 22.7294C190.894 22.7294 188.001 23.9233 185.613 26.3112C183.249 28.699 182.066 31.7068 182.066 35.3345C182.066 38.9393 183.249 41.9356 185.613 44.3235Z" fill="white"/>
<path d="M157.115 1.82422H165.76V54.7246H157.115V1.82422Z" fill="white"/>
<path d="M138.845 52.8302C135.699 54.4375 132.243 55.2411 128.478 55.2411C124.713 55.2411 121.257 54.4375 118.111 52.8302C114.966 51.223 112.44 48.8926 110.535 45.8388C108.629 42.7622 107.676 39.2607 107.676 35.3345C107.676 31.4083 108.629 27.9184 110.535 24.8647C112.44 21.788 114.966 19.446 118.111 17.8388C121.257 16.2086 124.713 15.3936 128.478 15.3936C132.243 15.3936 135.699 16.2086 138.845 17.8388C141.99 19.446 144.516 21.788 146.421 24.8647C148.35 27.9184 149.314 31.4083 149.314 35.3345C149.314 39.2607 148.35 42.7622 146.421 45.8388C144.516 48.8926 141.99 51.223 138.845 52.8302ZM119.799 44.3235C122.187 46.7113 125.08 47.9053 128.478 47.9053C131.899 47.9053 134.792 46.7113 137.157 44.3235C139.522 41.9356 140.704 38.9393 140.704 35.3345C140.704 31.7068 139.522 28.699 137.157 26.3112C134.792 23.9233 131.899 22.7294 128.478 22.7294C125.08 22.7294 122.187 23.9233 119.799 26.3112C117.434 28.699 116.252 31.7068 116.252 35.3345C116.252 38.9393 117.434 41.9356 119.799 44.3235Z" fill="white"/>
<path d="M104.905 15.9453L91.1638 35.3352L104.905 54.7252H95.2277L84.8956 40.2947L74.5635 54.7252H64.8857L78.6275 35.3352L64.8857 15.9453H74.5635L84.8956 30.3414L95.2277 15.9453H104.905Z" fill="white"/>
<path d="M53.7447 10.401C52.2982 10.401 51.0584 9.89587 50.0251 8.88562C49.0149 7.85241 48.5098 6.61255 48.5098 5.16606C48.5098 3.76548 49.0149 2.56007 50.0251 1.54982C51.0584 0.516606 52.2867 0 53.7103 0C55.1568 0 56.3851 0.516606 57.3954 1.54982C58.4056 2.56007 58.9108 3.76548 58.9108 5.16606C58.9108 6.58959 58.4056 7.81797 57.3954 8.85118C56.3851 9.88439 55.1682 10.401 53.7447 10.401ZM49.4052 15.9459H58.0498V54.7258H49.4052V15.9459Z" fill="white"/>
<path d="M23.1439 55.2748C19.7688 55.2748 16.7954 54.6893 14.2239 53.5183C11.6753 52.3244 9.80403 50.6827 8.6101 48.5934V68.8443H0V15.9439H8.23125L8.6101 22.0743C10.8832 17.597 15.7278 15.3584 23.1439 15.3584C26.5421 15.3584 29.6532 16.2194 32.4773 17.9414C35.3244 19.6405 37.563 22.0169 39.1932 25.0706C40.8463 28.1243 41.6729 31.5454 41.6729 35.3338C41.6729 39.1223 40.8463 42.5433 39.1932 45.597C37.563 48.6508 35.3244 51.0271 32.4773 52.7262C29.6532 54.4253 26.5421 55.2748 23.1439 55.2748ZM20.8364 22.7286C17.4613 22.7286 14.5798 23.9341 12.1919 26.3449C9.80403 28.7327 8.6101 31.7291 8.6101 35.3338C8.6101 38.9156 9.79255 41.9119 12.1575 44.3228C14.5453 46.7106 17.4383 47.9046 20.8364 47.9046C24.2345 47.9046 27.1161 46.7106 29.481 44.3228C31.8459 41.9349 33.0283 38.9386 33.0283 35.3338C33.0283 31.7061 31.8459 28.6983 29.481 26.3104C27.1161 23.9226 24.2345 22.7286 20.8364 22.7286Z" fill="white"/>
</svg>
