<?xml version="1.0" encoding="UTF-8"?>
<svg version="1.1" xmlns="http://www.w3.org/2000/svg" width="14" height="18">
<path d="M0 0 C7.5684419 0.83589034 7.5684419 0.83589034 10.9375 3.25 C11.52402344 3.64703125 12.11054688 4.0440625 12.71484375 4.453125 C14 6 14 6 14.45703125 8.46875 C14 11 14 11 12.171875 12.765625 C11.37265625 13.25546875 10.5734375 13.7453125 9.75 14.25 C8.56664062 15.00023437 8.56664062 15.00023437 7.359375 15.765625 C5.19178618 16.89966154 3.41303606 17.63697688 1 18 C0 17 0 17 -0.09765625 13.18359375 C-0.09098089 11.60153318 -0.07901875 10.01948841 -0.0625 8.4375 C-0.05798828 7.63119141 -0.05347656 6.82488281 -0.04882812 5.99414062 C-0.03700518 3.99606244 -0.01906914 1.99802217 0 0 Z M2 2 C2 6.29 2 10.58 2 15 C6.77737198 13.08905121 8.62722811 11.66186662 12 8 C8.61418999 5.09787714 6.26511313 3.70604525 2 2 Z " fill="#FFFFFF" transform="translate(0,0)"/>
</svg>
