<svg width="14" height="18" viewBox="0 0 14 18" fill="none" xmlns="http://www.w3.org/2000/svg">
<path fill-rule="evenodd" clip-rule="evenodd" d="M1.83049 0.0100526C1.60052 0.0436457 1.33003 0.124719 1.15329 0.21308C0.586152 0.49657 0.167832 1.02271 0.0361301 1.61815C0.00104913 1.77679 0 1.97848 0 8.58216C0 15.2494 0.000724854 15.3861 0.0371221 15.5507C0.146352 16.0446 0.465228 16.5071 0.897741 16.7988C1.25963 17.0429 1.57286 17.1428 2.03079 17.1602C2.56982 17.1807 2.71886 17.1324 3.80487 16.5844C6.19333 15.3792 8.04518 14.3352 9.66555 13.2801C12.3619 11.5245 13.7447 10.1283 13.9739 8.93029C14.0087 8.74871 14.0087 8.4156 13.9739 8.23402C13.8896 7.79288 13.6425 7.31697 13.2276 6.79627C13.0429 6.56459 12.4282 5.94593 12.1316 5.69334C10.3763 4.1985 7.60515 2.49594 3.82394 0.589242C2.96 0.1536 2.79669 0.0846021 2.4917 0.0264199C2.35665 0.00066718 1.96179 -0.00911888 1.83049 0.0100526ZM1.94494 1.37758C1.67885 1.43796 1.45831 1.62445 1.39136 1.84571C1.35328 1.97154 1.35309 2.0111 1.35809 8.62031C1.36293 15.0262 1.3644 15.2716 1.39826 15.3588C1.47703 15.5617 1.72879 15.7484 1.98348 15.7927C2.22887 15.8355 2.26012 15.8241 3.23258 15.3369C6.4695 13.7152 9.14668 12.1113 10.7677 10.8225C11.9554 9.87815 12.635 9.06182 12.6327 8.58216C12.6303 8.09674 11.9557 7.28633 10.7677 6.34178C9.38816 5.24502 7.23237 3.91343 4.52976 2.4888C3.9499 2.18313 2.45834 1.43305 2.3646 1.4C2.25503 1.36133 2.06203 1.35103 1.94494 1.37758Z" fill="currentColor"/>
</svg>
