<svg width="20" height="20" viewBox="0 0 20 20" fill="none" xmlns="http://www.w3.org/2000/svg">
<path fill-rule="evenodd" clip-rule="evenodd" d="M4.81954 0.872502C4.20694 0.942262 3.73414 1.21438 3.42088 1.6775C3.15128 2.07606 2.64018 3.48434 2.33118 4.67998C2.00276 5.95082 1.81562 7.119 1.69526 8.64998C1.66148 9.07972 1.66148 10.9202 1.69526 11.35C1.85612 13.3959 2.17066 15.0044 2.73902 16.6875C2.99042 17.432 3.26676 18.0946 3.42088 18.3225C3.84512 18.9497 4.62808 19.2517 5.38652 19.0808C5.68246 19.0141 6.7094 18.662 7.39954 18.3907C10.8786 17.0228 14.6838 14.5752 17.4937 11.8979C18.2398 11.187 18.4227 10.9503 18.5533 10.5261C18.6035 10.3631 18.6075 10.324 18.6075 9.99998C18.6075 9.676 18.6035 9.63688 18.5533 9.47384C18.4227 9.0496 18.2369 8.80902 17.4941 8.1021C14.918 5.65062 11.4429 3.3427 8.23954 1.95598C7.22762 1.51792 5.70312 0.970482 5.30428 0.901922C5.16002 0.877142 4.9114 0.862042 4.81954 0.872502ZM4.80766 2.33486C4.76262 2.35418 4.7076 2.38348 4.68538 2.39998C4.64732 2.42826 4.55978 2.55528 4.55962 2.5825C4.55958 2.58938 4.73272 2.73788 4.9444 2.9125C6.79704 4.44086 9.06014 6.45556 10.9161 8.22872C11.2277 8.52642 11.5357 8.81792 11.6006 8.8765L11.7187 8.98302L11.8308 8.8865C11.9643 8.77166 13.7995 6.9027 13.7995 6.88164C13.7995 6.85938 12.8457 6.18196 12.3395 5.8448C10.0522 4.32104 7.79318 3.19854 5.52954 2.46088C5.03854 2.30088 4.93078 2.28206 4.80766 2.33486ZM3.99824 4.0728C3.95306 4.1905 3.75818 4.88276 3.6725 5.22998C3.37458 6.4372 3.18938 7.67598 3.1193 8.92998C3.09198 9.4187 3.09198 10.5813 3.1193 11.07C3.20416 12.5887 3.4616 14.1061 3.87258 15.51C3.93376 15.719 3.9884 15.9057 3.994 15.925C3.99962 15.9442 4.0108 15.96 4.01886 15.96C4.03404 15.96 4.5632 15.5219 5.13822 15.0332C6.01036 14.292 7.13756 13.3028 7.98954 12.531C8.93812 11.6716 10.6795 10.0344 10.6795 10.002C10.6795 9.96326 9.00726 8.3858 7.90954 7.38902C6.74098 6.32792 5.25544 5.03268 4.31954 4.25892C3.9899 3.98638 4.02388 4.00606 3.99824 4.0728ZM13.8529 8.8901L12.7563 10L13.8529 11.1098C14.4561 11.7202 14.954 12.2195 14.9595 12.2193C14.9753 12.2188 15.5769 11.7051 15.9357 11.3859C16.3964 10.976 17.0724 10.3092 17.1341 10.2039C17.2064 10.0807 17.2067 9.91974 17.1349 9.79742C17.0755 9.69616 16.4507 9.07594 15.9987 8.6695C15.6907 8.39256 14.9908 7.7945 14.9636 7.7851C14.9559 7.7824 14.4561 8.27966 13.8529 8.8901ZM11.4064 11.305C9.35 13.2793 6.99864 15.3748 4.8841 17.1175C4.70558 17.2646 4.55958 17.3951 4.55962 17.4075C4.55972 17.442 4.63746 17.5617 4.68612 17.6024C4.75696 17.6615 4.9146 17.7061 5.0069 17.6931C5.05236 17.6868 5.28754 17.6172 5.52954 17.5386C7.78578 16.8058 10.0416 15.6848 12.3395 14.1545C12.8722 13.7997 13.7995 13.1405 13.7995 13.1165C13.7995 13.0797 11.7535 11.02 11.7169 11.02C11.7095 11.02 11.5697 11.1483 11.4064 11.305Z" fill="currentColor"/>
</svg>
