<svg width="28" height="28" viewBox="0 0 28 28" fill="none" xmlns="http://www.w3.org/2000/svg">
<path fill-rule="evenodd" clip-rule="evenodd" d="M13.037 0.942807C11.4332 1.00166 8.64365 1.29516 7.88622 1.48475C5.89867 1.98222 4.23992 3.63369 3.50392 5.84782C3.22226 6.69507 3.15344 7.14744 3.00076 9.15532C2.75209 12.4249 2.72678 14.5485 2.90231 17.4153C2.97808 18.6526 3.10696 20.2492 3.16864 20.7142C3.45746 22.8918 4.63766 24.8032 6.34502 25.8587C6.89183 26.1967 7.52371 26.4512 8.10902 26.5691C8.63335 26.6747 10.4729 26.8823 11.721 26.9766C13.4034 27.1038 14.5982 27.1037 16.299 26.9761C17.5109 26.8852 19.3863 26.6724 19.883 26.5695C20.5552 26.4302 21.0802 26.2154 21.717 25.8193C22.1145 25.5721 22.4174 25.3277 22.7962 24.9487C23.7726 23.9718 24.4021 22.7952 24.7255 21.3426C24.8153 20.9391 24.8617 20.5586 24.9502 19.5013C25.3081 15.2241 25.3081 12.7746 24.9502 8.49732C24.8617 7.44007 24.8153 7.05957 24.7255 6.65607C24.4022 5.20376 23.7736 4.02863 22.7962 3.04944C22.2121 2.46427 21.6276 2.06017 20.9359 1.76337C20.3351 1.50558 19.9613 1.41707 18.931 1.28866C16.6015 0.998331 14.6481 0.883699 13.037 0.942807ZM12.897 2.95589C12.82 2.96147 12.5365 2.97947 12.267 2.99588C11.2742 3.05639 9.49544 3.24026 8.75302 3.35915C8.19915 3.44785 7.71825 3.63344 7.27213 3.93063C6.22179 4.63035 5.47075 5.83676 5.2136 7.23732C5.1418 7.62831 5.11574 7.87255 5.02978 8.95932C4.73004 12.7496 4.7204 14.9207 4.98752 18.4933C5.12279 20.3028 5.17568 20.7344 5.32716 21.2653C5.75929 22.7798 6.74164 23.954 7.98725 24.445C8.06601 24.476 8.24748 24.5318 8.39048 24.569C8.79692 24.6746 10.8399 24.9057 12.281 25.0091C12.9404 25.0565 15.1231 25.0564 15.739 25.0091C17.5441 24.8703 19.247 24.6728 19.6838 24.5517C21.1172 24.154 22.277 22.8408 22.7127 21.1221C22.8457 20.5974 22.9088 20.0286 23.0458 18.1153C23.1703 16.3787 23.1982 15.6245 23.1982 13.9993C23.1982 12.3741 23.1703 11.6199 23.0458 9.88332C22.9088 7.97005 22.8457 7.40126 22.7127 6.87654C22.277 5.15784 21.1176 3.84506 19.6838 3.44693C19.2653 3.33076 17.6304 3.13697 15.977 3.00764C15.4586 2.96707 13.254 2.93005 12.897 2.95589ZM13.513 5.08499C12.7312 5.20231 12.3523 5.33223 11.8848 5.64331C11.1992 6.09951 10.7503 6.7819 10.5516 7.67014C10.4998 7.90156 10.4917 8.02725 10.491 8.60932C10.4902 9.23895 10.4947 9.30072 10.5635 9.58932C10.6931 10.1334 10.9193 10.6141 11.2055 10.9535L11.3169 11.0856L11.1412 11.1742C10.7076 11.3931 10.2062 11.7766 9.79972 12.2003C9.23487 12.7891 8.85276 13.5094 8.67734 14.3161C8.55159 14.8943 8.61792 16.1 8.80611 16.6562C9.05125 17.3809 9.7249 17.9806 10.447 18.1171C10.5471 18.136 10.6666 18.1598 10.7125 18.17L10.796 18.1886L10.8873 18.761C11.2216 20.8576 11.251 20.9933 11.4579 21.3913C11.8279 22.1031 12.514 22.6446 13.3118 22.8544C13.5015 22.9043 13.6207 22.9147 14.003 22.9151C14.4211 22.9155 14.4914 22.9082 14.7426 22.8389C15.5725 22.6097 16.2923 21.9909 16.6278 21.2182C16.7538 20.9281 16.8237 20.5933 17.0304 19.2896L17.206 18.182L17.4595 18.1379C17.8626 18.0679 18.1588 17.9316 18.5133 17.6533C18.8731 17.3709 19.1703 16.8786 19.2683 16.4024C19.4142 15.694 19.4403 14.9277 19.3367 14.3934C19.1031 13.1878 18.3591 12.1441 17.1949 11.3887C17.0641 11.3038 16.9003 11.206 16.831 11.1714C16.7617 11.1368 16.7008 11.1048 16.6958 11.1003C16.6907 11.0958 16.7432 11.0225 16.8125 10.9374C17.0997 10.5847 17.316 10.1228 17.4407 9.59607C17.5105 9.30075 17.5151 9.23979 17.5148 8.60932C17.5146 8.02524 17.5067 7.90237 17.4546 7.67014C17.299 6.97655 17.0146 6.44525 16.5607 6.00031C16.102 5.55065 15.5281 5.26399 14.829 5.1353C14.5861 5.09059 13.7012 5.05676 13.513 5.08499ZM13.555 7.10267C13.2864 7.14763 12.9927 7.28937 12.8328 7.45121C12.5809 7.70609 12.4789 8.04148 12.4804 8.60932C12.4829 9.51033 12.783 9.94453 13.5048 10.0914C13.7808 10.1476 14.2259 10.1476 14.4975 10.0915C15.2228 9.9417 15.5237 9.50781 15.5256 8.60932C15.5268 8.05632 15.4369 7.74622 15.2006 7.48764C14.936 7.19815 14.5823 7.08099 13.9915 7.08713C13.79 7.08923 13.5935 7.09623 13.555 7.10267ZM13.555 12.4911C12.7043 12.5783 11.8682 12.9626 11.3133 13.5215C10.9644 13.873 10.7411 14.2634 10.6533 14.6756C10.6024 14.9145 10.6155 15.4993 10.6796 15.8448C10.7354 16.1459 10.7519 16.1553 11.2271 16.1555C11.4372 16.1557 11.6893 16.1688 11.7874 16.1847C12.1715 16.247 12.4549 16.4754 12.5849 16.8273C12.6105 16.8966 12.7519 17.703 12.899 18.6193C13.0762 19.7227 13.1854 20.3279 13.2222 20.4113C13.289 20.563 13.4716 20.7575 13.625 20.8406C13.7773 20.923 14.219 20.9286 14.3632 20.8499C14.4932 20.7791 14.6984 20.5854 14.7507 20.4844C14.8233 20.3438 14.835 20.2825 15.1086 18.5913C15.2544 17.6904 15.3869 16.9069 15.4031 16.8502C15.4463 16.6994 15.5986 16.4919 15.7516 16.3755C15.966 16.2126 16.1091 16.1784 16.635 16.1647C17.18 16.1504 17.2097 16.1457 17.2637 16.0633C17.321 15.9758 17.391 15.4811 17.391 15.1633C17.391 14.7944 17.3317 14.539 17.1695 14.2093C16.7118 13.279 15.6114 12.6079 14.3472 12.488C14.0075 12.4558 13.8956 12.4562 13.555 12.4911Z" fill="white"/>
</svg>
