<svg width="12" height="12" viewBox="0 0 12 12" fill="none" xmlns="http://www.w3.org/2000/svg">
<g clip-path="url(#clip0_1881_1783)">
<path fill-rule="evenodd" clip-rule="evenodd" d="M8.55473 0.413872C8.41602 0.452128 8.29327 0.55456 8.19464 0.714352C8.14206 0.799528 8.11223 0.870028 7.92537 1.35048C7.69202 1.95056 7.50954 2.1804 7.10699 2.38133C6.97397 2.44774 6.88754 2.48265 6.56402 2.6007C6.21587 2.72776 6.07206 2.80031 5.9589 2.906C5.83621 3.02056 5.78423 3.12269 5.77523 3.26681C5.76074 3.49907 5.84799 3.66288 6.06095 3.80316C6.1679 3.87363 6.29689 3.9291 6.70202 4.07892C7.2504 4.2817 7.46438 4.42352 7.64762 4.70556C7.76813 4.89107 7.81332 4.99206 8.06965 5.64894C8.18473 5.94383 8.30343 6.10289 8.46655 6.18074C8.61284 6.25055 8.80817 6.24285 8.94587 6.16182C9.10194 6.07 9.20619 5.90687 9.34811 5.53248C9.58136 4.91715 9.6989 4.69271 9.88577 4.50585C10.063 4.32864 10.2588 4.22768 10.8275 4.0202C11.2474 3.86703 11.4362 3.75003 11.5311 3.58416C11.649 3.37809 11.6205 3.12998 11.458 2.94765C11.3437 2.81942 11.2068 2.74684 10.8 2.59889C10.2239 2.38934 9.98366 2.25442 9.81476 2.04563C9.65138 1.84366 9.58243 1.70153 9.32328 1.03248C9.19434 0.699616 9.09878 0.558388 8.93927 0.464932C8.8317 0.401908 8.67405 0.380968 8.55473 0.413872ZM8.64145 1.87622C8.53214 2.14094 8.34002 2.45979 8.18096 2.64048C7.96448 2.88641 7.65355 3.09668 7.28402 3.24704C7.20812 3.27792 7.14141 3.30594 7.13579 3.3093C7.13016 3.31268 7.18686 3.34089 7.26179 3.37202C7.80333 3.59698 8.13174 3.85954 8.39558 4.27848C8.48126 4.41453 8.56959 4.58288 8.62854 4.72248C8.6564 4.78848 8.68113 4.84468 8.6835 4.84737C8.68586 4.85006 8.69978 4.82306 8.71446 4.78737C8.80145 4.5757 8.96859 4.27374 9.0825 4.12248C9.33033 3.7934 9.65631 3.55714 10.1276 3.36503C10.2454 3.31701 10.2512 3.3131 10.2211 3.30164C9.73166 3.11556 9.36558 2.86842 9.12618 2.56248C8.98165 2.37779 8.8301 2.11586 8.73661 1.88916C8.71514 1.8371 8.69407 1.79076 8.6898 1.78622C8.68551 1.78168 8.66376 1.82218 8.64145 1.87622ZM4.20602 3.09232C2.26586 3.23596 0.977242 4.25452 0.552382 5.98023C0.443578 6.42218 0.403786 6.78084 0.402982 7.32648C0.402406 7.72588 0.410422 7.86695 0.45073 8.16648C0.613162 9.37346 1.16319 10.3234 2.03402 10.901C2.37369 11.1263 2.68913 11.2721 3.09602 11.3918C3.61262 11.5439 4.03033 11.5985 4.66802 11.5974C5.08617 11.5966 5.28593 11.5827 5.60402 11.532C7.25887 11.2684 8.36133 10.2901 8.76003 8.73155C8.82961 8.4596 8.87841 8.14948 8.90489 7.81108C8.92425 7.56362 8.91741 7.45143 8.87773 7.36613C8.83716 7.2789 8.75357 7.19531 8.66638 7.1548C8.60864 7.12798 8.58123 7.123 8.49002 7.12276C8.39753 7.12252 8.37215 7.12712 8.31319 7.15474C8.2302 7.19364 8.14045 7.28115 8.10119 7.36148C8.07137 7.42247 8.06671 7.45664 8.0405 7.80648C7.98691 8.52194 7.77763 9.13221 7.42383 9.60474C7.33479 9.72366 7.13025 9.93651 7.00802 10.0374C6.4131 10.5286 5.60057 10.759 4.54202 10.7368C4.20221 10.7296 4.07885 10.7197 3.82224 10.6788C2.43942 10.4583 1.57611 9.61419 1.33272 8.24448C1.24826 7.76922 1.23671 7.13566 1.30316 6.62448C1.3752 6.07035 1.56716 5.54103 1.83408 5.16048C2.02991 4.88128 2.33346 4.59627 2.61669 4.42568C3.04608 4.16705 3.58625 4.007 4.18802 3.96008C4.52901 3.9335 4.55594 3.92942 4.62697 3.89348C4.70706 3.85295 4.77942 3.7757 4.8227 3.68448C4.84926 3.62853 4.85402 3.60204 4.85402 3.51048C4.85402 3.41642 4.84968 3.39363 4.82033 3.33387C4.77594 3.24347 4.69547 3.1624 4.61066 3.12266C4.54945 3.09396 4.52708 3.09034 4.40402 3.08918C4.32812 3.08846 4.23902 3.08987 4.20602 3.09232ZM4.56002 5.29713C4.52372 5.30518 4.47565 5.32149 4.4532 5.33338C4.39752 5.36285 4.30339 5.459 4.27421 5.5162C4.22911 5.6046 4.22402 5.68367 4.22402 6.29638V6.88788L3.57902 6.89118L2.93402 6.89448L2.87808 6.92205C2.78829 6.96627 2.7171 7.03721 2.67347 7.12594C2.63772 7.19861 2.63402 7.21626 2.63403 7.3143C2.63403 7.40645 2.63879 7.43261 2.66607 7.49084C2.70693 7.57804 2.79045 7.66156 2.87767 7.70244L2.94602 7.73448L3.58502 7.73778L4.22402 7.7411V8.33315C4.22402 8.68347 4.22899 8.95143 4.2362 8.98943C4.26133 9.12196 4.34391 9.23248 4.46575 9.29664C4.52443 9.32753 4.54099 9.33048 4.65602 9.33048C4.76665 9.33048 4.78923 9.32682 4.84115 9.30048C4.91399 9.26352 5.0055 9.17628 5.03727 9.1135C5.08405 9.02108 5.08802 8.9605 5.08802 8.3402V7.7411L5.72702 7.73778L6.36602 7.73448L6.43437 7.70244C6.52158 7.66157 6.60511 7.57804 6.64598 7.49084C6.67328 7.4326 6.67802 7.40648 6.67802 7.31423C6.67802 7.21611 6.67434 7.19849 6.63858 7.12587C6.59495 7.03722 6.52368 6.96624 6.43397 6.92205L6.37802 6.89448L5.73361 6.89118L5.08919 6.88788L5.08561 6.24918L5.08202 5.61048L5.0501 5.54238C4.98738 5.4086 4.87386 5.31898 4.73481 5.29353C4.65057 5.2781 4.64538 5.2782 4.56002 5.29713Z" fill="white"/>
</g>
<defs>
<clipPath id="clip0_1881_1783">
<rect width="12" height="12" fill="white"/>
</clipPath>
</defs>
</svg>
