<svg width="64" height="64" viewBox="0 0 64 64" fill="none" xmlns="http://www.w3.org/2000/svg">
<path fill-rule="evenodd" clip-rule="evenodd" d="M3.71313 2.21827C2.41118 2.69142 1.77124 4.12758 2.32471 5.33424C2.58827 5.9087 8.63735 13.5144 12.9201 18.656C18.3392 25.162 22.5083 29.7477 27.9648 35.2046C32.8078 40.048 36.4416 43.4068 41.9211 48.1049C47.2935 52.7112 57.8237 61.2502 58.6238 61.6492C58.9876 61.8306 59.1013 61.856 59.5518 61.8558C60.2781 61.8557 60.6625 61.7023 61.1554 61.216C61.7014 60.6771 61.8467 60.3428 61.8507 59.616C61.8542 58.9938 61.7419 58.6386 61.4004 58.1908C61.3096 58.0718 60.0937 57.0645 58.6983 55.9524C55.6342 53.5102 52.7678 51.1881 50.2731 49.1268C49.2523 48.2834 48.1527 47.3751 47.8296 47.1086C47.5064 46.8421 47.2472 46.6051 47.2536 46.582C47.2599 46.5589 47.7403 46.2025 48.3211 45.7899C52.5175 42.8094 55.285 40.0719 58.1216 36.096C59.3363 34.3934 59.6491 33.5545 59.6491 32C59.6491 30.4454 59.3363 29.6066 58.1216 27.904C55.1718 23.7693 52.3042 20.9749 47.7451 17.7924C46.7665 17.1093 46.4849 16.9907 45.8571 16.9975C45.1618 17.005 44.7065 17.1849 44.268 17.6254C43.6993 18.1966 43.4746 18.8585 43.5945 19.6087C43.7246 20.4222 43.976 20.7449 45.101 21.5417C47.4296 23.191 48.8438 24.339 50.296 25.7589C51.8304 27.2592 53.0137 28.649 54.3551 30.5264C55.4161 32.0114 55.4031 32.0946 53.7721 34.272C52.344 36.1785 50.5567 38.1089 48.8989 39.5351C47.9131 40.3833 46.5415 41.4393 45.1067 42.4547C44.6236 42.7966 44.15 43.1833 44.0542 43.3141C43.9585 43.445 43.859 43.5774 43.833 43.6084C43.7872 43.6633 42.9456 42.9443 40.5131 40.7721C29.1131 30.592 20.3316 20.9774 7.47531 4.60048C6.71217 3.62832 5.99268 2.75254 5.87646 2.65424C5.32529 2.18813 4.34167 1.98992 3.71313 2.21827ZM9.23787 24.2201C8.64119 24.4067 8.25425 24.775 7.12228 26.2341C5.65489 28.1255 4.93374 29.2297 4.67057 29.9882C4.23684 31.238 4.23684 32.7619 4.67057 34.0117C4.86558 34.5738 5.18711 35.1242 5.92555 36.16C8.82641 40.2291 11.7101 43.0334 16.2571 46.2075C17.2358 46.8907 17.5174 47.0093 18.1451 47.0025C18.8405 46.9949 19.2958 46.815 19.7342 46.3746C20.303 45.8033 20.5277 45.1415 20.4077 44.3912C20.2777 43.5776 20.0262 43.2549 18.9012 42.4585C14.875 39.608 12.6318 37.4804 10.1351 34.144C8.57655 32.0614 8.57278 32.0256 9.73899 30.4C10.1304 29.8544 10.7625 29.0197 11.1437 28.5453C12.0111 27.4656 12.1577 27.2025 12.2046 26.6405C12.322 25.2384 11.3062 24.1184 9.92977 24.1323C9.69623 24.1346 9.38487 24.1741 9.23787 24.2201Z" fill="#CAD5E2"/>
</svg>
