<svg width="16" height="16" viewBox="0 0 16 16" fill="none" xmlns="http://www.w3.org/2000/svg">
<g clip-path="url(#clip0_4054_2834)">
<path fill-rule="evenodd" clip-rule="evenodd" d="M6.42401 0.823779C5.52065 0.942867 4.85398 1.39624 4.49582 2.13509C4.30424 2.53031 4.22272 2.91619 4.2182 3.44914L4.21601 3.7072L4.04801 3.71776C3.10388 3.77707 2.6426 3.81187 2.53137 3.83216C2.04772 3.9204 1.61281 4.24448 1.38588 4.68575C1.29184 4.86861 1.2672 4.95445 1.14556 5.52293C0.944284 6.46359 0.811836 7.1913 0.809916 7.36709C0.806924 7.64027 0.977932 7.85915 1.24852 7.92848C1.34598 7.95344 1.36308 7.95327 1.544 7.92551C1.78814 7.88805 2.16876 7.88845 2.38401 7.9264C2.97627 8.03085 3.32385 8.34991 3.45676 8.91109C3.50217 9.10285 3.5186 9.55706 3.48822 9.78088C3.39427 10.4729 3.0051 10.8653 2.31945 10.9592C2.12542 10.9857 1.7471 10.9813 1.5515 10.9502C1.3562 10.9192 1.24422 10.9275 1.12816 10.9817C1.01201 11.0359 0.92526 11.1186 0.864028 11.2335C0.783964 11.3837 0.78254 11.4892 0.854748 11.9271C0.920348 12.325 1.1646 13.5567 1.22576 13.798C1.27374 13.9873 1.32353 14.11 1.41044 14.253C1.65228 14.6511 2.05038 14.9318 2.49345 15.0166C2.7223 15.0604 4.24788 15.1483 5.38184 15.183C6.05848 15.2037 7.74955 15.2037 8.42619 15.183C9.576 15.1478 11.1236 15.0581 11.3303 15.0146C11.4691 14.9854 11.6149 14.9363 11.7186 14.8838C12.1163 14.6825 12.4295 14.3137 12.5591 13.8944C12.619 13.7004 12.7979 12.7457 12.864 12.267C12.881 12.1438 12.8875 12.1261 12.9177 12.1208C12.9366 12.1174 13.0312 12.1024 13.128 12.0873C13.9955 11.9527 14.6871 11.4122 15 10.6242C15.1333 10.2886 15.2 9.89205 15.2 9.43546C15.2 8.60581 14.9769 7.97947 14.508 7.49312C14.1241 7.09496 13.6269 6.85635 13.0167 6.77752L12.8734 6.75901L12.853 6.62304C12.7651 6.03749 12.6074 5.21357 12.5367 4.97048C12.3636 4.37509 11.851 3.92223 11.24 3.82491C11.1457 3.80989 10.4555 3.75978 9.76801 3.71803L9.59201 3.70735L9.58972 3.43995C9.58716 3.14026 9.56708 2.95011 9.5119 2.70309C9.34835 1.97085 8.90969 1.39899 8.26873 1.08242C7.86166 0.881363 7.44792 0.797443 6.88062 0.800883C6.71748 0.801875 6.51201 0.812179 6.42401 0.823779ZM6.73601 1.94487C5.93452 2.01282 5.52016 2.35951 5.38996 3.07109C5.35704 3.25107 5.36206 3.78015 5.39816 3.93509C5.45561 4.18163 5.46355 4.25067 5.44475 4.34031C5.40968 4.50746 5.33774 4.61658 5.19304 4.72203C5.08521 4.80061 5.00993 4.81148 4.27164 4.85504C2.95809 4.93256 2.73665 4.95104 2.64396 4.99091C2.54886 5.03183 2.43051 5.14949 2.392 5.24144C2.36566 5.30431 2.24163 5.86618 2.13646 6.39909C2.10433 6.56189 2.0744 6.70768 2.06995 6.72309C2.06289 6.74751 2.07392 6.75109 2.15595 6.75109C2.26731 6.75109 2.55124 6.78723 2.72001 6.8229C2.93902 6.86919 3.14764 6.94266 3.34697 7.04373C4.20046 7.47645 4.65601 8.31005 4.65601 9.43909C4.65601 10.2762 4.41476 10.9308 3.92753 11.4155C3.61254 11.7289 3.22401 11.9368 2.74857 12.0464C2.58827 12.0833 2.25545 12.1271 2.13465 12.1271H2.05233L2.08272 12.2831C2.20148 12.8929 2.34348 13.5537 2.36761 13.609C2.42768 13.7467 2.55446 13.8505 2.70587 13.886C2.84248 13.9181 4.23435 13.9978 5.26401 14.0325C6.41254 14.0711 8.29796 14.0529 9.56001 13.9908C10.2703 13.9559 11.0223 13.9048 11.1022 13.886C11.2535 13.8505 11.3803 13.7467 11.4404 13.609C11.5003 13.472 11.6719 12.5422 11.7507 11.9271C11.8086 11.4758 11.8204 11.4036 11.8464 11.3417C11.9141 11.1805 12.0827 11.0423 12.2507 11.0102C12.302 11.0004 12.4628 10.9887 12.608 10.9843C12.9898 10.9726 13.2098 10.9172 13.462 10.7691C13.809 10.5653 14.0051 10.1882 14.0481 9.64204C14.1011 8.9704 13.9177 8.43178 13.5466 8.16885C13.2775 7.97819 13.0149 7.90714 12.5111 7.88871C12.2273 7.87834 12.21 7.87583 12.12 7.83176C12.0022 7.77413 11.906 7.67914 11.8511 7.56623C11.8168 7.49584 11.8007 7.41755 11.7674 7.15909C11.6743 6.4384 11.4857 5.40338 11.4178 5.241C11.381 5.15272 11.2576 5.03115 11.1641 4.99091C11.0713 4.95101 10.8461 4.93223 9.53638 4.85517C9.03209 4.82549 8.81622 4.8069 8.75376 4.78775C8.58195 4.73506 8.43033 4.57651 8.37548 4.39218C8.34328 4.28389 8.3455 4.24109 8.39526 4.01319C8.43467 3.8326 8.43848 3.78539 8.43817 3.47909C8.4378 3.10571 8.41736 2.974 8.32092 2.72394C8.16366 2.31613 7.81137 2.05266 7.32001 1.97536C7.16592 1.95112 6.8542 1.93485 6.73601 1.94487Z" fill="currentColor"/>
</g>
<defs>
<clipPath id="clip0_4054_2834">
<rect width="16" height="16" fill="currentColor"/>
</clipPath>
</defs>
</svg>




