<svg width="28" height="28" viewBox="0 0 28 28" fill="none" xmlns="http://www.w3.org/2000/svg">
<mask id="mask0_3644_7895" style="mask-type:luminance" maskUnits="userSpaceOnUse" x="0" y="0" width="28" height="28">
<path d="M0 0L28 0V28H0L0 0Z" fill="white"/>
</mask>
<g mask="url(#mask0_3644_7895)">
<path d="M13.8997 0C6.79 0 7.23333 3.09867 7.23333 3.09867L7.2415 6.30933H14.0245V7.273H4.55C4.55 7.273 0 6.75383 0 13.9638C0 21.1738 3.97017 20.9172 3.97017 20.9172H6.3385V17.5723C6.3385 17.5723 6.21133 13.5823 10.2468 13.5823H16.9738C16.9738 13.5823 20.7538 13.643 20.7538 9.90967V3.73567C20.7538 3.73567 21.3278 0 13.8997 0ZM10.1593 2.15833C10.8337 2.15833 11.3797 2.70667 11.3797 3.38567C11.3797 4.0635 10.8337 4.61183 10.1593 4.61183C9.485 4.61183 8.939 4.0635 8.939 3.38567C8.939 2.70667 9.48383 2.15833 10.1593 2.15833Z" fill="#E2E8F1"/>
<path d="M14.1027 27.9998C21.2101 27.9998 20.7667 24.9012 20.7667 24.9012L20.7586 21.6905H13.9756V20.7268H23.4524C23.4524 20.7268 28.0024 21.246 28.0024 14.036C28.0024 6.82601 24.0311 7.08268 24.0311 7.08268L21.6627 7.08268V10.4275C21.6627 10.4275 21.7899 14.4175 17.7544 14.4175H11.0286C11.0286 14.4175 7.24857 14.3568 7.24857 18.0902L7.24857 24.2642C7.24857 24.2642 6.67457 27.9998 14.1027 27.9998ZM17.8431 25.8415C17.1676 25.8415 16.6227 25.2932 16.6227 24.6142C16.6227 23.9363 17.1676 23.388 17.8431 23.388C18.5174 23.388 19.0634 23.9363 19.0634 24.6142C19.0634 25.2932 18.5174 25.8415 17.8431 25.8415Z" fill="#E2E8F1"/>
</g>
</svg>
