<svg width="32" height="32" viewBox="0 0 32 32" fill="none" xmlns="http://www.w3.org/2000/svg">
<path d="M12.5234 12.5629C12.5234 10.0492 14.8751 8.11937 17.3404 8.60975C18.9139 8.92285 20.1937 10.2037 20.5067 11.7772C20.6638 12.5674 20.5713 13.3163 20.2299 13.9881C19.8985 14.6401 19.3733 15.1402 18.7924 15.5283C18.2616 15.8829 17.9681 16.0967 17.7958 16.276C17.7225 16.3523 17.7015 16.3926 17.6975 16.401C17.6976 16.4006 17.6964 16.4043 17.6964 16.4133C17.6962 17.0443 17.1846 17.5562 16.5536 17.5562C15.9226 17.5561 15.4109 17.0443 15.4107 16.4133C15.4107 15.6831 15.7323 15.1254 16.1484 14.6923C16.5222 14.3035 17.0308 13.9568 17.5234 13.6276C17.8922 13.3812 18.0923 13.1506 18.1931 12.9524C18.2835 12.7742 18.33 12.5519 18.2645 12.2225C18.1318 11.5556 17.5608 10.9846 16.894 10.8519C15.8424 10.6428 14.8092 11.4907 14.8092 12.5629C14.8092 13.1941 14.2975 13.7057 13.6663 13.7057C13.0351 13.7057 12.5234 13.1941 12.5234 12.5629Z" fill="white"/>
<path d="M15.4062 21.3537V20.8235C15.4062 20.1923 15.9179 19.6807 16.5491 19.6807C17.1803 19.6807 17.692 20.1923 17.692 20.8235V21.3537C17.692 21.9848 17.1803 22.4965 16.5491 22.4965C15.9179 22.4965 15.4062 21.9848 15.4062 21.3537Z" fill="white"/>
<path d="M28.6566 15.5359C28.6566 11.4801 27.521 8.47201 25.5283 6.47782C23.5356 4.48375 20.5303 3.34724 16.478 3.34724C12.4261 3.3473 9.42153 4.48393 7.42894 6.47782C5.43618 8.47201 4.29948 11.4801 4.29948 15.5359C4.29954 18.0124 4.72518 20.0998 5.50595 21.7981C5.63145 22.0713 5.64427 22.3828 5.54166 22.6653L3.37314 28.6307L9.58184 26.5604C9.85042 26.4708 10.1428 26.4848 10.4022 26.5984C12.0655 27.3277 14.0911 27.7233 16.478 27.7234C20.5303 27.7234 23.5356 26.5869 25.5283 24.5928C27.5209 22.5986 28.6565 19.5913 28.6566 15.5359ZM30.9423 15.5359C30.9422 20.0116 29.6807 23.6695 27.1443 26.2077C24.6077 28.7462 20.9515 30.0091 16.478 30.0091C14.0221 30.009 11.8139 29.6294 9.89769 28.864L4.03274 30.8216C2.24335 31.4181 0.559096 29.6834 1.20238 27.9131L3.23698 22.3138C2.41942 20.3521 2.01382 18.0763 2.01376 15.5359C2.01376 11.06 3.27546 7.40118 5.81175 4.86286C8.34832 2.32448 12.0048 1.06159 16.478 1.06152C20.9515 1.06152 24.6077 2.32442 27.1443 4.86286C29.6809 7.4012 30.9423 11.0598 30.9423 15.5359Z" fill="white"/>
</svg>
