<svg width="28" height="26" viewBox="0 0 28 26" fill="none" xmlns="http://www.w3.org/2000/svg">
<path d="M14 10.0631C15.3414 10.0631 16.4353 11.1571 16.4353 12.5245C16.4353 13.8268 15.3414 14.9338 14 14.9338C12.6586 14.9338 11.5647 13.8268 11.5647 12.5245C11.5647 11.1571 12.6586 10.0631 14 10.0631ZM7.97023 22.9431C8.7907 23.438 10.5879 22.6826 12.6586 20.7292C11.9814 19.9608 11.3172 19.1273 10.6921 18.2547C9.64271 18.1536 8.5994 17.9971 7.56651 17.7859C6.90233 20.5729 7.14977 22.4873 7.97023 22.9431ZM8.89488 15.4678L8.51721 14.8036C8.37395 15.1813 8.2307 15.5589 8.13953 15.9236C8.49116 16.0017 8.88186 16.0668 9.28558 16.132L8.89488 15.4678ZM17.4121 14.478L18.467 12.5245L17.4121 10.571C17.0214 9.88079 16.6047 9.26869 16.227 8.6566C15.5237 8.61753 14.7814 8.61753 14 8.61753C13.2186 8.61753 12.4763 8.61753 11.773 8.6566C11.3953 9.26869 10.9786 9.88079 10.5879 10.571L9.53302 12.5245L10.5879 14.478C10.9786 15.1682 11.3953 15.7803 11.773 16.3924C12.4763 16.4315 13.2186 16.4315 14 16.4315C14.7814 16.4315 15.5237 16.4315 16.227 16.3924C16.6047 15.7803 17.0214 15.1682 17.4121 14.478ZM14 5.72637C13.7526 6.01288 13.4921 6.31242 13.2316 6.66404L14.7684 6.66404C14.5079 6.31242 14.2474 6.01288 14 5.72637ZM14 19.3226C14.2474 19.0361 14.5079 18.7366 14.7684 18.385L13.2316 18.385C13.4921 18.7366 13.7526 19.0361 14 19.3226ZM20.0167 2.1059C19.2093 1.61102 17.4121 2.36637 15.3414 4.31986C16.0186 5.08823 16.6828 5.92172 17.3079 6.79428C18.3758 6.89846 19.4307 7.05474 20.4335 7.26311C21.0977 4.47614 20.8502 2.56172 20.0167 2.1059ZM19.1051 9.58125L19.4828 10.2454C19.626 9.86776 19.7693 9.49009 19.8605 9.12544C19.5088 9.0473 19.1181 8.98218 18.7144 8.91707L19.1051 9.58125ZM20.9935 0.399857C22.9079 1.49381 23.1163 4.37195 22.3088 7.73195C25.6167 8.70869 28 10.3236 28 12.5245C28 14.7254 25.6167 16.3403 22.3088 17.3171C23.1163 20.6771 22.9079 23.5552 20.9935 24.6492C19.0921 25.7431 16.5005 24.4929 14 22.1096C11.4995 24.4929 8.90791 25.7431 6.99349 24.6492C5.09209 23.5552 4.88372 20.6771 5.69116 17.3171C2.38326 16.3403 6.41947e-10 14.7254 5.45999e-10 12.5245C4.50051e-10 10.3236 2.38326 8.70869 5.69116 7.73195C4.88372 4.37195 5.09209 1.49381 6.99349 0.399857C8.90791 -0.694097 11.4995 0.556136 14 2.93939C16.5005 0.556136 19.0921 -0.694097 20.9935 0.399857ZM20.6158 12.5245C21.0586 13.5013 21.4493 14.478 21.7749 15.4678C24.5098 14.6473 26.0465 13.4752 26.0465 12.5245C26.0465 11.5738 24.5098 10.4017 21.7749 9.58125C21.4493 10.571 21.0586 11.5478 20.6158 12.5245ZM7.38419 12.5245C6.9414 11.5478 6.5507 10.571 6.22512 9.58125C3.49023 10.4017 1.95349 11.5738 1.95349 12.5245C1.95349 13.4752 3.49023 14.6473 6.22512 15.4678C6.5507 14.478 6.9414 13.5013 7.38419 12.5245ZM19.1051 15.4678L18.7144 16.132C19.1181 16.0668 19.5088 16.0017 19.8605 15.9236C19.7693 15.5589 19.626 15.1813 19.4828 14.8036L19.1051 15.4678ZM15.3414 20.7292C17.4121 22.6826 19.2093 23.438 20.0167 22.9431C20.8502 22.4873 21.0977 20.5729 20.4335 17.7859C19.4307 17.9943 18.3758 18.1506 17.3079 18.2547C16.6828 19.1273 16.0186 19.9608 15.3414 20.7292ZM8.89488 9.58125L9.28558 8.91707C8.88186 8.98218 8.49116 9.0473 8.13953 9.12544C8.2307 9.49009 8.37395 9.86776 8.51721 10.2454L8.89488 9.58125ZM12.6586 4.31986C10.5879 2.36637 8.7907 1.61102 7.97023 2.1059C7.14977 2.56172 6.90233 4.47614 7.56651 7.26311C8.5994 7.05194 9.64271 6.89544 10.6921 6.79428C11.3172 5.92172 11.9814 5.08823 12.6586 4.31986Z" fill="#E2E8F1"/>
</svg>
