<svg width="12" height="12" viewBox="0 0 12 12" fill="none" xmlns="http://www.w3.org/2000/svg">
<path fill-rule="evenodd" clip-rule="evenodd" d="M5.5871 1.00985C4.62349 1.06666 3.80399 1.2902 3.14404 1.67624C2.51965 2.04148 2.04187 2.51926 1.67663 3.14365C1.13937 4.0621 0.910679 5.32118 1.03157 6.69496C1.10189 7.49391 1.33254 8.26604 1.67663 8.85426C2.04136 9.47778 2.52033 9.95684 3.14345 10.3213C4.06235 10.8588 5.33358 11.0894 6.7007 10.9664C7.50367 10.8942 8.26618 10.6659 8.85524 10.3213C9.68731 9.83461 10.2823 9.12289 10.6336 8.19404C10.9784 7.28244 11.0868 6.10403 10.9291 4.98325C10.7171 3.47696 10.0125 2.35355 8.85524 1.67658C8.09079 1.22941 7.08258 0.993261 5.96722 1.00015C5.83472 1.00097 5.66366 1.00533 5.5871 1.00985ZM5.62458 1.7757C5.59808 1.77786 5.50893 1.78496 5.42648 1.79147C4.61168 1.85581 3.86576 2.09755 3.31171 2.47683C2.56769 2.98616 2.08319 3.77277 1.87771 4.80505C1.79923 5.19938 1.77516 5.47952 1.77516 5.99896C1.77516 6.26527 1.78032 6.47545 1.7891 6.56646C1.85669 7.2671 1.99657 7.79283 2.24935 8.29634C2.64803 9.09045 3.30249 9.65 4.18877 9.95447C4.5693 10.0852 4.94545 10.1623 5.43184 10.2092C5.62608 10.2279 6.37262 10.2279 6.56686 10.2092C7.55874 10.1135 8.29359 9.84707 8.89474 9.36519C9.58836 8.80919 10.0299 7.94861 10.174 6.87163C10.2172 6.54958 10.2233 6.44109 10.2233 5.99896C10.2233 5.72279 10.2182 5.51473 10.2094 5.42609C10.1391 4.72037 10.0011 4.20304 9.74935 3.70157C9.35067 2.90746 8.6962 2.34792 7.80993 2.04344C7.44127 1.91679 7.09347 1.84351 6.6311 1.79504C6.48574 1.77982 5.74794 1.76563 5.62458 1.7757ZM7.7042 3.84762C7.62786 3.86073 7.58271 3.88561 7.48772 3.96686C7.37306 4.06492 7.00403 4.42704 6.85163 4.59105C6.24912 5.23942 5.82477 5.92645 5.44299 6.87168L5.36512 7.06445L5.19153 6.88774C5.09606 6.79054 4.89784 6.5867 4.75107 6.43475C4.60429 6.28281 4.45971 6.14213 4.42976 6.12215C4.36006 6.07564 4.29568 6.05976 4.19811 6.06503C3.92444 6.0798 3.75936 6.3729 3.88503 6.62091C3.90396 6.65825 4.10496 6.87244 4.59662 7.37915C5.3367 8.14189 5.32237 8.12903 5.45648 8.15086C5.60799 8.17552 5.77216 8.09943 5.84122 7.97254C5.85697 7.9436 5.90829 7.81416 5.95527 7.68489C6.17513 7.07988 6.36221 6.65117 6.57129 6.2733C6.90339 5.67307 7.23159 5.26821 7.92288 4.60606C8.0902 4.4458 8.10852 4.4246 8.13037 4.36603C8.16044 4.28544 8.1624 4.16386 8.13477 4.09294C8.06547 3.91505 7.8908 3.81554 7.7042 3.84762Z" fill="white"/>
</svg>
