<svg width="64" height="64" viewBox="0 0 64 64" fill="none" xmlns="http://www.w3.org/2000/svg">
<path d="M25.471 47.9192C25.471 46.6285 25.4041 45.3377 25.2991 44.0442C25.0583 41.0804 22.6276 38.7251 19.7143 38.6067C17.2451 38.5064 14.9224 38.5064 12.4531 38.6067C9.54002 38.7253 7.11135 41.0806 6.87054 44.0442C6.76559 45.3378 6.69643 46.6285 6.69643 47.9192C6.69645 49.2096 6.76562 50.4986 6.87054 51.792C7.11099 54.7559 9.53969 57.1131 12.4531 57.2317C14.9223 57.3323 17.2452 57.3323 19.7143 57.2317C22.6279 57.1134 25.0586 54.756 25.2991 51.792C25.404 50.4987 25.471 49.2096 25.471 47.9192ZM30.0424 47.9192C30.0424 49.3696 29.9664 50.7888 29.8549 52.1625C29.432 57.3713 25.1789 61.5842 19.8996 61.7987C17.955 61.8779 16.093 61.8986 14.1897 61.8589L12.2679 61.7987C6.98861 61.5841 2.73762 57.3712 2.31473 52.1625C2.20329 50.7889 2.12502 49.3696 2.125 47.9192C2.125 46.4688 2.2033 45.0495 2.31473 43.6759C2.73733 38.4669 6.98834 34.2521 12.2679 34.0375C14.8607 33.9321 17.3068 33.9322 19.8996 34.0375C25.1791 34.252 29.4323 38.4669 29.8549 43.6759C29.9663 45.0495 30.0424 46.4688 30.0424 47.9192Z" fill="currentColor"/>
<path d="M41.3929 47.919C41.3929 46.6283 41.3237 45.3376 41.2188 44.044C40.9779 41.0803 38.5495 38.7249 35.6362 38.6065C34.3335 38.5536 34.2353 38.5307 33.067 38.5307C31.8046 38.5307 30.7812 37.5073 30.7812 36.2449C30.7812 34.9826 31.8046 33.9592 33.067 33.9592C34.3562 33.9592 34.5934 33.9875 35.8214 34.0374C41.101 34.2519 45.3541 38.4668 45.7768 43.6757C45.8882 45.0493 45.9643 46.4687 45.9643 47.919C45.9643 49.3694 45.8882 50.7887 45.7768 52.1624C45.3539 57.3712 41.1008 61.5841 35.8214 61.7985C34.594 61.8483 34.3562 61.8766 33.067 61.8766C31.8046 61.8766 30.7812 60.8533 30.7812 59.5909C30.7818 58.329 31.8049 57.3052 33.067 57.3052C34.2352 57.3052 34.3329 57.2844 35.6362 57.2315C38.5498 57.1132 40.9783 54.7559 41.2188 51.7918C41.3237 50.4985 41.3928 49.2095 41.3929 47.919Z" fill="currentColor"/>
<path d="M57.3069 47.919C57.3069 46.6282 57.2378 45.3374 57.1328 44.044C56.892 41.0804 54.4638 38.7249 51.5502 38.6065C50.2476 38.5536 50.1494 38.5307 48.981 38.5307C47.7187 38.5307 46.6953 37.5073 46.6953 36.2449C46.6953 34.9826 47.7187 33.9592 48.981 33.9592C50.2703 33.9592 50.5076 33.9875 51.7355 34.0374C57.0152 34.2519 61.2683 38.4667 61.6908 43.6757C61.8023 45.0495 61.8783 46.4688 61.8783 47.919C61.8783 49.3693 61.8024 50.7885 61.6908 52.1624C61.268 57.3713 57.015 61.5841 51.7355 61.7985C50.5082 61.8483 50.2704 61.8766 48.981 61.8766C47.7187 61.8766 46.6953 60.8533 46.6953 59.5909C46.6958 58.329 47.719 57.3052 48.981 57.3052C50.1493 57.3052 50.247 57.2844 51.5502 57.2315C54.4641 57.1132 56.8924 54.7558 57.1328 51.7918C57.2378 50.4987 57.3069 49.2096 57.3069 47.919Z" fill="currentColor"/>
<path d="M11.9141 19.9351C11.9144 11.8125 18.499 5.22787 26.6217 5.22754C27.884 5.22754 28.9074 6.25089 28.9074 7.51325C28.9074 8.77562 27.884 9.79897 26.6217 9.79897C21.0237 9.7993 16.4858 14.3372 16.4855 19.9351C16.4855 20.8977 16.619 21.8259 16.8672 22.703L17.9766 25.9195C18.3877 27.1127 17.7543 28.4142 16.5614 28.8258C15.3682 29.2369 14.0667 28.6035 13.6551 27.4106L12.519 24.1159C12.5061 24.0785 12.4942 24.0402 12.4833 24.0021C12.1118 22.7082 11.9141 21.3423 11.9141 19.9351Z" fill="currentColor"/>
<path d="M18.5041 20.3872C19.0687 19.2582 20.442 18.8003 21.571 19.3648C22.6997 19.9295 23.1577 21.3029 22.5933 22.4318C21.1031 25.4124 18.2057 28.3098 15.225 29.8001C14.5817 30.1218 13.8238 30.1216 13.1804 29.8001C10.1999 28.3098 7.30241 25.4124 5.8121 22.4318C5.24755 21.3027 5.70533 19.9294 6.83442 19.3648C7.96351 18.8003 9.33684 19.2581 9.90138 20.3872C10.7787 22.1418 12.45 23.9537 14.2005 25.1126C15.9521 23.9538 17.6263 22.1427 18.5041 20.3872Z" fill="currentColor"/>
<path d="M36.227 18.2454C37.4724 18.0408 38.647 18.884 38.852 20.1294C39.2509 22.5555 41.2142 24.5273 43.6935 24.9553C44.9372 25.1701 45.7719 26.3521 45.5573 27.5959C45.3427 28.8395 44.1603 29.6738 42.9167 29.4597C38.5533 28.7065 35.0636 25.2524 34.3431 20.8704C34.1386 19.6251 34.9816 18.4503 36.227 18.2454ZM57.3364 20.1294C57.5412 18.8837 58.718 18.0406 59.9636 18.2454C61.2088 18.4504 62.0519 19.6252 61.8475 20.8704C61.1268 25.2523 57.6374 28.7065 53.2739 29.4597C52.0301 29.6742 50.8479 28.8397 50.6332 27.5959C50.4186 26.352 51.2532 25.17 52.4971 24.9553C54.9761 24.5272 56.9373 22.5554 57.3364 20.1294ZM42.9167 2.15616C44.1603 1.94208 45.3427 2.77638 45.5573 4.02C45.7718 5.26369 44.9371 6.44578 43.6935 6.66063C41.2143 7.08859 39.2509 9.06044 38.852 11.4865C38.647 12.7318 37.4724 13.5751 36.227 13.3704C34.9816 13.1657 34.1387 11.9908 34.3431 10.7454C35.0636 6.36348 38.5533 2.90937 42.9167 2.15616ZM50.6332 4.02C50.8479 2.77618 52.0301 1.9417 53.2739 2.15616C57.6374 2.90938 61.1268 6.3636 61.8475 10.7454C62.0518 11.9906 61.2088 13.1655 59.9636 13.3704C58.718 13.5753 57.5413 12.7321 57.3364 11.4865C56.9373 9.06042 54.9762 7.08869 52.4971 6.66063C51.2532 6.44592 50.4187 5.26383 50.6332 4.02Z" fill="currentColor"/>
</svg>
