<svg width="64" height="64" viewBox="0 0 64 64" fill="none" xmlns="http://www.w3.org/2000/svg">
<path fill-rule="evenodd" clip-rule="evenodd" d="M29.5343 2.17998C23.7748 2.51956 18.8766 3.85563 14.9321 6.16302C11.2001 8.34606 8.34447 11.2017 6.16143 14.9337C2.95023 20.4233 1.58332 27.9488 2.30588 36.1599C2.72616 40.9352 4.10479 45.5502 6.16143 49.0661C8.3414 52.7928 11.2042 55.6561 14.9286 57.8347C20.4209 61.0474 28.019 62.4254 36.1903 61.6904C40.9897 61.2588 45.5472 59.8943 49.068 57.8347C54.0412 54.9256 57.5974 50.6716 59.6972 45.1199C60.9317 41.8559 61.5907 38.4729 61.827 34.1866C61.9321 32.2799 61.8954 31.5676 61.6654 31.0569C61.2378 30.1073 60.1641 29.5535 59.1545 29.7619C58.6529 29.8654 58.3436 30.0325 57.9792 30.3968C57.3833 30.9928 57.3035 31.3226 57.2503 33.4079C57.1031 39.1768 55.6408 44.2793 53.0501 48.0639C50.6472 51.574 47.1755 54.1457 42.8201 55.642C40.5457 56.4233 38.2974 56.884 35.3903 57.1646C34.2293 57.2766 29.7673 57.2766 28.6063 57.1646C24.424 56.761 21.2724 55.9225 18.2668 54.4136C13.5204 52.0307 10.176 48.119 8.35618 42.8217C7.57167 40.538 7.11528 38.3109 6.83362 35.3919C6.72162 34.2309 6.72162 29.7688 6.83362 28.6079C7.23765 24.4202 8.07368 21.2779 9.58453 18.2684C11.9674 13.522 15.8792 10.1776 21.1765 8.35777C23.4464 7.57799 25.6019 7.13441 28.5743 6.83553C29.8705 6.70523 34.4378 6.72513 35.7423 6.86683C41.0087 7.43886 44.9802 8.77799 48.249 11.0839L48.7983 11.4714L47.9343 11.4341C46.9545 11.3918 46.2334 11.278 45.2149 11.005C44.8274 10.9011 44.3787 10.816 44.2179 10.816C43.8254 10.8158 43.2922 10.9811 42.97 11.2028C41.7509 12.0415 41.5866 13.6915 42.6195 14.7219C42.961 15.0626 43.2734 15.2184 44.0729 15.4472C45.4753 15.8485 46.8214 16.0197 48.5743 16.0197C50.3678 16.0197 51.6894 15.8469 53.179 15.4177C54.3648 15.076 54.8263 14.6463 55.1661 13.5679C56.0117 10.8836 56.0846 7.47662 55.3571 4.63988C55.2579 4.25268 55.1152 3.77166 55.04 3.57095C54.8512 3.0667 54.4263 2.61319 53.8995 2.35387C53.5186 2.16635 53.4146 2.14388 52.9276 2.14388C52.4709 2.14388 52.3233 2.17153 52.0191 2.31412C50.9233 2.82779 50.4182 3.94235 50.7474 5.11988C50.9621 5.88795 51.1244 6.65396 51.1726 7.12654L51.2173 7.56513L50.7758 7.2523C46.9986 4.57588 41.7928 2.81415 36.1583 2.30548C34.0935 2.11905 31.4247 2.06849 29.5343 2.17998ZM31.4543 16.1539C31.2783 16.1973 31.0363 16.2843 30.9166 16.3471C30.5711 16.5282 30.0855 17.0574 29.8983 17.4568L29.7263 17.8239V25.1519V32.4799L29.8803 32.8319C30.0151 33.1398 30.5751 33.7267 34.3603 37.5258C36.7396 39.9139 38.7871 41.9324 38.9103 42.0113C39.6148 42.4629 40.6132 42.4787 41.3079 42.0494C41.569 41.888 42.0667 41.3599 42.1895 41.1139C42.5165 40.4588 42.5017 39.7816 42.1418 38.9439L41.8944 38.3679L38.1623 34.6227L34.4303 30.8774L34.4298 24.7667C34.4294 18.8954 34.4244 18.6351 34.3025 18.1267C34.1413 17.454 33.9829 17.1463 33.6014 16.7648C33.2455 16.4089 32.9311 16.2358 32.4592 16.1358C32.0462 16.0483 31.8688 16.0514 31.4543 16.1539Z" fill="#CAD5E2"/>
</svg>
