<svg width="32" height="32" viewBox="0 0 32 32" fill="none" xmlns="http://www.w3.org/2000/svg">
<path d="M17.5156 19.8657C17.5156 18.1681 17.3852 16.4938 17.2321 14.8311C17.0933 13.3221 15.8989 12.0805 14.4051 11.8902C13.1654 11.7323 11.935 11.609 10.6975 11.609C9.45994 11.609 8.22881 11.7322 6.98884 11.8902C5.49525 12.0807 4.30179 13.3222 4.16295 14.8311C4.00994 16.4938 3.87947 18.1681 3.87946 19.8657C3.87946 21.5634 4.00992 23.2386 4.16295 24.9014C4.30206 26.4101 5.49546 27.6519 6.98884 27.8422C8.22887 28.0002 9.45995 28.1224 10.6975 28.1224C11.9351 28.1223 13.1663 28.0002 14.4063 27.8422C15.8995 27.6518 17.093 26.41 17.2321 24.9014C17.3852 23.2386 17.5156 21.5634 17.5156 19.8657ZM19.8013 19.8657C19.8013 21.6727 19.6633 23.433 19.5089 25.1101C19.2728 27.6765 17.2604 29.7822 14.6942 30.109C13.4214 30.2711 12.0791 30.4081 10.6975 30.4081C9.31604 30.4081 7.97366 30.2711 6.70089 30.109C4.13472 29.7822 2.12233 27.6765 1.88616 25.1101C1.73182 23.433 1.59375 21.6727 1.59375 19.8657C1.59376 18.0586 1.73182 16.2984 1.88616 14.6212C2.12234 12.0548 4.13482 9.94925 6.70089 9.62235C7.9737 9.4602 9.31608 9.32324 10.6975 9.32324C12.079 9.32325 13.4214 9.4602 14.6942 9.62235C17.2603 9.94925 19.2728 12.0548 19.5089 14.6212C19.6633 16.2984 19.8013 18.0586 19.8013 19.8657Z" fill="white"/>
<path d="M28.1238 16.0003C28.1238 13.0758 27.869 10.2137 27.616 7.3976C27.4809 5.89316 26.3045 4.65595 24.8035 4.44001C22.7583 4.14576 20.7205 3.87751 18.6539 3.87751C16.5877 3.87754 14.5506 4.1458 12.5055 4.44001C11.1974 4.62819 10.1307 5.59394 9.79233 6.84068C9.62699 7.44971 8.99959 7.80943 8.39054 7.64425C7.78152 7.47896 7.4219 6.85149 7.58697 6.24247C8.16062 4.12882 9.95559 2.49767 12.1796 2.17773C14.2247 1.88352 16.4069 1.59183 18.6539 1.5918C20.9011 1.5918 23.0842 1.8835 25.1294 2.17773C27.6731 2.54383 29.6624 4.62782 29.8928 7.19336C30.1445 9.99582 30.4095 12.9575 30.4095 16.0003C30.4095 19.0431 30.1445 22.0047 29.8928 24.8072C29.6623 27.3726 27.6731 29.4567 25.1294 29.8228C24.0349 29.9802 22.9013 30.1369 21.7466 30.248C21.1183 30.3085 20.5593 29.8473 20.4988 29.219C20.4386 28.5909 20.8997 28.0329 21.5278 27.9724C22.6255 27.8667 23.7138 27.7172 24.8035 27.5605C26.3044 27.3446 27.4807 26.1072 27.616 24.603C27.8689 21.7868 28.1238 18.9247 28.1238 16.0003Z" fill="white"/>
</svg>
