<svg width="64" height="64" viewBox="0 0 64 64" fill="none" xmlns="http://www.w3.org/2000/svg">
<path d="M3.69502 8.90884C6.77256 7.88295 10.758 7.88291 13.8356 8.90884C14.5179 9.13634 15.0545 9.67079 15.2821 10.353C16.3078 13.4303 16.3078 17.4162 15.2821 20.4937C14.8829 21.6912 13.5868 22.3393 12.3892 21.9401C11.1919 21.5407 10.5459 20.2447 10.945 19.0472C11.5373 17.2694 11.6342 14.9182 11.2419 12.9468C9.27014 12.5545 6.9191 12.6533 5.14145 13.2459C3.94399 13.6451 2.65017 12.9968 2.25082 11.7995C1.85167 10.6021 2.49779 9.30826 3.69502 8.90884Z" fill="#CAD5E2"/>
<path d="M2.125 31.9998C2.12506 22.3301 4.97818 14.5207 10.6875 9.27658C11.6172 8.4234 13.0637 8.48554 13.9174 9.41497C14.7706 10.3447 14.7085 11.7912 13.779 12.6449C9.26906 16.7877 6.69649 23.2145 6.69643 31.9998C6.69643 40.4082 9.05454 46.6546 13.2009 50.8011C17.3474 54.9476 23.5937 57.3055 32.0022 57.3056C40.4109 57.3056 46.657 54.9477 50.8036 50.8011C54.9501 46.6546 57.308 40.4084 57.308 31.9998C57.308 23.5913 54.9501 17.3449 50.8036 13.1985C46.657 9.0521 40.4107 6.69399 32.0022 6.69399C29.4095 6.69401 27.0184 6.91996 24.8326 7.35247C23.5947 7.5969 22.3924 6.79123 22.1473 5.55336C21.9023 4.31501 22.7081 3.11313 23.9464 2.86809C26.4571 2.37131 29.147 2.12258 32.0022 2.12256C41.2522 2.12256 48.801 4.73184 54.0357 9.96631C59.2703 15.2009 61.8794 22.7498 61.8795 31.9998C61.8795 41.2499 59.2704 48.7986 54.0357 54.0333C48.801 59.2679 41.2523 61.877 32.0022 61.877C22.7523 61.877 15.2034 59.2679 9.96875 54.0333C4.73428 48.7986 2.125 41.2497 2.125 31.9998Z" fill="#CAD5E2"/>
<path d="M32.8132 19.9565C35.768 16.6038 40.8564 16.8108 44.1101 19.6887C47.4364 22.6314 48.2178 27.8156 45.061 31.1373L32.4047 44.4543C32.1378 44.7352 31.8034 44.9429 31.4337 45.0592L23.5766 47.5302C22.0468 48.0109 20.5819 47.4775 19.6413 46.6239C18.7008 45.7702 18.0261 44.3621 18.3601 42.7913L20.0387 34.8963L20.119 34.6128C20.2161 34.3369 20.3664 34.0813 20.561 33.8605L32.8132 19.9565ZM41.0811 23.1128C39.3652 21.5951 37.2298 21.861 36.244 22.9789L24.3869 36.4297L23.0052 42.9163L29.494 40.8762L41.7485 27.9878C42.7954 26.8858 42.8427 24.6713 41.0811 23.1128Z" fill="#CAD5E2"/>
</svg>
