<svg width="18" height="13" viewBox="0 0 18 13" fill="none" xmlns="http://www.w3.org/2000/svg">
<path fill-rule="evenodd" clip-rule="evenodd" d="M11.6458 0.0443922C11.4126 0.127772 11.2848 0.253632 11.1945 0.488852C11.1376 0.637052 11.153 0.872932 11.2299 1.03017C11.3103 1.19435 11.4191 1.29041 11.6818 1.42885C12.3617 1.78719 12.9508 2.18551 13.5902 2.71933C14.4433 3.43167 15.2188 4.26203 15.8496 5.13885L16.0438 5.40885L8.29698 5.41893C2.1931 5.42685 0.53502 5.43427 0.47876 5.45387C0.37728 5.48921 0.22356 5.60327 0.14702 5.69999C-0.0507003 5.94985 -0.0487804 6.33219 0.1515 6.58621C0.21488 6.66659 0.3678 6.77573 0.48016 6.82079C0.53966 6.84465 1.71166 6.85035 8.2966 6.85885L16.043 6.86885L15.8786 7.09885C15.1546 8.11129 14.225 9.07743 13.2289 9.85247C12.7831 10.1993 12.2469 10.5462 11.7324 10.8207C11.5797 10.9022 11.417 11.0052 11.3709 11.0497C11.2483 11.1681 11.1761 11.3292 11.1644 11.5103C11.1527 11.693 11.1817 11.8041 11.2813 11.9582C11.3687 12.0935 11.4844 12.1796 11.6562 12.2375C11.8932 12.3174 12.0309 12.2879 12.438 12.0699C13.4953 11.5039 14.4244 10.806 15.407 9.83975C16.4608 8.80347 17.2347 7.78267 17.8415 6.62885C18.0952 6.14635 18.0817 6.05451 17.644 5.28885C17.0654 4.27665 16.3576 3.37455 15.4067 2.43745C14.4313 1.47623 13.5122 0.785592 12.4402 0.208412C12.0324 -0.0111077 11.8857 -0.0414078 11.6458 0.0443922Z" fill="currentColor"/>
</svg>
