<svg width="231" height="231" viewBox="0 0 231 231" fill="none" xmlns="http://www.w3.org/2000/svg">
<g clip-path="url(#clip0_8377_6616)">
<path d="M191.994 27.7345C191.555 27.4587 190.743 27.0557 190.179 26.8495C189.632 26.6415 189.14 26.4502 189.106 26.423C188.951 26.3009 186.365 25.7037 185.702 25.6424C182.95 25.3622 181.733 25.3126 179.67 25.3798C178.844 25.4005 177.941 25.4305 177.666 25.4243C177.048 25.4124 173.459 25.7327 171.64 25.9505C169.289 26.2243 167.232 26.5487 164.305 27.1103C160.995 27.749 160.987 27.7422 156.235 28.8819C150.625 30.226 150.693 30.21 146.696 31.6503C140.082 34.0371 137.963 34.9006 134.107 36.7461C130.96 38.2408 130.628 38.4134 127.808 39.9003C126.756 40.4563 125.754 40.9827 125.578 41.082C125.247 41.2546 124.28 41.8082 122.964 42.5911C122.24 43.014 117.235 46.3338 114.665 48.0878C113.21 49.0829 111.427 50.4769 109.622 52.022C108.877 52.6663 108.008 53.3957 107.703 53.659C107.182 54.0887 105.758 55.3459 104.01 56.9077C103.169 57.6728 101.184 59.6774 98.9476 62.0168C98.0496 62.9608 97.0458 64.0034 96.7236 64.3234C96.4014 64.6435 95.3525 65.9026 94.3907 67.1044C93.4289 68.3062 92.0822 69.9606 91.4027 70.769C90.7233 71.5774 89.3874 73.3243 88.4159 74.6446C87.4599 75.9629 86.138 77.7629 85.4897 78.6379C84.8415 79.5129 83.8109 80.9966 83.1853 81.9314C82.5682 82.8731 81.7914 84.0527 81.4514 84.5547C80.3481 86.219 79.0176 88.3484 78.4522 89.3307C78.1466 89.8598 77.5572 90.8372 77.1444 91.5199C76.7299 92.1871 76.2117 93.0387 75.9978 93.4161C75.7821 93.7781 75.1673 94.8055 74.6219 95.6916C74.092 96.5759 73.552 97.5083 73.4248 97.758C73.3062 98.0146 73.006 98.5899 72.7462 99.0432C72.4951 99.5032 71.862 100.642 71.3546 101.586C70.8387 102.524 70.2633 103.554 70.0644 103.859C69.5835 104.628 68.5488 106.613 67.3164 109.114C66.6077 110.543 66.3433 111.091 65.6719 112.437C64.7529 114.275 62.7635 118.461 62.2995 119.51C62.066 120.054 61.7575 120.692 61.6217 120.935C61.4859 121.178 61.1946 121.831 60.9697 122.381C60.7533 122.939 60.408 123.731 60.2131 124.137C60.0096 124.537 59.5474 125.601 59.1974 126.487C58.2016 129.006 56.965 132.008 56.4183 133.285C56.2456 133.681 55.9415 134.491 55.751 135.069C55.5536 135.655 55.295 136.319 55.166 136.554C55.037 136.788 54.577 137.938 54.1515 139.114C53.726 140.291 53.2538 141.403 53.1058 141.608C52.9238 141.857 52.6439 142.07 52.1908 142.273C51.6643 142.516 51.4176 142.545 50.9014 142.474C50.5429 142.416 49.9883 142.216 49.6463 142.03C48.3846 141.329 47.6973 139.723 47.9452 138.028C48.006 137.544 48.3459 136.37 48.6801 135.415C49.0143 134.461 49.4194 133.31 49.5695 132.854C49.7282 132.405 50.024 131.658 50.2376 131.211C50.4425 130.756 50.7506 130.047 50.9147 129.644C51.0769 129.226 51.2714 128.749 51.3374 128.577C51.4187 128.403 51.7246 127.608 52.0305 126.814C52.896 124.584 53.285 123.63 53.6898 122.745C53.8879 122.299 54.316 121.279 54.6374 120.482C55.1919 119.071 55.5186 118.32 57.4539 113.938C57.9619 112.798 58.4967 111.553 58.6472 111.168C58.8062 110.789 59.187 109.899 59.5105 109.188C60.7268 106.549 60.9819 105.854 60.8947 105.575C60.8197 105.334 60.696 105.278 59.5925 104.996C56.3147 104.161 49.4958 102.914 47.2739 102.758C46.8796 102.727 46.1698 102.671 45.6966 102.634C43.6084 102.486 42.1702 102.416 40.6398 102.427C40.1086 102.428 39.2877 102.425 38.8335 102.416C37.8548 102.401 35.7227 102.679 34.8775 102.937C33.9656 103.226 32.8358 103.791 32.0215 104.381C31.0689 105.058 30.0067 106.405 29.1193 108.043C28.785 108.662 28.2142 109.598 27.8537 110.126C27.4846 110.647 27.0292 111.366 26.8203 111.719C26.6114 112.073 26.1288 112.826 25.7583 113.402C25.3878 113.978 24.8456 114.825 24.5482 115.29C24.2662 115.754 23.5915 116.804 23.0612 117.618C21.171 120.51 20.1735 122.076 19.5859 123.069C18.7775 124.448 17.0916 127.081 15.8554 128.878C15.5562 129.329 14.7966 130.522 14.1953 131.532C13.1931 133.192 12.25 134.689 10.6132 137.206C10.2818 137.715 9.76006 138.536 9.44904 139.019C9.13802 139.502 8.73423 140.261 8.55834 140.697C8.232 141.518 7.87625 143.562 7.92486 144.314C8.01914 145.593 8.9402 147.327 9.94702 148.121C10.5752 148.617 11.8365 149.247 12.4044 149.359C13.149 149.512 15.0142 149.625 15.924 149.587C17.113 149.53 19.3374 149.506 20.6537 149.536C21.2022 149.549 22.4396 149.572 23.3961 149.599C24.3525 149.625 25.7939 149.655 26.5926 149.669C27.3845 149.692 28.9582 149.785 30.071 149.878C31.1905 149.963 32.2552 150.046 32.4506 150.047C32.6392 150.055 33.4504 150.177 34.2567 150.323C35.0629 150.469 36.171 150.656 36.7199 150.739C37.586 150.862 39.6689 151.301 40.9595 151.646C42.7169 152.108 43.6146 152.368 45.6043 153.013C46.8559 153.426 48.0834 153.834 48.3358 153.921C48.808 154.084 49.6864 154.58 50.8093 155.298C51.4353 155.708 51.4353 155.708 51.4724 156.227C51.4979 156.513 51.2643 157.995 50.9485 159.511C50.4742 161.811 50.3951 162.407 50.4559 163.197C50.6081 165.039 50.9409 165.414 55.5913 169.11C57.5724 170.686 59.4261 172.176 59.6965 172.417C59.9754 172.665 61.5402 173.955 63.1634 175.278C67.0932 178.489 70.2916 181.124 72.0474 182.578C74.9568 185.013 76.6851 186.432 79.9573 189.097C85.9129 193.934 87.2798 195.068 88.8585 196.411C90.6456 197.933 91.0547 198.157 92.3654 198.407C93.5972 198.65 94.7959 198.476 96.5762 197.793C97.3988 197.476 98.4949 197.024 99.0215 196.781C100.319 196.18 100.264 196.179 100.733 196.647C102.694 198.655 104.323 201.173 106.204 205.107C107.126 207.052 108.06 209.567 109.401 213.761C109.882 215.275 110.356 216.727 110.441 216.99C110.518 217.247 110.659 217.722 110.743 218.04C110.827 218.359 110.995 218.925 111.11 219.31C111.223 219.679 111.372 220.287 111.453 220.645C111.518 221.004 111.706 221.74 111.847 222.286C111.996 222.823 112.24 223.842 112.375 224.537C112.526 225.23 112.739 226.182 112.858 226.668C112.984 227.145 113.169 227.991 113.264 228.542C113.453 229.559 113.908 231.319 114.099 231.749C114.652 233.012 116.128 234.61 117.248 235.171C119.147 236.109 121.225 235.899 123.295 234.549C124.623 233.678 125.21 233.147 129.945 228.452C131.178 227.226 132.439 225.98 132.75 225.693C133.076 225.404 133.984 224.482 134.778 223.652C136.263 222.106 138.664 219.716 139.048 219.388C139.169 219.288 139.589 218.862 139.994 218.454C140.391 218.039 141.067 217.395 141.469 217.027C141.878 216.649 142.874 215.67 143.677 214.847C145.63 212.831 147.111 211.324 148.253 210.195C148.771 209.679 149.588 208.839 150.068 208.336C150.549 207.833 151.328 207.004 151.808 206.501C152.595 205.68 152.737 205.483 153.314 204.398C153.985 203.121 154.116 202.637 154.286 200.74C154.427 199.199 153.819 195.191 152.912 191.563C152.683 190.668 152.457 189.804 152.398 189.631C150.097 182.691 149.066 180.086 147.448 177.059C147.138 176.479 146.818 175.946 146.74 175.885C146.525 175.716 146.154 175.885 145.27 176.546C144.838 176.863 143.966 177.492 143.315 177.945C142.665 178.398 141.897 178.982 141.6 179.253C141.056 179.748 138.552 181.595 137.751 182.098C137.503 182.253 136.81 182.742 136.197 183.183C134.995 184.069 132.91 185.492 132.094 185.996C131.817 186.17 131.247 186.574 130.831 186.89C130 187.537 127.91 188.983 127.071 189.498C126.072 190.11 124.101 191.37 121.444 193.111C120.006 194.049 118.518 194.962 118.147 195.132C117.76 195.303 116.963 195.5 116.3 195.58C115.368 195.699 115 195.689 114.464 195.518C112.856 194.992 111.855 193.517 112.063 191.944C112.135 191.357 112.309 191.172 113.306 190.544C118.128 187.528 125.671 182.583 127.566 181.207C128.401 180.591 130.253 179.251 131.68 178.22C136.402 174.817 136.762 174.555 138.534 173.194C139.503 172.46 140.606 171.593 140.983 171.274C141.369 170.962 141.817 170.588 141.981 170.451C143.694 169.058 147.94 165.462 149.129 164.397C149.446 164.101 150.006 163.604 150.374 163.278C150.743 162.953 151.266 162.483 151.543 162.239C151.819 161.995 152.329 161.543 152.677 161.244C153.252 160.745 155.673 158.454 158.935 155.327C159.594 154.685 160.508 153.809 160.972 153.363C161.436 152.917 162.065 152.278 162.37 151.945C162.683 151.618 163.137 151.149 163.384 150.924C163.984 150.376 165.417 148.859 166.724 147.397C167.312 146.741 168.509 145.417 169.39 144.459C172.322 141.255 173.586 139.759 176.321 136.273C177.819 134.374 179.245 132.53 179.487 132.188C181.466 129.395 182.618 127.741 183.1 126.987C183.411 126.504 183.937 125.714 184.265 125.245C184.593 124.776 185.067 124.015 185.318 123.555C186.313 121.763 186.552 121.336 187.033 120.497C187.968 118.868 189.443 116.096 189.926 115.077C190.188 114.514 190.51 113.857 190.655 113.621C191.025 112.975 192.829 108.741 193.896 106.025C194.271 105.089 194.665 104.112 194.792 103.862C195.131 103.149 195.588 101.703 197.016 96.7242C197.216 96.028 197.551 94.8778 197.757 94.1575C197.962 93.4371 198.332 91.9231 198.561 90.8012C198.797 89.6707 199.069 88.4576 199.175 88.0932C199.273 87.7219 199.441 86.8184 199.542 86.0715C199.642 85.3246 199.81 84.2804 199.927 83.7427C200.139 82.7479 200.63 79.0462 200.786 77.4327C200.858 76.5798 200.952 75.2395 201.088 73.1204C201.127 72.6467 201.183 71.6549 201.239 70.929C201.286 70.1963 201.305 69.4827 201.273 69.3458C201.25 69.2156 201.246 68.7783 201.277 68.3682C201.3 67.9667 201.323 67.4949 201.319 67.3234C201.306 67.1451 201.315 66.6203 201.321 66.1349C201.344 65.2566 201.352 64.4505 201.353 61.9174C201.358 61.1508 201.305 59.6952 201.233 58.6719C201.161 57.6487 201.098 56.4367 201.081 55.9618C201.067 55.5023 200.989 54.3625 200.914 53.449C200.823 52.5374 200.669 50.6796 200.549 49.3104C200.236 45.6189 200 43.9351 199.322 40.5297C199.132 39.5675 198.751 38.1747 198.228 36.5018C197.897 35.4705 196.542 32.4979 196.062 31.7971C195.692 31.2394 194.561 29.9131 194.032 29.3979C193.004 28.4188 192.771 28.2355 191.994 27.7345ZM160.789 71.5125C161.36 72.2571 162.016 73.7265 162.28 74.8595C162.407 75.4073 162.583 76.5823 162.673 77.4939C163.072 81.519 163.535 85.6929 163.975 89.2049C164.647 94.6358 164.623 95.5689 163.778 97.9685C163.372 99.1193 162.345 100.564 161.376 101.367C160.091 102.413 159.465 102.605 155.987 103.068C148.291 104.084 138.833 105.138 137.957 105.063C136.868 104.975 135.512 104.605 134.648 104.162C132.795 103.219 131.256 101.347 130.713 99.364C130.528 98.7139 129.685 90.9503 129.41 87.4421C129.317 86.2492 129.114 84.1003 128.969 82.6558C128.469 78.0329 128.802 76.1951 130.505 74.0369C131.371 72.9559 131.954 72.4639 133.042 71.935C134.151 71.3957 134.834 71.2201 136.795 70.9462C137.733 70.8182 139.432 70.5757 140.56 70.4014C142.625 70.0838 143.819 69.933 151.139 69.1111C155.034 68.6682 155.049 68.6663 156.322 68.9282C157.019 69.0715 157.877 69.3283 158.235 69.5122C159.104 69.9319 160.3 70.8752 160.789 71.5125Z" fill="currentColor"/>
<path d="M48.7079 172.084C47.9356 171.558 47.5064 171.43 46.3561 171.349C45.4269 171.288 44.7268 171.45 43.9462 171.927C43.4423 172.229 43.1936 172.509 41.6068 174.451C40.6295 175.654 39.2434 177.306 38.5349 178.133C37.8265 178.961 36.689 180.332 36.015 181.187L34.7894 182.74L34.5904 183.648C34.2642 185.141 34.4553 186.58 35.131 187.617C35.646 188.415 38.6264 190.99 44.5078 195.726C50.1655 200.286 55.7307 204.858 61.7388 209.876C62.3103 210.355 64.727 212.317 67.0921 214.238C70.3471 216.89 71.5138 217.782 71.8677 217.935C73.0117 218.431 74.9378 218.396 76.2049 217.869C76.8991 217.59 77.0425 217.479 77.9542 216.518C78.4961 215.937 79.5744 214.729 80.3373 213.833C81.1003 212.936 81.9517 211.927 82.2277 211.613C82.5104 211.29 83.5048 210.1 84.4584 208.961L86.1954 206.901L86.3995 205.969C86.711 204.619 86.4578 203.117 85.7625 202.246C85.6606 202.11 83.724 200.513 81.4554 198.681C75.4966 193.884 71.0264 190.26 68.9503 188.539C61.9423 182.717 59.7992 180.957 55.0848 177.183C52.1708 174.843 49.7025 172.84 49.5888 172.736C49.482 172.624 49.0811 172.336 48.7079 172.084Z" fill="currentColor"/>
</g>
<defs>
<clipPath id="clip0_8377_6616">
<rect width="231" height="231" fill="currentColor"/>
</clipPath>
</defs>
</svg>
