<svg width="31" height="27" viewBox="0 0 31 27" fill="none" xmlns="http://www.w3.org/2000/svg">
<path d="M26.9042 0.119343C25.1161 0.430912 23.0623 1.32967 21.2693 2.58515L9.56881 10.7779C9.178 10.6515 8.79176 10.5909 8.42514 10.6021L16.8785 4.68299C9.99655 7.65519 6.56435 3.60378 1.51018 7.14274L5.18094 12.3854L4.52562 12.8443L0.854733 7.60169C-0.231053 8.36197 -0.289469 10.1519 0.724213 11.5996L2.55966 14.2208C1.60956 14.8861 1.53672 15.5495 1.93731 16.1216L3.08446 17.7599C3.48548 18.3326 4.13396 18.4899 5.08339 17.8251L5.54226 18.4804C4.59216 19.1457 4.51932 19.809 4.9199 20.3811L6.06706 22.0194C6.46807 22.5922 7.11655 22.7495 8.06599 22.0847L9.90144 24.706C10.9151 26.1537 12.6171 26.711 13.7028 25.9507L10.032 20.7081L10.6873 20.2493L14.3582 25.4918C19.4123 21.9529 16.7793 17.3419 21.926 11.8915L13.4726 17.8107C13.6085 17.47 13.6837 17.0863 13.6985 16.6758L25.399 8.48304C27.192 7.22757 28.7391 5.605 29.6434 4.03129C30.46 2.61039 30.6737 1.37105 30.215 0.716053C29.7564 0.0610586 28.5187 -0.162026 26.9042 0.119343ZM25.1366 6.71354C25.0497 6.77439 24.9422 6.79822 24.8378 6.7798C24.7333 6.76138 24.6404 6.70221 24.5796 6.61531L22.7441 3.99402C22.6833 3.90712 22.6594 3.79961 22.6778 3.69513C22.6963 3.59066 22.7554 3.49778 22.8423 3.43693C24.1493 2.52182 26.4449 5.79748 25.1366 6.71354Z" fill="currentColor"/>
</svg>




