<svg width="11" height="11" viewBox="0 0 11 11" fill="none" xmlns="http://www.w3.org/2000/svg">
<path fill-rule="evenodd" clip-rule="evenodd" d="M5.30354 0.00267322C5.28704 0.00546922 5.23574 0.0138212 5.18954 0.0212252C5.00719 0.0504692 4.14782 0.362745 3.57554 0.607713C2.67427 0.993513 1.67546 1.53467 0.769798 2.12786C0.467314 2.32598 0.33355 2.469 0.219178 2.71655C0.13627 2.89597 0.114946 3.02885 0.0654818 3.67389C-0.0129142 4.6964 -0.0212422 5.82989 0.0422498 6.83589C0.0682178 7.24747 0.117334 7.77873 0.137218 7.8632C0.17323 8.01619 0.243262 8.17161 0.33397 8.29989C0.465046 8.48524 0.59407 8.58352 1.18754 8.95003C2.35065 9.66832 3.34646 10.1539 4.54051 10.5851C5.09545 10.7855 5.1881 10.8096 5.4039 10.8092C5.61158 10.8088 5.70637 10.784 6.25754 10.5853C7.43251 10.1618 8.46922 9.65623 9.61154 8.94978C10.2034 8.58375 10.2906 8.51989 10.4203 8.35779C10.5391 8.2094 10.627 8.02504 10.6674 7.83996C10.6974 7.70269 10.7629 6.83078 10.7874 6.24189C10.8029 5.87207 10.8029 4.99284 10.7875 4.62189C10.7608 3.9803 10.6954 3.12236 10.6606 2.95989C10.6047 2.69831 10.4493 2.4446 10.2436 2.2791C10.1181 2.17812 9.6084 1.85432 9.16754 1.59548C8.45997 1.18005 7.71362 0.808737 6.97927 0.506817C6.51002 0.313893 5.80509 0.0611012 5.63709 0.0254972C5.55252 0.00758124 5.35459 -0.00596678 5.30354 0.00267322ZM5.07554 0.954777C4.71515 1.08053 4.31814 1.23068 4.12283 1.31513L4.06411 1.34052L4.44083 1.53033C5.37152 1.99927 6.36769 2.58467 7.34621 3.23767C7.52397 3.3563 7.67629 3.45601 7.68469 3.45922C7.69824 3.46442 9.26657 2.71955 9.2916 2.69603C9.30714 2.68142 8.82236 2.38644 8.34554 2.12035C8.02326 1.94049 7.33733 1.5996 7.01954 1.46136C6.57146 1.26642 6.11868 1.09022 5.67741 0.939069C5.40577 0.846021 5.38577 0.846549 5.07554 0.954777ZM2.81954 1.92314C2.48311 2.09751 1.93521 2.41178 1.59336 2.62647L1.48916 2.69191L3.43347 3.6269C4.50284 4.14115 5.38415 4.56341 5.39192 4.56524C5.40254 4.56776 6.77195 3.91793 6.78883 3.90235C6.79064 3.90068 6.69614 3.83719 6.57883 3.76124C5.85894 3.29522 5.14839 2.87457 4.46907 2.51225C4.06669 2.29763 3.17011 1.86786 3.04154 1.82797C3.02501 1.82285 2.95593 1.85246 2.81954 1.92314ZM0.943342 3.48448C0.82933 4.86459 0.828922 6.02785 0.942022 7.32189C0.958162 7.50669 0.97687 7.6774 0.983578 7.70125C0.99883 7.75551 1.05038 7.83205 1.09754 7.87046C1.15083 7.91387 1.58916 8.19046 1.89986 8.37675C2.84961 8.9462 3.75296 9.38094 4.72754 9.7376C4.83644 9.77745 4.935 9.81375 4.94654 9.81826C4.9665 9.82605 4.96753 9.71431 4.96725 7.57218L4.96697 5.31789L2.96889 4.35789C1.86995 3.82989 0.96637 3.39636 0.960934 3.39448C0.95551 3.3926 0.94759 3.4331 0.943342 3.48448ZM9.07763 3.75746C8.66187 3.95779 8.31499 4.12625 8.30677 4.13179C8.29496 4.13978 8.29673 4.17961 8.31518 4.32189C8.3684 4.73195 8.3754 4.88835 8.37547 5.66844C8.37554 6.40274 8.37512 6.41612 8.34978 6.48386C8.31329 6.5814 8.20292 6.69165 8.10631 6.7271C8.01098 6.76207 7.88828 6.76231 7.79581 6.72771C7.70681 6.69441 7.61085 6.60637 7.56506 6.51599L7.52954 6.44589L7.52195 5.66589C7.51777 5.23689 7.50849 4.83189 7.50132 4.76589C7.48008 4.57049 7.47362 4.5305 7.46391 4.53429C7.45885 4.53627 7.08961 4.71339 6.64338 4.92789L5.83206 5.31789L5.83181 7.57062L5.83154 9.82334L5.98135 9.77019C6.74757 9.49838 7.61631 9.10366 8.35445 8.69197C8.79097 8.4485 9.59042 7.96097 9.70154 7.87046C9.7487 7.83205 9.80025 7.75551 9.81551 7.70125C9.82221 7.6774 9.84092 7.50669 9.85706 7.32189C9.96461 6.09132 9.96865 4.8984 9.86943 3.66801C9.85959 3.54597 9.85154 3.43393 9.85154 3.41901C9.85154 3.4041 9.8475 3.39219 9.84254 3.39257C9.83759 3.39293 9.49338 3.55713 9.07763 3.75746Z" fill="white"/>
</svg>
