<svg
  width="24"
  height="24"
  viewBox="0 0 24 24"
  fill="none"
  xmlns="http://www.w3.org/2000/svg"
>
  <path
    d="M12.899 1.09636C13.5993 0.770112 14.4126 0.690665 15.2503 0.956573C15.8321 1.14132 16.396 1.48509 16.9345 1.98364C17.473 1.48488 18.0375 1.14137 18.6194 0.956573C19.4571 0.690671 20.2705 0.770122 20.9707 1.09636C22.3325 1.73094 23.1834 3.24227 23.2057 4.75094C23.2057 4.75503 23.2057 4.7594 23.2057 4.76349C23.2056 6.9275 21.9246 8.80073 20.6317 10.0771C19.9733 10.7271 19.2765 11.2585 18.663 11.6324C18.3567 11.8189 18.0593 11.9729 17.7883 12.0835C17.5388 12.1853 17.2326 12.2836 16.9345 12.2836C16.6365 12.2835 16.3309 12.1853 16.0815 12.0835C15.8103 11.9729 15.5124 11.8191 15.2059 11.6324C14.5924 11.2585 13.8964 10.727 13.238 10.0771C11.9451 8.80073 10.6642 6.92749 10.6641 4.76349C10.6641 4.7594 10.664 4.75503 10.6641 4.75094C10.6864 3.24228 11.5372 1.73094 12.899 1.09636ZM20.2467 2.64993C19.9251 2.50017 19.5551 2.45823 19.1384 2.5905C18.7101 2.7265 18.1777 3.06587 17.5991 3.77577C17.4363 3.97534 17.192 4.09134 16.9345 4.09134C16.6771 4.09122 16.4334 3.97522 16.2707 3.77577C15.6921 3.06587 15.1597 2.72649 14.7313 2.5905C14.3146 2.45823 13.9446 2.50016 13.6231 2.64993C12.9424 2.96712 12.3945 3.82291 12.3784 4.77019C12.3812 6.26318 13.2884 7.71896 14.4417 8.85752C15.0073 9.41591 15.5997 9.86462 16.0982 10.1683C16.3476 10.3203 16.5622 10.4286 16.7285 10.4965C16.8424 10.5429 16.9089 10.559 16.9345 10.5651C16.9595 10.5592 17.0256 10.5433 17.1404 10.4965C17.3068 10.4286 17.5219 10.3204 17.7715 10.1683C18.27 9.86462 18.8624 9.41591 19.428 8.85752C20.5813 7.71896 21.4877 6.26317 21.4905 4.77019C21.4744 3.82292 20.9274 2.96712 20.2467 2.64993Z"
    fill="white"
  />
  <path
    d="M3.00915 10.5279C4.40706 10.4414 5.8103 10.5717 7.16847 10.9138L9.05268 11.3884C10.4891 11.7501 11.4425 13.1116 11.291 14.5851C11.2362 15.1169 11.0444 15.5992 10.7569 16.0039L12.4176 16.3019L18.7357 14.8027C20.2379 14.4464 21.7507 15.3513 22.1467 16.8434C22.5144 18.2294 21.7944 19.6735 20.4659 20.2134H20.4651L15.272 22.3228C12.5516 23.4281 9.52048 23.4978 6.75246 22.5178L1.36769 20.6119C0.921585 20.4539 0.688432 19.964 0.846205 19.5178C1.00419 19.0716 1.49399 18.8375 1.94023 18.9955L7.32416 20.9015C9.69667 21.7415 12.2949 21.6822 14.6266 20.7349L19.8205 18.6247C20.3492 18.4096 20.6356 17.8354 20.4893 17.2837C20.3317 16.6896 19.7298 16.3292 19.1316 16.471L12.6386 18.012C12.5242 18.0391 12.4053 18.0419 12.2896 18.0212L6.02171 16.897C5.5559 16.8134 5.24607 16.3684 5.32946 15.9026C5.41288 15.4367 5.858 15.1263 6.32388 15.2095L8.10179 15.5276C8.82732 15.6571 9.50962 15.1425 9.58504 14.4093C9.64943 13.783 9.24467 13.2046 8.63415 13.0508L6.74994 12.5761C5.56314 12.2772 4.33699 12.1632 3.11546 12.2388L1.98041 12.3091C1.50793 12.3384 1.10144 11.9789 1.07221 11.5064C1.04304 11.034 1.4025 10.6274 1.87494 10.5982L3.00915 10.5279Z"
    fill="white"
  />
</svg>
