<svg width="21" height="17" viewBox="0 0 21 17" fill="none" xmlns="http://www.w3.org/2000/svg">
<path d="M5.11958 1.17082C5.23932 0.802295 5.76068 0.802296 5.88042 1.17082L6.19599 2.14205C6.24954 2.30686 6.40313 2.41844 6.57642 2.41844H7.59763C7.98511 2.41844 8.14622 2.91429 7.83274 3.14205L7.00656 3.7423C6.86637 3.84416 6.80771 4.0247 6.86126 4.18951L7.17683 5.16074C7.29657 5.52926 6.87477 5.83571 6.56129 5.60795L5.73511 5.0077C5.59492 4.90584 5.40508 4.90584 5.26489 5.0077L4.43871 5.60795C4.12522 5.83571 3.70343 5.52926 3.82317 5.16074L4.13874 4.18951C4.19229 4.0247 4.13363 3.84416 3.99344 3.7423L3.16726 3.14205C2.85378 2.91429 3.01489 2.41844 3.40238 2.41844H4.42358C4.59687 2.41844 4.75046 2.30686 4.80401 2.14205L5.11958 1.17082Z" fill="white"/>
<path d="M13.6196 12.1708C13.7393 11.8023 14.2607 11.8023 14.3804 12.1708L14.5837 12.7966C14.6373 12.9614 14.7909 13.0729 14.9642 13.0729H15.6221C16.0096 13.0729 16.1707 13.5688 15.8572 13.7966L15.3249 14.1833C15.1847 14.2851 15.1261 14.4657 15.1796 14.6305L15.3829 15.2562C15.5027 15.6248 15.0809 15.9312 14.7674 15.7034L14.2351 15.3167C14.0949 15.2149 13.9051 15.2149 13.7649 15.3167L13.2326 15.7034C12.9191 15.9312 12.4973 15.6248 12.6171 15.2562L12.8204 14.6305C12.8739 14.4657 12.8153 14.2851 12.6751 14.1833L12.1428 13.7966C11.8293 13.5688 11.9904 13.0729 12.3779 13.0729H13.0358C13.2091 13.0729 13.3627 12.9614 13.4163 12.7966L13.6196 12.1708Z" fill="white"/>
<circle cx="1" cy="11" r="1" fill="white"/>
<circle cx="14" cy="7" r="1" fill="white"/>
<circle cx="20" cy="2" r="1" fill="white"/>
</svg>
