<svg width="27" height="27" viewBox="0 0 27 27" fill="none" xmlns="http://www.w3.org/2000/svg">
<path fill-rule="evenodd" clip-rule="evenodd" d="M11.995 0.0257508C9.47521 0.174319 7.33226 0.758847 5.60653 1.76833C3.9738 2.72341 2.72444 3.97277 1.76936 5.60551C0.364455 8.00721 -0.233569 11.2996 0.0825512 14.892C0.266427 16.9812 0.869575 19.0002 1.76936 20.5384C2.72309 22.1689 3.97556 23.4216 5.60499 24.3747C8.00787 25.7803 11.3321 26.3831 14.907 26.0616C17.0067 25.8727 19.0006 25.2758 20.541 24.3747C22.7168 23.102 24.2726 21.2408 25.1912 18.812C26.0928 16.4282 26.3765 13.3467 25.964 10.416C25.4097 6.47709 23.5672 3.53944 20.541 1.76923C18.542 0.599891 15.9056 -0.0176212 12.989 0.000382775C12.6425 0.00253877 12.1952 0.0139348 11.995 0.0257508ZM12.093 2.02839C12.0237 2.03405 11.7906 2.05261 11.575 2.06964C9.44432 2.23789 7.49379 2.87002 6.04498 3.86181C4.0994 5.19368 2.83249 7.25062 2.29517 9.94996C2.08993 10.9811 2.02698 11.7137 2.02698 13.072C2.02698 13.7683 2.04048 14.318 2.06344 14.556C2.2402 16.3881 2.60597 17.7628 3.26696 19.0795C4.30949 21.156 6.02087 22.6192 8.33844 23.4154C9.3335 23.7572 10.3171 23.9588 11.589 24.0815C12.0969 24.1305 14.0491 24.1305 14.557 24.0815C17.1507 23.8313 19.0723 23.1345 20.6443 21.8745C22.458 20.4206 23.6125 18.1702 23.9895 15.354C24.1023 14.5118 24.1183 14.2281 24.1183 13.072C24.1183 12.3498 24.1051 11.8057 24.082 11.574C23.8982 9.72853 23.5373 8.37574 22.879 7.06445C21.8365 4.98788 20.1251 3.52471 17.8075 2.72853C16.8435 2.39735 15.9341 2.20572 14.725 2.07899C14.3449 2.03917 12.4156 2.00207 12.093 2.02839ZM17.5311 7.44634C17.3314 7.48064 17.2134 7.54568 16.965 7.75815C16.6652 8.01457 15.7002 8.9615 15.3016 9.39038C13.7261 11.0858 12.6165 12.8824 11.6181 15.3541L11.4145 15.8582L10.9606 15.3961C10.7109 15.1419 10.1926 14.6089 9.80883 14.2115C9.425 13.8142 9.04692 13.4463 8.9686 13.3941C8.78635 13.2725 8.61799 13.231 8.36285 13.2447C7.64723 13.2834 7.21555 14.0498 7.54419 14.6983C7.59366 14.796 8.11928 15.3561 9.40493 16.6811C11.3402 18.6756 11.3027 18.642 11.6534 18.6991C12.0496 18.7635 12.4789 18.5646 12.6595 18.2327C12.7007 18.1571 12.8349 17.8186 12.9577 17.4806C13.5326 15.8985 14.0218 14.7775 14.5686 13.7893C15.437 12.2198 16.2952 11.1611 18.1029 9.42963C18.5404 9.01056 18.5883 8.95512 18.6455 8.80196C18.7241 8.59123 18.7292 8.27329 18.657 8.08785C18.4758 7.62268 18.019 7.36245 17.5311 7.44634Z" fill="#00C950"/>
</svg>
