<svg width="28" height="28" viewBox="0 0 28 28" fill="none" xmlns="http://www.w3.org/2000/svg">
<path d="M20.1153 0C18.9951 0.0104833 17.8811 0.168823 16.8024 0.470915L16.726 0.493824C16.0468 0.377357 15.3596 0.313108 14.6705 0.30164C13.254 0.277458 12.0359 0.610917 11.0559 1.16711C10.0886 0.841283 8.0828 0.280003 5.96878 0.392005C4.49621 0.469642 2.89001 0.903648 1.7 2.12294C0.512525 3.34222 -0.114937 5.22843 0.0174283 7.79555C0.0530651 8.50447 0.260522 9.65885 0.606708 11.1556C0.950349 12.6511 1.43654 14.4011 2.04109 15.9984C2.64564 17.5957 3.30874 19.0326 4.34476 20.0075C4.86149 20.4963 5.57295 20.9074 6.41169 20.873C7.00097 20.8501 7.53425 20.5993 7.99371 20.229C8.21771 20.5153 8.45699 20.6401 8.67463 20.7559C8.94827 20.901 9.21554 21.0003 9.49173 21.0664C10.2565 21.2626 11.0531 21.302 11.8336 21.1823C12.1734 21.1275 12.531 21.0206 12.8874 20.8679C12.9001 21.2523 12.9154 21.629 12.932 22.0108C12.9803 23.2199 13.0121 24.3361 13.3863 25.3149C13.4461 25.4752 13.6103 26.2987 14.2607 27.0254C14.9098 27.7534 16.1825 28.2065 17.6309 27.9062C18.6529 27.6936 19.9537 27.3105 20.8166 26.1192C21.6693 24.9407 22.055 23.2505 22.1313 20.5077C22.1504 20.3601 22.1733 20.2341 22.1975 20.1157L22.4012 20.1335H22.4241C23.5148 20.1819 24.6985 20.0317 25.6874 19.5862C26.563 19.1917 27.2249 18.7946 27.7072 18.0882C27.8281 17.9139 27.9605 17.7026 27.9961 17.3373C28.0318 16.9746 27.818 16.4044 27.4603 16.1422C26.7438 15.6153 26.2945 15.8151 25.8121 15.9131C25.337 16.0149 24.855 16.0714 24.3663 16.0824C25.7574 13.8118 26.7539 11.3987 27.3229 9.26303C27.6589 8.00301 27.8485 6.84099 27.8638 5.82535C27.8791 4.8097 27.7938 3.90987 27.1663 3.13095C25.205 0.700009 22.447 0.0280003 20.3139 0.00509091C20.2477 0.00339392 20.1815 0.00296976 20.1153 0.00381826V0ZM20.0593 0.7471C22.0766 0.728009 24.6552 1.27783 26.5058 3.57259C26.9219 4.08805 27.0454 4.84152 27.0314 5.77062C27.0161 6.69845 26.8392 7.80828 26.5159 9.02502C25.8885 11.3821 24.7023 14.1287 23.0312 16.5953C23.0905 16.6364 23.1546 16.6702 23.2221 16.6958C23.5708 16.8358 24.365 16.9555 25.9521 16.6398C26.3505 16.5571 26.6432 16.5024 26.9461 16.7264C27.0186 16.7866 27.0762 16.8627 27.1144 16.9488C27.1526 17.0349 27.1704 17.1286 27.1663 17.2228C27.1495 17.3649 27.0955 17.5001 27.0098 17.6148C26.7043 18.0615 26.0985 18.4853 25.3221 18.8341C24.6361 19.1446 23.651 19.3062 22.7779 19.3164C22.3401 19.3202 21.9366 19.2872 21.5942 19.1841L21.5713 19.1764C21.439 20.4123 21.1348 22.8547 20.9375 23.9683C20.7784 24.8669 20.501 25.5809 19.9702 26.1154C19.4408 26.65 18.6924 26.972 17.6844 27.182C16.4358 27.4416 15.5258 27.1616 14.9391 26.6818C14.3536 26.2045 14.0851 25.5694 13.9234 25.18C13.8127 24.9127 13.7554 24.5652 13.6994 24.1007C13.6378 23.5445 13.5967 22.9862 13.576 22.427C13.5394 21.4466 13.5275 20.4654 13.5403 19.4844C13.0185 19.9464 12.3694 20.2544 11.6732 20.3703C10.8459 20.5064 10.1052 20.3728 9.66355 20.2659C9.44703 20.2125 9.23767 20.1335 9.03991 20.0304C8.83372 19.9248 8.63899 19.8052 8.50917 19.5684C8.43268 19.4333 8.40824 19.2749 8.44044 19.123C8.48212 18.9687 8.57446 18.8328 8.70263 18.7373C8.9419 18.549 9.25627 18.4446 9.73101 18.3479C10.5965 18.176 10.8981 18.0577 11.0814 17.9164C11.2379 17.7955 11.4148 17.5511 11.7279 17.1909L11.7241 17.1439C11.1661 17.1275 10.6191 16.9847 10.1243 16.7264C9.94483 16.9097 9.02336 17.8553 7.89953 19.1662C7.42734 19.7148 6.90552 20.0292 6.35442 20.0521C5.80332 20.075 5.30568 19.8052 4.88313 19.4081C4.03675 18.6113 3.3622 17.2406 2.77419 15.6917C2.18873 14.1415 1.71018 12.4156 1.37163 10.9456C1.03053 9.47557 0.829439 8.29065 0.801438 7.71919C0.674164 5.28952 1.25963 3.65277 2.26509 2.62058C3.27056 1.58838 4.64767 1.19638 5.99169 1.12256C8.40226 0.987649 10.6919 1.80348 11.1552 1.97912C12.0474 1.39111 13.1967 1.02456 14.6336 1.04747C15.3147 1.05694 15.9926 1.14232 16.6547 1.30202L16.6789 1.29183C16.9708 1.19256 17.2669 1.10941 17.5673 1.04238C18.385 0.857808 19.2198 0.759692 20.058 0.749646L20.0593 0.7471ZM20.2413 1.52856H20.067C19.3783 1.53784 18.6922 1.61285 18.0178 1.75257C19.3564 2.33558 20.5325 3.23644 21.4441 4.37696C21.9963 5.05928 22.4543 5.8127 22.8059 6.61699C22.9383 6.925 23.0274 7.18591 23.077 7.387C23.1024 7.48882 23.1203 7.57409 23.1254 7.66319C23.1301 7.71958 23.1253 7.77636 23.1114 7.83119L23.1037 7.84646C23.1406 8.86847 22.8797 9.56085 22.8479 10.5358C22.8237 11.2434 23.0095 12.0745 23.0554 12.9794C23.0986 13.8322 22.993 14.7676 22.4228 15.6866C22.4703 15.7426 22.5161 15.7986 22.5603 15.8546C24.0685 13.5509 25.1567 11.0003 25.7358 8.82775C26.045 7.65682 26.2105 6.59663 26.2245 5.75662C26.2372 4.91661 26.0756 4.30696 25.8694 4.05369C24.2556 2.05166 22.0728 1.54256 20.2413 1.52856ZM14.4822 1.82639C13.0605 1.82893 12.0398 2.24639 11.2672 2.87004C10.4692 3.51532 9.93464 4.39733 9.58337 5.30225C9.24335 6.20658 9.03546 7.15519 8.96609 8.11883L8.98263 8.10992C9.41155 7.87574 9.97537 7.64282 10.5787 7.50791C11.1832 7.373 11.8336 7.331 12.4229 7.55246C13.0121 7.77392 13.4996 8.29574 13.6765 9.08739C14.5229 12.8878 13.4131 14.3005 13.0032 15.3658C12.8495 15.7525 12.7169 16.1472 12.6061 16.5482C12.657 16.5338 12.7084 16.5236 12.7601 16.5177C12.9837 16.5056 13.2068 16.5493 13.4092 16.6449C13.8216 16.8104 14.1042 17.1566 14.2569 17.5537C14.2968 17.6589 14.3252 17.7692 14.3422 17.8846C14.3591 17.933 14.3672 17.9826 14.3663 18.0335C14.3206 19.4867 14.3257 20.9411 14.3816 22.3939C14.4096 23.0227 14.4503 23.575 14.5025 24.0116C14.5534 24.4469 14.6272 24.7778 14.6743 24.8898C14.8271 25.264 15.0523 25.7527 15.4596 26.0849C15.8669 26.4171 16.4485 26.6372 17.5138 26.4158C18.4378 26.2236 19.008 25.9576 19.3899 25.572C19.7691 25.1889 19.997 24.6556 20.142 23.8372C20.3597 22.6116 20.7975 19.0593 20.8497 18.3899C20.8268 17.8871 20.9031 17.4989 21.0686 17.2037C21.2404 16.9008 21.5052 16.7149 21.733 16.6144C21.8475 16.5635 21.9544 16.5304 22.0423 16.5062C21.9487 16.3768 21.851 16.2503 21.7495 16.1269C21.4204 15.7419 21.1506 15.3099 20.949 14.8453C20.8518 14.6541 20.7487 14.4661 20.6397 14.2815C20.4806 14.0014 20.2782 13.6514 20.067 13.2582C19.6431 12.4703 19.1824 11.5158 18.9431 10.5854C18.7051 9.65758 18.6695 8.69665 19.2804 8.01828C19.8226 7.41628 20.7721 7.16682 22.1988 7.30682C22.1568 7.18464 22.1313 7.08282 22.0601 6.9199C21.7381 6.18043 21.3172 5.4881 20.809 4.86188C19.5999 3.36259 17.6437 1.87602 14.6196 1.82766H14.4822V1.82639ZM6.49442 1.88621C6.34169 1.88621 6.18896 1.89045 6.03623 1.89893C4.82203 1.96639 3.67402 2.30876 2.8531 3.15386C2.02964 3.99769 1.48872 5.38243 1.60581 7.67591C1.62999 8.10865 1.82472 9.32539 2.15818 10.7687C2.49164 12.2145 2.9651 13.9136 3.53275 15.4142C4.10039 16.916 4.79022 18.2231 5.44441 18.8417C5.77405 19.151 6.06041 19.2757 6.32005 19.2655C6.58097 19.2528 6.89406 19.1077 7.27843 18.661C7.97843 17.8418 8.70426 17.0451 9.45482 16.272C8.92451 15.8273 8.51626 15.2548 8.26862 14.6085C8.023 13.9684 7.94843 13.2753 8.05226 12.5976C8.17571 11.7347 8.19226 10.9278 8.17826 10.2914C8.16299 9.6703 8.11717 9.25793 8.11717 8.99957V8.96393C8.11586 7.61881 8.35686 6.28446 8.82863 5.02479C9.16463 4.15678 9.6661 3.27477 10.4183 2.56076C9.6801 2.3253 8.36917 1.96639 6.95006 1.89893C6.79747 1.89076 6.64469 1.88652 6.49187 1.88621H6.49442ZM21.4033 8.04883C20.5875 8.05901 20.1293 8.26392 19.8888 8.5312C19.5477 8.91048 19.5159 9.57485 19.7271 10.3945C19.9384 11.2141 20.3724 12.1318 20.7822 12.8929C20.9859 13.2747 21.1844 13.6184 21.3448 13.8958C21.5064 14.1758 21.6248 14.3744 21.6961 14.5449C21.7639 14.6985 21.8352 14.8389 21.9099 14.9662C22.2255 14.3184 22.2828 13.6833 22.2497 13.0202C22.2077 12.2005 22.0117 11.3618 22.041 10.5129C22.0728 9.52012 22.2752 8.87229 22.293 8.10483C21.9978 8.06886 21.7007 8.05016 21.4033 8.04883ZM11.5014 8.18247C11.2521 8.18436 11.0037 8.21338 10.7607 8.26901C10.2775 8.38294 9.81111 8.55921 9.37336 8.79338C9.22657 8.86975 9.08657 8.95842 8.95336 9.05939L8.92791 9.0823C8.93554 9.25284 8.96991 9.66648 8.98518 10.2736C8.99791 10.9392 8.98263 11.7881 8.85027 12.7045C8.56263 14.7002 10.0543 16.3522 11.8081 16.3548C11.9099 15.9449 12.0792 15.53 12.2472 15.0922C12.736 13.8156 13.6969 12.8853 12.8874 9.25157C12.755 8.6572 12.4929 8.41665 12.1314 8.28047C11.929 8.21019 11.7156 8.17699 11.5014 8.18247ZM21.0215 8.42047H21.0826C21.1624 8.42301 21.2345 8.4315 21.299 8.44592C21.3575 8.45769 21.4135 8.47966 21.4644 8.51083C21.4876 8.52448 21.5076 8.54288 21.5232 8.56481C21.5388 8.58675 21.5495 8.61172 21.5548 8.63811V8.64829C21.5581 8.70423 21.5429 8.7597 21.5115 8.80611C21.476 8.87029 21.4314 8.92901 21.3792 8.98048C21.2558 9.11136 21.0932 9.19849 20.9159 9.22866C20.7421 9.24925 20.5667 9.2063 20.422 9.10775C20.3638 9.0693 20.3112 9.02305 20.2655 8.97029C20.2269 8.92909 20.2005 8.87798 20.1891 8.82266C20.1864 8.79544 20.1895 8.76794 20.1983 8.74203C20.207 8.71612 20.2213 8.6924 20.24 8.67247C20.2807 8.62976 20.3285 8.59445 20.3813 8.56811C20.5829 8.47555 20.8011 8.42448 21.0228 8.41792L21.0215 8.42047ZM11.6185 8.61647C11.6821 8.61647 11.7487 8.62156 11.8183 8.63174C12.0016 8.6572 12.1658 8.70429 12.2905 8.77429C12.3516 8.80569 12.405 8.84684 12.4509 8.89775C12.4746 8.92575 12.4924 8.95672 12.5043 8.99066C12.5162 9.0246 12.52 9.05981 12.5158 9.0963C12.5042 9.16378 12.4727 9.22627 12.4254 9.27575C12.3762 9.33504 12.3182 9.38653 12.2536 9.42848C12.0955 9.53612 11.9038 9.58271 11.7139 9.55957C11.5213 9.52848 11.3443 9.43503 11.2099 9.29357C11.1541 9.2366 11.1061 9.17239 11.0674 9.10266C11.0278 9.04163 11.0102 8.96886 11.0177 8.89647C11.0356 8.7692 11.1438 8.70556 11.2468 8.66738C11.366 8.62958 11.4911 8.61405 11.6159 8.62156L11.6185 8.61647ZM22.5132 17.1846H22.5093C22.3324 17.2482 22.1873 17.2737 22.0639 17.3246C21.9409 17.3702 21.839 17.4594 21.7775 17.5753C21.7012 17.709 21.6375 17.947 21.6566 18.3517C21.7114 18.3879 21.7716 18.4153 21.8348 18.4331C22.0397 18.4942 22.3846 18.535 22.7703 18.5286C23.5365 18.5197 24.4808 18.3466 24.9823 18.12C25.3934 17.9342 25.7752 17.6924 26.1163 17.4022C24.4401 17.7382 23.4945 17.6491 22.9128 17.4162C22.7693 17.3577 22.6348 17.2805 22.5132 17.1846ZM12.8556 17.2928H12.8301C12.7665 17.2979 12.6736 17.3182 12.4954 17.5117C12.0754 17.9673 11.9303 18.2524 11.5841 18.5197C11.2405 18.787 10.7912 18.9282 9.89519 19.1064C9.61137 19.1624 9.44973 19.2248 9.34027 19.2744C9.37591 19.3024 9.37209 19.3101 9.42427 19.3368C9.55537 19.4068 9.72464 19.4679 9.85955 19.5022C10.2452 19.5952 10.8777 19.7046 11.5383 19.5952C12.1989 19.4857 12.8849 19.179 13.4703 18.3822C13.5721 18.2448 13.5823 18.0411 13.4996 17.8222C13.4143 17.6059 13.231 17.4175 13.1012 17.364C13.0238 17.3275 12.9407 17.3043 12.8556 17.2953V17.2928Z" fill="#E2E8F1"/>
</svg>
