<svg width="12" height="12" viewBox="0 0 12 12" fill="none" xmlns="http://www.w3.org/2000/svg">
<path fill-rule="evenodd" clip-rule="evenodd" d="M5.48387 0.0125209C4.57637 0.0778489 3.84614 0.383957 3.30947 0.924005C3.07108 1.1639 2.83211 1.52812 2.7068 1.84254L2.68718 1.89177L2.57537 1.9001C1.97069 1.94516 1.39199 2.16028 0.979709 2.49324C0.561569 2.83095 0.261053 3.30644 0.118373 3.85609C-0.0395714 4.46457 -0.0394514 5.21339 0.118697 5.76533C0.254585 6.23962 0.514925 6.68331 0.861557 7.03137C1.05322 7.22384 1.38717 7.48088 1.55516 7.56526C1.71588 7.64598 1.94066 7.59835 2.05449 7.45943C2.15868 7.33227 2.18836 7.17362 2.13467 7.03076C2.09416 6.923 2.04934 6.87461 1.88481 6.76113C1.49651 6.49329 1.26474 6.24044 1.09198 5.89616C0.933797 5.58095 0.861557 5.24458 0.861557 4.82333C0.861557 4.37755 0.934493 4.02723 1.09514 3.70133C1.3688 3.14618 1.87749 2.83391 2.63111 2.75844C2.84931 2.73659 3.17481 2.75008 3.33356 2.78754C3.73227 2.88165 4.1055 3.09228 4.37307 3.37419C4.46382 3.46981 4.52571 3.55558 4.59699 3.68458C4.64901 3.77872 4.71593 3.84249 4.80812 3.88571C4.86536 3.91256 4.89192 3.91733 4.98381 3.91733C5.08197 3.91733 5.09954 3.91365 5.1723 3.87783C5.26388 3.83276 5.32533 3.76922 5.37206 3.67133C5.39884 3.61522 5.40356 3.58915 5.40356 3.49733C5.40356 3.39694 5.40033 3.38256 5.35773 3.29333C5.26304 3.09495 5.12504 2.90649 4.94255 2.72633C4.6111 2.39909 4.20328 2.15369 3.75002 2.00873C3.63941 1.97337 3.60999 1.95952 3.6154 1.94541C3.63392 1.89715 3.7391 1.74393 3.8245 1.64081C4.1144 1.29077 4.54394 1.04841 5.07356 0.936041C5.32956 0.881717 5.46939 0.869945 5.85956 0.869849C6.26273 0.869753 6.44316 0.887249 6.71156 0.952481C7.56477 1.15983 8.09939 1.68293 8.3191 2.52533C8.35827 2.67555 8.39469 2.90378 8.41004 3.09533C8.41718 3.18443 8.42866 3.27893 8.43555 3.30533C8.46604 3.42215 8.57699 3.54344 8.69313 3.58689C8.73981 3.60435 8.81008 3.61516 8.92955 3.62324C9.07857 3.63333 9.2666 3.65872 9.33956 3.67862C9.6209 3.75537 9.81497 3.86288 9.9713 4.02859C10.0658 4.12877 10.1077 4.18805 10.1664 4.3048C10.2752 4.52138 10.3263 4.74989 10.3375 5.06977C10.352 5.48767 10.2925 5.79671 10.1378 6.10796C9.98105 6.42334 9.75508 6.6652 9.39977 6.89794C9.20206 7.02745 9.15334 7.07266 9.11063 7.16637C9.08183 7.22955 9.0764 7.25736 9.07601 7.34333C9.07563 7.42948 9.08056 7.456 9.10772 7.51395C9.15298 7.61052 9.23431 7.6931 9.32475 7.73433C9.38781 7.76307 9.41561 7.76849 9.50177 7.76888C9.59296 7.76929 9.61239 7.7652 9.68186 7.73102C9.77973 7.68286 10.0393 7.51005 10.1599 7.41271C10.2928 7.30551 10.511 7.08915 10.605 6.97133C11.0176 6.4544 11.2231 5.80556 11.2016 5.08733C11.191 4.73462 11.1514 4.49033 11.0608 4.21862C10.8757 3.66329 10.5019 3.24008 9.97936 2.99391C9.78459 2.90216 9.61938 2.85456 9.26613 2.78842C9.24458 2.78439 9.23942 2.77218 9.23235 2.7085C9.22043 2.60123 9.16108 2.32679 9.11697 2.17496C9.00489 1.78923 8.79228 1.3844 8.54864 1.09278C8.2 0.675509 7.70039 0.349313 7.14964 0.179357C6.67618 0.0332569 6.05718 -0.0287351 5.48387 0.0125209ZM5.38973 5.72993C5.21457 5.76837 4.8077 5.94441 4.48967 6.11937C4.08466 6.3422 3.50706 6.71834 3.3809 6.84143C3.22938 6.98927 3.11574 7.18661 3.07031 7.38081C2.97242 7.7993 2.96049 8.80433 3.04628 9.40733C3.08411 9.67325 3.19523 9.89322 3.38364 10.0751C3.48321 10.1713 3.85284 10.4207 4.23356 10.6486C4.61621 10.8777 5.08599 11.0994 5.34759 11.1743C5.47906 11.212 5.72405 11.212 5.85552 11.1743C6.23704 11.0651 6.81947 10.7618 7.46344 10.3371C7.75954 10.1418 7.88315 10.0334 7.97789 9.88568C8.1149 9.67209 8.1455 9.56224 8.18798 9.13133C8.24073 8.5964 8.21238 7.71153 8.13188 7.37933C8.08367 7.18046 7.97345 6.989 7.82222 6.84143C7.69794 6.72019 7.12283 6.34503 6.72356 6.12475C6.39471 5.94333 5.98565 5.76722 5.80469 5.72915C5.70134 5.70741 5.4906 5.70781 5.38973 5.72993ZM5.49952 6.598C5.18966 6.70664 4.80786 6.91131 4.26956 7.25738C4.00954 7.42454 3.93081 7.49222 3.91127 7.56536C3.86903 7.72351 3.8371 8.31914 3.85078 8.69333C3.8598 8.93995 3.89052 9.28096 3.90975 9.34801C3.93062 9.42075 3.98417 9.46894 4.2077 9.61615C4.66041 9.91426 4.99726 10.1055 5.29984 10.2361C5.5454 10.342 5.58472 10.3528 5.65629 10.3337C5.75135 10.3082 6.08888 10.1567 6.26554 10.0601C6.62997 9.86093 7.19918 9.49563 7.24893 9.42903C7.29188 9.37155 7.30271 9.32701 7.32428 9.11933C7.36569 8.72054 7.36564 8.19614 7.32415 7.79933C7.29855 7.55463 7.29089 7.52903 7.2233 7.46259C7.16616 7.40644 6.82859 7.18383 6.52312 7.00086C6.23369 6.8275 5.77228 6.60682 5.62552 6.57158C5.60698 6.56712 5.55875 6.57724 5.49952 6.598ZM5.39156 7.65023C5.16173 7.701 4.96714 7.84921 4.86353 8.05238C4.79693 8.18297 4.78061 8.26258 4.78006 8.45933C4.77953 8.65323 4.79945 8.74412 4.87348 8.88533C4.93014 8.99344 5.0815 9.13936 5.19356 9.19391C5.33514 9.26285 5.41566 9.2798 5.60156 9.2798C5.71827 9.2798 5.78536 9.27392 5.84156 9.25877C6.11788 9.18425 6.3286 8.97407 6.40242 8.69933C6.43232 8.58808 6.43119 8.31502 6.4004 8.20733C6.32418 7.94086 6.11752 7.73237 5.85956 7.66172C5.75478 7.63301 5.498 7.62671 5.39156 7.65023Z" fill="white"/>
</svg>
