<svg width="24" height="32" viewBox="0 0 24 32" fill="none" xmlns="http://www.w3.org/2000/svg">
<path d="M2.77344 0H4.2161V1.42533H5.5361V0H6.97877V4.31467H5.5361V2.87067H4.2161V4.31467H2.77477L2.77344 0ZM8.87477 1.43067H7.60544V0H11.5881V1.43067H10.3174V4.31467H8.87477V1.43067ZM12.2201 0H13.7241L14.6494 1.516L15.5734 0H17.0774V4.31467H15.6414V2.176L14.6494 3.71067H14.6241L13.6308 2.17733V4.31467H12.2201V0ZM17.7948 0H19.2388V2.88933H21.2654V4.316H17.7948V0Z" fill="white"/>
<path fill-rule="evenodd" clip-rule="evenodd" d="M2.728 29.4296L0 6.28955H24L21.2707 29.4269L11.9867 32.0002L2.728 29.4296ZM8.244 16.7629L7.98533 13.8562H18.8453L19.0987 11.0189H4.88533L5.65067 19.6016H15.4867L15.1573 23.2816L11.992 24.1376H11.9893L8.82933 23.2842L8.62667 21.0216H5.776L6.17333 25.4776L11.9867 27.0909L17.8093 25.4776L18.5187 17.5256L18.588 16.7642L8.244 16.7629Z" fill="white"/>
</svg>
