<svg width="64" height="64" viewBox="0 0 64 64" fill="none" xmlns="http://www.w3.org/2000/svg">
<path fill-rule="evenodd" clip-rule="evenodd" d="M27.2009 2.18526C20.8153 2.93829 15.9553 4.83454 11.7449 8.21592C10.9844 8.82673 9.22965 10.5627 8.59906 11.3281C5.1725 15.4874 3.1341 20.598 2.40879 26.8481C2.199 28.6556 2.14844 29.6559 2.14844 32.0001C2.14844 34.3443 2.199 35.3446 2.40879 37.1521C3.06466 42.8036 4.86249 47.6845 7.70095 51.5201C9.13833 53.4623 11.0209 55.3204 12.9609 56.7112C16.8785 59.52 21.8835 61.2877 27.4618 61.8327C28.2384 61.9085 28.2827 61.9062 28.7226 61.7647C29.3068 61.5769 29.8618 61.0982 30.1216 60.5581C30.2743 60.2405 30.298 60.1117 30.3011 59.5841C30.3045 59.0112 30.2922 58.9531 30.0878 58.576C29.6142 57.7021 29.0763 57.4014 27.7129 57.2481C19.7261 56.3497 14.0275 53.1149 10.4931 47.4731C8.35855 44.0658 7.103 39.7042 6.78504 34.5921C6.70338 33.2785 6.70338 30.7217 6.78504 29.4081C7.55023 17.1057 13.7004 9.46507 24.6335 7.23441C25.6853 7.01982 26.4581 6.89854 27.6958 6.75403C28.1616 6.69963 28.7002 6.59621 28.8927 6.52421C29.3534 6.35179 29.8149 5.92779 30.0858 5.42814C30.2925 5.0467 30.3045 4.99013 30.3011 4.41611C30.2965 3.62795 30.1244 3.23806 29.553 2.72094C28.9341 2.16088 28.4133 2.04229 27.2009 2.18526ZM35.2295 2.23774C34.715 2.40677 34.1249 2.93355 33.8803 3.44216C33.7271 3.76075 33.704 3.88683 33.7021 4.41611C33.7002 4.958 33.7192 5.06091 33.8767 5.36241C34.1957 5.97317 34.7187 6.43429 35.2755 6.59589C35.3929 6.62993 35.8777 6.70264 36.3529 6.75749C38.8882 7.05009 40.8512 7.49848 43.3178 8.3484C44.3713 8.71141 45.1045 8.64421 45.7803 8.12248C46.1578 7.83109 46.3327 7.59934 46.5142 7.15C46.9095 6.17125 46.5613 5.01489 45.6919 4.41963C45.3772 4.20421 43.8423 3.64715 42.5929 3.29496C40.6363 2.74341 37.8025 2.23525 36.1609 2.14155C35.7291 2.11691 35.537 2.13675 35.2295 2.23774ZM51.4249 9.19934C50.4303 9.55557 49.7905 10.5277 49.883 11.5422C49.9465 12.2389 50.1544 12.6024 50.9134 13.3441C52.6921 15.0823 53.7505 16.4939 54.8913 18.6495C55.437 19.6807 55.6729 19.9565 56.2556 20.2437C56.6297 20.4281 56.7271 20.4481 57.2509 20.4481C57.7861 20.4481 57.8657 20.4308 58.2659 20.2276C59.0154 19.8472 59.4528 19.1792 59.5072 18.3319C59.5452 17.7392 59.4465 17.4406 58.831 16.2881C57.6085 13.9991 56.0999 11.9865 54.2931 10.2345C53.3488 9.31883 53.024 9.13835 52.2638 9.10648C51.8825 9.09048 51.6601 9.11512 51.4249 9.19934ZM31.2842 16.9851C30.5374 17.2923 30.033 17.9112 29.8874 18.699C29.8442 18.933 29.8276 21.3721 29.8392 25.7997L29.8569 32.5441L30.0084 32.9281C30.1511 33.2898 30.404 33.5568 34.3604 37.5225C38.8714 42.0441 38.8256 42.0039 39.5828 42.1066C40.5912 42.2435 41.555 41.7309 41.9789 40.8321C42.123 40.5264 42.1449 40.3959 42.1449 39.8401C42.1449 39.2968 42.1217 39.1518 41.9917 38.8801C41.8711 38.6283 41.0494 37.7687 38.1357 34.8468L34.4329 31.1336L34.4319 25.0228C34.4311 20.0736 34.4142 18.8413 34.3432 18.5392C34.243 18.1135 33.9097 17.5933 33.5597 17.3164C32.937 16.8239 32.0059 16.6883 31.2842 16.9851ZM58.8415 25.3032C58.1836 25.4694 57.542 26.0005 57.2594 26.6128C57.0929 26.9736 57.0779 27.6724 57.2012 29.3121C57.2449 29.8929 57.2807 31.1025 57.2807 32.0001C57.2807 32.8977 57.2449 34.1073 57.2012 34.6881C57.1575 35.2689 57.1221 36.0465 57.1225 36.4161C57.1233 37.1932 57.2275 37.4805 57.6986 38.0045C58.9738 39.4228 61.311 38.7055 61.6223 36.8001C61.9439 34.8315 61.9338 28.8916 61.6058 27.125C61.4625 26.3534 60.8997 25.6654 60.1862 25.39C59.8083 25.2441 59.2245 25.2064 58.8415 25.3032ZM56.5952 43.6092C56.2243 43.7303 55.8163 43.98 55.5731 44.2347C55.4609 44.352 55.15 44.8623 54.882 45.3684C53.7497 47.5074 52.6957 48.9079 50.8787 50.6881C50.1567 51.3955 49.9457 51.7706 49.883 52.458C49.7979 53.3912 50.3048 54.255 51.2009 54.7038C51.5111 54.8591 51.6252 54.8801 52.1609 54.8801C53.0142 54.8801 53.2954 54.7332 54.2931 53.7657C56.1872 51.9291 57.667 49.9248 59.0225 47.3601C59.4428 46.5647 59.5424 46.2171 59.5072 45.6683C59.4531 44.8258 59.0149 44.1527 58.2764 43.7778C57.9253 43.5997 57.7676 43.5591 57.3587 43.5419C57.0568 43.5292 56.7601 43.5553 56.5952 43.6092ZM43.1049 55.7172C40.8454 56.5036 38.8547 56.9522 36.3209 57.2462C35.8633 57.2992 35.3929 57.3705 35.2755 57.4045C34.7191 57.5656 34.1958 58.027 33.8767 58.6378C33.7192 58.9393 33.7002 59.0422 33.7021 59.5841C33.704 60.1134 33.7271 60.2395 33.8803 60.5581C34.1401 61.0982 34.695 61.5769 35.2792 61.7647C35.7194 61.9063 35.7629 61.9086 36.5401 61.8322C38.6579 61.6239 41.0071 61.1709 43.0089 60.5848C44.0895 60.2683 45.4094 59.774 45.6941 59.579C46.3089 59.1581 46.6739 58.4543 46.6725 57.6921C46.6702 56.4038 45.6848 55.4209 44.4002 55.4259C44.0189 55.4274 43.7897 55.4789 43.1049 55.7172Z" fill="#CAD5E2"/>
</svg>
