<svg width="32" height="32" viewBox="0 0 32 32" fill="none" xmlns="http://www.w3.org/2000/svg">
<path d="M19.1071 6.4488C19.1071 5.30114 18.7877 4.56575 18.3382 4.11621C17.8886 3.66661 17.1525 3.34724 16.0045 3.34724C14.8567 3.34733 14.1214 3.66667 13.6719 4.11621C13.2223 4.56575 12.903 5.30107 12.9029 6.4488C12.9029 7.5968 13.2223 8.33291 13.6719 8.78251C14.1214 9.232 14.8568 9.55139 16.0045 9.55148C17.1525 9.55148 17.8886 9.23211 18.3382 8.78251C18.7878 8.33291 19.1071 7.5968 19.1071 6.4488ZM21.3929 6.4488C21.3929 8.01753 20.9479 9.40491 19.9542 10.3986C18.9606 11.3922 17.5732 11.8372 16.0045 11.8372C14.436 11.8371 13.0494 11.3921 12.0558 10.3986C11.0621 9.40491 10.6172 8.01753 10.6172 6.4488C10.6173 4.88026 11.0622 3.4937 12.0558 2.50014C13.0494 1.50657 14.4359 1.06161 16.0045 1.06152C17.5732 1.06152 18.9606 1.50647 19.9542 2.50014C20.9478 3.4937 21.3928 4.88031 21.3929 6.4488Z" fill="white"/>
<path d="M9.55246 25.5504C9.55237 24.4027 9.23298 23.6673 8.78348 23.2178C8.33388 22.7682 7.59778 22.4488 6.44978 22.4488C5.30205 22.4489 4.56672 22.7682 4.11719 23.2178C3.66765 23.6673 3.3483 24.4026 3.34821 25.5504C3.34821 26.6984 3.66759 27.4345 4.11719 27.8841C4.56673 28.3336 5.30212 28.653 6.44978 28.653C7.59778 28.653 8.33388 28.3337 8.78348 27.8841C9.23308 27.4345 9.55246 26.6984 9.55246 25.5504ZM11.8382 25.5504C11.8382 27.1191 11.3932 28.5065 10.3996 29.5001C9.40589 30.4938 8.01851 30.9388 6.44978 30.9388C4.88128 30.9387 3.49468 30.4936 2.50112 29.5001C1.50745 28.5065 1.0625 27.1191 1.0625 25.5504C1.06259 23.9818 1.50755 22.5953 2.50112 21.6017C3.49468 20.6081 4.88124 20.1632 6.44978 20.1631C8.01851 20.1631 9.40589 20.608 10.3996 21.6017C11.3931 22.5953 11.8381 23.9819 11.8382 25.5504Z" fill="white"/>
<path d="M28.654 25.5513C28.6539 24.4037 28.3345 23.6683 27.885 23.2188C27.4354 22.7692 26.6993 22.4498 25.5513 22.4498C24.4036 22.4499 23.6683 22.7692 23.2188 23.2188C22.7692 23.6683 22.4499 24.4036 22.4498 25.5513C22.4498 26.6993 22.7692 27.4354 23.2188 27.885C23.6683 28.3345 24.4037 28.6539 25.5513 28.654C26.6993 28.654 27.4354 28.3346 27.885 27.885C28.3346 27.4354 28.654 26.6993 28.654 25.5513ZM30.9397 25.5513C30.9397 27.1201 30.4948 28.5075 29.5011 29.5011C28.5075 30.4948 27.1201 30.9397 25.5513 30.9397C23.9828 30.9396 22.5962 30.4946 21.6027 29.5011C20.609 28.5075 20.1641 27.1201 20.1641 25.5513C20.1642 23.9828 20.6091 22.5962 21.6027 21.6027C22.5962 20.6091 23.9828 20.1642 25.5513 20.1641C27.1201 20.1641 28.5075 20.609 29.5011 21.6027C30.4946 22.5962 30.9396 23.9828 30.9397 25.5513Z" fill="white"/>
<path d="M5.30469 21.3064V20.7751C5.30471 20.0791 5.4831 18.9709 6.35379 17.986C7.23547 16.9889 8.67935 16.2845 10.8728 16.12C12.4882 15.9987 13.4312 15.2679 14.0089 14.37C14.6196 13.4208 14.856 12.2198 14.856 11.2238V10.6936C14.856 10.0625 15.3677 9.55078 15.9989 9.55078C16.6299 9.55095 17.1417 10.0626 17.1417 10.6936V11.2238C17.1417 12.5155 16.8468 14.1845 15.9319 15.6066C14.9842 17.0797 13.407 18.2228 11.0435 18.4001C9.25802 18.534 8.44567 19.0714 8.06696 19.4994C7.67784 19.9395 7.59043 20.4399 7.5904 20.7751V21.3064C7.59014 21.9373 7.07857 22.4492 6.44754 22.4492C5.81652 22.4492 5.30495 21.9373 5.30469 21.3064Z" fill="white"/>
<path d="M24.4107 21.2732V20.7754C24.4107 20.4402 24.3233 19.9399 23.9342 19.4997C23.5555 19.0717 22.7434 18.5332 20.9576 18.3993C18.5942 18.222 17.0169 17.0799 16.0692 15.6069C15.1543 14.1848 14.8594 12.5158 14.8594 11.2241V10.7932C14.8594 10.1621 15.371 9.65039 16.0022 9.65039C16.6334 9.65039 17.1451 10.1621 17.1451 10.7932V11.2241C17.1451 12.2201 17.3804 13.4211 17.9911 14.3703C18.5689 15.2683 19.5125 15.999 21.1283 16.1203C23.3218 16.2848 24.7645 16.9892 25.6462 17.9863C26.5172 18.9714 26.6964 20.0793 26.6964 20.7754V21.2732C26.6963 21.9041 26.1845 22.4158 25.5536 22.416C24.9225 22.416 24.4109 21.9042 24.4107 21.2732Z" fill="white"/>
</svg>
