<svg width="28" height="21" viewBox="0 0 28 21" fill="none" xmlns="http://www.w3.org/2000/svg">
<path d="M18.4671 5.97926C18.4671 6.96329 19.5322 7.5232 22.0744 8.47625C24.5809 9.415 27.9976 10.6945 27.9976 14.3184L27.9976 14.3232C27.9921 15.1602 27.8103 15.9867 27.4639 16.7487C27.1243 17.5136 26.6273 18.1983 26.0054 18.7583C25.3834 19.3183 24.6505 19.7409 23.8542 19.9986C23.068 20.2607 22.2174 20.356 21.3882 20.2726C21.2189 20.2913 21.0487 20.3008 20.8783 20.3012C19.4037 20.2962 17.9834 19.7443 16.8922 18.7525C16.2692 18.1941 15.7697 17.5116 15.4259 16.7488C15.082 15.9861 14.9014 15.1599 14.8956 14.3232C14.8956 13.8419 15.0814 13.394 15.4198 13.0557C15.7608 12.7315 16.2133 12.5508 16.6837 12.5508C17.1542 12.5508 17.6067 12.7315 17.9477 13.0557C18.286 13.3916 18.4719 13.8419 18.4719 14.3184C18.4719 16.5867 20.9522 16.7011 21.4502 16.7011C21.9481 16.7011 24.4284 16.5867 24.4284 14.3184C24.4284 13.3344 23.3634 12.7745 20.8212 11.8215C18.3146 10.8827 14.898 9.60562 14.898 5.97926C14.9059 5.12629 15.0838 4.31619 15.4317 3.54899C15.7748 2.78655 16.268 2.1075 16.8946 1.54759C17.5147 0.986075 18.2462 0.561487 19.0413 0.301477C19.8363 0.0439716 20.6751 -0.0500416 21.5074 0.0250932C22.3019 -0.0478605 23.103 0.0462848 23.859 0.301477C25.0536 0.698898 26.0944 1.45896 26.8367 2.4758C27.5789 3.49265 27.9856 4.71565 28 5.9745C28 6.45579 27.8142 6.90372 27.4758 7.24205C27.1348 7.5662 26.6823 7.74694 26.2118 7.74694C25.7414 7.74694 25.2889 7.5662 24.9479 7.24205C24.7808 7.07707 24.6484 6.88039 24.5584 6.66354C24.4684 6.44669 24.4226 6.21405 24.4237 5.97926C24.4237 3.71101 21.9434 3.59664 21.4454 3.59664C20.9474 3.59664 18.4671 3.71101 18.4671 5.97926ZM1.78878 0.0227108L12.5106 0.0227108C12.8643 0.0218798 13.2103 0.126177 13.5046 0.322362C13.7989 0.518546 14.0283 0.797768 14.1636 1.12457C14.2989 1.45137 14.3341 1.81102 14.2646 2.15784C14.1951 2.50466 14.0241 2.82301 13.7734 3.07247C13.6084 3.23952 13.4117 3.37193 13.1948 3.46194C12.978 3.55196 12.7454 3.59775 12.5106 3.59664L8.93664 3.59664L8.93664 18.488C8.93747 18.8417 8.83317 19.1877 8.63699 19.482C8.44081 19.7764 8.16159 20.0057 7.83478 20.1411C7.50798 20.2764 7.14833 20.3115 6.80152 20.242C6.4547 20.1726 6.13634 20.0016 5.88689 19.7508C5.71984 19.5858 5.58742 19.3892 5.49741 19.1723C5.4074 18.9555 5.3616 18.7228 5.36271 18.488L5.36271 3.59664L1.78878 3.59664C1.43507 3.59747 1.08909 3.49318 0.794771 3.29699C0.500453 3.10081 0.271073 2.82159 0.135756 2.49478C0.000439032 2.16798 -0.0347111 1.80833 0.034769 1.46151C0.104249 1.1147 0.275225 0.796345 0.525988 0.546887C0.690971 0.379837 0.887657 0.247422 1.1045 0.157409C1.32135 0.0673973 1.55399 0.0216022 1.78878 0.0227108Z" fill="#E2E8F1"/>
</svg>
