<svg width="28" height="24" viewBox="0 0 28 24" fill="none" xmlns="http://www.w3.org/2000/svg">
<path d="M3.3366 7.05648C-0.726798 11.6213 0.0616225 15.3887 0.0616225 15.3887C0.0616225 15.3887 1.1735 12.7973 3.86221 10.0465C5.15603 8.7907 6.10618 8.35216 6.75309 8.35216C7.48086 8.35216 7.82453 8.87043 7.82453 9.34884L7.82453 18.598C7.82453 19.5149 7.21805 19.7143 6.67222 19.6944C6.3625 19.6873 6.05571 19.6336 5.76251 19.5349C8.53209 23.4618 15.1427 24 15.1427 24L18.0538 21.01L18.1346 21.01L20.8234 23.2625C25.655 20.4319 28 15.1894 28 15.1894C25.8773 17.4219 24.442 17.9601 23.6334 17.9402C22.9056 17.9402 22.6024 17.5216 22.6024 17.5216C22.5821 17.3223 22.4811 5.86046 22.6226 5.86046C23.4716 4.32558 26.1401 1.19601 26.1401 1.19601C21.1468 2.17276 18.4177 5.38206 18.4177 5.38206C17.609 4.76412 15.9513 4.86379 15.9513 4.86379C16.7195 5.28239 17.4877 6.47841 17.4877 7.49502L17.4877 17.3223C17.4877 17.3223 15.7694 18.7774 14.516 18.7774C13.7478 18.7774 13.2828 18.3588 13.02 18.0199C12.8381 17.7807 12.737 17.6013 12.737 17.6013L12.737 5.44186C12.5955 5.56146 12.3731 5.66113 12.1507 5.66113C11.8677 5.6412 11.5847 5.52159 11.4027 5.12292C11.241 4.82392 11.1602 4.36545 11.1602 3.72757C11.1602 1.47508 13.7478 -5.99327e-10 13.7478 -5.99327e-10C10.4526 0.857143 7.4 2.51163 3.3366 7.05648Z" fill="currentColor"/>
</svg>




