<svg width="64" height="64" viewBox="0 0 64 64" fill="none" xmlns="http://www.w3.org/2000/svg">
<path fill-rule="evenodd" clip-rule="evenodd" d="M22.2732 2.17816C19.1316 2.4764 16.7281 3.41771 14.7172 5.13739C12.9899 6.61457 11.7284 8.7347 11.0974 11.2208C10.5806 13.2576 10.4815 16.2315 10.8552 18.496C11.7641 24.0045 15.4179 27.6409 20.9521 28.5451C22.1655 28.7433 23.7605 28.8185 25.0503 28.7383C27.9218 28.5597 30.0938 27.9032 32.0012 26.6375C34.7374 24.8219 36.3765 22.1737 37.0405 18.496C37.1972 17.6285 37.2084 17.4367 37.2126 15.552C37.2158 14.1695 37.1901 13.3551 37.1311 12.96C36.661 9.81483 35.6071 7.5619 33.7329 5.69579C32.7942 4.7612 32.0234 4.19512 30.9132 3.62513C29.5782 2.93976 28.1394 2.50526 26.4332 2.27224C25.554 2.15217 23.1253 2.09726 22.2732 2.17816ZM22.5612 6.7587C20.0119 7.11518 18.6985 7.66097 17.4503 8.88248C16.4129 9.89765 15.7824 11.1734 15.4116 13.0077C15.2814 13.6514 15.2659 13.912 15.2659 15.456C15.2659 16.9963 15.2816 17.2617 15.4105 17.8986C16.0743 21.1808 17.8153 23.0747 20.8652 23.8326C22.1677 24.1563 23.856 24.2684 25.2904 24.1264C27.5141 23.9065 29.1344 23.253 30.3609 22.0817C31.7594 20.7462 32.4626 18.9997 32.6434 16.4125C32.8254 13.8103 32.3241 11.441 31.2542 9.84638C30.222 8.30782 28.53 7.30065 26.3052 6.90046C25.7402 6.79883 25.242 6.76389 24.1612 6.74993C23.3868 6.74001 22.6668 6.74392 22.5612 6.7587ZM51.9052 32.1031C47.8857 32.601 44.6169 35.5654 43.8457 39.412C43.5868 40.7034 43.6095 41.6023 43.9167 42.2174C44.1153 42.615 44.5795 43.064 44.9932 43.2585C45.2946 43.4002 45.4326 43.424 45.9532 43.424C46.4759 43.424 46.6105 43.4006 46.9132 43.2571C47.4552 42.9999 47.9296 42.4765 48.118 41.9277C48.1589 41.8086 48.2224 41.3931 48.259 41.0041C48.4274 39.219 49.3072 37.9091 50.8492 37.1477C52.2076 36.477 53.6635 36.5208 55.0023 37.2728C55.6804 37.6536 56.4116 38.4237 56.779 39.1438C57.3643 40.291 57.4393 41.3649 56.9968 42.2605C56.6657 42.9306 56.1335 43.4365 54.6892 44.454C52.5164 45.9846 51.6634 46.8068 51.0793 47.9333C50.5938 48.8698 50.5292 49.1973 50.5292 50.72C50.5292 51.9659 50.5394 52.0861 50.6686 52.3659C50.8524 52.7637 51.3488 53.2874 51.7207 53.4759C52.8652 54.0558 54.3022 53.5679 54.8421 52.416C54.9888 52.1031 55.0117 51.954 55.0489 51.072C55.072 50.5264 55.094 50.0716 55.098 50.0613C55.1019 50.051 55.242 49.8958 55.4092 49.7164C55.7456 49.3554 56.5451 48.7366 57.6652 47.9703C59.6496 46.6127 60.7258 45.3754 61.3968 43.68C61.7507 42.7855 61.8548 42.1764 61.8505 41.024C61.8462 39.9145 61.7205 39.1638 61.3715 38.164C60.4764 35.6003 58.2497 33.4092 55.6594 32.5433C55.3018 32.4237 54.75 32.2801 54.4332 32.2242C53.861 32.1231 52.3339 32.05 51.9052 32.1031ZM22.8812 32.4887C16.9391 32.7079 11.4555 34.381 6.50237 37.4862C5.4392 38.1527 4.8536 38.596 4.28573 39.1643C2.02045 41.4313 1.48791 44.7023 2.91811 47.5655C4.0184 49.7684 6.18627 51.5335 8.67843 52.2558C10.106 52.6695 8.93501 52.64 23.9692 52.64H37.6012L38.2517 52.496C39.6732 52.181 41.1198 51.5757 41.7023 51.0521C41.8839 50.8887 42.1044 50.6024 42.2118 50.3901C42.3848 50.0484 42.401 49.9607 42.3988 49.376C42.397 48.8667 42.3694 48.6772 42.2636 48.448C42.0638 48.0151 41.5843 47.5205 41.1661 47.3159C40.8412 47.1569 40.731 47.1373 40.1612 47.1367C39.5362 47.136 39.5077 47.1426 38.9452 47.4146C38.1417 47.8031 37.4716 47.9907 36.6112 48.0679C36.122 48.1117 31.6649 48.1259 23.3932 48.1099C9.90992 48.0839 10.6942 48.104 9.72778 47.7591C8.28221 47.2432 7.26448 46.288 6.84771 45.056C6.73315 44.7174 6.7128 44.5442 6.73821 44.1247C6.812 42.9073 7.52944 42.1487 9.87613 40.8071C17.6162 36.3819 27.0652 35.8458 35.1052 39.3757C36.6549 40.056 36.9507 40.1496 37.4156 40.1067C38.6499 39.9927 39.5532 39.0431 39.5532 37.8596C39.5532 37.0595 39.2055 36.3768 38.5886 35.9655C38.3975 35.8382 37.8519 35.5586 37.376 35.3444C33.9539 33.8036 30.2201 32.8529 26.5292 32.5825C25.5175 32.5084 23.65 32.4604 22.8812 32.4887ZM51.9244 56.4994C51.3013 56.7218 50.8645 57.1095 50.5555 57.7141C50.4098 57.9992 50.4012 58.0786 50.4012 59.136C50.4012 60.2039 50.4086 60.2707 50.5612 60.5714C51.485 62.3921 54.0759 62.265 54.7872 60.3641C54.9064 60.0454 54.9195 59.8941 54.9015 59.0421C54.883 58.1649 54.8666 58.049 54.716 57.7279C54.5038 57.2757 54.0169 56.7901 53.5706 56.5858C53.0981 56.3695 52.392 56.3324 51.9244 56.4994Z" fill="#CAD5E2"/>
</svg>
