<svg width="24" height="24" viewBox="0 0 24 24" fill="none" xmlns="http://www.w3.org/2000/svg">
<path fill-rule="evenodd" clip-rule="evenodd" d="M6.94754 2.39181C4.91387 2.47663 3.56821 3.62414 3.26317 5.53362C3.21445 5.83866 3.19357 6.4035 3.21767 6.76509C3.28902 7.8359 3.63285 8.6554 4.28128 9.30014C4.67572 9.69232 4.89059 9.81568 5.17837 9.81513C5.41165 9.8147 5.61335 9.73667 5.76664 9.58756C6.00738 9.35337 6.09568 9.05042 6.01333 8.74106C5.96092 8.54416 5.86938 8.41276 5.6661 8.2426C5.4184 8.03524 5.29511 7.88085 5.16851 7.61939C4.82411 6.90813 4.83964 5.76316 5.20331 5.05139C5.32101 4.82109 5.63723 4.50486 5.86754 4.38717C6.25024 4.19164 6.55468 4.12881 7.19953 4.11234C7.75921 4.09804 7.85728 4.07721 8.03833 3.93407C8.43777 3.61833 8.48709 3.05781 8.14953 2.6704C8.01568 2.5168 7.80769 2.42507 7.53311 2.39851C7.40906 2.38651 7.26433 2.37851 7.21153 2.38075C7.15873 2.38298 7.03994 2.38795 6.94754 2.39181ZM16.4326 2.39901C15.9787 2.44451 15.6601 2.75863 15.6291 3.19094C15.608 3.4859 15.7248 3.74759 15.9607 3.93407C16.1418 4.07721 16.2399 4.09804 16.7995 4.11234C17.4444 4.12881 17.7488 4.19164 18.1315 4.38717C18.3618 4.50486 18.6781 4.82109 18.7958 5.05139C18.9666 5.38583 19.0469 5.72198 19.0707 6.20339C19.0978 6.74987 19.0149 7.23863 18.8306 7.61939C18.704 7.88085 18.5807 8.03524 18.333 8.2426C18.1297 8.41276 18.0382 8.54416 17.9857 8.74106C17.9418 8.90618 17.9429 9.03347 17.9895 9.19072C18.1029 9.57242 18.425 9.81438 18.8207 9.81513C19.1085 9.81568 19.3234 9.69232 19.7178 9.30014C20.2382 8.7827 20.5382 8.20355 20.6996 7.40481C20.8324 6.74721 20.8219 5.86103 20.6734 5.21181C20.3134 3.63736 19.1261 2.60459 17.4715 2.42647C17.1375 2.39051 16.6467 2.37755 16.4326 2.39901ZM11.5435 4.03307C10.7529 4.08201 10.1141 4.24782 9.50354 4.5627C9.11956 4.76073 8.81644 4.98249 8.50753 5.29139C7.72365 6.07528 7.31459 7.08832 7.25013 8.40539C7.1685 10.0729 7.58519 11.3568 8.50629 12.276C9.21052 12.9789 10.0739 13.3694 11.2435 13.5141C11.5991 13.5581 12.4754 13.5515 12.8395 13.5021C13.7817 13.3741 14.4398 13.1221 15.079 12.6444C16.0099 11.9488 16.575 10.8866 16.731 9.53939C16.7703 9.19974 16.7703 8.36704 16.731 8.02739C16.5956 6.85838 16.1671 5.92617 15.449 5.23879C14.6691 4.49234 13.7046 4.10949 12.4075 4.03161C11.9782 4.00583 11.9843 4.00581 11.5435 4.03307ZM11.4235 5.7706C11.079 5.81627 10.9675 5.8402 10.7008 5.92566C9.96527 6.16125 9.45146 6.64653 9.18693 7.35539C8.91129 8.09402 8.88136 9.20334 9.11538 10.0076C9.3118 10.6827 9.72465 11.1958 10.3075 11.4893C10.9721 11.824 12.0783 11.9239 12.983 11.7309C14.1215 11.4881 14.775 10.7828 14.9913 9.56339C15.0522 9.21978 15.0515 8.34035 14.9901 8.00339C14.7553 6.71659 14.07 6.02339 12.8163 5.80444C12.4524 5.74091 11.7722 5.72438 11.4235 5.7706ZM5.21953 11.277C4.12048 11.5173 3.07228 11.9409 2.15953 12.5135C1.78705 12.7472 1.60693 12.889 1.40313 13.1092C0.801207 13.7593 0.638463 14.6148 0.955479 15.4621C1.17541 16.0499 1.729 16.6275 2.34565 16.9126C2.50861 16.9879 2.55529 16.9986 2.72409 16.9997C2.89084 17.0008 2.93802 16.991 3.0759 16.9265C3.2655 16.8378 3.40571 16.7008 3.49684 16.5152C3.55636 16.394 3.56351 16.3535 3.56327 16.1394C3.56305 15.9246 3.55612 15.8863 3.49732 15.7743C3.39894 15.5869 3.29915 15.487 3.10269 15.3792C2.74948 15.1853 2.51953 14.894 2.51953 14.6403C2.51953 14.3344 2.76479 14.1126 3.57875 13.6823C4.18722 13.3607 4.79802 13.1397 5.54353 12.9713C5.76133 12.9221 5.99039 12.8562 6.05255 12.8247C6.19924 12.7506 6.34538 12.5969 6.42669 12.4314C6.48333 12.3161 6.49153 12.2706 6.49153 12.0714C6.49153 11.8742 6.48282 11.8248 6.42719 11.7061C6.34823 11.5376 6.18566 11.3755 6.00889 11.2891C5.81445 11.1939 5.61354 11.1908 5.21953 11.277ZM18.0817 11.2511C17.4821 11.4584 17.298 12.2104 17.7354 12.6655C17.8784 12.8143 18.0128 12.8713 18.4555 12.9713C19.375 13.1789 20.1523 13.4912 20.8961 13.9519C21.2284 14.1577 21.3448 14.2585 21.4165 14.4022C21.503 14.5758 21.5002 14.7103 21.4063 14.8983C21.3164 15.0782 21.1376 15.2468 20.8964 15.3792C20.6999 15.487 20.6001 15.5869 20.5018 15.7743C20.443 15.8863 20.436 15.9246 20.4358 16.1394C20.4356 16.3535 20.4427 16.394 20.5022 16.5152C20.5934 16.7008 20.7336 16.8378 20.9232 16.9265C21.061 16.991 21.1082 17.0008 21.275 16.9997C21.4438 16.9986 21.4905 16.9879 21.6534 16.9126C22.2701 16.6275 22.8237 16.0499 23.0436 15.4621C23.3044 14.7649 23.2458 14.0785 22.8737 13.4739C22.6473 13.1061 22.3621 12.8412 21.8395 12.5137C20.8897 11.9184 19.8202 11.4909 18.7222 11.2678C18.3738 11.197 18.2477 11.1937 18.0817 11.2511ZM11.5675 14.366C9.37465 14.4631 7.35045 15.1123 5.57435 16.288C5.2539 16.5001 4.84489 16.8857 4.68232 17.129C4.26035 17.7602 4.12504 18.5044 4.30477 19.2054C4.61195 20.4034 5.65823 21.3111 7.01737 21.5585L7.30754 21.6114H11.9995H16.6915L16.9817 21.5585C18.342 21.3108 19.3716 20.4172 19.6983 19.2006C19.7522 18.9997 19.7598 18.924 19.7598 18.5874C19.7598 18.2485 19.7523 18.1752 19.6963 17.9634C19.6207 17.6779 19.4196 17.2616 19.2477 17.0349C18.8791 16.5489 18.1595 16.0496 17.0635 15.5194C15.7828 14.9 14.5146 14.5458 13.1035 14.4137C12.7203 14.3778 11.8855 14.3519 11.5675 14.366ZM11.4355 16.0934C11.3827 16.0985 11.2045 16.1144 11.0395 16.1286C9.50205 16.261 7.79978 16.8613 6.53351 17.7177C6.25701 17.9047 6.12683 18.0388 6.03006 18.2364C5.97287 18.3532 5.96392 18.4006 5.96375 18.5874C5.96356 18.7879 5.97004 18.817 6.05392 18.9927C6.21517 19.3304 6.53997 19.6035 6.98353 19.7741C7.3017 19.8966 7.24057 19.8951 11.9995 19.8951C16.7585 19.8951 16.6974 19.8966 17.0155 19.7741C17.4591 19.6035 17.7839 19.3304 17.9452 18.9927C18.029 18.817 18.0355 18.7879 18.0353 18.5874C18.0352 18.399 18.0264 18.3536 17.9669 18.232C17.8399 17.9723 17.571 17.7529 16.9315 17.3871C15.7486 16.7104 14.3972 16.2778 12.9955 16.1272C12.7519 16.101 11.6113 16.0763 11.4355 16.0934Z" fill="white"/>
</svg>
