<svg width="231" height="231" viewBox="0 0 231 231" fill="none" xmlns="http://www.w3.org/2000/svg">
<path d="M18.6793 40.8352C15.4716 41.2298 12.9371 42.4135 10.5215 44.6626C8.14539 46.8722 6.83855 49.2791 6.24454 52.4752C5.65052 55.5923 5.65052 171.597 6.20493 174.635C7.19496 179.804 10.6799 184.5 15.1548 186.749C20.0653 189.156 12.8579 188.998 115.702 188.998H209.952L212.764 188.13C219.298 186.039 223.654 181.146 224.803 174.556C225.12 172.781 225.199 154.67 225.12 112.253L225.001 52.4752L224.05 49.871C222.15 44.5048 218.189 41.4271 212.249 40.7958C208.25 40.4012 22.4018 40.4407 18.6793 40.8352ZM27.5895 55.4345C30.0448 56.6971 31.114 60.4456 29.6488 62.7736C28.8171 64.0362 26.6391 65.2988 25.253 65.2988C23.867 65.2988 21.4909 63.8784 20.7781 62.6157C20.3821 61.945 20.0653 60.6823 20.0653 59.7353C20.0653 58.3149 20.3029 57.8808 21.6494 56.5788C23.5898 54.7242 25.4511 54.3691 27.5895 55.4345ZM45.4496 55.7501C47.6276 56.9733 48.4197 60.1299 47.192 62.5368C46.8356 63.2076 45.8456 64.0757 44.9348 64.5491C42.8359 65.6145 40.9747 65.2988 39.2322 63.5627C36.6186 60.9585 37.2522 57.2495 40.6183 55.5529C42.4795 54.6059 43.5487 54.6453 45.4496 55.7501ZM63.1117 55.8291C65.3689 57.2495 65.9233 60.9585 64.2205 63.1681C63.1117 64.6281 60.7356 65.5356 59.1516 65.141C57.6071 64.7859 55.8251 63.0498 55.2707 61.4715C53.8054 56.9733 58.9536 53.2643 63.1117 55.8291ZM217.279 124.88C217.279 172.426 217.279 173.018 216.487 175.148C215.615 177.476 213.715 179.449 211.497 180.357C210.388 180.83 194.944 180.909 115.464 180.909C28.3419 180.909 20.6593 180.87 19.3921 180.278C17.4516 179.331 15.7488 177.516 14.6796 175.188L13.7291 173.215V124.958V76.7415H115.504H217.279V124.88Z" fill="currentColor"/>
<path d="M29.4106 88.5787C27.8662 89.0522 26.7969 90.0781 25.9653 91.9326C25.2525 93.432 25.2129 95.326 25.2129 125.827C25.2129 149.422 25.3317 158.537 25.6881 159.681C26.2821 161.733 28.3018 163.429 30.4402 163.745C31.3907 163.863 47.8251 163.942 66.992 163.863C100.178 163.745 101.881 163.706 102.91 162.995C103.504 162.601 104.375 161.693 104.851 160.944C105.643 159.602 105.682 159.444 105.643 126.103C105.643 106.887 105.484 92.2088 105.247 91.6959C104.811 90.4727 103.346 89.1311 101.92 88.6182C100.534 88.1052 31.153 88.0658 29.4106 88.5787ZM40.7761 99.1139C41.9245 100.179 44.1818 102.27 45.8054 103.77C47.4291 105.309 50.2804 107.992 52.1416 109.688C54.0029 111.425 57.0125 114.305 58.8738 116.041C60.735 117.817 62.8735 119.829 63.6655 120.5L65.1308 121.723L71.6253 115.725C75.1894 112.411 81.09 106.887 84.7333 103.454C91.9803 96.6675 92.6139 96.3518 94.7524 98.2063C95.6236 98.9166 95.8612 99.469 95.8612 100.613C95.8612 102.31 96.8908 101.245 78.9515 117.896L69.8829 126.261L72.853 129.023C74.4766 130.522 79.704 135.454 84.4561 139.913C97.0888 151.75 97.0492 151.711 95.0692 154.039C93.6435 155.775 91.9407 155.696 89.6834 153.841C88.7726 153.052 83.7829 148.475 78.6743 143.622C66.0812 131.745 65.2892 131.074 64.3783 131.745C63.9427 132.021 59.4678 136.125 54.3989 140.899C40.6177 153.841 38.9149 155.262 37.3704 155.262C35.8656 155.222 34.8755 154.591 34.3607 153.171C33.7271 151.553 34.4795 150.093 37.014 147.923C39.3109 145.95 41.6869 143.74 51.5476 134.547C54.5969 131.706 57.8046 128.707 58.6758 127.918L60.2598 126.458L58.0818 124.406C45.2114 112.293 41.4889 108.781 38.202 105.782C34.4795 102.428 34.3211 102.231 34.3211 100.653C34.3211 98.8377 34.5587 98.3642 35.7072 97.7329C37.3308 96.8253 38.6377 97.1805 40.7761 99.1139Z" fill="currentColor"/>
<path d="M125.959 95.4443C122.513 96.9437 122.593 101.679 126.077 103.139C126.909 103.454 136.572 103.573 162.708 103.494L198.27 103.375L199.3 102.31C200.171 101.481 200.369 100.889 200.369 99.4295C200.369 97.8907 200.171 97.3778 199.102 96.3519L197.874 95.0892L162.51 95.0103C133.364 94.9314 126.988 95.0103 125.959 95.4443Z" fill="currentColor"/>
<path d="M125.959 114.778C124.256 115.528 123.424 116.87 123.424 118.764C123.424 120.066 123.662 120.618 124.652 121.565L125.84 122.709L161.362 122.828C187.538 122.907 197.162 122.788 197.993 122.473C199.577 121.802 200.25 120.618 200.25 118.566C200.25 116.672 199.577 115.686 197.597 114.66C196.211 113.95 127.582 114.068 125.959 114.778Z" fill="currentColor"/>
<path d="M127.861 133.915C125.722 134.113 125.168 134.349 124.376 135.257C122.95 136.914 123.069 139.36 124.653 140.899L125.841 142.044L146.117 142.162C165.838 142.241 166.432 142.241 167.7 141.452C170.036 140.031 170.472 137.111 168.61 135.06L167.462 133.758L148.889 133.718C138.712 133.718 129.207 133.797 127.861 133.915Z" fill="currentColor"/>
</svg>
