<svg width="24" height="24" viewBox="0 0 24 24" fill="none" xmlns="http://www.w3.org/2000/svg">
<path fill-rule="evenodd" clip-rule="evenodd" d="M11.1006 3.22828C9.19747 3.43106 7.31866 4.20921 5.52058 5.53934C3.98659 6.67411 2.58055 8.18467 1.66284 9.6838C1.31604 10.2503 1.11418 10.6634 0.953256 11.1358C0.629832 12.0853 0.820512 12.9398 1.66284 14.3158C3.01375 16.5226 5.2704 18.5849 7.57258 19.7166C9.10954 20.4721 10.4689 20.8068 12.0006 20.8068C12.9136 20.8068 13.6708 20.7007 14.5686 20.4467C16.0382 20.031 17.5858 19.1983 18.9846 18.0706C20.8625 16.5567 22.5071 14.4492 23.0478 12.8638C23.3798 11.8905 23.1706 11.0094 22.2658 9.56942C20.9011 7.39773 18.6887 5.39402 16.4286 4.28299C15.193 3.67559 14.1212 3.35716 12.8766 3.22771C12.4652 3.18491 11.5048 3.18523 11.1006 3.22828ZM11.4846 4.92319C9.87362 5.02903 8.11495 5.74706 6.49258 6.96134C5.28922 7.86201 4.11362 9.08904 3.34382 10.2478C2.85768 10.9796 2.52058 11.697 2.52058 11.9998C2.52058 12.3026 2.85768 13.02 3.34382 13.7518C4.11413 14.9113 5.28322 16.1314 6.49584 17.0413C8.42268 18.4871 10.5036 19.204 12.4146 19.0803C13.8818 18.9854 15.2724 18.5013 16.7292 17.5785C18.1991 16.6472 19.6813 15.2065 20.6289 13.7878C21.1643 12.9863 21.4806 12.3153 21.4806 11.981C21.4806 11.7775 21.2543 11.2324 20.9638 10.7362C20.0375 9.15391 18.3853 7.47038 16.7292 6.42115C15.2937 5.51171 13.8743 5.01355 12.4566 4.92158C12.0195 4.89321 11.9389 4.89335 11.4846 4.92319ZM11.2686 8.00337C10.1268 8.16095 9.24883 8.66044 8.6689 9.48235C8.18918 10.1622 7.96858 10.9553 7.96858 11.9998C7.96858 12.64 8.03419 13.0915 8.19869 13.5831C8.60162 14.7874 9.58608 15.6569 10.8493 15.9242C11.5387 16.0701 12.4625 16.0701 13.1519 15.9242C14.4151 15.6569 15.3995 14.7874 15.8025 13.5831C15.967 13.0915 16.0326 12.64 16.0326 11.9998C16.0326 11.3603 15.9671 10.9093 15.8027 10.4165C15.4018 9.21472 14.4143 8.34259 13.1519 8.07544C12.6422 7.96756 11.7699 7.9342 11.2686 8.00337ZM11.6886 9.68575C11.0808 9.75624 10.701 9.88828 10.3868 10.1385C10.0412 10.4136 9.81655 10.8449 9.71738 11.4238C9.67762 11.6559 9.67762 12.3437 9.71738 12.5758C9.84523 13.322 10.1685 13.8035 10.7166 14.064C11.1032 14.2478 11.4427 14.3138 12.0006 14.3138C12.5608 14.3138 12.9054 14.2466 13.2846 14.0632C13.6452 13.8887 13.8895 13.6444 14.0639 13.2838C14.2473 12.9046 14.3146 12.56 14.3146 11.9998C14.3146 11.4396 14.2473 11.095 14.0639 10.7158C13.8029 10.1762 13.338 9.85437 12.6393 9.72964C12.4448 9.69491 11.8473 9.66734 11.6886 9.68575Z" fill="white"/>
</svg>
