<svg width="12" height="12" viewBox="0 0 12 12" fill="none" xmlns="http://www.w3.org/2000/svg">
<g clip-path="url(#clip0_9045_17948)">
<path d="M10.7453 5.78613C10.7452 4.26944 10.4353 3.2059 10.0869 2.47726C9.79996 1.87712 9.48049 1.49233 9.26283 1.25558H2.73842C2.52076 1.49233 2.20136 1.87699 1.91434 2.47726C1.56597 3.2059 1.25559 4.26936 1.25558 5.78613C1.25558 7.42623 2.04252 8.54492 3.05441 9.32394C4.03546 10.0792 5.2166 10.5017 6.0519 10.7289C6.88332 10.5023 8.03878 10.0806 8.99456 9.32687C9.97925 8.55026 10.7453 7.43146 10.7453 5.78613ZM11.6024 5.78613C11.6024 7.74739 10.6701 9.09695 9.52525 9.99986C8.39363 10.8923 7.04798 11.3566 6.16071 11.5886C6.0897 11.6071 6.01493 11.6072 5.94392 11.5886C5.05867 11.3572 3.68852 10.8938 2.53167 10.0032C1.36196 9.10271 0.398438 7.75266 0.398438 5.78613C0.398445 4.14719 0.734839 2.95654 1.1409 2.10728C1.54735 1.25724 2.0152 0.76747 2.24163 0.530692L2.27344 0.500977C2.35059 0.435167 2.44899 0.398476 2.55134 0.398438H9.4495L9.49302 0.40053C9.5939 0.410837 9.68847 0.456737 9.75921 0.530692C9.98565 0.76747 10.4535 1.25726 10.8599 2.10728C11.266 2.95654 11.6024 4.14719 11.6024 5.78613Z" fill="white"/>
<path d="M5.57031 6.42299V3.68541C5.57031 3.44871 5.76219 3.25684 5.99888 3.25684C6.23558 3.25684 6.42746 3.44871 6.42746 3.68541V6.42299C6.42746 6.65968 6.23558 6.85156 5.99888 6.85156C5.76219 6.85156 5.57031 6.65968 5.57031 6.42299Z" fill="white"/>
<path d="M5.57031 8.31501V7.82115C5.57031 7.58446 5.76219 7.39258 5.99888 7.39258C6.23558 7.39258 6.42746 7.58446 6.42746 7.82115V8.31501C6.42746 8.5517 6.23558 8.74358 5.99888 8.74358C5.76219 8.74358 5.57031 8.5517 5.57031 8.31501Z" fill="white"/>
</g>
<defs>
<clipPath id="clip0_9045_17948">
<rect width="12" height="12" fill="white"/>
</clipPath>
</defs>
</svg>
