<svg width="32" height="32" viewBox="0 0 32 32" fill="none" xmlns="http://www.w3.org/2000/svg">
<path fill-rule="evenodd" clip-rule="evenodd" d="M15.5776 1.08964C14.4872 1.1305 13.5503 1.23895 12.544 1.44074C8.37225 2.27732 5.35254 4.47713 3.60614 7.95191C2.80111 9.55357 2.30947 11.3745 2.09411 13.5519C2.02351 14.2656 1.99721 16.0453 2.04569 16.8285C2.16764 18.7994 2.56966 20.716 3.155 22.1175L3.23084 22.2992L2.21974 25.0775C1.66361 26.6056 1.18124 27.9495 1.14783 28.0639C0.706073 29.5758 1.98575 31.0905 3.55372 30.9117C3.76498 30.8876 4.41254 30.6832 6.85353 29.8699L9.89052 28.8581L10.2333 28.9857C11.8324 29.5813 13.6312 29.9093 15.688 29.9805C20.7417 30.1554 24.7811 28.7516 27.4294 25.8999C29.0052 24.203 30.0501 22.0578 30.5746 19.4426C31.0618 17.0137 31.0618 14.0594 30.5746 11.6293C29.9404 8.46561 28.5383 5.97588 26.3769 4.17553C24.3421 2.48055 21.7697 1.49057 18.5599 1.16708C18.1235 1.12311 16.6168 1.05156 16.336 1.06148C16.2656 1.06398 15.9243 1.07665 15.5776 1.08964ZM15.552 3.37821C15.4728 3.38474 15.192 3.40602 14.928 3.42548C12.4115 3.61101 10.2198 4.33853 8.54402 5.54465C7.57884 6.2393 6.68332 7.21134 6.05375 8.24762C5.83948 8.60039 5.41862 9.45655 5.26326 9.85591C4.555 11.6762 4.23206 13.8839 4.32258 16.2863C4.39862 18.3045 4.73599 19.9562 5.38831 21.5039C5.58207 21.9637 5.58386 21.9707 5.58281 22.2719L5.58172 22.5759L4.48553 25.5799C3.88265 27.2321 3.39442 28.589 3.40063 28.5952C3.40681 28.6013 4.8366 28.1308 6.57794 27.5494L9.74402 26.4923L9.98402 26.5052C10.1836 26.516 10.3076 26.5508 10.72 26.7117C12.2144 27.295 13.6218 27.5797 15.52 27.6829C16.3046 27.7255 17.4206 27.7045 18.1963 27.6325C21.2933 27.3452 23.6504 26.379 25.4197 24.6719C27.0764 23.0734 28.1202 20.8017 28.4927 17.9839C28.6059 17.128 28.6234 16.7992 28.6234 15.5359C28.6234 14.2726 28.6059 13.9438 28.4927 13.0879C28.0146 9.47089 26.4565 6.80577 23.8748 5.18845C22.3486 4.23239 20.5326 3.66871 18.24 3.43949C17.7777 3.39329 15.8913 3.35028 15.552 3.37821ZM12.176 7.50657C11.7152 7.57773 11.3417 7.69818 10.896 7.91946C8.07804 9.31853 7.24447 13.2638 9.21247 15.8879C9.41478 16.1577 10.1489 17.0495 10.6216 17.5999C12.1209 19.3453 13.3385 20.522 15.3922 22.2097C16.2742 22.9346 16.6123 23.1626 17.1458 23.3926C18.4911 23.9726 19.9149 24.0215 21.2802 23.5347C21.6766 23.3933 22.3043 23.0526 22.6588 22.7864C23.2411 22.3493 23.8082 21.6919 24.0945 21.1222C24.6705 19.9761 24.7005 18.6315 24.1751 17.5199C23.8703 16.875 23.1583 16.0325 22.5947 15.6498C21.6402 15.0016 20.3453 14.8653 19.3486 15.3081C19.2455 15.354 19.1447 15.3816 19.1246 15.3695C18.8087 15.1799 18.0234 14.5293 17.6783 14.1713C17.3144 13.7937 16.7993 13.1566 16.6305 12.8754C16.6184 12.8552 16.6429 12.761 16.685 12.6659C17.2062 11.4873 16.9564 10.0395 16.0598 9.04266C15.838 8.7961 15.2775 8.31594 15.0105 8.14375C14.145 7.58564 13.1348 7.35853 12.176 7.50657ZM12.3279 9.80849C11.6926 9.94647 11.1028 10.4753 10.7374 11.2345C10.4953 11.7375 10.4513 11.9517 10.4519 12.6239C10.4523 13.1598 10.4585 13.22 10.5401 13.4879C10.7267 14.1003 10.8718 14.3261 11.7702 15.4023C13.539 17.5212 14.6558 18.6276 16.88 20.4642C17.7601 21.1909 18.0831 21.3715 18.752 21.511C19.002 21.5631 19.1356 21.5715 19.504 21.5581C20.0493 21.5382 20.3366 21.4691 20.784 21.2503C21.5825 20.8598 22.0826 20.2716 22.2262 19.5541C22.3531 18.92 22.1637 18.4083 21.5775 17.8008C21.2682 17.4802 21.0632 17.3729 20.7179 17.3508C20.4236 17.3319 20.2173 17.3981 19.9879 17.5849C19.4894 17.991 19.0245 18.0183 18.4666 17.6741C16.7787 16.6331 15.6936 15.6009 14.6711 14.0639C14.2453 13.4238 14.152 13.2475 14.1049 12.9943C14.0415 12.6536 14.1323 12.3718 14.4312 11.9819C14.6202 11.7354 14.668 11.5807 14.6488 11.2781C14.6282 10.9549 14.526 10.7553 14.2366 10.4738C13.9291 10.1748 13.7837 10.0615 13.5655 9.95092C13.198 9.76481 12.7607 9.71447 12.3279 9.80849Z" fill="currentColor"/>
</svg>
