<svg width="30" height="30" viewBox="0 0 30 30" fill="none" xmlns="http://www.w3.org/2000/svg">
<path fill-rule="evenodd" clip-rule="evenodd" d="M14.5181 0.0290922C13.4277 0.0699562 12.4908 0.178404 11.4845 0.380196C7.31274 1.21677 4.29303 3.41658 2.54663 6.89136C1.7416 8.49303 1.24996 10.3139 1.0346 12.4914C0.964004 13.205 0.9377 14.9848 0.98618 15.7679C1.10813 17.7388 1.51015 19.6555 2.09549 21.057L2.17133 21.2387L1.16023 24.017C0.6041 25.5451 0.121732 26.889 0.0883238 27.0034C-0.353436 28.5153 0.926244 30.03 2.49421 29.8512C2.70548 29.8271 3.35303 29.6226 5.79402 28.8093L8.83101 27.7975L9.17376 27.9252C10.7729 28.5207 12.5717 28.8487 14.6285 28.9199C19.6822 29.0949 23.7216 27.691 26.3699 24.8393C27.9457 23.1425 28.9906 20.9972 29.5151 18.382C30.0023 15.9531 30.0022 12.9989 29.5151 10.5687C28.8809 7.40506 27.4788 4.91533 25.3174 3.11498C23.2826 1.42 20.7102 0.43002 17.5004 0.106532C17.064 0.0625641 15.5573 -0.00898786 15.2765 0.000932139C15.2061 0.00342814 14.8648 0.0161002 14.5181 0.0290922ZM14.4925 2.31767C14.4133 2.3242 14.1325 2.34548 13.8685 2.36493C11.352 2.55047 9.16032 3.27799 7.48452 4.4841C6.51933 5.17876 5.62381 6.15079 4.99424 7.18708C4.77997 7.53984 4.35911 8.396 4.20375 8.79536C3.49549 10.6157 3.17255 12.8233 3.26308 15.2258C3.33911 17.2439 3.67648 18.8957 4.3288 20.4434C4.52256 20.9031 4.52436 20.9101 4.5233 21.2114L4.52221 21.5154L3.42602 24.5194C2.82314 26.1716 2.33492 27.5284 2.34112 27.5346C2.3473 27.5408 3.77709 27.0702 5.51844 26.4888L8.68451 25.4318L8.92452 25.4447C9.12407 25.4554 9.24813 25.4902 9.66052 25.6512C11.1549 26.2344 12.5623 26.5192 14.4605 26.6223C15.2451 26.665 16.3611 26.644 17.1368 26.572C20.2338 26.2846 22.5909 25.3185 24.3602 23.6114C26.0169 22.0129 27.0607 19.7412 27.4332 16.9234C27.5464 16.0675 27.5639 15.7387 27.5639 14.4754C27.5639 13.2121 27.5464 12.8832 27.4332 12.0274C26.955 8.41034 25.397 5.74522 22.8153 4.12791C21.2891 3.17184 19.4731 2.60816 17.1805 2.37895C16.7181 2.33274 14.8318 2.28973 14.4925 2.31767ZM11.1165 6.44602C10.6557 6.51719 10.2822 6.63764 9.83652 6.85892C7.01853 8.25799 6.18496 12.2033 8.15296 14.8274C8.35527 15.0971 9.08935 15.989 9.56211 16.5394C11.0613 18.2848 12.279 19.4614 14.3327 21.1492C15.2147 21.874 15.5528 22.1021 16.0863 22.3321C17.4316 22.912 18.8554 22.961 20.2207 22.4741C20.6171 22.3328 21.2448 21.9921 21.5993 21.7259C22.1816 21.2887 22.7486 20.6314 23.035 20.0616C23.6109 18.9156 23.641 17.571 23.1156 16.4594C22.8108 15.8144 22.0988 14.9719 21.5352 14.5892C20.5807 13.941 19.2858 13.8047 18.2891 14.2476C18.186 14.2934 18.0852 14.321 18.0651 14.3089C17.7492 14.1193 16.9639 13.4687 16.6188 13.1107C16.2549 12.7332 15.7398 12.0961 15.5709 11.8148C15.5589 11.7947 15.5834 11.7005 15.6254 11.6054C16.1467 10.4267 15.8969 8.97898 15.0003 7.98212C14.7785 7.73556 14.218 7.2554 13.951 7.0832C13.0855 6.52509 12.0753 6.29799 11.1165 6.44602ZM11.2684 8.74794C10.6331 8.88592 10.0433 9.41472 9.67789 10.174C9.43581 10.677 9.39181 10.8911 9.39235 11.5634C9.3928 12.0992 9.39895 12.1594 9.48058 12.4274C9.66717 13.0397 9.81226 13.2655 10.7107 14.3418C12.4795 16.4606 13.5963 17.567 15.8205 19.4037C16.7005 20.1304 17.0236 20.311 17.6925 20.4504C17.9425 20.5026 18.0761 20.5109 18.4445 20.4975C18.9898 20.4776 19.2771 20.4085 19.7245 20.1897C20.5229 19.7993 21.0231 19.2111 21.1667 18.4935C21.2936 17.8595 21.1042 17.3478 20.518 16.7402C20.2086 16.4197 20.0037 16.3124 19.6584 16.2902C19.3641 16.2713 19.1578 16.3375 18.9284 16.5244C18.4299 16.9305 17.965 16.9577 17.4071 16.6136C15.7192 15.5725 14.6341 14.5404 13.6116 13.0034C13.1858 12.3633 13.0925 12.1869 13.0454 11.9337C12.982 11.5931 13.0728 11.3113 13.3717 10.9214C13.5606 10.6748 13.6085 10.5201 13.5893 10.2176C13.5687 9.89434 13.4665 9.69475 13.1771 9.41328C12.8696 9.11424 12.7242 9.00093 12.506 8.89037C12.1385 8.70426 11.7012 8.65392 11.2684 8.74794Z" fill="white"/>
</svg>
