<svg width="64" height="64" viewBox="0 0 64 64" fill="none" xmlns="http://www.w3.org/2000/svg">
<path fill-rule="evenodd" clip-rule="evenodd" d="M30.6224 2.18307C27.108 2.51049 24.3984 4.27165 23.0019 7.13609C22.2912 8.59382 21.9522 10.2156 21.9509 12.1625C21.9491 15.1052 22.7491 17.4595 24.363 19.261L24.6183 19.546L24.1003 19.8555C20.9982 21.709 18.5995 24.7042 17.4484 28.1615C17.0975 29.2155 16.9931 29.7279 17.0432 30.1509C17.1345 30.9212 17.7501 31.7228 18.4643 32.0014C19.0234 32.2194 19.743 32.211 20.2247 31.981C20.9891 31.6158 21.3136 31.1954 21.6213 30.1715C21.9804 28.9766 22.304 28.2258 22.8202 27.3894C23.2758 26.6512 23.643 26.1872 24.3052 25.5125C26.3879 23.3909 29.0405 22.2744 31.9984 22.2744C35.0388 22.2744 37.6687 23.4118 39.8204 25.6572C40.988 26.8757 41.677 28.057 42.2652 29.8491C42.6358 30.978 42.8019 31.2985 43.1779 31.6099C44.3873 32.6119 46.0883 32.2212 46.7744 30.7841C47.0162 30.2773 47.0024 29.6428 46.7294 28.7264C45.8188 25.67 43.9995 22.9569 41.5586 21.0153C40.9384 20.5219 39.8619 19.793 39.5309 19.6421L39.3635 19.5659L39.7022 19.175C40.672 18.0555 41.2764 16.889 41.6626 15.3913C42.2245 13.212 42.1559 10.3804 41.4922 8.35209C40.4637 5.20937 37.9874 3.04707 34.6467 2.37462C33.4333 2.1304 31.947 2.05961 30.6224 2.18307ZM30.8784 6.75913C28.367 7.12579 27.0693 8.32707 26.6512 10.6726C26.5451 11.2675 26.5315 12.8839 26.6272 13.5238C26.9593 15.7454 28.0969 16.9975 30.2274 17.4867C31.0307 17.6712 32.8528 17.6843 33.6624 17.5113C35.4991 17.119 36.5732 16.2121 37.1196 14.5921C37.3348 13.9541 37.4378 13.1769 37.4378 12.1921C37.4378 10.6437 37.1678 9.53264 36.5744 8.64022C36.0194 7.80528 35.1626 7.23792 33.9967 6.93321C33.4636 6.79395 33.209 6.76777 32.2224 6.75088C31.5888 6.74 30.984 6.74377 30.8784 6.75913ZM18.6224 36.2655C14.9054 36.4375 11.6726 38.3558 9.74031 41.5361C9.20092 42.4238 8.82709 43.3559 8.50972 44.6047L8.33973 45.2733L7.89705 45.3826C5.56693 45.9582 3.74063 47.5054 2.80527 49.6961C2.03157 51.5083 1.90364 54.2459 2.49455 56.3444C3.0461 58.3029 4.26229 59.8592 6.01436 60.8484C7.90921 61.9182 11.0044 62.1867 13.4384 61.4924C13.7024 61.4171 14.2135 61.2181 14.5742 61.0503C17.1669 59.8439 18.6911 57.4299 18.8711 54.2448C19.0338 51.3641 18.3237 49.0971 16.7378 47.4338C15.937 46.5941 14.6602 45.8162 13.5613 45.4987C12.9552 45.3235 12.9622 45.3736 13.4098 44.4256C13.7677 43.6676 14.132 43.1595 14.7274 42.5879C15.4354 41.9082 16.1408 41.4793 17.0788 41.1582C17.9825 40.8489 18.3326 40.8329 24.2064 40.8325L29.6944 40.8321V43.0601V45.2882L29.1664 45.4392C26.5767 46.1796 24.7301 48.0128 23.9907 50.5772C23.7021 51.5781 23.5959 52.5316 23.6325 53.7921C23.6675 54.998 23.7799 55.7387 24.0616 56.621C24.8071 58.9563 26.5916 60.7191 28.9584 61.4587C29.904 61.7541 30.6404 61.8486 31.9984 61.8486C33.4368 61.8486 34.1381 61.7502 35.1984 61.3998C37.4981 60.6396 39.2035 58.9211 39.9309 56.6309C40.281 55.5287 40.3482 55.0203 40.3482 53.4721C40.3482 51.614 40.1779 50.719 39.5787 49.4265C38.6636 47.4528 37.0067 46.0615 34.8304 45.4392L34.3024 45.2882V43.0601V40.8321L39.7904 40.8325C45.6641 40.8329 46.0142 40.8489 46.9179 41.1582C48.6548 41.7528 49.9925 42.9954 50.7082 44.679C50.837 44.982 50.9424 45.2574 50.9424 45.291C50.9424 45.3247 50.7126 45.4186 50.4318 45.4997C49.3365 45.8162 48.0586 46.5952 47.259 47.4338C45.6625 49.1081 44.9604 51.3623 45.1287 54.2732C45.3071 57.3574 46.7649 59.7317 49.2464 60.9794C51.7357 62.2311 55.6154 62.1722 57.9824 60.8468C59.1774 60.1776 60.1759 59.1791 60.8451 57.9841C61.8162 56.2498 62.1387 53.5648 61.6561 51.2321C61.0425 48.2663 58.979 46.0939 56.0999 45.3827L55.6574 45.2734L55.4849 44.5728C54.5066 40.5995 51.5712 37.6088 47.6622 36.6029C46.2917 36.2503 47.1516 36.2699 32.5424 36.2576C25.1152 36.2514 18.8512 36.2549 18.6224 36.2655ZM9.37436 49.7557C9.12796 49.8044 8.79772 49.891 8.64047 49.9483C7.343 50.4202 6.71836 51.5653 6.71836 53.4721C6.71836 56.1981 7.97058 57.3673 10.7792 57.2637C12.5005 57.2002 13.4032 56.7182 13.9221 55.5854C14.168 55.0485 14.2531 54.6725 14.309 53.8764C14.3548 53.2226 14.2634 52.3215 14.0991 51.8081C13.759 50.7456 13.1102 50.1342 11.9943 49.8251C11.4681 49.6792 9.96335 49.6394 9.37436 49.7557ZM30.8301 49.7653C29.0503 50.0871 28.2176 51.258 28.2167 53.4401C28.2164 54.3328 28.2647 54.7151 28.4475 55.2641C28.8967 56.6134 30.071 57.2801 31.9984 57.2801C33.6087 57.2801 34.7447 56.7897 35.2832 55.8623C35.9687 54.6816 35.9747 52.2733 35.2949 51.1019C35.0702 50.7145 34.539 50.2523 34.0788 50.0437C33.293 49.6873 31.9145 49.5692 30.8301 49.7653ZM52.5744 49.7057C51.0132 49.9554 50.1898 50.6681 49.8129 52.0961C49.6754 52.6171 49.6564 54.1845 49.7808 54.7521C49.9157 55.368 50.3172 56.1379 50.6612 56.4407C51.2923 56.9963 51.9598 57.2104 53.2176 57.2608C56.0201 57.3732 57.2784 56.1992 57.2784 53.4721C57.2784 51.3821 56.5554 50.2519 54.9424 49.8201C54.5614 49.7181 52.9757 49.6415 52.5744 49.7057Z" fill="currentColor"/>
</svg>
