<svg width="53" height="52" viewBox="0 0 53 52" fill="none" xmlns="http://www.w3.org/2000/svg">
<path d="M47.6689 11.4043L31.2634 32.2483C36.7319 30.3686 48.0926 25.7988 49.7871 22.5573C51.4817 19.3158 49.0811 13.7714 47.6689 11.4043Z" fill="#28A745"/>
<path d="M47.5035 39.4736C45.593 42.1888 40.8489 47.937 34.1295 50.251C28.0159 52.3563 26.5704 51.1282 26.6119 50.251C26.3767 49.7524 26.4546 48.5204 28.6471 47.5781L47.5035 39.4736ZM28.066 0C30.0953 0.0417832 35.0543 0.806743 38.7057 3.52637C39.7468 3.12581 40.7085 2.7555 41.5641 2.42188C43.9209 1.50338 47.8262 2.42294 45.0944 6.39062C41.9962 10.8901 26.1417 31.5091 18.4303 41.1445L47.7526 29.7832C49.0315 29.1981 51.3491 26.6578 51.6149 23.0156C52.7275 26.5661 53.1839 32.9848 47.7526 35.3799C42.9016 37.5186 21.5587 45.7951 11.4938 49.666C8.57794 50.7873 6.58427 49.4688 8.12073 46.9092C10.7788 42.4815 13.3874 38.8887 14.8912 36.6748C16.1127 34.8771 28.6339 19.0604 34.7526 11.1523L5.26428 22.3887C3.96808 22.9735 1.35988 24.2271 0.196899 28.9053C-0.107624 27.0812 -0.183352 23.0856 0.902954 21.0527C2.26474 18.5049 3.67714 17.2096 9.08459 14.9541C12.4367 13.5559 19.7312 10.7659 26.9401 8.01953C29.5035 6.41123 32.7109 2.97885 28.066 0ZM9.25159 36.0908C8.10253 37.5528 5.80432 40.8365 5.80432 42.2734C4.44758 40.4773 1.49275 35.7984 1.5592 33.125C1.62574 30.4517 2.52326 27.3192 8.50354 25.1055C13.2881 23.3344 20.0499 20.6356 22.8326 19.5078L9.25159 36.0908ZM47.7106 11.4033C48.209 13.7007 47.8518 19.4652 42.4362 24.1436C37.0203 28.822 34.3922 29.2961 33.9215 28.9062L47.7106 11.4033ZM19.1774 0.709961C20.5392 0.405029 23.0727 0.161204 24.1198 1.50391C25.781 3.63427 23.9119 5.55564 21.5446 6.47461C19.6504 7.20991 8.79369 11.4313 3.60217 13.4502C5.49893 9.94132 11.2696 2.48105 19.1774 0.709961Z" fill="white"/>
<path d="M24.3689 1.79688C21.2124 2.59889 14.5256 7.83984 11.5768 10.3601C13.3627 9.66386 17.8566 7.92059 21.5447 6.51707C25.2328 5.11354 24.9642 2.78547 24.3689 1.79688Z" fill="#28A745"/>
<path d="M9.00245 30.5757C4.81593 33.9843 3.82468 37.7883 3.85237 39.2642L5.97047 42.4806C6.26951 39.0721 15.8133 28.1947 20.1742 22.7227C18.1807 23.8226 13.189 27.1672 9.00245 30.5757Z" fill="#28A745"/>
<path d="M38.2386 45.8235C36.0722 47.1597 30.5214 50.1399 27.7249 51.2956C26.9357 51.2956 25.9376 50.4165 26.7695 48.9982C27.6014 47.5798 29.9261 46.9778 31.3441 46.3666C32.7622 45.7553 39.0633 42.9413 42.9259 41.4375C42.2198 42.5653 41.0153 44.1109 38.2386 45.8235Z" fill="#28A745"/>
</svg>
