<svg width="48" height="48" viewBox="0 0 48 48" fill="none" xmlns="http://www.w3.org/2000/svg">
<rect width="48" height="48" rx="24" fill="white"/>
<g clip-path="url(#clip0_137_188)">
<path d="M16.9586 16.6713C17.1964 16.464 17.5576 16.4887 17.765 16.7265C21.9724 21.5507 26.4491 26.0275 31.2733 30.2349C31.5111 30.4423 31.5359 30.8034 31.3286 31.0413C31.1212 31.2791 30.7601 31.3039 30.5222 31.0965C25.6588 26.8549 21.145 22.3411 16.9034 17.4777C16.696 17.2398 16.7208 16.8787 16.9586 16.6713Z" fill="#0E172B"/>
<path d="M30.2348 16.7265C30.4422 16.4887 30.8033 16.464 31.0412 16.6713C31.279 16.8787 31.3037 17.2398 31.0964 17.4777C26.8547 22.3411 22.341 26.8549 17.4775 31.0965C17.2397 31.3039 16.8786 31.2791 16.6712 31.0413C16.4638 30.8034 16.4886 30.4423 16.7264 30.2349C21.5506 26.0275 26.0273 21.5507 30.2348 16.7265Z" fill="#0E172B"/>
</g>
<defs>
<clipPath id="clip0_137_188">
<rect width="16" height="16" fill="white" transform="translate(16 16)"/>
</clipPath>
</defs>
</svg>
