<svg width="48" height="48" viewBox="0 0 48 48" fill="none" xmlns="http://www.w3.org/2000/svg">
<rect width="48" height="48" rx="24" fill="white"/>
<path fill-rule="evenodd" clip-rule="evenodd" d="M16.5071 17.1541C16.1686 17.2115 15.945 17.5384 16.0118 17.8777C16.056 18.1022 16.2289 18.2875 16.4486 18.3459C16.5772 18.3801 31.4209 18.3801 31.5495 18.3459C31.8389 18.2689 32.033 17.9779 31.9953 17.6772C31.9692 17.4684 31.8099 17.265 31.6088 17.1835L31.5146 17.1454L24.0505 17.143C19.9452 17.1417 16.5507 17.1467 16.5071 17.1541ZM16.4811 23.4027C16.3022 23.4382 16.1345 23.5751 16.052 23.753C16.0117 23.84 16.0044 23.878 16.0046 24.0012C16.0047 24.1246 16.0121 24.163 16.0535 24.2534C16.1126 24.3825 16.2306 24.4985 16.3684 24.5631L16.4664 24.6089H23.9991H31.5317L31.6297 24.5631C31.7675 24.4985 31.8855 24.3825 31.9446 24.2534C31.986 24.1628 31.9934 24.1248 31.9934 24.0012C31.9934 23.8777 31.986 23.8396 31.9446 23.749C31.8855 23.62 31.7675 23.5039 31.6297 23.4394L31.5317 23.3935L24.0419 23.3911C19.9225 23.3897 16.5201 23.3949 16.4811 23.4027ZM16.4406 29.6575C16.2281 29.7162 16.0552 29.9045 16.0118 30.1247C15.9546 30.4153 16.1132 30.7071 16.3893 30.8189L16.4836 30.8571H23.9991H31.5146L31.6088 30.8189C31.8099 30.7374 31.9692 30.534 31.9953 30.3253C32.033 30.0245 31.8389 29.7335 31.5495 29.6565C31.4264 29.6238 16.5593 29.6248 16.4406 29.6575Z" fill="#0E172B"/>
</svg>
