<svg width="13" height="15" viewBox="0 0 13 15" fill="none" xmlns="http://www.w3.org/2000/svg">
<path fill-rule="evenodd" clip-rule="evenodd" d="M6.28044 0.0100147C6.11203 0.0525267 5.96488 0.175791 5.88932 0.337647L5.84451 0.433647L5.83939 0.971199L5.83427 1.50873L5.52739 1.51955C4.67625 1.54955 3.23988 1.67749 2.52451 1.78702C1.77748 1.90142 1.17564 2.30585 0.800397 2.94565C0.649469 3.20299 0.567229 3.46294 0.486189 3.93875C0.195181 5.6476 0.0389409 7.56462 0.00311693 9.86565C-0.0199711 11.3494 0.0886689 13.38 0.214381 13.8144C0.365773 14.3375 0.795725 14.7424 1.361 14.8943L1.49251 14.9296H6.41251H11.3325L11.464 14.8943C11.9399 14.7665 12.3095 14.4703 12.5224 14.0464C12.6283 13.8354 12.665 13.6341 12.7242 12.9376C12.8944 10.9369 12.8404 8.08795 12.588 5.75365C12.4729 4.6892 12.3126 3.67405 12.2122 3.37357C11.9418 2.56437 11.2755 1.97813 10.4365 1.81128C10.3014 1.7844 9.56145 1.69147 9.15651 1.65051C8.5387 1.58803 7.84275 1.53893 7.30563 1.51993L6.99075 1.5088L6.98563 0.971231L6.98051 0.433647L6.93763 0.342159C6.84308 0.140431 6.66172 0.0140788 6.44841 0.00131076C6.38907 -0.00224124 6.31348 0.00167874 6.28044 0.0100147ZM5.70851 2.65917C4.57379 2.71107 3.90886 2.76657 2.94436 2.88984C2.3976 2.95973 2.25203 3.01848 1.99441 3.27325C1.85924 3.40691 1.83142 3.44433 1.76803 3.57765C1.68609 3.74995 1.66401 3.83595 1.59752 4.24165C1.38368 5.54643 1.25836 6.86598 1.1774 8.66565C1.14979 9.27973 1.14976 11.314 1.17736 11.8336C1.20193 12.2961 1.2506 12.9535 1.28289 13.259C1.31513 13.5641 1.35848 13.646 1.53865 13.7424L1.60451 13.7776L2.98451 13.782L4.36451 13.7863V13.1552C4.36451 12.5272 4.3735 12.3753 4.42334 12.1616C4.57088 11.529 5.05664 10.9735 5.66851 10.7378C5.90667 10.646 6.05696 10.6161 6.32878 10.6062C6.65996 10.5942 6.86603 10.627 7.15651 10.7382C7.76558 10.9712 8.25436 11.5299 8.40168 12.1616C8.45152 12.3753 8.46051 12.5272 8.46051 13.1552V13.7863L9.84051 13.782L11.2205 13.7776L11.2864 13.7424C11.4665 13.646 11.5099 13.5641 11.5421 13.259C11.5753 12.9448 11.6237 12.2876 11.6477 11.8256C11.6751 11.2967 11.6751 9.29501 11.6476 8.67365C11.5664 6.83891 11.4376 5.50195 11.2118 4.1515C11.1285 3.6532 11.0653 3.50808 10.8295 3.27325C10.6678 3.11217 10.5488 3.03672 10.3527 2.97091C10.1323 2.89696 8.68147 2.74192 7.64451 2.68149C7.35446 2.66457 5.94521 2.64833 5.70851 2.65917ZM3.97625 4.93893C3.82324 4.9753 3.66958 5.10394 3.59974 5.25413C3.53998 5.38262 3.5319 5.56477 3.58025 5.6936C3.62283 5.80704 3.74867 5.94902 3.85387 6.00234C3.89582 6.0236 3.97928 6.04858 4.03932 6.05782C4.11305 6.0692 4.90971 6.0732 6.49251 6.07016L8.83651 6.06565L8.94051 6.01592C9.06529 5.95624 9.16649 5.85738 9.22523 5.73776C9.26357 5.65973 9.26849 5.63136 9.26833 5.48965C9.26819 5.34558 9.26371 5.32114 9.22336 5.24424C9.16344 5.13005 9.05484 5.0245 8.94364 4.97237L8.85251 4.92965L6.44451 4.92712C5.0727 4.9257 4.01059 4.93077 3.97625 4.93893ZM3.93731 7.44733C3.78321 7.50078 3.67656 7.59643 3.59577 7.75365C3.56827 7.80718 3.55707 7.86053 3.55211 7.96165C3.54347 8.13789 3.58108 8.24469 3.69617 8.37061C3.79283 8.47637 3.89195 8.53037 4.03072 8.5529C4.17091 8.57563 8.65411 8.57563 8.7943 8.5529C8.93307 8.53037 9.03219 8.47637 9.12884 8.37061C9.24368 8.24496 9.28145 8.13798 9.27324 7.96165C9.26845 7.85848 9.25744 7.80661 9.22771 7.74682C9.17312 7.63704 9.05411 7.52013 8.94483 7.46891L8.85251 7.42565L6.43651 7.42206C4.1444 7.41866 4.01624 7.41995 3.93731 7.44733ZM6.26472 11.7532C6.0583 11.7906 5.90161 11.879 5.7463 12.0456C5.69228 12.1036 5.62934 12.1906 5.60643 12.2391C5.52046 12.4208 5.51651 12.4607 5.51651 13.149V13.7856H6.41251H7.30851V13.149C7.30851 12.6368 7.30385 12.4945 7.28468 12.4209C7.20974 12.1332 6.96336 11.8705 6.68902 11.7857C6.56963 11.7489 6.37212 11.7337 6.26472 11.7532Z" fill="white"/>
</svg>
