<svg width="20" height="20" viewBox="0 0 20 20" fill="none" xmlns="http://www.w3.org/2000/svg">
<path fill-rule="evenodd" clip-rule="evenodd" d="M16.8022 0C18.5683 2.28676e-06 20 1.43175 20 3.19783V16.8022C20 18.5683 18.5683 20 16.8022 20H3.19778C1.43169 20 0 18.5683 0 16.8022V3.19783C0 1.43175 1.43169 3.72561e-06 3.19778 0H16.8022ZM10.0002 0.666617C4.84555 0.666617 0.666857 4.84525 0.666847 9.99989C0.666847 15.1545 4.84554 19.3332 10.0002 19.3332C15.1549 19.3332 19.3335 15.1545 19.3335 9.99989C19.3335 4.84526 15.1548 0.666624 10.0002 0.666617Z" fill="#2B7FFF"/>
</svg>
