<svg width="100" height="54" viewBox="0 0 100 54" fill="none" xmlns="http://www.w3.org/2000/svg">
<path d="M25.7218 30.2654C25.9763 29.0467 27.3973 28.6151 28.076 28.5516C29.9594 28.3992 31.0029 29.6307 31.2892 30.2654C31.4801 30.5405 31.5819 31.2938 30.4621 32.1063C29.0623 33.1219 27.3761 32.5189 26.8989 32.3919C26.4217 32.2649 25.4037 31.7889 25.7218 30.2654Z" fill="white"/>
<path d="M26.7399 40.1357L24.7038 41.5956L27.0898 33.4707H28.1079L28.3306 41.913L26.7399 40.1357Z" fill="white"/>
<path d="M29.2531 42.992L29.444 33.2801L29.9212 33.534C29.9212 33.9911 31.9149 38.9507 32.9117 41.3734C32.3709 41.2464 31.4165 40.4212 31.0983 40.4212C30.7802 40.4212 30.5575 40.2308 30.2075 41.6908C29.9276 42.8587 29.4546 43.0449 29.2531 42.992Z" fill="white"/>
<path d="M24.831 31.0907C22.9476 29.8466 19.8256 30.1915 18.5 30.5194C18.6782 29.9608 18.7227 28.3189 18.7227 27.5678C18.7736 26.1967 19.5711 25.8327 19.9634 25.8222C24.0038 25.6952 25.9763 28.7103 25.5945 29.0277C25.2891 29.2816 24.9582 30.5088 24.831 31.0907Z" fill="white"/>
<path d="M32.5765 31.0907C34.4599 29.8466 37.5819 30.1915 38.9075 30.5194C38.7294 29.9608 38.6848 28.3189 38.6848 27.5678C38.6339 26.1967 37.8364 25.8327 37.4441 25.8222C33.4037 25.6952 31.4312 28.7103 31.813 29.0277C32.1184 29.2816 32.4493 30.5088 32.5765 31.0907Z" fill="white"/>
<path d="M21.8723 30.9633C20.7016 30.8618 19.3696 31.1961 18.85 31.3759C19.3908 31.7885 20.6952 32.1376 21.8723 32.2011C22.814 32.2519 24.1735 32.053 24.7356 31.9472C24.269 31.6616 23.0431 31.0649 21.8723 30.9633Z" fill="white"/>
<path d="M35.5352 30.9633C36.706 30.8618 38.0379 31.1961 38.5576 31.3759C38.0167 31.7885 36.7124 32.1376 35.5352 32.2011C34.5936 32.2519 33.234 32.053 32.672 31.9472C33.1386 31.6616 34.3645 31.0649 35.5352 30.9633Z" fill="white"/>
<path d="M42.2039 24.1855C42.639 25.3375 43.1494 26.2557 43.7352 26.9403C44.7561 28.134 46.0238 28.7309 47.5383 28.7309C48.3584 28.7309 49.0654 28.4721 49.6595 27.9545C50.262 27.437 50.5632 26.7149 50.5632 25.7883C50.5632 24.9535 50.262 24.2272 49.6595 23.6095C49.2663 23.2171 48.4378 22.6286 47.1743 21.8439L44.9778 20.4791C44.3167 20.0617 43.7896 19.6401 43.3963 19.2144C42.6683 18.4046 42.3043 17.5114 42.3043 16.5347C42.3043 15.2408 42.7352 14.1639 43.5971 13.3041C44.459 12.4443 45.6012 12.0144 47.0237 12.0144C47.6094 12.0144 48.3123 12.1605 49.1324 12.4526C49.9608 12.7365 50.4335 12.8784 50.5507 12.8784C50.8687 12.8784 51.0862 12.8032 51.2034 12.653C51.3289 12.5027 51.4251 12.2898 51.4921 12.0144H52.0192L52.5841 17.4738H51.969C51.5506 15.8293 50.877 14.6815 49.9482 14.0304C49.0278 13.3792 48.1157 13.0537 47.212 13.0537C46.5091 13.0537 45.8941 13.2624 45.3669 13.6798C44.8481 14.0888 44.5887 14.6606 44.5887 15.3952C44.5887 16.0547 44.7895 16.6182 45.1912 17.0857C45.5928 17.5615 46.2162 18.0582 47.0614 18.5758L49.3206 19.9657C50.7348 20.8338 51.7305 21.6311 52.3079 22.3573C52.8769 23.0919 53.1614 23.9601 53.1614 24.9618C53.1614 26.3058 52.651 27.4286 51.6301 28.3302C50.6176 29.2317 49.3206 29.6825 47.7391 29.6825C46.9442 29.6825 46.1116 29.5323 45.2414 29.2317C44.3795 28.9312 43.8858 28.781 43.7603 28.781C43.4591 28.781 43.254 28.8728 43.1453 29.0564C43.0449 29.2401 42.9779 29.4363 42.9444 29.645H42.3796L41.614 24.1855H42.2039Z" fill="white"/>
<path d="M66.328 22.758L63.3533 15.6958L60.4162 22.758H66.328ZM55.2324 29.3444V28.8811C55.8935 28.806 56.3872 28.5556 56.7135 28.1298C57.0482 27.7041 57.6172 26.5479 58.4205 24.6613L63.7801 12.077H64.2821L70.6834 26.6147C71.1102 27.583 71.4491 28.1841 71.7001 28.4178C71.9595 28.6432 72.3904 28.7976 72.9929 28.8811V29.3444H66.4536V28.8811C67.2066 28.8143 67.692 28.735 67.9095 28.6432C68.1271 28.543 68.2359 28.3051 68.2359 27.9295C68.2359 27.8043 68.194 27.583 68.1104 27.2658C68.0267 26.9486 67.9095 26.6147 67.7589 26.2641L66.692 23.7973H59.9644C59.295 25.4752 58.8933 26.502 58.7594 26.8777C58.6339 27.245 58.5712 27.5371 58.5712 27.7542C58.5712 28.1883 58.7469 28.4888 59.0983 28.6557C59.3159 28.7559 59.7259 28.831 60.3284 28.8811V29.3444H55.2324Z" fill="white"/>
<path d="M73.8464 28.8811C74.8924 28.806 75.5702 28.6516 75.8798 28.4178C76.1894 28.1757 76.3442 27.558 76.3442 26.5646V15.1573C76.3442 14.214 76.1894 13.6088 75.8798 13.3417C75.5702 13.0662 74.8924 12.9034 73.8464 12.8533V12.3775H81.4527V12.8533C80.4067 12.9034 79.7289 13.0662 79.4193 13.3417C79.1097 13.6088 78.9549 14.214 78.9549 15.1573V26.5646C78.9549 27.558 79.1097 28.1757 79.4193 28.4178C79.7289 28.6516 80.4067 28.806 81.4527 28.8811V29.3444H73.8464V28.8811Z" fill="white"/>
<path d="M42.4076 35.0323C42.607 35.018 42.7362 34.9885 42.7952 34.944C42.8542 34.8979 42.8837 34.7801 42.8837 34.5908V32.4166C42.8837 32.2368 42.8542 32.1215 42.7952 32.0706C42.7362 32.0181 42.607 31.987 42.4076 31.9775V31.8868H43.8573V31.9775C43.658 31.987 43.5288 32.0181 43.4698 32.0706C43.4108 32.1215 43.3813 32.2368 43.3813 32.4166V34.5908C43.3813 34.7801 43.4108 34.8979 43.4698 34.944C43.5288 34.9885 43.658 35.018 43.8573 35.0323V35.1206H42.4076V35.0323Z" fill="white"/>
<path d="M44.0152 35.0323C44.2178 35.0116 44.3478 34.9663 44.4052 34.8963C44.4626 34.8247 44.4913 34.66 44.4913 34.4022V32.2472L44.4243 32.1684C44.3525 32.0841 44.2911 32.0324 44.2401 32.0133C44.1907 31.9926 44.1157 31.9807 44.0152 31.9775V31.8868H44.8549L46.7424 34.24V32.6052C46.7424 32.3363 46.7025 32.1613 46.6228 32.0801C46.5702 32.0276 46.4537 31.9934 46.2735 31.9775V31.8868H47.4242V31.9775C47.2376 31.9966 47.1132 32.0419 47.051 32.1135C46.9888 32.1851 46.9577 32.349 46.9577 32.6052V35.1779H46.874L44.7066 32.4978V34.4022C44.7066 34.6695 44.7457 34.8438 44.8238 34.9249C44.8748 34.9774 44.9889 35.0132 45.1659 35.0323V35.1206H44.0152V35.0323Z" fill="white"/>
<path d="M47.5964 31.8868H50.3643L50.3906 32.7173H50.2734C50.216 32.4564 50.1426 32.2869 50.0533 32.209C49.9656 32.1294 49.7798 32.0897 49.4959 32.0897H49.2232V34.5908C49.2232 34.7801 49.2527 34.8979 49.3117 34.944C49.3707 34.9885 49.4999 35.018 49.6992 35.0323V35.1206H48.2711V35.0323C48.4784 35.0164 48.6076 34.9822 48.6586 34.9297C48.7096 34.8772 48.7352 34.7451 48.7352 34.5335V32.0897H48.4624C48.1913 32.0897 48.0063 32.1286 47.9074 32.2066C47.8101 32.2846 47.7368 32.4548 47.6873 32.7173H47.5677L47.5964 31.8868Z" fill="white"/>
<path d="M50.5509 35.0323C50.7311 35.0132 50.8475 34.9814 50.9001 34.9368C50.9544 34.8907 50.9815 34.7753 50.9815 34.5908V32.4166C50.9815 32.2432 50.9552 32.1302 50.9025 32.0777C50.8499 32.0236 50.7327 31.9902 50.5509 31.9775V31.8868H53.1537L53.1704 32.5884H53.046C53.0045 32.3721 52.9423 32.2321 52.8594 32.1684C52.7765 32.1048 52.5915 32.073 52.3044 32.073H51.6394C51.5676 32.073 51.5229 32.0849 51.5054 32.1087C51.4894 32.131 51.4815 32.174 51.4815 32.2376V33.3283H52.235C52.4439 33.3283 52.5771 33.2973 52.6345 33.2352C52.6919 33.1732 52.7382 33.0475 52.7733 32.8581H52.8881V33.9894H52.7733C52.7366 33.8 52.6896 33.6751 52.6321 33.6147C52.5747 33.5526 52.4424 33.5216 52.235 33.5216H51.4815V34.7316C51.4815 34.8286 51.5118 34.8859 51.5724 34.9034C51.6346 34.9209 51.8188 34.9297 52.125 34.9297C52.4567 34.9297 52.7015 34.8939 52.8594 34.8223C53.0173 34.7491 53.1592 34.5733 53.2852 34.2948H53.4216L53.1991 35.1206H50.5509V35.0323Z" fill="white"/>
<path d="M54.4646 33.4476C54.8171 33.4349 55.0691 33.3983 55.2206 33.3378C55.4805 33.2312 55.6105 33.0308 55.6105 32.7364C55.6105 32.4532 55.4941 32.2599 55.2612 32.1565C55.1368 32.1008 54.9718 32.073 54.766 32.073C54.6273 32.073 54.542 32.0833 54.5101 32.104C54.4798 32.1231 54.4646 32.1692 54.4646 32.2424V33.4476ZM53.546 35.0323C53.7342 35.0148 53.8514 34.9782 53.8976 34.9225C53.9439 34.8668 53.967 34.7372 53.967 34.5335V32.4166C53.967 32.2448 53.9407 32.1326 53.8881 32.0801C53.837 32.026 53.723 31.9918 53.546 31.9775V31.8868H54.9024C55.1847 31.8868 55.4199 31.9226 55.6081 31.9942C55.9653 32.1294 56.144 32.3784 56.144 32.7412C56.144 32.9846 56.0642 33.1716 55.9047 33.302C55.7469 33.4325 55.5316 33.5184 55.2588 33.5598L56.2684 34.7984C56.3306 34.8748 56.3928 34.9305 56.455 34.9655C56.5172 35.0005 56.5969 35.0227 56.6942 35.0323V35.1206H55.9047L54.7373 33.6171L54.4646 33.629V34.5908C54.4646 34.7722 54.4917 34.8875 54.5459 34.9368C54.6018 34.9846 54.7222 35.0164 54.9072 35.0323V35.1206H53.546V35.0323Z" fill="white"/>
<path d="M56.8138 35.0323C57.0163 35.0116 57.1463 34.9663 57.2037 34.8963C57.2612 34.8247 57.2899 34.66 57.2899 34.4022V32.2472L57.2229 32.1684C57.1511 32.0841 57.0897 32.0324 57.0387 32.0133C56.9892 31.9926 56.9143 31.9807 56.8138 31.9775V31.8868H57.6535L59.541 34.24V32.6052C59.541 32.3363 59.5011 32.1613 59.4214 32.0801C59.3687 32.0276 59.2523 31.9934 59.0721 31.9775V31.8868H60.2228V31.9775C60.0362 31.9966 59.9118 32.0419 59.8496 32.1135C59.7874 32.1851 59.7563 32.349 59.7563 32.6052V35.1779H59.6726L57.5052 32.4978V34.4022C57.5052 34.6695 57.5442 34.8438 57.6224 34.9249C57.6734 34.9774 57.7875 35.0132 57.9645 35.0323V35.1206H56.8138V35.0323Z" fill="white"/>
<path d="M62.4858 33.8653L61.9189 32.5192L61.3591 33.8653H62.4858ZM60.3711 35.1206V35.0323C60.4971 35.018 60.5912 34.9702 60.6534 34.8891C60.7172 34.808 60.8256 34.5876 60.9787 34.228L62.0002 31.8295H62.0959L63.316 34.6003C63.3973 34.7849 63.4619 34.8994 63.5097 34.944C63.5592 34.9869 63.6413 35.0164 63.7561 35.0323V35.1206H62.5098V35.0323C62.6533 35.0196 62.7458 35.0044 62.7873 34.9869C62.8287 34.9679 62.8495 34.9225 62.8495 34.8509C62.8495 34.827 62.8415 34.7849 62.8255 34.7244C62.8096 34.664 62.7873 34.6003 62.7586 34.5335L62.5552 34.0633H61.273C61.1454 34.3831 61.0688 34.5788 61.0433 34.6504C61.0194 34.7204 61.0074 34.7761 61.0074 34.8175C61.0074 34.9002 61.0409 34.9575 61.1079 34.9893C61.1494 35.0084 61.2275 35.0227 61.3423 35.0323V35.1206H60.3711Z" fill="white"/>
<path d="M63.3901 31.8868H66.158L66.1843 32.7173H66.0671C66.0096 32.4564 65.9363 32.2869 65.847 32.209C65.7593 32.1294 65.5735 32.0897 65.2896 32.0897H65.0169V34.5908C65.0169 34.7801 65.0464 34.8979 65.1054 34.944C65.1644 34.9885 65.2936 35.018 65.4929 35.0323V35.1206H64.0647V35.0323C64.2721 35.0164 64.4012 34.9822 64.4523 34.9297C64.5033 34.8772 64.5288 34.7451 64.5288 34.5335V32.0897H64.2561C63.985 32.0897 63.8 32.1286 63.7011 32.2066C63.6038 32.2846 63.5305 32.4548 63.481 32.7173H63.3614L63.3901 31.8868Z" fill="white"/>
<path d="M66.3685 35.0323C66.5678 35.018 66.697 34.9885 66.756 34.944C66.815 34.8979 66.8445 34.7801 66.8445 34.5908V32.4166C66.8445 32.2368 66.815 32.1215 66.756 32.0706C66.697 32.0181 66.5678 31.987 66.3685 31.9775V31.8868H67.8182V31.9775C67.6188 31.987 67.4897 32.0181 67.4306 32.0706C67.3716 32.1215 67.3421 32.2368 67.3421 32.4166V34.5908C67.3421 34.7801 67.3716 34.8979 67.4306 34.944C67.4897 34.9885 67.6188 35.018 67.8182 35.0323V35.1206H66.3685V35.0323Z" fill="white"/>
<path d="M68.622 33.5049C68.622 34.0188 68.7233 34.3991 68.9258 34.6457C69.1283 34.8907 69.3771 35.0132 69.6722 35.0132C69.9609 35.0132 70.2073 34.8939 70.4114 34.6552C70.6171 34.415 70.72 34.0315 70.72 33.5049C70.72 32.9719 70.6163 32.5869 70.409 32.3498C70.2017 32.1127 69.9561 31.9942 69.6722 31.9942C69.3787 31.9942 69.1299 32.1175 68.9258 32.3641C68.7233 32.6091 68.622 32.9894 68.622 33.5049ZM68.067 33.5049C68.067 32.983 68.2313 32.5646 68.5598 32.2496C68.8612 31.9616 69.232 31.8176 69.6722 31.8176C70.114 31.8176 70.4856 31.9624 70.787 32.2519C71.1139 32.5654 71.2774 32.983 71.2774 33.5049C71.2774 34.0347 71.1083 34.4563 70.7702 34.7698C70.4672 35.0498 70.1012 35.1898 69.6722 35.1898C69.2129 35.1898 68.8317 35.0347 68.5287 34.7244C68.2209 34.4078 68.067 34.0013 68.067 33.5049Z" fill="white"/>
<path d="M71.5166 35.0323C71.7192 35.0116 71.8491 34.9663 71.9066 34.8963C71.964 34.8247 71.9927 34.66 71.9927 34.4022V32.2472L71.9257 32.1684C71.8539 32.0841 71.7925 32.0324 71.7415 32.0133C71.6921 31.9926 71.6171 31.9807 71.5166 31.9775V31.8868H72.3563L74.2438 34.24V32.6052C74.2438 32.3363 74.2039 32.1613 74.1242 32.0801C74.0715 32.0276 73.9551 31.9934 73.7749 31.9775V31.8868H74.9256V31.9775C74.739 31.9966 74.6146 32.0419 74.5524 32.1135C74.4902 32.1851 74.4591 32.349 74.4591 32.6052V35.1779H74.3754L72.208 32.4978V34.4022C72.208 34.6695 72.2471 34.8438 72.3252 34.9249C72.3762 34.9774 72.4903 35.0132 72.6673 35.0323V35.1206H71.5166V35.0323Z" fill="white"/>
<path d="M77.1887 33.8653L76.6217 32.5192L76.0619 33.8653H77.1887ZM75.0739 35.1206V35.0323C75.1999 35.018 75.294 34.9702 75.3562 34.8891C75.42 34.808 75.5284 34.5876 75.6815 34.228L76.703 31.8295H76.7987L78.0188 34.6003C78.1001 34.7849 78.1647 34.8994 78.2125 34.944C78.262 34.9869 78.3441 35.0164 78.459 35.0323V35.1206H77.2126V35.0323C77.3561 35.0196 77.4486 35.0044 77.4901 34.9869C77.5315 34.9679 77.5523 34.9225 77.5523 34.8509C77.5523 34.827 77.5443 34.7849 77.5284 34.7244C77.5124 34.664 77.4901 34.6003 77.4614 34.5335L77.258 34.0633H75.9758C75.8482 34.3831 75.7716 34.5788 75.7461 34.6504C75.7222 34.7204 75.7102 34.7761 75.7102 34.8175C75.7102 34.9002 75.7437 34.9575 75.8107 34.9893C75.8522 35.0084 75.9303 35.0227 76.0452 35.0323V35.1206H75.0739Z" fill="white"/>
<path d="M78.5977 35.0323C78.7779 35.0132 78.8943 34.9814 78.947 34.9368C79.0012 34.8907 79.0283 34.7753 79.0283 34.5908V32.4166C79.0283 32.2432 79.002 32.1302 78.9494 32.0777C78.8967 32.0236 78.7795 31.9902 78.5977 31.9775V31.8868H79.9828V31.9775C79.8026 31.987 79.6814 32.0165 79.6192 32.0658C79.5586 32.1151 79.5283 32.2209 79.5283 32.3832V34.7316C79.5283 34.7857 79.5371 34.8286 79.5546 34.8605C79.5737 34.8907 79.6144 34.9098 79.6766 34.9177C79.7133 34.9225 79.7516 34.9257 79.7914 34.9273C79.8329 34.9289 79.9095 34.9297 80.0211 34.9297C80.4565 34.9297 80.7507 34.8939 80.9038 34.8223C81.0569 34.7507 81.2053 34.5677 81.3488 34.2734H81.4732L81.234 35.1206H78.5977V35.0323Z" fill="white"/>
<path d="M42.1394 40.712C42.2568 41.0228 42.3945 41.2706 42.5525 41.4553C42.828 41.7774 43.17 41.9384 43.5786 41.9384C43.7999 41.9384 43.9906 41.8686 44.1509 41.7289C44.3135 41.5893 44.3948 41.3945 44.3948 41.1445C44.3948 40.9192 44.3135 40.7233 44.1509 40.5566C44.0448 40.4508 43.8213 40.292 43.4804 40.0803L42.8878 39.712C42.7094 39.5994 42.5672 39.4857 42.4611 39.3708C42.2647 39.1524 42.1665 38.9114 42.1665 38.6478C42.1665 38.2987 42.2827 38.0082 42.5153 37.7762C42.7478 37.5442 43.056 37.4282 43.4398 37.4282C43.5978 37.4282 43.7875 37.4677 44.0087 37.5465C44.2322 37.6231 44.3598 37.6614 44.3914 37.6614C44.4772 37.6614 44.5359 37.6411 44.5675 37.6005C44.6013 37.56 44.6273 37.5026 44.6453 37.4282H44.7876L44.94 38.9012H44.774C44.6612 38.4575 44.4794 38.1478 44.2288 37.9722C43.9805 37.7965 43.7344 37.7087 43.4906 37.7087C43.3009 37.7087 43.135 37.765 42.9928 37.8776C42.8528 37.9879 42.7828 38.1422 42.7828 38.3404C42.7828 38.5183 42.837 38.6704 42.9454 38.7965C43.0537 38.9249 43.2219 39.0589 43.4499 39.1985L44.0595 39.5735C44.441 39.8078 44.7097 40.0228 44.8655 40.2188C45.019 40.417 45.0957 40.6512 45.0957 40.9215C45.0957 41.2841 44.958 41.587 44.6826 41.8303C44.4094 42.0735 44.0595 42.1952 43.6328 42.1952C43.4183 42.1952 43.1937 42.1546 42.9589 42.0735C42.7264 41.9924 42.5932 41.9519 42.5593 41.9519C42.478 41.9519 42.4227 41.9767 42.3934 42.0262C42.3663 42.0758 42.3482 42.1287 42.3392 42.185H42.1868L41.9802 40.712H42.1394Z" fill="white"/>
<path d="M50.5472 37.4451C50.7978 37.4451 51.0552 37.4823 51.3194 37.5566C51.5835 37.631 51.7314 37.6681 51.763 37.6681C51.8284 37.6681 51.8905 37.6501 51.9492 37.6141C52.0079 37.578 52.0486 37.5217 52.0711 37.4451H52.2168L52.2811 38.9992H52.1219C52.0294 38.6906 51.9086 38.4418 51.7596 38.2526C51.4751 37.8967 51.0925 37.7188 50.6116 37.7188C50.1262 37.7188 49.7289 37.9102 49.4196 38.2931C49.1125 38.676 48.959 39.203 48.959 39.8742C48.959 40.4913 49.1204 40.9846 49.4433 41.3539C49.7684 41.721 50.1792 41.9046 50.6759 41.9046C51.0349 41.9046 51.3656 41.819 51.6682 41.6479C51.842 41.551 52.0328 41.4046 52.2405 41.2087L52.3691 41.337C52.2156 41.5307 52.0249 41.7008 51.7968 41.8472C51.4085 42.0949 50.9875 42.2188 50.5337 42.2188C49.7887 42.2188 49.1972 41.9812 48.7592 41.506C48.3551 41.0668 48.153 40.5183 48.153 39.8607C48.153 39.1873 48.3664 38.6219 48.7931 38.1647C49.2423 37.685 49.8271 37.4451 50.5472 37.4451Z" fill="white"/>
<path d="M55.1454 41.9789C55.4163 41.9497 55.5856 41.9001 55.6533 41.8303C55.7211 41.7582 55.7549 41.5724 55.7549 41.2729V38.2762C55.7549 38.0285 55.7165 37.8674 55.6398 37.7931C55.5653 37.7188 55.4005 37.6726 55.1454 37.6546V37.5262H57.0722V37.6546C56.8171 37.6726 56.6512 37.7188 56.5744 37.7931C56.4977 37.8674 56.4593 38.0285 56.4593 38.2762V39.6242H58.5623V38.2762C58.5623 38.0285 58.525 37.8674 58.4505 37.7931C58.376 37.7188 58.2101 37.6726 57.9527 37.6546V37.5262H59.8796V37.6546C59.6245 37.6726 59.4586 37.7188 59.3818 37.7931C59.3073 37.8674 59.27 38.0285 59.27 38.2762V41.3539C59.27 41.6062 59.3073 41.7683 59.3818 41.8404C59.4586 41.9102 59.6245 41.9564 59.8796 41.9789V42.1039H57.9527V41.9789C58.2259 41.9519 58.3952 41.9024 58.4607 41.8303C58.5284 41.7582 58.5623 41.5724 58.5623 41.2729V39.9283H56.4593V41.3539C56.4593 41.6062 56.4977 41.7683 56.5744 41.8404C56.6512 41.9125 56.8171 41.9587 57.0722 41.9789V42.1039H55.1454V41.9789Z" fill="white"/>
<path d="M63.4652 39.8168C63.4652 40.5442 63.6085 41.0825 63.8952 41.4316C64.182 41.7785 64.5342 41.9519 64.9518 41.9519C65.3604 41.9519 65.7092 41.783 65.9982 41.4451C66.2895 41.1051 66.4351 40.5623 66.4351 39.8168C66.4351 39.0623 66.2883 38.5172 65.9948 38.1816C65.7013 37.846 65.3537 37.6782 64.9518 37.6782C64.5364 37.6782 64.1842 37.8528 63.8952 38.2019C63.6085 38.5487 63.4652 39.087 63.4652 39.8168ZM62.6795 39.8168C62.6795 39.078 62.912 38.4857 63.3771 38.0397C63.8038 37.6321 64.3287 37.4282 64.9518 37.4282C65.5772 37.4282 66.1032 37.6332 66.5299 38.0431C66.9927 38.4868 67.2241 39.078 67.2241 39.8168C67.2241 40.5668 66.9848 41.1636 66.5062 41.6073C66.0772 42.0037 65.5591 42.2019 64.9518 42.2019C64.3016 42.2019 63.762 41.9823 63.3331 41.5431C62.8974 41.0949 62.6795 40.5195 62.6795 39.8168Z" fill="white"/>
<path d="M70.9045 39.8168C70.9045 40.5442 71.0479 41.0825 71.3346 41.4316C71.6213 41.7785 71.9735 41.9519 72.3911 41.9519C72.7998 41.9519 73.1486 41.783 73.4376 41.4451C73.7288 41.1051 73.8744 40.5623 73.8744 39.8168C73.8744 39.0623 73.7277 38.5172 73.4342 38.1816C73.1407 37.846 72.793 37.6782 72.3911 37.6782C71.9757 37.6782 71.6236 37.8528 71.3346 38.2019C71.0479 38.5487 70.9045 39.087 70.9045 39.8168ZM70.1188 39.8168C70.1188 39.078 70.3514 38.4857 70.8165 38.0397C71.2431 37.6321 71.768 37.4282 72.3911 37.4282C73.0165 37.4282 73.5425 37.6332 73.9692 38.0431C74.432 38.4868 74.6635 39.078 74.6635 39.8168C74.6635 40.5668 74.4241 41.1636 73.9455 41.6073C73.5166 42.0037 72.9985 42.2019 72.3911 42.2019C71.741 42.2019 71.2014 41.9823 70.7724 41.5431C70.3367 41.0949 70.1188 40.5195 70.1188 39.8168Z" fill="white"/>
<path d="M77.4295 41.9789C77.6846 41.9519 77.8494 41.9069 77.9239 41.8438C78.0007 41.7785 78.0391 41.6152 78.0391 41.3539V38.2762C78.0391 38.0307 78.0018 37.8708 77.9273 37.7965C77.8528 37.7199 77.6869 37.6726 77.4295 37.6546V37.5262H79.3902V37.6546C79.1351 37.6681 78.9636 37.7098 78.8755 37.7796C78.7897 37.8494 78.7468 37.9992 78.7468 38.2289V41.5533C78.7468 41.6298 78.7592 41.6906 78.7841 41.7357C78.8112 41.7785 78.8687 41.8055 78.9568 41.8168C79.0087 41.8235 79.0629 41.828 79.1193 41.8303C79.178 41.8325 79.2864 41.8337 79.4444 41.8337C80.0608 41.8337 80.4773 41.783 80.694 41.6816C80.9108 41.5803 81.1207 41.3213 81.3239 40.9046H81.5L81.1614 42.1039H77.4295V41.9789Z" fill="white"/>
<path fill-rule="evenodd" clip-rule="evenodd" d="M28.4579 25.1208C31.9178 25.1208 34.7226 22.3227 34.7226 18.8711C34.7226 15.4194 31.9178 12.6213 28.4579 12.6213C24.998 12.6213 22.1932 15.4194 22.1932 18.8711C22.1932 22.3227 24.998 25.1208 28.4579 25.1208ZM28.4579 26.7422C32.8153 26.7422 36.3478 23.2182 36.3478 18.8711C36.3478 14.524 32.8153 11 28.4579 11C24.1005 11 20.5681 14.524 20.5681 18.8711C20.5681 23.2182 24.1005 26.7422 28.4579 26.7422Z" fill="white"/>
<path d="M26.899 16.0149C26.6954 16.1164 26.2415 16.6285 26.04 16.8718L24.0993 15.0627C23.9721 16.4084 23.0707 17.7816 22.6359 18.3L25.2765 18.427V19.6013L22.6359 19.9821C23.5776 20.6423 24.216 22.3731 24.4175 23.156L26.04 21.1882L27.058 21.8864L25.7537 24.1398C27.2553 23.9621 28.7124 24.489 29.2532 24.7746L28.8078 22.2355C29.215 22.2102 29.7622 21.9922 29.9849 21.8864L30.9075 24.362C31.5947 23.2448 32.9542 22.3308 33.5481 22.0134L31.3529 20.8073C31.5056 20.6296 31.6923 19.9927 31.7665 19.6965L34.2798 20.4899C33.7708 19.6774 33.9617 17.7393 34.1207 16.8718L31.7665 17.9509C31.741 17.697 31.3529 17.1257 31.162 16.8718L33.3254 15.3801C32.1037 15.05 30.8863 13.9096 30.4303 13.3806C30.3031 13.7932 29.9849 16.0149 29.7304 15.7927C29.5268 15.615 28.9032 15.5705 28.6169 15.5705C28.6678 15.2151 28.7442 13.6874 28.776 12.968C27.9106 13.7297 26.1672 13.9413 25.4037 13.9519C25.7219 14.904 27.1535 15.8879 26.899 16.0149Z" fill="white"/>
<path d="M29.3805 18.8713C29.3805 19.3446 28.9959 19.7282 28.5215 19.7282C28.0471 19.7282 27.6625 19.3446 27.6625 18.8713C27.6625 18.398 28.0471 18.0144 28.5215 18.0144C28.9959 18.0144 29.3805 18.398 29.3805 18.8713Z" fill="white"/>
</svg>
