<svg width="100" height="54" viewBox="0 0 100 54" fill="none" xmlns="http://www.w3.org/2000/svg">
<path d="M35.7397 40.7581L35.7397 42.2911L36.8162 42.2911L36.8162 41.2247C36.8162 40.9655 36.7799 40.7655 36.7074 40.6248C36.635 40.4841 36.5008 40.3471 36.3051 40.2138L35.1742 39.4473C34.964 39.3066 34.8045 39.1251 34.6957 38.9029C34.587 38.6808 34.5326 38.4549 34.5326 38.2253L34.5326 36.7812C34.5326 36.3886 34.6414 36.085 34.8588 35.8702C35.0836 35.6481 35.3627 35.537 35.6962 35.537L36.8597 35.537C37.2729 35.537 37.5701 35.6406 37.7514 35.848C37.9326 36.048 38.0232 36.3553 38.0232 36.77L38.0232 37.9809L36.7944 38.3142L36.7944 36.5812L35.7288 36.5812L35.7288 37.7476C35.7288 37.9476 35.765 38.1142 35.8375 38.2475C35.91 38.3734 36.0369 38.4956 36.2181 38.6141L37.2946 39.3362C37.7876 39.6694 38.0341 40.1286 38.0341 40.7137L38.0341 42.2245C38.0341 42.617 37.9253 42.9058 37.7079 43.091C37.4904 43.2761 37.204 43.3687 36.8488 43.3687L35.7614 43.3687C35.3337 43.3687 35.0147 43.2798 34.8045 43.1021C34.6015 42.9169 34.5 42.6207 34.5 42.2134L34.5 40.7581L35.7397 40.7581Z" fill="white"/>
<path d="M41.7669 39.3695C42.1366 39.4732 42.4085 39.625 42.5824 39.825C42.7637 40.0175 42.8543 40.3101 42.8543 40.7026L42.8543 43.3131L41.5385 43.3131L41.5385 41.0247C41.5385 40.6618 41.4805 40.3952 41.3645 40.2249C41.2486 40.0471 41.0601 39.9583 40.7991 39.9583L40.2771 39.9583L40.2771 43.3131L39.0157 43.3131L39.0157 35.5925L40.2771 35.5925L40.2771 38.7363L40.7121 38.7363C41.2051 38.7363 41.4515 38.4364 41.4515 37.8365L41.4515 35.5925L42.7456 35.5925L42.7456 37.8476C42.7456 38.2401 42.6622 38.5512 42.4955 38.7807C42.336 39.0029 42.0931 39.1584 41.7669 39.2473L41.7669 39.3695Z" fill="white"/>
<path d="M47.4906 42.1356C47.4906 42.5429 47.3818 42.8503 47.1644 43.0576C46.9469 43.265 46.6352 43.3687 46.2292 43.3687L45.0765 43.3687C44.2356 43.3687 43.8151 42.9577 43.8151 42.1356L43.8151 36.77C43.8151 35.948 44.2356 35.537 45.0765 35.537L46.2292 35.537C47.0701 35.537 47.4906 35.948 47.4906 36.77L47.4906 42.1356ZM46.2292 42.28L46.2292 36.6256L45.0765 36.6256L45.0765 42.28L46.2292 42.28Z" fill="white"/>
<path d="M48.5518 35.5925L50.9441 35.5925C51.3646 35.5925 51.6727 35.6925 51.8684 35.8924C52.0714 36.085 52.1729 36.3923 52.1729 36.8145L52.1729 39.4806C52.1729 39.7102 52.1004 39.9101 51.9554 40.0805C51.8177 40.2434 51.6473 40.3656 51.4443 40.4471L51.4443 40.5026C51.9736 40.6803 52.2382 41.0358 52.2382 41.569L52.2382 43.3131L50.9441 43.3131L50.9441 41.0358L49.8132 41.0358L49.8132 43.3131L48.5518 43.3131L48.5518 35.5925ZM49.8132 39.9694L50.9333 39.9694L50.9333 36.6923L49.8132 36.6923L49.8132 39.9694Z" fill="white"/>
<path d="M56.8674 42.1356C56.8674 42.5429 56.7586 42.8503 56.5412 43.0576C56.3237 43.265 56.012 43.3687 55.606 43.3687L54.4533 43.3687C53.6124 43.3687 53.1919 42.9577 53.1919 42.1356L53.1919 36.77C53.1919 35.948 53.6124 35.537 54.4533 35.537L55.606 35.537C56.4469 35.537 56.8674 35.948 56.8674 36.77L56.8674 42.1356ZM55.606 42.28L55.606 36.6256L54.4533 36.6256L54.4533 42.28L55.606 42.28Z" fill="white"/>
<path d="M59.0595 40.7581L59.0595 42.2911L60.1361 42.2911L60.1361 41.2247C60.1361 40.9655 60.0998 40.7655 60.0273 40.6248C59.9549 40.4841 59.8207 40.3471 59.625 40.2138L58.4941 39.4473C58.2839 39.3066 58.1244 39.1251 58.0156 38.9029C57.9069 38.6808 57.8525 38.4549 57.8525 38.2253L57.8525 36.7812C57.8525 36.3886 57.9613 36.085 58.1787 35.8702C58.4035 35.6481 58.6826 35.537 59.0161 35.537L60.1796 35.537C60.5928 35.537 60.89 35.6406 61.0713 35.848C61.2525 36.048 61.3431 36.3553 61.3431 36.77L61.3431 37.9809L60.1143 38.3142L60.1143 36.5812L59.0487 36.5812L59.0487 37.7476C59.0487 37.9476 59.0849 38.1142 59.1574 38.2475C59.2299 38.3734 59.3568 38.4956 59.538 38.6141L60.6145 39.3362C61.1075 39.6694 61.354 40.1286 61.354 40.7137L61.354 42.2245C61.354 42.617 61.2452 42.9058 61.0278 43.091C60.8103 43.2761 60.5239 43.3687 60.1687 43.3687L59.0813 43.3687C58.6536 43.3687 58.3346 43.2798 58.1244 43.1021C57.9214 42.9169 57.8199 42.6207 57.8199 42.2134L57.8199 40.7581L59.0595 40.7581Z" fill="white"/>
<path d="M65.2825 35.5925L65.5 36.8034L64.2821 36.8034L64.2821 43.3131L63.0207 43.3131L63.0207 36.8034L61.8028 36.8034L62.0203 35.5925L65.2825 35.5925Z" fill="white"/>
<path d="M45.016 47.5522L45.4804 47.5522L45.4804 44.8962L45.9839 44.8962L45.9839 47.5078C45.9839 47.8359 45.8161 48 45.4804 48L45.016 48C44.6804 48 44.5125 47.8359 44.5125 47.5078L44.5125 44.8962L45.016 44.8962L45.016 47.5522Z" fill="white"/>
<path d="M47.7614 46.0313L47.7614 44.8962L48.2431 44.8962L48.2431 47.9778L47.7614 47.9778L47.7614 46.927L47.2883 45.8761L47.2622 45.8761L47.2622 47.9778L46.7804 47.9778L46.7804 44.8962L47.2535 44.8962L47.731 46.0313L47.7614 46.0313Z" fill="white"/>
<path d="M49.5475 47.9778L49.044 47.9778L49.044 44.8962L49.5475 44.8962L49.5475 47.9778Z" fill="white"/>
<path d="M51.5259 44.8962L51.6127 45.3795L51.1266 45.3795L51.1266 47.9778L50.6231 47.9778L50.6231 45.3795L50.137 45.3795L50.2238 44.8962L51.5259 44.8962Z" fill="white"/>
<path d="M53.4087 45.3662L52.7056 45.3662L52.7056 46.1821L53.2872 46.1821L53.2004 46.6343L52.7056 46.6343L52.7056 47.5078L53.4434 47.5078L53.3566 47.9778L52.2021 47.9778L52.2021 44.8962L53.3219 44.8962L53.4087 45.3662Z" fill="white"/>
<path d="M55.0726 44.8962C55.4082 44.8962 55.5761 45.0603 55.5761 45.3884L55.5761 47.4812C55.5761 47.6408 55.5327 47.7635 55.4459 47.8492C55.3619 47.935 55.2375 47.9778 55.0726 47.9778L54.1351 47.9778L54.1351 44.8962L55.0726 44.8962ZM54.6386 45.313L54.6386 47.561L55.0726 47.561L55.0726 45.313L54.6386 45.313Z" fill="white"/>
<path d="M57.8501 45.6263L58.6672 46.4611L57.8501 47.2958L57.033 46.4611L57.8501 45.6263Z" fill="white"/>
<path d="M57.8501 45.6263L58.6672 46.4611L57.8501 47.2958L57.033 46.4611L57.8501 45.6263Z" fill="white"/>
<path d="M42.2004 45.6263L43.0175 46.4611L42.2004 47.2958L41.3833 46.4611L42.2004 45.6263Z" fill="white"/>
<path d="M42.2004 45.6263L43.0175 46.4611L42.2004 47.2958L41.3833 46.4611L42.2004 45.6263Z" fill="white"/>
<path d="M44.8147 17.0435C44.8233 16.6587 44.5671 16.2357 44.4379 16.0722C44.3389 16.1809 44.1375 16.539 44.1249 17.1014C44.1122 17.6637 44.2967 18.0555 44.3905 18.1811C44.7618 17.7826 44.8038 17.5245 44.8147 17.0435Z" fill="white"/>
<path d="M47.1528 19.4305C47.1838 19.3424 47.0708 19.3176 47.0105 19.3161C46.2302 19.209 45.4235 18.4521 45.1176 18.0871C44.9195 17.8751 44.7381 18.3126 44.6722 18.5579C44.5477 19.2583 45.0423 19.8252 45.1484 19.9387C45.2334 20.0296 45.3292 19.9553 45.3666 19.9068C45.5161 19.703 45.8674 19.6595 46.0243 19.6632C46.7124 19.6793 47.1141 19.5407 47.1528 19.4305Z" fill="white"/>
<path fill-rule="evenodd" clip-rule="evenodd" d="M46.4503 13.6021C47.9584 12.601 49.6673 12.345 51.0764 12.5262C52.2037 12.6711 52.9124 13.0629 53.1258 13.2407C52.8354 13.2635 52.5635 13.5359 52.4639 13.6693C53.7423 13.2181 55.3242 13.7735 55.9744 13.8628C56.4946 13.9343 56.989 13.862 57.1712 13.8169C57.1426 15.0896 56.7446 15.5961 56.5493 15.6902C56.6475 15.1891 56.58 14.8643 56.5339 14.7644C56.2968 14.9958 55.9489 14.9974 55.8045 14.9694C55.624 14.9404 55.1026 14.9233 54.4612 15.0859C53.8198 15.2485 53.3065 15.9472 53.1299 16.2762C53.5119 16.0483 53.7989 16.0698 53.8947 16.1091C53.6971 16.3019 53.2909 16.8501 53.2473 17.5006C53.2037 18.1511 52.7487 18.7228 52.5267 18.9273C53.3722 18.7103 53.8609 18.1443 53.9995 17.8884C53.5711 19.211 53.1636 19.6086 51.6779 19.6108C50.4893 19.6124 49.6985 19.009 49.4516 18.707C49.636 18.5633 49.8592 18.3094 49.8996 18.1253C49.9319 17.978 49.8659 18.0134 49.8288 18.0496C49.263 18.7174 48.2501 18.9626 47.8144 19.0017C48.4409 18.5352 48.5966 18.0576 48.6369 17.8735C48.6692 17.7262 48.6033 17.7616 48.5662 17.7978C48.4649 18.0052 48.0947 18.4604 47.4243 18.6224C46.5864 18.8248 46.0514 18.4421 45.8375 18.289C45.6235 18.1359 45.3421 17.7591 45.3521 17.3151C45.3621 16.8711 45.5844 16.6542 45.6955 16.5458C45.7844 16.459 45.9762 16.4167 46.061 16.4063L46.8224 16.3871C46.7752 16.3367 46.6665 16.228 46.6093 16.1971C46.552 16.1661 46.5882 16.0608 46.6134 16.0121L47.0639 15.3193L46.3278 15.8203C46.2911 15.8441 46.1884 15.8984 46.0718 15.9253C45.9261 15.9589 45.1294 15.9402 45.0207 15.9377C44.9338 15.9356 44.8649 15.8847 44.8413 15.8594L44.4521 15.4431C44.4534 15.3839 44.5026 15.3456 44.527 15.3338C45.1398 14.941 46.3801 14.1409 46.4394 14.083C46.5135 14.0107 46.5522 13.9006 46.4453 13.824C46.3597 13.7628 46.4129 13.6506 46.4503 13.6021ZM47.4173 17.3266C47.2328 17.7961 46.6583 17.7776 46.3941 17.7097C46.5677 18.0469 46.9661 18.0563 47.1859 17.9504C47.4056 17.8445 47.4258 17.4872 47.4173 17.3266ZM47.3274 16.5101C47.1692 17.0987 46.6029 17.036 46.3395 16.9311C46.3732 17.0429 46.6926 17.3466 47.0951 17.1709C47.4171 17.0304 47.3841 16.6718 47.3274 16.5101ZM52.445 16.3225C52.2092 16.2233 51.8763 16.2122 51.7293 16.3993C51.5421 16.6378 51.8093 17.0101 52.0465 17.1093C52.2837 17.2085 52.7166 17.3388 52.8574 17.0347C53.0074 16.7104 52.7333 16.4439 52.445 16.3225ZM50.2828 15.9421C50.1587 15.896 49.9835 15.8903 49.9064 15.9765C49.8083 16.0863 49.9494 16.2585 50.0743 16.3047C50.1993 16.3509 50.4272 16.4117 50.5009 16.2715C50.5793 16.122 50.4347 15.9986 50.2828 15.9421ZM51.8537 15.0245C51.6743 14.9462 51.4208 14.9377 51.3088 15.0857C51.1662 15.2743 51.424 15.5697 51.5498 15.6467C51.6756 15.7237 52.0598 15.8276 52.1672 15.5871C52.2817 15.3307 52.0731 15.1202 51.8537 15.0245ZM51.6055 14.0544C51.1719 13.8329 50.7925 13.39 49.6001 13.9713C48.6462 14.4364 48.0103 14.2575 47.8116 14.1098C47.8116 14.1467 47.8387 14.2593 47.947 14.4143C48.0554 14.5693 47.7573 14.7188 47.5948 14.7742C48.0283 14.6635 48.2812 14.7004 48.3536 14.7188C48.1801 14.6745 48.191 14.5066 48.2181 14.442C49.2207 14.6081 49.8982 14.3128 50.0879 14.1652C49.8928 14.6524 49.3382 14.9773 49.0853 15.0788C49.8441 15.5438 50.4312 15.3094 50.63 15.1341C50.3048 15.267 49.8621 15.1157 49.6814 15.0234C50.3752 14.7355 50.6028 14.239 50.63 14.0267C50.9985 13.9382 51.4339 14.0083 51.6055 14.0544Z" fill="white"/>
<path fill-rule="evenodd" clip-rule="evenodd" d="M56.5287 16.6153C57.3075 17.4356 59.0791 19.3889 59.5862 21.5435C59.224 23.1718 58.264 26.0409 55.5652 28.649C54.4601 29.7168 53.5028 30.4324 52.6855 30.9277C52.6877 30.8939 52.6893 30.8592 52.6901 30.8236C52.7003 30.3729 52.431 29.9739 52.0927 29.9978C51.7705 30.0206 51.47 30.2989 51.4568 30.8849C51.4511 31.1367 51.4747 31.36 51.5504 31.5277C50.9274 31.8089 50.4194 31.9602 50.0204 32.0839C48.2611 31.4809 46.3134 30.5803 44.533 28.8348C44.6165 28.7585 44.684 28.6621 44.7243 28.5945C44.8373 28.4048 44.8812 28.0602 44.6667 27.9268C44.5238 27.838 44.3423 27.8577 44.154 28.1739C44.1224 28.2269 44.0926 28.2894 44.0684 28.3554C43.2002 27.4129 42.381 26.2502 41.6543 24.8002C42.1569 25.0094 44.1049 25.4076 45.2078 25.3447C46.5866 25.266 47.5694 25.067 48.2538 23.6393C48.4557 23.7921 48.8616 24.3274 48.8699 25.2456C49.361 24.3564 49.7658 22.1497 47.4562 20.4371C48.2963 20.6789 50.1831 21.6413 51.0096 23.556C51.0514 23.3102 51.102 22.6697 50.9705 22.0744C51.7314 22.6105 53.2835 24.2758 53.404 26.6477C53.9645 25.8959 55.0355 23.3915 54.8357 19.3888C55.1527 19.7912 55.7894 21.1289 55.7994 23.2613C56.1775 22.024 56.6112 19.0677 55.3211 17.1421L56.5287 16.6153ZM49.5253 27.8873C49.4445 27.6136 49.2175 27.4215 49.0356 27.4976C48.8538 27.5737 48.8203 27.8061 48.9011 28.0798C48.9819 28.3534 49.1879 28.532 49.422 28.4598C49.6093 28.402 49.6062 28.1609 49.5253 27.8873ZM54.3616 27.2429C54.0607 27.1229 53.9254 27.2648 53.7936 27.6095C53.7013 27.8508 53.744 28.1459 53.9802 28.2402C54.308 28.371 54.4494 28.0301 54.5153 27.8578C54.5944 27.6509 54.6652 27.3641 54.3616 27.2429ZM51.6747 24.6084C51.4569 24.6239 51.3432 24.8492 51.3363 25.1557C51.3294 25.4622 51.4867 25.7145 51.7584 25.7209C51.9756 25.726 52.0537 25.4792 52.0606 25.1727C52.0675 24.8662 51.8925 24.5929 51.6747 24.6084ZM56.6512 24.3197C56.5251 23.8877 56.2159 23.6055 55.9035 23.7007C55.5939 23.795 55.4111 24.086 55.5751 24.6476C55.7265 25.1661 55.9466 25.578 56.4103 25.4367C56.7475 25.3339 56.8404 24.9679 56.6512 24.3197Z" fill="white"/>
<path d="M49.5063 9.8686L49.0782 9.8686L49.0782 8.22578L49.5063 8.22578L49.5063 9.8686Z" fill="white"/>
<path d="M50.9795 9.8686L50.5515 9.8686L50.5515 8.22578L50.9795 8.22578L50.9795 9.8686Z" fill="white"/>
<path fill-rule="evenodd" clip-rule="evenodd" d="M50.266 6C50.5524 6.0103 52.7389 6.10493 54.2872 6.39398C55.9962 6.71304 58.5619 7.62833 58.5619 7.62833C58.566 7.63426 60.2512 10.0609 60.9528 12.6114C61.4414 14.3877 61.5482 15.9193 61.4599 18.0516C61.3649 20.3454 61.0735 21.9745 60.3732 23.8249C59.5913 25.8911 58.9328 27.0131 57.5113 28.686C53.9676 32.8559 50.3915 33.578 50.0406 33.6402L50.0406 33.645C50.0406 33.645 50.0358 33.6442 50.0265 33.6426L50.0173 33.6442L50.0125 33.645L50.0125 33.6402C49.6618 33.5781 46.0855 32.856 42.5417 28.686C41.1201 27.0131 40.4618 25.8911 39.6799 23.8249C38.9796 21.9745 38.6881 20.3454 38.5931 18.0516C38.5048 15.9193 38.6115 14.3877 39.1002 12.6114C39.44 11.3759 40.0122 10.1703 40.512 9.25481C40.0648 10.08 39.5595 11.1432 39.2153 12.2602C39.4115 12.4678 39.6289 12.6543 39.8637 12.8165C39.8381 12.901 39.8136 12.9857 39.7903 13.0705C39.3332 14.7351 39.2332 16.1703 39.3158 18.1684C39.4047 20.3179 39.6775 21.8444 40.3326 23.5784C41.0642 25.5146 41.6801 26.5661 43.01 28.1337C46.3254 32.0414 49.6713 32.7182 49.9994 32.7764L49.9994 32.7807L50.0041 32.7799L50.0125 32.7787C50.0212 32.7802 50.0256 32.7807 50.0256 32.7807L50.0256 32.7764C50.3539 32.7182 53.6995 32.0413 57.0149 28.1337C58.3448 26.5661 58.9609 25.5146 59.6924 23.5784C60.3475 21.8445 60.6202 20.3179 60.7091 18.1684C60.7917 16.1704 60.6919 14.7351 60.2347 13.0705C60.1393 12.7231 60.0244 12.3782 59.8978 12.0423C58.944 11.8714 53.6341 10.9482 50.0849 10.922C48.7994 10.9125 47.2712 11.0173 45.7986 11.1621C46.0503 10.6226 46.1915 10.0189 46.1915 9.38136C46.1915 8.27388 45.7345 7.2955 45.0418 6.55197C44.7737 6.6163 44.4976 6.68905 44.2234 6.76515C44.7546 6.61716 45.2928 6.4823 45.7659 6.39398C47.3142 6.10493 49.4724 6.0103 49.7589 6L50.266 6ZM52.0615 8.03865C51.8888 8.03865 51.8024 8.12023 51.8024 8.28327L51.8024 8.70916L52.0079 8.70916L52.0079 8.22285L52.3571 8.22285L52.3571 8.96811L52.0135 8.96811L51.9855 9.16079L52.3853 9.16079L52.3853 9.87445L51.9939 9.87445L51.9939 9.41404L51.7855 9.41404L51.7855 9.81403C51.7856 9.97705 51.8728 10.0586 52.0473 10.0587L52.3177 10.0587C52.4266 10.0587 52.5007 10.0355 52.5401 9.98944C52.5795 9.94341 52.5993 9.86771 52.5993 9.76224L52.5993 9.2357C52.5993 9.18392 52.5861 9.14363 52.5599 9.11485C52.5336 9.08608 52.4988 9.06781 52.4556 9.06014L52.4556 9.03994C52.5326 9.01692 52.5712 8.96039 52.5712 8.87023L52.5712 8.2862C52.5712 8.12125 52.4848 8.03867 52.3121 8.03865L52.0615 8.03865ZM49.1232 8.03865C48.9524 8.03867 48.867 8.12024 48.867 8.28327L48.867 9.8111C48.867 9.97414 48.9524 10.0557 49.1232 10.0557L49.4612 10.0557C49.6339 10.0557 49.7203 9.97415 49.7203 9.8111L49.7203 8.28327C49.7203 8.12023 49.6339 8.03866 49.4612 8.03865L49.1232 8.03865ZM50.5966 8.03865C50.4258 8.03865 50.3404 8.12023 50.3404 8.28327L50.3404 9.8111C50.3404 9.97415 50.4257 10.0557 50.5966 10.0557L50.9346 10.0557C51.1072 10.0557 51.1936 9.97413 51.1936 9.8111L51.1936 8.28327C51.1936 8.12025 51.1072 8.03867 50.9346 8.03865L50.5966 8.03865ZM47.7268 8.03865C47.5541 8.03865 47.4677 8.12023 47.4677 8.28327L47.4677 8.91047L47.6732 8.91047L47.6732 8.21992L48.0421 8.21992L48.0421 8.83278C48.0421 8.88839 48.0347 8.93546 48.0197 8.97382C48.0046 9.01217 47.9764 9.05147 47.9352 9.09173C47.8939 9.13202 47.8291 9.18295 47.7408 9.24433C47.662 9.29995 47.602 9.35176 47.5607 9.3997C47.5194 9.44572 47.4912 9.49554 47.4762 9.54922C47.4612 9.60291 47.4535 9.66914 47.4535 9.74775L47.4535 10.0471L48.2872 10.0471L48.2872 9.837L47.6592 9.837L47.6592 9.71322C47.6592 9.65187 47.6751 9.59716 47.707 9.54922C47.7408 9.50127 47.8121 9.44082 47.921 9.36795C48.0167 9.30082 48.0881 9.24241 48.1351 9.19254C48.182 9.14077 48.2138 9.08894 48.2307 9.03717C48.2476 8.98346 48.2561 8.91627 48.2561 8.83571L48.2561 8.28327C48.2561 8.12023 48.1697 8.03865 47.997 8.03865L47.7268 8.03865ZM48.8717 6.87906C48.8464 6.87906 48.8216 6.88253 48.7973 6.88939C48.7736 6.89572 48.7521 6.90573 48.733 6.91944C48.7144 6.93263 48.6994 6.94983 48.6881 6.97093C48.6767 6.99148 48.6712 7.016 48.6712 7.04445C48.6712 7.0703 48.676 7.09194 48.6858 7.10934C48.6961 7.12622 48.7096 7.14019 48.7261 7.15127C48.7431 7.16182 48.7623 7.17046 48.7834 7.17732C48.8046 7.18365 48.826 7.18946 48.8477 7.19474C48.8699 7.19948 48.8916 7.20433 48.9127 7.20907C48.9339 7.21381 48.9527 7.22014 48.9692 7.22803C48.9862 7.23541 48.9996 7.24519 49.0094 7.25732C49.0198 7.26945 49.025 7.28527 49.025 7.30479C49.025 7.32533 49.0208 7.34217 49.0126 7.35535C49.0044 7.36854 48.9934 7.37919 48.98 7.3871C48.9666 7.39446 48.9514 7.39966 48.9345 7.40283C48.9179 7.40599 48.9013 7.4076 48.8848 7.4076C48.8642 7.4076 48.8441 7.40501 48.8245 7.39974C48.8049 7.39447 48.7875 7.3863 48.7726 7.37523C48.7581 7.36417 48.7462 7.35017 48.7369 7.33331C48.7282 7.3159 48.7238 7.29524 48.7238 7.2715L48.6541 7.2715C48.6541 7.30578 48.6601 7.33558 48.6719 7.3609C48.6843 7.38569 48.7008 7.40636 48.7214 7.42271C48.7426 7.43853 48.7669 7.4504 48.7943 7.45832C48.8221 7.46621 48.8516 7.47018 48.8826 7.47018C48.9078 7.47018 48.9332 7.46695 48.9584 7.46063C48.9842 7.45482 49.0075 7.44529 49.0282 7.43211C49.0488 7.41842 49.0655 7.40106 49.0784 7.38001C49.0918 7.35838 49.0986 7.33239 49.0986 7.30233C49.0986 7.27442 49.0934 7.25125 49.0831 7.23281C49.0733 7.21435 49.0598 7.19901 49.0428 7.18688C49.0263 7.17475 49.0074 7.16522 48.9862 7.15836C48.9651 7.15098 48.9434 7.14467 48.9212 7.1394C48.8995 7.13413 48.8781 7.12944 48.8569 7.12522C48.8357 7.12047 48.8166 7.11466 48.7996 7.1078C48.7831 7.10095 48.7697 7.09213 48.7594 7.0816C48.7496 7.07052 48.7446 7.05631 48.7446 7.0389C48.7446 7.02044 48.748 7.0051 48.7548 6.99297C48.762 6.98033 48.7713 6.97029 48.7827 6.96291C48.7945 6.95556 48.8079 6.95035 48.8228 6.94719C48.8378 6.94403 48.853 6.94241 48.8685 6.94241C48.9067 6.94241 48.938 6.95157 48.9622 6.97C48.987 6.98793 49.0015 7.01726 49.0057 7.05786L49.0754 7.05786C49.0743 7.02678 49.0684 7.00015 49.0576 6.97802C49.0473 6.95533 49.0327 6.93653 49.0141 6.92176C48.9961 6.907 48.9748 6.89624 48.9506 6.88939C48.9264 6.88254 48.9001 6.87906 48.8717 6.87906ZM50.5652 6.87906C50.5229 6.87906 50.4851 6.88697 50.452 6.9028C50.4195 6.91809 50.3921 6.93926 50.37 6.96615C50.3483 6.99304 50.3318 7.02472 50.3205 7.0611C50.3091 7.09695 50.3034 7.13543 50.3034 7.17655C50.3034 7.21769 50.3086 7.25628 50.319 7.29215C50.3298 7.328 50.3458 7.3592 50.3669 7.38556C50.3881 7.41191 50.4148 7.4327 50.4468 7.44799C50.4788 7.46274 50.5162 7.47018 50.559 7.47018C50.6297 7.47018 50.6854 7.45037 50.7262 7.41084C50.767 7.37128 50.7911 7.31588 50.7983 7.24468L50.7247 7.24468C50.7231 7.26787 50.7185 7.28954 50.7108 7.30957C50.7031 7.32961 50.6921 7.34706 50.6782 7.36182C50.6648 7.37603 50.6485 7.38731 50.6295 7.39573C50.6109 7.40364 50.5895 7.4076 50.5652 7.4076C50.5322 7.4076 50.5037 7.4013 50.48 7.38864C50.4562 7.37599 50.4366 7.35916 50.4211 7.33809C50.4061 7.31647 50.3951 7.29133 50.3879 7.26287C50.3807 7.23385 50.377 7.20318 50.377 7.171C50.3771 7.14148 50.3807 7.11302 50.3879 7.08561C50.3951 7.0582 50.4062 7.03394 50.4211 7.01285C50.4366 6.99123 50.456 6.97403 50.4792 6.96137C50.5029 6.94871 50.5314 6.94241 50.5644 6.94241C50.6031 6.94242 50.6365 6.95243 50.6643 6.97247C50.6927 6.99251 50.711 7.02257 50.7193 7.06264L50.7929 7.06264C50.7888 7.03258 50.7799 7.00624 50.7665 6.98357C50.7531 6.96037 50.7364 6.94106 50.7162 6.92576C50.6961 6.91047 50.6731 6.89884 50.6473 6.89093C50.6215 6.88302 50.5941 6.87906 50.5652 6.87906ZM49.3188 7.45754L49.3924 7.45754L49.3924 6.89247L49.3188 6.89247L49.3188 7.45754ZM49.6432 7.45754L49.7129 7.45754L49.7129 7.00407L49.7144 7.00407L50.0032 7.45754L50.0837 7.45754L50.0837 6.89247L50.014 6.89247L50.014 7.35073L50.0125 7.35073L49.7213 6.89247L49.6432 6.89247L49.6432 7.45754ZM51.0171 7.45754L51.4012 7.45754L51.4012 7.39419L51.0907 7.39419L51.0907 7.19874L51.378 7.19874L51.378 7.13539L51.0907 7.13539L51.0907 6.95582L51.399 6.95582L51.399 6.89247L51.0171 6.89247L51.0171 7.45754Z" fill="white"/>
<path d="M46.1102 9.38135C46.1102 8.31529 45.6774 7.36985 45.0148 6.64383C44.2161 6.83749 43.351 7.10067 42.6806 7.31739C42.3391 7.42776 42.0486 7.52599 41.8433 7.59656C41.7407 7.63185 41.6594 7.66023 41.6039 7.67978C41.5778 7.68894 41.5574 7.69611 41.5431 7.70119C41.5415 7.70354 41.5398 7.70609 41.5379 7.70881C41.5258 7.72656 41.5084 7.75221 41.4863 7.78533C41.4421 7.85157 41.379 7.94762 41.3015 8.06979C41.1463 8.31416 40.9333 8.66291 40.6976 9.08644C40.2321 9.92295 39.6792 11.049 39.3076 12.2379C40.0284 12.9822 41.0285 13.4432 42.1342 13.4432L42.1342 13.5262C40.9881 13.5262 39.9531 13.0408 39.2153 12.2602C39.9633 9.83225 41.4729 7.6582 41.4917 7.6316C41.4917 7.6316 43.4134 6.94258 45.0418 6.55197C45.7345 7.2955 46.1915 8.27388 46.1915 9.38136C46.1915 11.6705 44.375 13.5262 42.1342 13.5262L42.1342 13.4432C44.3301 13.4432 46.1102 11.6246 46.1102 9.38135Z" fill="white"/>
<path fill-rule="evenodd" clip-rule="evenodd" d="M45.0689 6.5519C45.3691 6.87345 45.5375 7.12477 45.5853 7.198C45.6432 7.2868 45.6577 7.35834 45.6578 7.38303C45.6215 7.46938 45.5273 7.67171 45.4404 7.79013C45.385 7.86552 45.3267 7.86495 45.2823 7.84182C45.3998 8.14638 45.5389 8.79894 45.4334 9.69328C45.4724 9.67779 45.5148 9.68152 45.549 9.75156C45.56 9.77406 45.5736 9.79911 45.589 9.82764C45.6749 9.98687 45.8192 10.2543 45.9113 10.7878C45.9113 10.8371 45.8968 10.9654 45.8389 11.0838C45.8309 11.1002 45.822 11.1188 45.8121 11.1395C45.7322 11.3068 45.5855 11.614 45.2955 12.009C45.1385 12.046 44.7086 12.083 44.2449 11.935C44.225 11.9282 44.1963 11.9088 44.1793 11.873C43.3927 12.3451 42.7591 12.5158 42.4386 12.5548C42.4538 12.5883 42.4564 12.6287 42.4336 12.6752C42.3611 12.8232 42.2525 13.0083 41.8902 13.4524C41.8661 13.4647 41.7888 13.4893 41.6728 13.4893C41.5861 13.4893 41.2915 13.4362 40.9991 13.3539C40.8183 13.2988 40.6429 13.2312 40.4737 13.152C40.363 13.0242 40.1135 12.6393 39.9702 12.0831L39.97 12.0812C39.9698 12.0802 39.9698 12.0791 39.9696 12.0781L39.9694 12.0784C39.7891 11.9761 39.6136 11.8143 39.4534 11.6316C39.463 11.6055 39.4726 11.5795 39.4823 11.5534C39.6373 11.7341 39.8057 11.8938 39.9765 11.9972C39.9862 11.9663 40.0058 11.9398 40.0427 11.935C40.3325 11.898 40.9483 11.8092 41.0932 11.75C41.1256 11.7368 41.1538 11.7282 41.1781 11.7232C41.2825 11.2506 41.389 10.4261 41.4343 10.0246C41.3914 9.97655 41.3114 9.8805 41.1987 9.74497C41.0594 9.57751 40.8562 9.34303 40.6245 9.07119C41.1179 8.18143 41.4895 7.63473 41.4917 7.6316C41.4917 7.6316 41.6262 7.5731 41.7831 7.51902C41.9957 7.55324 42.329 7.63439 42.8321 7.82712C42.8364 7.82858 42.8412 7.83046 42.8464 7.83269L44.0445 6.99339C44.0361 6.98602 44.0305 6.97992 44.0275 6.97593C44.0172 6.9196 44.0065 6.86696 43.9956 6.81771C44.3448 6.71747 44.7237 6.6357 45.0689 6.5519ZM43.0046 9.53252C42.9888 9.54529 42.968 9.55726 42.9408 9.56653C42.832 9.60356 42.18 9.8256 41.6366 10.0846C41.6091 10.094 41.5522 10.102 41.501 10.0792C41.4539 10.4879 41.3535 11.2557 41.2533 11.7187C41.287 11.7233 41.3047 11.7378 41.3106 11.75C41.4797 11.9104 41.9192 12.2755 42.3249 12.4531C42.3419 12.46 42.3624 12.4713 42.3819 12.4864C42.6706 12.4612 43.3296 12.3014 44.1655 11.7953C44.1663 11.7814 44.1685 11.7663 44.1725 11.75C44.1756 11.737 44.1796 11.7211 44.1843 11.7027C44.233 11.5107 44.3536 11.0351 44.3536 10.5287C44.3489 10.5116 44.3457 10.4862 44.3485 10.4592L43.0046 9.53252ZM44.1011 7.04346L42.9122 7.87632C42.9288 7.89336 42.9408 7.91415 42.9408 7.93818C42.9408 7.96035 42.9505 8.06845 42.9641 8.22C42.996 8.57549 43.0495 9.17007 43.0495 9.45547C43.0495 9.4601 43.0487 9.46589 43.0469 9.47239L44.3737 10.3873C44.3857 10.37 44.4027 10.3548 44.426 10.3437C44.571 10.282 44.955 10.0772 45.3317 9.75156C45.3375 9.75156 45.3452 9.74775 45.3544 9.74194C45.4876 8.70462 45.2865 7.99353 45.1715 7.77034L45.1938 7.75839C44.8722 7.41789 44.3588 7.14569 44.1363 7.04995C44.1181 7.04171 44.1023 7.03328 44.0888 7.02513L44.1011 7.04346Z" fill="white"/>
</svg>
