<svg width="100" height="54" viewBox="0 0 100 54" fill="none" xmlns="http://www.w3.org/2000/svg">
<path fill-rule="evenodd" clip-rule="evenodd" d="M58.8953 38.945C60.0438 38.945 60.9317 39.2632 61.559 39.8994C62.1862 40.5266 62.5 41.3844 62.5 42.4726C62.5 43.5608 62.1862 44.4231 61.559 45.0594C60.9317 45.6865 60.0438 46 58.8953 46C57.7468 46 56.8589 45.6865 56.2316 45.0594C55.6132 44.4231 55.3039 43.5608 55.3039 42.4726C55.3039 41.3844 55.6132 40.5266 56.2316 39.8994C56.8589 39.2631 57.7468 38.945 58.8953 38.945ZM58.8953 40.2731C58.2769 40.2731 57.7998 40.462 57.464 40.84C57.1372 41.2089 56.9739 41.7533 56.9739 42.4726C56.9739 43.1919 57.1372 43.7451 57.464 44.1324C57.7998 44.5105 58.2769 44.6996 58.8953 44.6997C59.5226 44.6997 59.9996 44.5105 60.3265 44.1324C60.6534 43.7543 60.817 43.2011 60.817 42.4726C60.817 41.7533 60.6534 41.2089 60.3265 40.84C59.9996 40.462 59.5225 40.2731 58.8953 40.2731Z" fill="white"/>
<path d="M43.2249 39.1525C43.3663 39.1525 43.4636 39.1849 43.5166 39.2494C43.5696 39.3048 43.5962 39.4064 43.5962 39.5539C43.5962 39.8028 43.5651 39.9964 43.5033 40.1348C43.4503 40.2639 43.3354 40.4253 43.1587 40.6189L39.7398 44.4508H43.2249C43.4015 44.4508 43.5297 44.4923 43.6092 44.5752C43.6887 44.649 43.7288 44.7737 43.7288 44.9489V45.3222C43.7288 45.4882 43.6887 45.6082 43.6092 45.6819C43.5297 45.7557 43.4016 45.7928 43.2249 45.7928H37.8976C37.7475 45.7928 37.6414 45.765 37.5796 45.7098C37.5266 45.6452 37.5 45.5389 37.5 45.3914C37.5 45.1424 37.5266 44.9579 37.5796 44.838C37.6326 44.7181 37.7563 44.5522 37.9506 44.3402L41.4757 40.5084H38.1227C37.9461 40.5084 37.8179 40.4713 37.7384 40.3975C37.659 40.3238 37.6192 40.1993 37.6192 40.0242V39.6231C37.6192 39.4479 37.659 39.3279 37.7384 39.2633C37.8179 39.1896 37.9461 39.1525 38.1227 39.1525H43.2249Z" fill="white"/>
<path d="M54.2319 39.1525C54.3732 39.1525 54.4702 39.1849 54.5233 39.2494C54.5763 39.3048 54.6028 39.4064 54.6028 39.5539C54.6028 39.8028 54.5721 39.9964 54.5103 40.1348C54.4573 40.2639 54.3423 40.4253 54.1656 40.6189L50.7464 44.4508H54.2319C54.4085 44.4508 54.5366 44.4923 54.6162 44.5752C54.6957 44.649 54.7354 44.7737 54.7354 44.9489V45.3222C54.7354 45.4882 54.6957 45.6082 54.6162 45.6819C54.5366 45.7557 54.4086 45.7928 54.2319 45.7928H48.9045C48.7543 45.7928 48.648 45.7651 48.5862 45.7098C48.5332 45.6452 48.5069 45.5389 48.5069 45.3914C48.5069 45.1424 48.5332 44.9579 48.5862 44.838C48.6392 44.7181 48.7632 44.5523 48.9575 44.3402L52.4826 40.5084H49.1297C48.953 40.5084 48.8249 40.4713 48.7454 40.3975C48.6659 40.3238 48.6262 40.1994 48.6262 40.0242V39.6231C48.6262 39.4479 48.6659 39.3279 48.7454 39.2633C48.8249 39.1896 48.953 39.1525 49.1297 39.1525H54.2319Z" fill="white"/>
<path d="M46.4565 39.1525C46.6331 39.1525 46.7613 39.1939 46.8408 39.2769C46.9203 39.3599 46.96 39.4893 46.96 39.6645V45.2944C46.96 45.4604 46.9203 45.585 46.8408 45.668C46.7701 45.751 46.6419 45.7925 46.4565 45.7925H45.7672C45.5905 45.7925 45.4624 45.751 45.3829 45.668C45.3034 45.585 45.2637 45.4604 45.2637 45.2944V39.6645C45.2637 39.4892 45.3034 39.3599 45.3829 39.2769C45.4624 39.1939 45.5905 39.1525 45.7672 39.1525H46.4565Z" fill="white"/>
<path d="M46.3902 36.3857C46.6022 36.3857 46.7656 36.4505 46.8804 36.5796C47.004 36.7087 47.0659 36.8655 47.0659 37.0499V37.3401C47.0659 37.5246 47.0041 37.6817 46.8804 37.8108C46.7656 37.9398 46.6021 38.0043 46.3902 38.0044H45.8201C45.6082 38.0044 45.4448 37.9398 45.3299 37.8108C45.2151 37.6817 45.1578 37.5246 45.1578 37.3401V37.0499C45.1578 36.8655 45.2151 36.7087 45.3299 36.5796C45.4448 36.4505 45.6081 36.3857 45.8201 36.3857H46.3902Z" fill="white"/>
<path d="M60.1179 27.4435C59.2112 28.7809 56.9598 31.6123 53.7709 32.7521C52.1298 33.3386 51.1975 33.3994 50.7007 33.2637C50.3528 33.2423 49.9435 32.8618 50.22 32.2483C50.2432 32.1925 50.2736 32.1347 50.3133 32.0759C50.7351 31.419 51.7952 31.1306 52.449 30.8381C53.1222 30.537 56.1126 29.1512 57.9457 28.4105L57.9438 28.4129L60.1179 27.4435Z" fill="white"/>
<path d="M50.8932 8C51.8563 8.02059 54.2102 8.39717 55.9431 9.73687C56.437 9.53963 56.8932 9.35739 57.2992 9.19311C58.4177 8.74063 60.271 9.19341 58.9745 11.1477C57.504 13.3642 49.9799 23.5202 46.3201 28.2662L60.2362 22.6697C60.8431 22.3815 61.9433 21.1306 62.0694 19.3367C62.5975 21.0855 62.8139 24.2473 60.2362 25.427C57.9339 26.4804 47.8051 30.5571 43.0284 32.4638C41.6445 33.0162 40.6982 32.3664 41.4275 31.1055C42.689 28.9247 43.9269 27.1552 44.6406 26.0647C45.2206 25.1789 51.1629 17.3884 54.0667 13.4933L40.0717 19.0279C39.4566 19.3159 38.219 19.9336 37.6671 22.2378C37.5226 21.3393 37.4863 19.3709 38.0019 18.3696C38.6482 17.1147 39.3186 16.4765 41.885 15.3655C43.4758 14.6768 46.9373 13.303 50.3583 11.9503C51.5749 11.1582 53.0978 9.46741 50.8932 8Z" fill="white"/>
<path d="M44.0797 23.0957C42.2573 25.446 40.4949 27.8876 40.4072 28.9249L40.3289 28.8014C40.3286 28.8086 40.3279 28.8156 40.3279 28.8226C39.684 27.9378 38.2817 25.6334 38.3133 24.3166C38.3448 22.9998 38.7709 21.4567 41.6092 20.3663C43.8799 19.4939 47.089 18.1646 48.4096 17.6091L44.0797 23.0957Z" fill="white"/>
<path d="M60.2266 13.6716C60.9001 14.866 61.9939 17.5382 61.2019 19.1106C60.3977 20.7072 55.006 22.9581 52.4107 23.884L60.1965 13.617C60.1994 13.622 60.2019 13.6272 60.2048 13.6323L60.2165 13.617C60.2202 13.6348 60.2231 13.6531 60.2266 13.6716Z" fill="white"/>
<path d="M46.6749 8.34916C47.3213 8.19898 48.5237 8.07873 49.0206 8.74002C49.0581 8.7899 49.0907 8.84025 49.1208 8.88962C49.1267 8.88799 49.1326 8.88621 49.1385 8.88465C49.1877 8.9694 49.2318 9.07427 49.2625 9.19311C49.3644 9.50637 49.3259 9.80357 49.1893 10.0744C49.0112 10.4768 48.6037 10.8915 47.7983 11.2096C46.048 11.901 43.9153 12.7598 43.0677 13.1027C43.0712 13.0996 43.0749 13.0963 43.0785 13.0931C41.6794 13.6578 40.267 14.2277 39.2832 14.6248C40.1834 12.8964 42.922 9.22154 46.6749 8.34916Z" fill="white"/>
</svg>
