<svg width="333" height="102" viewBox="0 0 333 102" fill="none" xmlns="http://www.w3.org/2000/svg">
<path d="M84.9043 0C93.8287 0 101.063 7.23482 101.063 16.1592V84.9043C101.063 93.8287 93.8287 101.063 84.9043 101.063H16.1592C7.23482 101.063 0 93.8287 0 84.9043V16.1592C0 7.23482 7.23482 0 16.1592 0H84.9043ZM50.5322 3.36914C24.485 3.36937 3.37012 24.485 3.37012 50.5322C3.37033 76.5793 24.4852 97.6941 50.5322 97.6943C76.5795 97.6943 97.6951 76.5794 97.6953 50.5322C97.6953 24.4848 76.5796 3.36914 50.5322 3.36914Z" fill="#2B7FFF"/>
<path d="M322.53 68.2878C319.384 69.895 315.929 70.6986 312.163 70.6986C308.398 70.6986 304.942 69.895 301.797 68.2878C298.651 66.6805 296.126 64.3501 294.22 61.2964C292.314 58.2197 291.361 54.7183 291.361 50.7921C291.361 46.8658 292.314 43.3759 294.22 40.3222C296.126 37.2455 298.651 34.9036 301.797 33.2963C304.942 31.6662 308.398 30.8511 312.163 30.8511C315.929 30.8511 319.384 31.6662 322.53 33.2963C325.675 34.9036 328.201 37.2455 330.107 40.3222C332.035 43.3759 333 46.8658 333 50.7921C333 54.7183 332.035 58.2197 330.107 61.2964C328.201 64.3501 325.675 66.6805 322.53 68.2878ZM303.484 59.781C305.872 62.1689 308.765 63.3628 312.163 63.3628C315.584 63.3628 318.477 62.1689 320.842 59.781C323.207 57.3931 324.39 54.3968 324.39 50.7921C324.39 47.1643 323.207 44.1565 320.842 41.7687C318.477 39.3808 315.584 38.1869 312.163 38.1869C308.765 38.1869 305.872 39.3808 303.484 41.7687C301.119 44.1565 299.937 47.1643 299.937 50.7921C299.937 54.3968 301.119 57.3931 303.484 59.781Z" fill="white"/>
<path d="M274.986 17.2817H283.631V70.1822H274.986V17.2817Z" fill="white"/>
<path d="M256.715 68.2878C253.57 69.895 250.114 70.6986 246.349 70.6986C242.583 70.6986 239.128 69.895 235.982 68.2878C232.837 66.6805 230.311 64.3501 228.405 61.2964C226.5 58.2197 225.547 54.7183 225.547 50.7921C225.547 46.8658 226.5 43.3759 228.405 40.3222C230.311 37.2455 232.837 34.9036 235.982 33.2963C239.128 31.6662 242.583 30.8511 246.349 30.8511C250.114 30.8511 253.57 31.6662 256.715 33.2963C259.861 34.9036 262.387 37.2455 264.292 40.3222C266.221 43.3759 267.185 46.8658 267.185 50.7921C267.185 54.7183 266.221 58.2197 264.292 61.2964C262.387 64.3501 259.861 66.6805 256.715 68.2878ZM237.67 59.781C240.058 62.1689 242.951 63.3628 246.349 63.3628C249.77 63.3628 252.663 62.1689 255.028 59.781C257.393 57.3931 258.575 54.3968 258.575 50.7921C258.575 47.1643 257.393 44.1565 255.028 41.7687C252.663 39.3808 249.77 38.1869 246.349 38.1869C242.951 38.1869 240.058 39.3808 237.67 41.7687C235.305 44.1565 234.123 47.1643 234.123 50.7921C234.123 54.3968 235.305 57.3931 237.67 59.781Z" fill="white"/>
<path d="M222.777 31.4023L209.035 50.7923L222.777 70.1822H213.099L202.767 55.7517L192.435 70.1822H182.757L196.499 50.7923L182.757 31.4023H192.435L202.767 45.7984L213.099 31.4023H222.777Z" fill="white"/>
<path d="M167.276 31.4028H175.921V70.1827H167.276V31.4028Z" fill="white"/>
<path d="M141.015 70.7323C137.64 70.7323 134.667 70.1468 132.095 68.9759C129.546 67.7819 127.675 66.1403 126.481 64.0509V84.3018H117.871V31.4014H126.102L126.481 37.5318C128.754 33.0545 133.599 30.8159 141.015 30.8159C144.413 30.8159 147.524 31.6769 150.348 33.3989C153.195 35.098 155.434 37.4744 157.064 40.5281C158.717 43.5818 159.544 47.0029 159.544 50.7913C159.544 54.5798 158.717 58.0009 157.064 61.0546C155.434 64.1083 153.195 66.4847 150.348 68.1837C147.524 69.8828 144.413 70.7323 141.015 70.7323ZM138.708 38.1862C135.332 38.1862 132.451 39.3916 130.063 41.8024C127.675 44.1903 126.481 47.1866 126.481 50.7913C126.481 54.3731 127.664 57.3694 130.029 59.7803C132.416 62.1681 135.309 63.3621 138.708 63.3621C142.106 63.3621 144.987 62.1681 147.352 59.7803C149.717 57.3924 150.899 54.3961 150.899 50.7913C150.899 47.1636 149.717 44.1558 147.352 41.768C144.987 39.3801 142.106 38.1862 138.708 38.1862Z" fill="white"/>
</svg>
