<svg width="81" height="70" viewBox="0 0 81 70" fill="none" xmlns="http://www.w3.org/2000/svg">
<path d="M11.9168 67.3158C11.8058 67.4799 11.6702 67.6349 11.51 67.7808C11.356 67.9267 11.1742 68.0543 10.9646 68.1637C10.7613 68.2731 10.5333 68.3582 10.2806 68.419C10.0341 68.4859 9.76294 68.5193 9.46713 68.5193C8.97413 68.5193 8.5181 68.4342 8.09904 68.264C7.67999 68.0938 7.31948 67.8598 7.01751 67.562C6.71555 67.2581 6.47829 66.8995 6.30574 66.4861C6.13935 66.0728 6.05615 65.62 6.05615 65.1277C6.05615 64.6353 6.14243 64.1825 6.31498 63.7692C6.48753 63.3559 6.72479 63.0003 7.02676 62.7024C7.33488 62.3985 7.69539 62.1615 8.10829 61.9913C8.52734 61.8211 8.98029 61.736 9.46713 61.736C9.70747 61.736 9.94165 61.7603 10.1697 61.8089C10.4038 61.8576 10.6226 61.9275 10.826 62.0186C11.0293 62.1037 11.2142 62.2101 11.3806 62.3378C11.547 62.4593 11.6857 62.5991 11.7966 62.7571L11.242 63.1583C11.1742 63.055 11.0817 62.9517 10.9646 62.8483C10.8537 62.745 10.7212 62.6538 10.5672 62.5748C10.4131 62.4958 10.2436 62.432 10.0587 62.3833C9.88002 62.3347 9.6859 62.3104 9.47638 62.3104C9.05116 62.3104 8.66908 62.3864 8.33014 62.5383C7.99736 62.6903 7.71388 62.8969 7.4797 63.1583C7.24553 63.4136 7.06681 63.7114 6.94356 64.0518C6.82031 64.3922 6.75868 64.7508 6.75868 65.1277C6.75868 65.5045 6.82031 65.8631 6.94356 66.2035C7.07298 66.5439 7.25477 66.8448 7.48895 67.1061C7.72313 67.3614 8.0066 67.565 8.33938 67.717C8.67832 67.8689 9.05732 67.9449 9.47638 67.9449C9.85229 67.9449 10.2097 67.8689 10.5487 67.717C10.8876 67.565 11.1711 67.3219 11.3991 66.9876L11.9168 67.3158Z" fill="white"/>
<path d="M19.4845 65.1277C19.4845 65.62 19.3982 66.0728 19.2256 66.4861C19.0531 66.8995 18.8127 67.2581 18.5046 67.562C18.2026 67.8598 17.8421 68.0938 17.4231 68.264C17.0102 68.4342 16.5603 68.5193 16.0735 68.5193C15.5866 68.5193 15.1337 68.4342 14.7146 68.264C14.3017 68.0938 13.9412 67.8598 13.6331 67.562C13.3311 67.2581 13.0939 66.8995 12.9213 66.4861C12.7488 66.0728 12.6625 65.62 12.6625 65.1277C12.6625 64.6353 12.7488 64.1825 12.9213 63.7692C13.0939 63.3559 13.3311 63.0003 13.6331 62.7024C13.9412 62.3985 14.3017 62.1615 14.7146 61.9913C15.1337 61.8211 15.5866 61.736 16.0735 61.736C16.5603 61.736 17.0102 61.8211 17.4231 61.9913C17.8421 62.1615 18.2026 62.3985 18.5046 62.7024C18.8127 63.0003 19.0531 63.3559 19.2256 63.7692C19.3982 64.1825 19.4845 64.6353 19.4845 65.1277ZM18.7819 65.1277C18.7819 64.7508 18.7203 64.3922 18.597 64.0518C18.4738 63.7114 18.2951 63.4136 18.0609 63.1583C17.8267 62.8969 17.5402 62.6903 17.2012 62.5383C16.8684 62.3864 16.4925 62.3104 16.0735 62.3104C15.6544 62.3104 15.2754 62.3864 14.9365 62.5383C14.6037 62.6903 14.3202 62.8969 14.086 63.1583C13.8519 63.4136 13.6732 63.7114 13.5499 64.0518C13.4267 64.3922 13.365 64.7508 13.365 65.1277C13.365 65.5045 13.4267 65.8631 13.5499 66.2035C13.6732 66.5439 13.8519 66.8417 14.086 67.097C14.3202 67.3523 14.6037 67.5559 14.9365 67.7079C15.2754 67.8598 15.6544 67.9358 16.0735 67.9358C16.4925 67.9358 16.8684 67.8598 17.2012 67.7079C17.5402 67.5559 17.8267 67.3523 18.0609 67.097C18.2951 66.8417 18.4738 66.5439 18.597 66.2035C18.7203 65.8631 18.7819 65.5045 18.7819 65.1277Z" fill="white"/>
<path d="M25.5695 67.3979H25.5879V61.9001H26.2535V68.3552H25.4216L21.6131 62.8027H21.5946V68.3552H20.929V61.9001H21.761L25.5695 67.3979Z" fill="white"/>
<path d="M32.6903 67.3979H32.7088V61.9001H33.3744V68.3552H32.5424L28.734 62.8027H28.7155V68.3552H28.0499V61.9001H28.8819L32.6903 67.3979Z" fill="white"/>
<path d="M35.8364 67.7717H39.3398V68.3552H35.1708V61.9001H39.2289V62.4836H35.8364V64.7083H39.007V65.2826H35.8364V67.7717Z" fill="white"/>
<path d="M46.2123 67.3158C46.1013 67.4799 45.9658 67.6349 45.8055 67.7808C45.6515 67.9267 45.4697 68.0543 45.2602 68.1637C45.0568 68.2731 44.8288 68.3582 44.5761 68.419C44.3296 68.4859 44.0585 68.5193 43.7626 68.5193C43.2696 68.5193 42.8136 68.4342 42.3946 68.264C41.9755 68.0938 41.615 67.8598 41.313 67.562C41.0111 67.2581 40.7738 66.8995 40.6013 66.4861C40.4349 66.0728 40.3517 65.62 40.3517 65.1277C40.3517 64.6353 40.4379 64.1825 40.6105 63.7692C40.783 63.3559 41.0203 63.0003 41.3223 62.7024C41.6304 62.3985 41.9909 62.1615 42.4038 61.9913C42.8229 61.8211 43.2758 61.736 43.7626 61.736C44.003 61.736 44.2372 61.7603 44.4652 61.8089C44.6994 61.8576 44.9181 61.9275 45.1215 62.0186C45.3249 62.1037 45.5097 62.2101 45.6761 62.3378C45.8425 62.4593 45.9812 62.5991 46.0921 62.7571L45.5375 63.1583C45.4697 63.055 45.3772 62.9517 45.2602 62.8483C45.1492 62.745 45.0167 62.6538 44.8627 62.5748C44.7086 62.4958 44.5391 62.432 44.3543 62.3833C44.1755 62.3347 43.9814 62.3104 43.7719 62.3104C43.3467 62.3104 42.9646 62.3864 42.6257 62.5383C42.2929 62.6903 42.0094 62.8969 41.7752 63.1583C41.541 63.4136 41.3623 63.7114 41.2391 64.0518C41.1158 64.3922 41.0542 64.7508 41.0542 65.1277C41.0542 65.5045 41.1158 65.8631 41.2391 66.2035C41.3685 66.5439 41.5503 66.8448 41.7845 67.1061C42.0186 67.3614 42.3021 67.565 42.6349 67.717C42.9738 67.8689 43.3528 67.9449 43.7719 67.9449C44.1478 67.9449 44.5052 67.8689 44.8442 67.717C45.1831 67.565 45.4666 67.3219 45.6946 66.9876L46.2123 67.3158Z" fill="white"/>
<path d="M49.4618 68.3552H48.7962V62.4836H46.6054V61.9001H51.6526V62.4836H49.4618V68.3552Z" fill="white"/>
<path d="M58.1693 67.562C57.892 67.8902 57.5407 68.1364 57.1155 68.3005C56.6965 68.4585 56.2681 68.5375 55.8306 68.5375C55.3376 68.5375 54.8877 68.4524 54.481 68.2823C54.0743 68.1121 53.723 67.878 53.4272 67.5802C53.1314 67.2763 52.9003 66.9147 52.7339 66.4953C52.5737 66.0759 52.4936 65.62 52.4936 65.1277C52.4936 64.6353 52.5737 64.1795 52.7339 63.7601C52.9003 63.3407 53.1314 62.982 53.4272 62.6842C53.723 62.3803 54.0743 62.1432 54.481 61.9731C54.8939 61.8029 55.3438 61.7178 55.8306 61.7178C56.2373 61.7178 56.6317 61.7877 57.0138 61.9275C57.4021 62.0612 57.7318 62.2679 58.0029 62.5475L57.8735 62.6933C57.7441 62.5596 57.5962 62.4441 57.4298 62.3469C57.2696 62.2435 57.097 62.1584 56.9121 62.0916C56.7334 62.0247 56.5516 61.9761 56.3668 61.9457C56.1819 61.9153 56.0032 61.9001 55.8306 61.9001C55.3623 61.9001 54.934 61.9852 54.5457 62.1554C54.1636 62.3195 53.8339 62.5475 53.5566 62.8392C53.2855 63.131 53.0729 63.4744 52.9188 63.8695C52.7709 64.2585 52.6969 64.6779 52.6969 65.1277C52.6969 65.5774 52.7709 65.9999 52.9188 66.395C53.0667 66.784 53.2762 67.1243 53.5474 67.4161C53.8247 67.7079 54.1544 67.9388 54.5365 68.109C54.9247 68.2731 55.3561 68.3552 55.8306 68.3552C56.2373 68.3552 56.6379 68.2792 57.0323 68.1273C57.4329 67.9692 57.7626 67.7352 58.0214 67.4252L58.1693 67.562Z" fill="white"/>
<path d="M59.5587 68.3552V61.9001H59.762V68.1728H63.0159V68.3552H59.5587Z" fill="white"/>
<path d="M68.8977 65.9117C68.8977 66.2764 68.8546 66.6199 68.7683 66.942C68.682 67.2581 68.5403 67.5346 68.3431 67.7717C68.1459 68.0087 67.887 68.1972 67.5666 68.337C67.2523 68.4707 66.8641 68.5375 66.4019 68.5375C65.9397 68.5375 65.5484 68.4707 65.2279 68.337C64.9136 68.1972 64.6579 68.0087 64.4607 67.7717C64.2635 67.5346 64.1217 67.2581 64.0354 66.942C63.9492 66.6199 63.906 66.2764 63.906 65.9117V61.9001H64.1094V65.8753C64.1094 66.1306 64.134 66.4041 64.1833 66.6958C64.2388 66.9815 64.3467 67.249 64.5069 67.4982C64.6733 67.7413 64.9044 67.9449 65.2002 68.109C65.5021 68.2731 65.9027 68.3552 66.4019 68.3552C66.8887 68.3552 67.28 68.2762 67.5758 68.1181C67.8778 67.9601 68.112 67.7595 68.2784 67.5164C68.4448 67.2672 68.5557 66.9997 68.6111 66.7141C68.6666 66.4223 68.6943 66.1427 68.6943 65.8753V61.9001H68.8977V65.9117Z" fill="white"/>
<path d="M74.944 66.632C74.944 66.9785 74.8762 67.2641 74.7406 67.489C74.6112 67.7079 74.4418 67.8811 74.2322 68.0087C74.0289 68.1364 73.8008 68.2275 73.5482 68.2823C73.3017 68.3309 73.0644 68.3552 72.8364 68.3552H70.8305V61.9001H72.6145C72.8611 61.9001 73.1045 61.9244 73.3448 61.9731C73.5913 62.0217 73.8101 62.1037 74.0011 62.2192C74.1922 62.3347 74.3462 62.4897 74.4633 62.6842C74.5804 62.8787 74.639 63.1249 74.639 63.4227C74.639 63.6537 74.602 63.8543 74.528 64.0245C74.4541 64.1946 74.3524 64.3405 74.223 64.4621C74.0997 64.5837 73.958 64.6839 73.7978 64.763C73.6375 64.8359 73.4742 64.8906 73.3078 64.9271V64.9453C73.4742 64.9635 73.6529 65.0091 73.844 65.0821C74.035 65.1489 74.2107 65.2492 74.3709 65.3829C74.5373 65.5167 74.6728 65.6869 74.7776 65.8935C74.8885 66.1002 74.944 66.3463 74.944 66.632ZM74.4356 63.4501C74.4356 63.1887 74.3832 62.9699 74.2784 62.7936C74.1737 62.6173 74.035 62.4776 73.8625 62.3742C73.6899 62.2709 73.4896 62.198 73.2616 62.1554C73.0398 62.1068 72.8056 62.0825 72.5591 62.0825H71.0338V64.8633H72.6053C72.8272 64.8633 73.0459 64.8359 73.2616 64.7812C73.4835 64.7265 73.6807 64.6444 73.8532 64.535C74.0258 64.4195 74.1644 64.2737 74.2692 64.0974C74.3801 63.915 74.4356 63.6993 74.4356 63.4501ZM74.7406 66.6594C74.7406 66.3676 74.679 66.1184 74.5558 65.9117C74.4387 65.7051 74.2877 65.5379 74.1028 65.4103C73.9179 65.2826 73.7146 65.1915 73.4927 65.1368C73.2709 65.076 73.0552 65.0456 72.8456 65.0456H71.0338V68.1728H72.744C73.0274 68.1728 73.2924 68.1455 73.5389 68.0908C73.7854 68.03 73.995 67.9388 74.1675 67.8173C74.3462 67.6957 74.4849 67.5407 74.5835 67.3523C74.6883 67.1578 74.7406 66.9268 74.7406 66.6594Z" fill="white"/>
<path d="M57.9751 67.562C57.6945 67.8902 57.3392 68.1364 56.9091 68.3005C56.4852 68.4585 56.0519 68.5375 55.6093 68.5375C55.1106 68.5375 54.6555 68.4524 54.2441 68.2822C53.8326 68.1121 53.4773 67.878 53.1781 67.5802C52.8789 67.2763 52.6451 66.9147 52.4768 66.4953C52.3147 66.0759 52.2336 65.62 52.2336 65.1277C52.2336 64.6353 52.3147 64.1795 52.4768 63.7601C52.6451 63.3407 52.8789 62.982 53.1781 62.6842C53.4773 62.3803 53.8326 62.1432 54.2441 61.9731C54.6617 61.8029 55.1168 61.7178 55.6093 61.7178C56.0207 61.7178 56.4197 61.7877 56.8062 61.9275C57.1989 62.0612 57.5325 62.2679 57.8067 62.5475L57.6758 62.6933C57.5449 62.5596 57.3953 62.4441 57.227 62.3469C57.0649 62.2435 56.8904 62.1584 56.7033 62.0916C56.5226 62.0247 56.3387 61.9761 56.1516 61.9457C55.9646 61.9153 55.7838 61.9001 55.6093 61.9001C55.1355 61.9001 54.7023 61.9852 54.3095 62.1554C53.923 62.3195 53.5895 62.5475 53.309 62.8392C53.0347 63.131 52.8196 63.4744 52.6638 63.8695C52.5142 64.2585 52.4394 64.6779 52.4394 65.1277C52.4394 65.5774 52.5142 65.9999 52.6638 66.395C52.8134 66.784 53.0253 67.1243 53.2996 67.4161C53.5802 67.7079 53.9137 67.9388 54.3002 68.109C54.6929 68.2731 55.1293 68.3552 55.6093 68.3552C56.0207 68.3552 56.4259 68.2792 56.8249 68.1273C57.2301 67.9692 57.5636 67.7352 57.8254 67.4252L57.9751 67.562Z" fill="white"/>
<path d="M59.3805 68.3552V61.9001H59.5862V68.1728H62.8777V68.3552H59.3805Z" fill="white"/>
<path d="M68.8276 65.9117C68.8276 66.2764 68.784 66.6199 68.6967 66.942C68.6095 67.2581 68.4661 67.5346 68.2666 67.7717C68.0671 68.0087 67.8053 68.1972 67.4811 68.337C67.1632 68.4707 66.7705 68.5375 66.3029 68.5375C65.8354 68.5375 65.4395 68.4707 65.1154 68.337C64.7974 68.1972 64.5387 68.0087 64.3392 67.7717C64.1398 67.5346 63.9964 67.2581 63.9091 66.942C63.8218 66.6199 63.7782 66.2764 63.7782 65.9117V61.9001H63.9839V65.8753C63.9839 66.1306 64.0088 66.4041 64.0587 66.6958C64.1148 66.9815 64.2239 67.249 64.386 67.4982C64.5543 67.7413 64.7881 67.9449 65.0873 68.109C65.3928 68.2731 65.798 68.3552 66.3029 68.3552C66.7954 68.3552 67.1912 68.2762 67.4905 68.1181C67.7959 67.9601 68.0328 67.7595 68.2011 67.5164C68.3695 67.2672 68.4817 66.9997 68.5378 66.7141C68.5939 66.4223 68.6219 66.1427 68.6219 65.8753V61.9001H68.8276V65.9117Z" fill="white"/>
<path d="M74.9439 66.632C74.9439 66.9785 74.8753 67.2641 74.7382 67.489C74.6073 67.7079 74.4359 67.8811 74.2239 68.0087C74.0182 68.1364 73.7875 68.2275 73.5319 68.2822C73.2826 68.3309 73.0426 68.3552 72.8119 68.3552H70.7828V61.9001H72.5875C72.8369 61.9001 73.0831 61.9244 73.3262 61.9731C73.5756 62.0217 73.7969 62.1037 73.9901 62.2192C74.1834 62.3347 74.3392 62.4897 74.4577 62.6842C74.5761 62.8787 74.6353 63.1249 74.6353 63.4227C74.6353 63.6537 74.5979 63.8543 74.5231 64.0245C74.4483 64.1946 74.3455 64.3405 74.2146 64.4621C74.0899 64.5837 73.9465 64.6839 73.7844 64.763C73.6223 64.8359 73.4571 64.8906 73.2888 64.9271V64.9453C73.4571 64.9635 73.6379 65.0091 73.8312 65.0821C74.0244 65.1489 74.2021 65.2492 74.3642 65.3829C74.5325 65.5167 74.6696 65.6869 74.7756 65.8935C74.8878 66.1002 74.9439 66.3463 74.9439 66.632ZM74.4296 63.4501C74.4296 63.1887 74.3766 62.9699 74.2707 62.7936C74.1647 62.6173 74.0244 62.4776 73.8499 62.3742C73.6753 62.2709 73.4727 62.198 73.2421 62.1554C73.0176 62.1068 72.7808 62.0825 72.5314 62.0825H70.9885V64.8633H72.5782C72.8026 64.8633 73.0239 64.8359 73.2421 64.7812C73.4665 64.7265 73.666 64.6444 73.8405 64.535C74.0151 64.4195 74.1553 64.2737 74.2613 64.0974C74.3735 63.915 74.4296 63.6993 74.4296 63.4501ZM74.7382 66.6594C74.7382 66.3676 74.6759 66.1184 74.5512 65.9117C74.4327 65.7051 74.28 65.5379 74.093 65.4103C73.906 65.2826 73.7003 65.1915 73.4758 65.1368C73.2514 65.076 73.0332 65.0456 72.8213 65.0456H70.9885V68.1728H72.7184C73.0052 68.1728 73.2732 68.1455 73.5226 68.0908C73.7719 68.03 73.9839 67.9388 74.1585 67.8173C74.3392 67.6957 74.4795 67.5407 74.5792 67.3523C74.6852 67.1578 74.7382 66.9268 74.7382 66.6594Z" fill="white"/>
<path d="M42.7778 6.021C49.2772 6.02103 55.0708 9.04361 58.8345 13.7603H54.4614C51.3014 10.7291 47.0867 8.95903 42.6147 9.43018C33.1005 9.43018 25.5503 17.058 25.5503 26.5815C25.5505 36.1049 33.2637 43.8247 42.7778 43.8247C46.9352 43.8247 50.8958 42.2059 53.9692 39.5376H58.7261C54.96 44.1766 49.215 47.1411 42.7778 47.1411C31.4341 47.1411 22.238 37.9363 22.2378 26.5815C22.2378 15.2265 31.4339 6.021 42.7778 6.021Z" fill="white"/>
<g filter="url(#filter0_d_2974_11480)">
<path d="M42.9065 1.51587C48.9518 1.51587 54.5005 3.64245 58.8489 7.18774V11.4758C54.8266 7.28472 49.1709 4.67603 42.9065 4.67603C30.6987 4.67605 20.8021 14.5823 20.802 26.802C20.802 39.0218 30.6986 48.928 42.9065 48.928C49.1712 48.928 54.8266 46.3186 58.8489 42.1272V46.4163C54.5004 49.9617 48.9521 52.0891 42.9065 52.0891C28.9549 52.0889 17.6449 40.7683 17.6448 26.803C17.6448 12.8376 28.9548 1.51606 42.9065 1.51587Z" fill="white"/>
</g>
<defs>
<filter id="filter0_d_2974_11480" x="14.989" y="0.851935" width="46.5156" height="55.8847" filterUnits="userSpaceOnUse" color-interpolation-filters="sRGB">
<feFlood flood-opacity="0" result="BackgroundImageFix"/>
<feColorMatrix in="SourceAlpha" type="matrix" values="0 0 0 0 0 0 0 0 0 0 0 0 0 0 0 0 0 0 127 0" result="hardAlpha"/>
<feOffset dy="1.9918"/>
<feGaussianBlur stdDeviation="1.32787"/>
<feComposite in2="hardAlpha" operator="out"/>
<feColorMatrix type="matrix" values="0 0 0 0 0 0 0 0 0 0 0 0 0 0 0 0 0 0 0.16 0"/>
<feBlend mode="normal" in2="BackgroundImageFix" result="effect1_dropShadow_2974_11480"/>
<feBlend mode="normal" in="SourceGraphic" in2="effect1_dropShadow_2974_11480" result="shape"/>
</filter>
</defs>
</svg>
