<svg width="190" height="61" viewBox="0 0 190 61" fill="none" xmlns="http://www.w3.org/2000/svg">
<path d="M55.1614 13.659L60.5899 12.7834V23.9908C61.6406 22.5315 64.6876 19.8581 68.4701 20.8387C73.1982 22.0646 73.3734 25.742 73.3734 26.2673V39.2258H67.7697V25.3917C67.4194 21.5392 63.9253 22.0971 62.166 23.4655C60.5899 24.6913 60.5899 25.5669 60.5899 26.2673V39.2258H55.1614V13.659Z" fill="white"/>
<path d="M25.3918 21.7144L30.6453 21.0139L30.6791 39.2812H25.3918V21.7144Z" fill="white"/>
<path fill-rule="evenodd" clip-rule="evenodd" d="M3.70566 13.8463C6.65135 13.8594 9.84105 13.8735 10.5069 13.8343C13.4839 13.659 19.788 14.7098 20.3134 19.7881C20.999 26.4163 14.3594 28.1937 12.7834 28.1937C14.126 28.3105 17.1263 29.3845 18.3871 32.7467C19.9631 36.9495 21.8894 39.0509 22.2396 39.226H16.4608C15.2162 38.9926 14.3171 36.7205 13.3645 34.3129C12.1726 31.3008 10.8969 28.0769 8.75576 28.3688H5.42857V39.226H0V13.8343C0.989439 13.8343 2.32057 13.8402 3.70566 13.8463ZM5.42837 14.5345V27.6681H9.10579C11.0321 27.6681 14.7095 26.7925 14.7095 20.6635C14.7095 18.9123 14.009 14.5345 9.98137 14.5345H5.42837Z" fill="white"/>
<circle cx="28.1936" cy="15.7605" r="3.15207" fill="white"/>
<path d="M44.6538 20.6636C48.1543 20.6636 50.082 21.8228 51.7603 24.269C51.7312 24.2994 51.7029 24.3309 51.6743 24.3628C50.4577 22.7232 48.7051 21.7144 46.7554 21.7144C42.0276 21.7145 40.1011 25.4776 40.1011 30.1196C40.1011 34.7618 42.0275 38.6998 46.7554 38.5249C48.5151 38.5249 50.1942 37.5177 51.4263 35.9233C51.5931 36.1474 51.7715 36.3426 51.9575 36.5083C50.2392 38.5852 47.8857 39.5757 44.6538 39.5757C39.0446 39.5755 34.4976 35.342 34.4976 30.1196C34.4977 24.8973 39.0447 20.6638 44.6538 20.6636Z" fill="white"/>
<path d="M77.9263 13.6589V39.2258H78.8471V15.6256L88.8228 33.0232H89.5901L99.5658 15.6256V39.2258H105.244V13.6589H99.5658L91.7387 27.1231L84.0651 13.6589H77.9263Z" fill="white"/>
<path d="M91.8032 13.6991H85.6313L91.1861 24.1659H91.8032L103.376 4.002L105.381 8.77361L107.696 7.69615L104.147 0L96.1236 3.54023L97.2036 5.69515L102.45 3.3863L94.1177 18.009L91.8032 13.6991Z" fill="white"/>
<path d="M119.253 20.6636C124.862 20.6636 129.41 24.8972 129.41 30.1196C129.41 35.3422 124.863 39.5757 119.253 39.5757C113.644 39.5755 109.097 35.342 109.097 30.1196C109.097 24.8973 113.644 20.6638 119.253 20.6636ZM119.253 21.3638C116.932 21.3641 115.051 23.991 115.051 30.1196C114.876 35.8981 116.932 38.8751 119.253 38.8755C121.574 38.8755 123.631 35.8984 123.456 30.1196C123.456 23.9906 121.574 21.3638 119.253 21.3638Z" fill="white"/>
<path d="M132.912 39.226V21.8896L138.341 20.8389V23.991C139.392 22.4149 142.894 19.9633 146.746 21.014C149.828 21.8546 150.774 24.5163 150.774 26.2675V39.226H145.521V25.567C145.346 19.7882 138.341 22.5901 138.341 26.6177V39.226H132.912Z" fill="white"/>
<path d="M155.677 13.659L160.931 12.7834V29.7696L171.263 21.0139H172.664L166.009 26.7927L174.24 39.2258H168.111L161.982 30.1199L160.931 30.8203V39.2258H155.677V13.659Z" fill="white"/>
<path d="M182.689 38.7366C178.468 39.1275 175.764 37.2961 174.94 36.3315C175.383 37.985 177.728 38.7738 178.409 38.9997C179.996 39.5259 185.019 40.2609 187.671 38.2481C191.583 35.2793 190.107 31.0377 186.638 29.1536C184.424 27.951 181.472 26.6733 180.771 26.3351C177.56 24.7943 178.962 22.4392 180.771 21.8254C184.579 20.5327 187.819 22.2388 188.963 23.2535C186.343 19.4203 179.774 20.8483 178.63 21.2993C173.686 23.2911 174.977 27.8947 175.863 28.9657C177.634 31.1078 181.73 32.2965 185.199 34.5276C187.302 35.8805 185.9 38.5487 182.689 38.7366Z" fill="white"/>
<path d="M29.4279 48.923H21.2199V50.7175H24.3236V58.6313H26.3094V50.7175H29.4279V48.923ZM38.9297 58.6313L36.179 54.8068C36.7086 54.5421 37.1204 54.1743 37.4293 53.7036C37.7235 53.2329 37.8853 52.6739 37.8853 52.0561C37.8853 51.1147 37.547 50.3645 36.8998 49.7908C36.2526 49.2172 35.4141 48.923 34.3844 48.923H30.7364V58.6313H32.7222V55.204H34.1785L36.6939 58.6313H38.9297ZM32.7222 50.6734H34.3844C34.8257 50.6734 35.1935 50.8058 35.4582 51.0559C35.723 51.3206 35.8554 51.6443 35.8554 52.0561C35.8554 52.4827 35.723 52.821 35.4582 53.0711C35.1935 53.3359 34.8404 53.4535 34.3844 53.4535H32.7222V50.6734ZM48.0073 48.923H46.0215V54.7627C46.0215 55.4688 45.8156 56.013 45.4331 56.3955C45.036 56.7779 44.5211 56.9692 43.8886 56.9692C43.2561 56.9692 42.7413 56.7779 42.3441 56.3955C41.9469 56.013 41.7557 55.4688 41.7557 54.7627V48.923H39.7699V54.6156C39.7699 55.8953 40.1524 56.9103 40.9173 57.6752C41.6822 58.4401 42.6824 58.8079 43.8886 58.8079C45.0948 58.8079 46.0804 58.4401 46.8453 57.6752C47.6102 56.9103 48.0073 55.8953 48.0073 54.6156V48.923ZM53.1309 48.7464C52.1895 48.7464 51.4246 49.0112 50.8215 49.5113C50.2037 50.0115 49.9095 50.6734 49.9095 51.4972C49.9095 52.1444 50.1007 52.6739 50.5126 53.1152C50.9244 53.5565 51.4981 53.9537 52.263 54.292L53.3074 54.7627C53.6163 54.9098 53.837 55.0275 53.984 55.101C54.1311 55.1893 54.2488 55.307 54.3665 55.4541C54.4842 55.6012 54.543 55.7777 54.543 55.9689C54.543 56.3072 54.4106 56.572 54.1753 56.7632C53.9252 56.9544 53.5869 57.0427 53.1603 57.0427C52.2483 57.0427 51.454 56.572 50.7773 55.6306L49.4093 56.6603C49.7771 57.3222 50.2919 57.8517 50.9391 58.2342C51.5864 58.6166 52.3366 58.8079 53.1603 58.8079C54.1459 58.8079 54.9549 58.5431 55.6021 58.0135C56.2346 57.484 56.5582 56.7779 56.5582 55.8953C56.5582 55.2481 56.3523 54.7039 55.9699 54.2626C55.5727 53.8213 54.9696 53.4241 54.1606 53.0564L53.0573 52.571C52.6455 52.3944 52.3513 52.2179 52.1748 52.0708C51.9982 51.9237 51.9247 51.7178 51.9247 51.453C51.9247 51.1588 52.0277 50.9235 52.263 50.7617C52.4984 50.5999 52.7779 50.5116 53.1309 50.5116C53.8664 50.5116 54.4842 50.8941 54.9843 51.6295L56.3376 50.5852C56.0287 50.0262 55.6021 49.5849 55.0579 49.2466C54.5136 48.923 53.8664 48.7464 53.1309 48.7464ZM65.5987 48.923H57.3907V50.7175H60.4945V58.6313H62.4803V50.7175H65.5987V48.923ZM66.4252 56.0719C66.0281 56.0719 65.7044 56.2043 65.4397 56.469C65.1749 56.7338 65.0425 57.0574 65.0425 57.4399C65.0425 57.837 65.1749 58.1606 65.4397 58.4254C65.7044 58.6902 66.0281 58.8079 66.4252 58.8079C66.8077 58.8079 67.1313 58.6902 67.3961 58.4254C67.6461 58.1606 67.7785 57.837 67.7785 57.4399C67.7785 57.0574 67.6461 56.7338 67.3813 56.469C67.1166 56.2043 66.8077 56.0719 66.4252 56.0719ZM80.1935 48.923H71.9855V50.7175H75.0892V58.6313H77.075V50.7175H80.1935V48.923ZM89.6954 58.6313L86.9446 54.8068C87.4742 54.5421 87.8861 54.1743 88.195 53.7036C88.4892 53.2329 88.651 52.6739 88.651 52.0561C88.651 51.1147 88.3126 50.3645 87.6654 49.7908C87.0182 49.2172 86.1797 48.923 85.1501 48.923H81.5021V58.6313H83.4879V55.204H84.9441L87.4595 58.6313H89.6954ZM83.4879 50.6734H85.1501C85.5914 50.6734 85.9591 50.8058 86.2239 51.0559C86.4886 51.3206 86.621 51.6443 86.621 52.0561C86.621 52.4827 86.4886 52.821 86.2239 53.0711C85.9591 53.3359 85.6061 53.4535 85.1501 53.4535H83.4879V50.6734ZM97.1774 58.6313H99.3103L94.9857 48.7464H94.3237L89.9844 58.6313H92.1173L92.6615 57.3663H96.6331L97.1774 58.6313ZM95.9271 55.7335H93.3676L94.6473 52.468L95.9271 55.7335ZM103.813 48.923H100.636V58.6313H103.813C105.373 58.6313 106.638 58.1753 107.623 57.2633C108.609 56.3513 109.109 55.1893 109.109 53.7477C109.109 52.3062 108.609 51.1294 107.638 50.2468C106.652 49.3643 105.373 48.923 103.813 48.923ZM103.799 50.7175C104.784 50.7175 105.579 50.997 106.167 51.5266C106.755 52.0708 107.064 52.8063 107.064 53.7477C107.064 54.6892 106.755 55.4393 106.167 55.9983C105.564 56.5573 104.77 56.8368 103.799 56.8368H102.622V50.7175H103.799ZM117.323 48.923H110.792V58.6313H117.5V56.8368H112.778V54.3803H116.117V52.6886H112.778V50.7175H117.323V48.923ZM120.107 56.0719C119.71 56.0719 119.386 56.2043 119.121 56.469C118.857 56.7338 118.724 57.0574 118.724 57.4399C118.724 57.837 118.857 58.1606 119.121 58.4254C119.386 58.6902 119.71 58.8079 120.107 58.8079C120.489 58.8079 120.813 58.6902 121.078 58.4254C121.328 58.1606 121.46 57.837 121.46 57.4399C121.46 57.0574 121.328 56.7338 121.063 56.469C120.798 56.2043 120.489 56.0719 120.107 56.0719ZM133.843 48.923H127.312V58.6313H134.019V56.8368H129.298V54.3803H132.637V52.6886H129.298V50.7175H133.843V48.923ZM142.01 58.6313H144.143L139.819 48.7464H139.157L134.817 58.6313H136.95L137.494 57.3663H141.466L142.01 58.6313ZM140.76 55.7335H138.201L139.48 52.468L140.76 55.7335ZM153.662 58.6313L150.912 54.8068C151.441 54.5421 151.853 54.1743 152.162 53.7036C152.456 53.2329 152.618 52.6739 152.618 52.0561C152.618 51.1147 152.28 50.3645 151.632 49.7908C150.985 49.2172 150.147 48.923 149.117 48.923H145.469V58.6313H147.455V55.204H148.911L151.426 58.6313H153.662ZM147.455 50.6734H149.117C149.558 50.6734 149.926 50.8058 150.191 51.0559C150.456 51.3206 150.588 51.6443 150.588 52.0561C150.588 52.4827 150.456 52.821 150.191 53.0711C149.926 53.3359 149.573 53.4535 149.117 53.4535H147.455V50.6734ZM161.159 48.923V54.7039L155.525 48.7464H154.878V58.6313H156.864V52.8063L162.483 58.8079H163.145V48.923H161.159ZM166.247 56.0719C165.85 56.0719 165.526 56.2043 165.262 56.469C164.997 56.7338 164.864 57.0574 164.864 57.4399C164.864 57.837 164.997 58.1606 165.262 58.4254C165.526 58.6902 165.85 58.8079 166.247 58.8079C166.63 58.8079 166.953 58.6902 167.218 58.4254C167.468 58.1606 167.6 57.837 167.6 57.4399C167.6 57.0574 167.468 56.7338 167.203 56.469C166.938 56.2043 166.63 56.0719 166.247 56.0719Z" fill="white"/>
</svg>
