<svg width="474" height="241" viewBox="0 0 474 241" fill="none" xmlns="http://www.w3.org/2000/svg">
<path d="M54.2595 145.09C56.1717 135.911 66.8483 132.661 71.9475 132.183C86.098 131.035 93.9381 140.31 96.0894 145.09C97.5236 147.162 98.2884 152.835 89.8747 158.954C79.3574 166.603 66.6889 162.061 63.1035 161.105C59.5181 160.149 51.8692 156.563 54.2595 145.09Z" fill="white"/>
<path d="M61.908 219.427L46.6102 230.423L64.5373 169.232H72.1862L73.8594 232.813L61.908 219.427Z" fill="white"/>
<path d="M80.7913 240.94L82.2255 167.797L85.8109 169.71C85.8109 173.152 100.79 210.504 108.28 228.75C104.216 227.793 97.0452 221.579 94.6549 221.579C92.2647 221.579 90.5915 220.145 87.9622 231.14C85.8587 239.936 82.3052 241.338 80.7913 240.94Z" fill="white"/>
<path d="M47.5666 151.305C33.4161 141.935 9.9595 144.533 0 147.003C1.33856 142.796 1.6732 130.43 1.6732 124.773C2.05564 114.447 8.04728 111.706 10.9953 111.627C41.3518 110.671 56.1716 133.378 53.3032 135.769C51.0086 137.681 48.5227 146.923 47.5666 151.305Z" fill="white"/>
<path d="M105.761 151.305C119.912 141.935 143.368 144.533 153.328 147.003C151.989 142.796 151.655 130.43 151.655 124.773C151.272 114.447 145.281 111.706 142.333 111.627C111.976 110.671 97.1563 133.378 100.025 135.769C102.319 137.681 104.805 146.923 105.761 151.305Z" fill="white"/>
<path d="M25.337 150.348C16.5408 149.583 6.53346 152.101 2.62933 153.455C6.69281 156.562 16.493 159.192 25.337 159.67C32.4122 160.052 42.6267 158.554 46.8495 157.758C43.3438 155.606 34.1332 151.113 25.337 150.348Z" fill="white"/>
<path d="M127.991 150.348C136.787 149.583 146.795 152.101 150.699 153.455C146.635 156.562 136.835 159.192 127.991 159.67C120.916 160.052 110.702 158.554 106.479 157.758C109.984 155.606 119.195 151.113 127.991 150.348Z" fill="white"/>
<path d="M178.095 99.3039C181.364 107.98 185.199 114.895 189.6 120.051C197.27 129.041 206.794 133.536 218.174 133.536C224.335 133.536 229.647 131.587 234.111 127.689C238.638 123.792 240.901 118.353 240.901 111.375C240.901 105.088 238.638 99.6182 234.111 94.9659C231.156 92.0111 224.932 87.5788 215.439 81.669L198.936 71.3899C193.969 68.2464 190.008 65.0715 187.053 61.8652C181.584 55.7669 178.849 49.0399 178.849 41.6841C178.849 31.9394 182.087 23.8292 188.562 17.3537C195.038 10.8782 203.619 7.64038 214.307 7.64038C218.708 7.64038 223.989 8.74059 230.15 10.941C236.374 13.0786 239.927 14.1474 240.807 14.1474C243.196 14.1474 244.83 13.5815 245.711 12.4499C246.654 11.3182 247.377 9.71507 247.88 7.64038H251.84L256.084 48.7569H251.463C248.32 36.3717 243.259 27.7271 236.28 22.8233C229.364 17.9195 222.512 15.4676 215.722 15.4676C210.441 15.4676 205.82 17.0393 201.859 20.1828C197.961 23.2634 196.012 27.57 196.012 33.1025C196.012 38.0691 197.521 42.3128 200.539 45.8335C203.557 49.4171 208.24 53.1578 214.59 57.0557L231.565 67.5234C242.19 74.0619 249.671 80.0659 254.009 85.5355C258.284 91.068 260.422 97.6064 260.422 105.151C260.422 115.273 256.587 123.729 248.917 130.519C241.31 137.308 231.565 140.703 219.683 140.703C213.71 140.703 207.455 139.572 200.916 137.308C194.441 135.045 190.731 133.913 189.788 133.913C187.525 133.913 185.985 134.605 185.167 135.988C184.413 137.371 183.91 138.849 183.658 140.42H179.415L173.662 99.3039H178.095Z" fill="white"/>
<path d="M359.347 88.5532L336.997 35.3658L314.93 88.5532H359.347ZM275.982 138.157V134.668C280.949 134.102 284.658 132.216 287.11 129.01C289.625 125.803 293.9 117.096 299.935 102.887L340.203 8.1119H343.975L392.07 117.599C395.277 124.892 397.823 129.418 399.709 131.179C401.658 132.876 404.896 134.039 409.422 134.668V138.157H360.29V134.668C365.948 134.165 369.595 133.568 371.229 132.876C372.864 132.122 373.681 130.33 373.681 127.501C373.681 126.558 373.367 124.892 372.738 122.503C372.109 120.114 371.229 117.599 370.098 114.958L362.082 96.3805H311.535C306.505 109.017 303.487 116.75 302.482 119.579C301.538 122.346 301.067 124.546 301.067 126.181C301.067 129.45 302.387 131.713 305.028 132.97C306.662 133.725 309.743 134.291 314.27 134.668V138.157H275.982Z" fill="white"/>
<path d="M415.835 134.668C423.694 134.102 428.786 132.939 431.112 131.179C433.438 129.355 434.601 124.703 434.601 117.222V31.3107C434.601 24.2065 433.438 19.6484 431.112 17.6366C428.786 15.5619 423.694 14.336 415.835 13.9588V10.3752H472.983V13.9588C465.125 14.336 460.032 15.5619 457.706 17.6366C455.38 19.6484 454.217 24.2065 454.217 31.3107V117.222C454.217 124.703 455.38 129.355 457.706 131.179C460.032 132.939 465.125 134.102 472.983 134.668V138.157H415.835V134.668Z" fill="white"/>
<path d="M179.625 180.996C181.123 180.888 182.093 180.666 182.537 180.331C182.98 179.983 183.202 179.096 183.202 177.67V161.296C183.202 159.942 182.98 159.074 182.537 158.69C182.093 158.295 181.123 158.061 179.625 157.989V157.306H190.517V157.989C189.019 158.061 188.049 158.295 187.605 158.69C187.162 159.074 186.94 159.942 186.94 161.296V177.67C186.94 179.096 187.162 179.983 187.605 180.331C188.049 180.666 189.019 180.888 190.517 180.996V181.661H179.625V180.996Z" fill="white"/>
<path d="M191.703 180.996C193.225 180.84 194.202 180.498 194.633 179.971C195.065 179.432 195.28 178.192 195.28 176.251V160.02L194.777 159.427C194.238 158.792 193.776 158.403 193.393 158.259C193.022 158.103 192.458 158.013 191.703 157.989V157.306H198.012L212.194 175.028V162.716C212.194 160.691 211.894 159.373 211.295 158.762C210.899 158.367 210.025 158.109 208.671 157.989V157.306H217.316V157.989C215.914 158.133 214.98 158.474 214.512 159.014C214.045 159.553 213.811 160.787 213.811 162.716V182.092H213.182L196.898 161.907V176.251C196.898 178.264 197.191 179.576 197.779 180.187C198.162 180.582 199.019 180.852 200.349 180.996V181.661H191.703V180.996Z" fill="white"/>
<path d="M218.61 157.306H239.406L239.604 163.561H238.723C238.292 161.596 237.74 160.32 237.069 159.733C236.41 159.133 235.014 158.834 232.881 158.834H230.832V177.67C230.832 179.096 231.054 179.983 231.497 180.331C231.941 180.666 232.911 180.888 234.409 180.996V181.661H223.679V180.996C225.237 180.876 226.207 180.618 226.591 180.223C226.974 179.827 227.166 178.833 227.166 177.239V158.834H225.117C223.08 158.834 221.69 159.127 220.947 159.715C220.216 160.302 219.665 161.584 219.293 163.561H218.395L218.61 157.306Z" fill="white"/>
<path d="M240.808 180.996C242.162 180.852 243.037 180.612 243.432 180.277C243.839 179.929 244.043 179.06 244.043 177.67V161.296C244.043 159.99 243.845 159.139 243.45 158.744C243.055 158.337 242.174 158.085 240.808 157.989V157.306H260.363L260.489 162.59H259.554C259.243 160.961 258.776 159.906 258.153 159.427C257.529 158.948 256.139 158.708 253.983 158.708H248.986C248.447 158.708 248.111 158.798 247.979 158.978C247.86 159.145 247.8 159.469 247.8 159.948V168.162H253.461C255.031 168.162 256.032 167.929 256.463 167.461C256.894 166.994 257.242 166.047 257.505 164.621H258.368V173.141H257.505C257.23 171.715 256.876 170.775 256.445 170.319C256.014 169.852 255.019 169.618 253.461 169.618H247.8V178.731C247.8 179.462 248.027 179.893 248.483 180.025C248.95 180.157 250.334 180.223 252.635 180.223C255.127 180.223 256.966 179.953 258.153 179.414C259.339 178.863 260.405 177.539 261.352 175.442H262.376L260.705 181.661H240.808V180.996Z" fill="white"/>
<path d="M270.213 169.061C272.861 168.965 274.754 168.69 275.893 168.234C277.846 167.431 278.822 165.922 278.822 163.705C278.822 161.572 277.948 160.116 276.198 159.337C275.264 158.918 274.023 158.708 272.478 158.708C271.435 158.708 270.794 158.786 270.554 158.942C270.327 159.086 270.213 159.433 270.213 159.984V169.061ZM263.311 180.996C264.725 180.864 265.606 180.588 265.953 180.169C266.301 179.749 266.474 178.773 266.474 177.239V161.296C266.474 160.002 266.277 159.157 265.881 158.762C265.498 158.355 264.641 158.097 263.311 157.989V157.306H273.502C275.623 157.306 277.39 157.576 278.804 158.115C281.489 159.133 282.831 161.009 282.831 163.741C282.831 165.574 282.231 166.982 281.033 167.965C279.847 168.947 278.229 169.594 276.18 169.906L283.765 179.234C284.233 179.809 284.7 180.229 285.167 180.492C285.634 180.756 286.234 180.924 286.965 180.996V181.661H281.033L272.262 170.337L270.213 170.427V177.67C270.213 179.036 270.417 179.905 270.824 180.277C271.243 180.636 272.148 180.876 273.538 180.996V181.661H263.311V180.996Z" fill="white"/>
<path d="M287.863 180.996C289.385 180.84 290.362 180.498 290.793 179.971C291.224 179.432 291.44 178.192 291.44 176.251V160.02L290.937 159.427C290.398 158.792 289.936 158.403 289.553 158.259C289.181 158.103 288.618 158.013 287.863 157.989V157.306H294.172L308.353 175.028V162.716C308.353 160.691 308.054 159.373 307.455 158.762C307.059 158.367 306.184 158.109 304.83 157.989V157.306H313.476V157.989C312.074 158.133 311.139 158.474 310.672 159.014C310.205 159.553 309.971 160.787 309.971 162.716V182.092H309.342L293.058 161.907V176.251C293.058 178.264 293.351 179.576 293.938 180.187C294.322 180.582 295.179 180.852 296.509 180.996V181.661H287.863V180.996Z" fill="white"/>
<path d="M330.479 172.206L326.219 162.069L322.013 172.206H330.479ZM314.59 181.661V180.996C315.537 180.888 316.244 180.528 316.711 179.917C317.19 179.306 318.005 177.646 319.156 174.938L326.83 156.875H327.549L336.716 177.742C337.327 179.132 337.812 179.995 338.172 180.331C338.543 180.654 339.16 180.876 340.023 180.996V181.661H330.659V180.996C331.737 180.9 332.432 180.786 332.744 180.654C333.055 180.51 333.211 180.169 333.211 179.63C333.211 179.45 333.151 179.132 333.031 178.677C332.912 178.222 332.744 177.742 332.528 177.239L331 173.698H321.366C320.408 176.107 319.833 177.581 319.641 178.12C319.461 178.647 319.371 179.066 319.371 179.378C319.371 180.001 319.623 180.432 320.126 180.672C320.438 180.816 321.025 180.924 321.888 180.996V181.661H314.59Z" fill="white"/>
<path d="M337.273 157.306H358.069L358.267 163.561H357.386C356.954 161.596 356.403 160.32 355.732 159.733C355.073 159.133 353.677 158.834 351.544 158.834H349.495V177.67C349.495 179.096 349.717 179.983 350.16 180.331C350.604 180.666 351.574 180.888 353.072 180.996V181.661H342.342V180.996C343.899 180.876 344.87 180.618 345.254 180.223C345.637 179.827 345.829 178.833 345.829 177.239V158.834H343.78C341.743 158.834 340.353 159.127 339.61 159.715C338.879 160.302 338.328 161.584 337.956 163.561H337.057L337.273 157.306Z" fill="white"/>
<path d="M359.651 180.996C361.148 180.888 362.119 180.666 362.562 180.331C363.006 179.983 363.227 179.096 363.227 177.67V161.296C363.227 159.942 363.006 159.074 362.562 158.69C362.119 158.295 361.148 158.061 359.651 157.989V157.306H370.543V157.989C369.045 158.061 368.074 158.295 367.631 158.69C367.188 159.074 366.966 159.942 366.966 161.296V177.67C366.966 179.096 367.188 179.983 367.631 180.331C368.074 180.666 369.045 180.888 370.543 180.996V181.661H359.651V180.996Z" fill="white"/>
<path d="M376.582 169.492C376.582 173.363 377.343 176.227 378.864 178.084C380.386 179.929 382.256 180.852 384.472 180.852C386.641 180.852 388.492 179.953 390.026 178.156C391.572 176.346 392.345 173.459 392.345 169.492C392.345 165.478 391.566 162.578 390.008 160.793C388.451 159.008 386.605 158.115 384.472 158.115C382.268 158.115 380.398 159.044 378.864 160.901C377.343 162.746 376.582 165.61 376.582 169.492ZM372.412 169.492C372.412 165.562 373.646 162.411 376.115 160.038C378.379 157.869 381.165 156.785 384.472 156.785C387.791 156.785 390.583 157.875 392.848 160.056C395.305 162.417 396.533 165.562 396.533 169.492C396.533 173.483 395.263 176.658 392.722 179.018C390.446 181.127 387.696 182.182 384.472 182.182C381.021 182.182 378.158 181.014 375.881 178.677C373.568 176.292 372.412 173.231 372.412 169.492Z" fill="white"/>
<path d="M398.33 180.996C399.852 180.84 400.828 180.498 401.26 179.971C401.691 179.432 401.907 178.192 401.907 176.251V160.02L401.404 159.427C400.864 158.792 400.403 158.403 400.02 158.259C399.648 158.103 399.085 158.013 398.33 157.989V157.306H404.639L418.82 175.028V162.716C418.82 160.691 418.521 159.373 417.922 158.762C417.526 158.367 416.651 158.109 415.297 157.989V157.306H423.943V157.989C422.541 158.133 421.606 158.474 421.139 159.014C420.672 159.553 420.438 160.787 420.438 162.716V182.092H419.809L403.525 161.907V176.251C403.525 178.264 403.818 179.576 404.405 180.187C404.789 180.582 405.645 180.852 406.976 180.996V181.661H398.33V180.996Z" fill="white"/>
<path d="M440.946 172.206L436.686 162.069L432.48 172.206H440.946ZM425.057 181.661V180.996C426.004 180.888 426.711 180.528 427.178 179.917C427.657 179.306 428.472 177.646 429.622 174.938L437.297 156.875H438.016L447.183 177.742C447.794 179.132 448.279 179.995 448.639 180.331C449.01 180.654 449.627 180.876 450.49 180.996V181.661H441.126V180.996C442.204 180.9 442.899 180.786 443.211 180.654C443.522 180.51 443.678 180.169 443.678 179.63C443.678 179.45 443.618 179.132 443.498 178.677C443.378 178.222 443.211 177.742 442.995 177.239L441.467 173.698H431.833C430.875 176.107 430.299 177.581 430.108 178.12C429.928 178.647 429.838 179.066 429.838 179.378C429.838 180.001 430.09 180.432 430.593 180.672C430.905 180.816 431.492 180.924 432.354 180.996V181.661H425.057Z" fill="white"/>
<path d="M451.533 180.996C452.887 180.852 453.761 180.612 454.157 180.277C454.564 179.929 454.768 179.06 454.768 177.67V161.296C454.768 159.99 454.57 159.139 454.175 158.744C453.779 158.337 452.899 158.085 451.533 157.989V157.306H461.939V157.989C460.585 158.061 459.675 158.283 459.207 158.654C458.752 159.026 458.524 159.822 458.524 161.045V178.731C458.524 179.138 458.59 179.462 458.722 179.701C458.866 179.929 459.171 180.073 459.639 180.133C459.914 180.169 460.202 180.193 460.501 180.205C460.813 180.217 461.388 180.223 462.227 180.223C465.498 180.223 467.709 179.953 468.859 179.414C470.01 178.875 471.124 177.497 472.202 175.28H473.137L471.34 181.661H451.533V180.996Z" fill="white"/>
<path d="M177.61 223.765C178.492 226.106 179.526 227.972 180.714 229.363C182.783 231.788 185.353 233.001 188.423 233.001C190.085 233.001 191.519 232.475 192.723 231.424C193.944 230.372 194.555 228.905 194.555 227.022C194.555 225.326 193.944 223.85 192.723 222.595C191.926 221.798 190.247 220.602 187.685 219.007L183.233 216.234C181.893 215.386 180.824 214.529 180.027 213.664C178.551 212.019 177.813 210.204 177.813 208.219C177.813 205.59 178.687 203.402 180.434 201.655C182.181 199.908 184.496 199.034 187.38 199.034C188.567 199.034 189.992 199.331 191.654 199.925C193.334 200.502 194.292 200.79 194.53 200.79C195.174 200.79 195.615 200.637 195.853 200.332C196.107 200.027 196.302 199.594 196.438 199.034H197.506L198.651 210.128H197.405C196.557 206.786 195.191 204.454 193.308 203.131C191.442 201.808 189.594 201.146 187.762 201.146C186.337 201.146 185.09 201.57 184.021 202.418C182.97 203.249 182.444 204.411 182.444 205.904C182.444 207.244 182.851 208.389 183.665 209.339C184.479 210.306 185.743 211.315 187.456 212.367L192.036 215.191C194.903 216.955 196.921 218.575 198.092 220.051C199.245 221.543 199.822 223.307 199.822 225.343C199.822 228.074 198.787 230.355 196.718 232.187C194.665 234.019 192.036 234.935 188.83 234.935C187.219 234.935 185.531 234.63 183.767 234.019C182.02 233.408 181.019 233.103 180.765 233.103C180.154 233.103 179.738 233.29 179.518 233.663C179.314 234.036 179.179 234.435 179.111 234.859H177.966L176.414 223.765H177.61Z" fill="white"/>
<path d="M240.781 199.162C242.663 199.162 244.597 199.441 246.582 200.001C248.566 200.561 249.677 200.841 249.915 200.841C250.407 200.841 250.873 200.705 251.314 200.434C251.755 200.162 252.06 199.738 252.23 199.162H253.324L253.808 210.865H252.612C251.916 208.542 251.009 206.667 249.889 205.242C247.752 202.562 244.877 201.222 241.264 201.222C237.617 201.222 234.632 202.664 232.308 205.548C230.001 208.431 228.848 212.401 228.848 217.455C228.848 222.103 230.06 225.818 232.486 228.6C234.929 231.364 238.016 232.747 241.747 232.747C244.444 232.747 246.929 232.102 249.202 230.813C250.508 230.084 251.942 228.981 253.502 227.505L254.469 228.472C253.316 229.931 251.882 231.212 250.169 232.314C247.252 234.18 244.088 235.113 240.679 235.113C235.081 235.113 230.637 233.324 227.346 229.745C224.31 226.437 222.792 222.307 222.792 217.354C222.792 212.282 224.395 208.024 227.601 204.581C230.976 200.968 235.37 199.162 240.781 199.162Z" fill="white"/>
<path d="M275.328 233.307C277.363 233.086 278.635 232.713 279.144 232.187C279.653 231.644 279.907 230.245 279.907 227.989V205.421C279.907 203.555 279.619 202.342 279.042 201.782C278.483 201.222 277.244 200.875 275.328 200.739V199.772H289.805V200.739C287.888 200.875 286.641 201.222 286.065 201.782C285.488 202.342 285.2 203.555 285.2 205.421V215.573H301V205.421C301 203.555 300.72 202.342 300.16 201.782C299.601 201.222 298.354 200.875 296.42 200.739V199.772H310.898V200.739C308.981 200.875 307.734 201.222 307.157 201.782C306.598 202.342 306.318 203.555 306.318 205.421V228.6C306.318 230.499 306.598 231.721 307.157 232.263C307.734 232.789 308.981 233.137 310.898 233.307V234.248H296.42V233.307C298.473 233.103 299.745 232.73 300.237 232.187C300.746 231.644 301 230.245 301 227.989V217.862H285.2V228.6C285.2 230.499 285.488 231.721 286.065 232.263C286.641 232.806 287.888 233.154 289.805 233.307V234.248H275.328V233.307Z" fill="white"/>
<path d="M337.837 217.023C337.837 222.502 338.914 226.556 341.068 229.185C343.223 231.797 345.869 233.103 349.007 233.103C352.077 233.103 354.698 231.831 356.869 229.287C359.057 226.725 360.151 222.637 360.151 217.023C360.151 211.34 359.048 207.236 356.843 204.708C354.638 202.181 352.026 200.917 349.007 200.917C345.886 200.917 343.24 202.232 341.068 204.861C338.914 207.473 337.837 211.527 337.837 217.023ZM331.934 217.023C331.934 211.459 333.681 206.998 337.176 203.64C340.381 200.569 344.325 199.034 349.007 199.034C353.705 199.034 357.657 200.578 360.863 203.665C364.341 207.007 366.079 211.459 366.079 217.023C366.079 222.671 364.281 227.166 360.685 230.508C357.462 233.493 353.57 234.986 349.007 234.986C344.122 234.986 340.068 233.332 336.845 230.024C333.571 226.649 331.934 222.315 331.934 217.023Z" fill="white"/>
<path d="M393.731 217.023C393.731 222.502 394.808 226.556 396.962 229.185C399.117 231.797 401.763 233.103 404.901 233.103C407.971 233.103 410.592 231.831 412.763 229.287C414.951 226.725 416.045 222.637 416.045 217.023C416.045 211.34 414.942 207.236 412.737 204.708C410.532 202.181 407.92 200.917 404.901 200.917C401.78 200.917 399.134 202.232 396.962 204.861C394.808 207.473 393.731 211.527 393.731 217.023ZM387.828 217.023C387.828 211.459 389.575 206.998 393.07 203.64C396.275 200.569 400.219 199.034 404.901 199.034C409.599 199.034 413.552 200.578 416.757 203.665C420.235 207.007 421.973 211.459 421.973 217.023C421.973 222.671 420.175 227.166 416.579 230.508C413.356 233.493 409.464 234.986 404.901 234.986C400.016 234.986 395.962 233.332 392.739 230.024C389.465 226.649 387.828 222.315 387.828 217.023Z" fill="white"/>
<path d="M442.755 233.307C444.672 233.103 445.91 232.764 446.47 232.289C447.047 231.797 447.335 230.567 447.335 228.6V205.421C447.335 203.572 447.055 202.367 446.496 201.808C445.936 201.231 444.689 200.875 442.755 200.739V199.772H457.487V200.739C455.57 200.841 454.281 201.155 453.62 201.68C452.975 202.206 452.653 203.334 452.653 205.064V230.101C452.653 230.677 452.746 231.135 452.933 231.475C453.136 231.797 453.569 232 454.23 232.085C454.621 232.136 455.028 232.17 455.452 232.187C455.893 232.204 456.707 232.213 457.894 232.213C462.525 232.213 465.655 231.831 467.283 231.068C468.911 230.304 470.489 228.354 472.015 225.216H473.338L470.794 234.248H442.755V233.307Z" fill="white"/>
<path fill-rule="evenodd" clip-rule="evenodd" d="M74.8162 106.347C100.811 106.347 121.885 85.2741 121.885 59.279C121.885 33.2838 100.811 12.2106 74.8162 12.2106C48.821 12.2106 27.7478 33.2838 27.7478 59.279C27.7478 85.2741 48.821 106.347 74.8162 106.347ZM74.8162 118.558C107.555 118.558 134.095 92.0178 134.095 59.279C134.095 26.5401 107.555 0 74.8162 0C42.0773 0 15.5372 26.5401 15.5372 59.279C15.5372 92.0178 42.0773 118.558 74.8162 118.558Z" fill="white"/>
<path d="M63.1033 37.7665C61.5735 38.5314 58.1634 42.3877 56.6496 44.2203L42.0688 30.5957C41.1127 40.7305 34.3403 51.0724 31.0735 54.9765L50.9129 55.9327V64.7767L31.0735 67.645C38.1488 72.6168 42.9453 85.6518 44.4591 91.5478L56.6496 76.7281L64.2985 81.9867L54.4983 98.9577C65.7804 97.6191 76.7279 101.587 80.7914 103.738L77.445 84.616C80.5046 84.4248 84.6158 82.7835 86.289 81.9867L93.2209 100.631C98.3839 92.2171 108.598 85.3331 113.06 82.9428L96.5672 73.8598C97.7146 72.5212 99.1169 67.7247 99.6746 65.4938L118.558 71.4695C114.733 65.3504 116.168 50.7537 117.363 44.2203L99.6746 52.3472C99.4834 50.435 96.5672 46.1325 95.1331 44.2203L111.387 32.986C102.208 30.5001 93.0615 21.911 89.6354 17.9272C88.6793 21.0346 86.289 37.7665 84.3768 36.0933C82.847 34.7548 78.1621 34.4201 76.0108 34.4201C76.3933 31.743 76.9669 20.2378 77.206 14.8198C70.7044 20.5565 57.6057 22.15 51.869 22.2297C54.2593 29.4005 65.0155 36.8104 63.1033 37.7665Z" fill="white"/>
<path d="M81.7476 59.279C81.7476 62.8434 78.8581 65.7328 75.2938 65.7328C71.7295 65.7328 68.84 62.8434 68.84 59.279C68.84 55.7147 71.7295 52.8253 75.2938 52.8253C78.8581 52.8253 81.7476 55.7147 81.7476 59.279Z" fill="white"/>
</svg>
