<svg width="65" height="87" viewBox="0 0 65 87" fill="none" xmlns="http://www.w3.org/2000/svg">
<path d="M2.59665 71.2687V74.4121H4.85164V72.2254C4.85164 71.6939 4.77572 71.2839 4.62387 70.9954C4.47202 70.7069 4.19109 70.426 3.78109 70.1526L1.41222 68.581C0.971847 68.2925 0.637775 67.9204 0.409998 67.4649C0.182221 67.0093 0.068333 66.5462 0.068333 66.0754V63.1143C0.068333 62.3095 0.29611 61.6869 0.751663 61.2466C1.2224 60.791 1.80703 60.5632 2.50554 60.5632H4.94275C5.80831 60.5632 6.43089 60.7758 6.81052 61.201C7.19015 61.611 7.37996 62.2412 7.37996 63.0916V65.5743L4.80609 66.2577V62.7043H2.57388V65.096C2.57388 65.506 2.6498 65.8477 2.80165 66.121C2.9535 66.3791 3.21924 66.6297 3.59887 66.8726L5.85386 68.3532C6.88645 69.0365 7.40274 69.978 7.40274 71.1776V74.2754C7.40274 75.0802 7.17497 75.6724 6.71941 76.0521C6.26386 76.4317 5.66405 76.6215 4.91998 76.6215H2.64221C1.74629 76.6215 1.07814 76.4393 0.637775 76.0748C0.212592 75.6952 0 75.0878 0 74.2526V71.2687H2.59665Z" fill="white"/>
<path d="M15.2217 68.4215C15.9962 68.6341 16.5656 68.9454 16.93 69.3554C17.3097 69.7502 17.4995 70.35 17.4995 71.1549V76.5076H14.7434V71.8154C14.7434 71.0713 14.6219 70.5247 14.3789 70.1754C14.136 69.811 13.7412 69.6287 13.1945 69.6287H12.1012V76.5076H9.45896V60.6771H12.1012V67.1232H13.0123C14.0449 67.1232 14.5612 66.5082 14.5612 65.2782V60.6771H17.2717V65.301C17.2717 66.1058 17.0971 66.7436 16.7478 67.2143C16.4137 67.6699 15.905 67.9888 15.2217 68.171V68.4215Z" fill="white"/>
<path d="M27.211 74.0932C27.211 74.9284 26.9832 75.5585 26.5276 75.9837C26.0721 76.4089 25.4191 76.6215 24.5687 76.6215H22.1543C20.3928 76.6215 19.5121 75.7787 19.5121 74.0932V63.0916C19.5121 61.406 20.3928 60.5632 22.1543 60.5632H24.5687C26.3302 60.5632 27.211 61.406 27.211 63.0916V74.0932ZM24.5687 74.3893V62.7954H22.1543V74.3893H24.5687Z" fill="white"/>
<path d="M29.4339 60.6771H34.445C35.3257 60.6771 35.9711 60.8821 36.3811 61.2921C36.8063 61.6869 37.0189 62.3171 37.0189 63.1827V68.6493C37.0189 69.12 36.867 69.53 36.5633 69.8793C36.2748 70.2134 35.9179 70.4639 35.4928 70.631V70.7449C36.6013 71.1093 37.1555 71.8382 37.1555 72.9315V76.5076H34.445V71.8382H32.0761V76.5076H29.4339V60.6771ZM32.0761 69.6515H34.4222V62.9321H32.0761V69.6515Z" fill="white"/>
<path d="M46.8522 74.0932C46.8522 74.9284 46.6245 75.5585 46.1689 75.9837C45.7134 76.4089 45.0604 76.6215 44.21 76.6215H41.7956C40.0341 76.6215 39.1534 75.7787 39.1534 74.0932V63.0916C39.1534 61.406 40.0341 60.5632 41.7956 60.5632H44.21C45.9715 60.5632 46.8522 61.406 46.8522 63.0916V74.0932ZM44.21 74.3893V62.7954H41.7956V74.3893H44.21Z" fill="white"/>
<path d="M51.4441 71.2687V74.4121H53.6991V72.2254C53.6991 71.6939 53.6231 71.2839 53.4713 70.9954C53.3194 70.7069 53.0385 70.426 52.6285 70.1526L50.2596 68.581C49.8193 68.2925 49.4852 67.9204 49.2574 67.4649C49.0296 67.0093 48.9158 66.5462 48.9158 66.0754V63.1143C48.9158 62.3095 49.1435 61.6869 49.5991 61.2466C50.0698 60.791 50.6544 60.5632 51.353 60.5632H53.7902C54.6557 60.5632 55.2783 60.7758 55.6579 61.201C56.0376 61.611 56.2274 62.2412 56.2274 63.0916V65.5743L53.6535 66.2577V62.7043H51.4213V65.096C51.4213 65.506 51.4972 65.8477 51.6491 66.121C51.8009 66.3791 52.0667 66.6297 52.4463 66.8726L54.7013 68.3532C55.7339 69.0365 56.2502 69.978 56.2502 71.1776V74.2754C56.2502 75.0802 56.0224 75.6724 55.5668 76.0521C55.1113 76.4317 54.5115 76.6215 53.7674 76.6215H51.4896C50.5937 76.6215 49.9256 76.4393 49.4852 76.0748C49.06 75.6952 48.8474 75.0878 48.8474 74.2526V71.2687H51.4441Z" fill="white"/>
<path d="M64.4791 60.6771L64.9347 63.1599H62.3836V76.5076H59.7414V63.1599H57.1903L57.6458 60.6771H64.4791Z" fill="white"/>
<path d="M22.0275 85.1992H23.0003V79.7534H24.0549V85.1083C24.0549 85.7811 23.7034 86.1175 23.0003 86.1175H22.0275C21.3244 86.1175 20.9729 85.7811 20.9729 85.1083V79.7534H22.0275V85.1992Z" fill="white"/>
<path d="M27.7781 82.0808V79.7534H28.7873V86.072H27.7781V83.9173L26.7871 81.7626H26.7326V86.072H25.7234V79.7534H26.7144L27.7145 82.0808H27.7781Z" fill="white"/>
<path d="M31.5195 86.072H30.4649V79.7534H31.5195V86.072Z" fill="white"/>
<path d="M35.6636 79.7534L35.8454 80.7444H34.8272V86.072H33.7725V80.7444H32.7543L32.9361 79.7534H35.6636Z" fill="white"/>
<path d="M39.6075 80.7171H38.1346V82.39H39.3529L39.1711 83.3173H38.1346V85.1083H39.6802L39.4984 86.072H37.08V79.7534H39.4256L39.6075 80.7171Z" fill="white"/>
<path d="M43.0927 79.7534C43.7958 79.7534 44.1473 80.0898 44.1473 80.7626V85.0538C44.1473 85.3811 44.0564 85.6326 43.8746 85.8084C43.6988 85.9841 43.4382 86.072 43.0927 86.072H41.1289V79.7534H43.0927ZM42.1835 80.608V85.2174H43.0927V80.608H42.1835Z" fill="white"/>
<rect x="48.9109" y="81.2505" width="2.42057" height="2.42057" transform="rotate(45 48.9109 81.2505)" fill="white"/>
<rect x="48.9109" y="81.2505" width="2.42057" height="2.42057" transform="rotate(45 48.9109 81.2505)" fill="white"/>
<rect x="16.1299" y="81.2505" width="2.42057" height="2.42057" transform="rotate(45 16.1299 81.2505)" fill="white"/>
<rect x="16.1299" y="81.2505" width="2.42057" height="2.42057" transform="rotate(45 16.1299 81.2505)" fill="white"/>
<path d="M21.606 22.6436C21.6241 21.8546 21.0875 20.9871 20.8169 20.652C20.6093 20.8749 20.1877 21.609 20.1611 22.7621C20.1346 23.9152 20.521 24.7186 20.7174 24.9761C21.4952 24.159 21.5833 23.6298 21.606 22.6436Z" fill="white"/>
<path d="M26.5037 27.5379C26.5686 27.3572 26.3319 27.3063 26.2055 27.3033C24.5711 27.0836 22.8813 25.5318 22.2407 24.7833C21.8256 24.3487 21.4457 25.2457 21.3076 25.7486C21.0469 27.1847 22.0828 28.3471 22.3052 28.5799C22.483 28.7661 22.6839 28.6139 22.7621 28.5145C23.0753 28.0966 23.8111 28.0073 24.1398 28.0149C25.5812 28.048 26.4226 27.7637 26.5037 27.5379Z" fill="white"/>
<path fill-rule="evenodd" clip-rule="evenodd" d="M25.032 15.5872C28.1912 13.5346 31.7707 13.0097 34.7223 13.3811C37.0836 13.6783 38.568 14.4816 39.0151 14.8461C38.4068 14.8928 37.8373 15.4515 37.6286 15.725C40.3064 14.7999 43.62 15.9387 44.982 16.1218C46.0716 16.2683 47.1072 16.12 47.4889 16.0276C47.4289 18.6372 46.5954 19.6756 46.1861 19.8687C46.3919 18.8412 46.2504 18.1751 46.1539 17.9705C45.6572 18.4448 44.9284 18.4482 44.6262 18.3907C44.248 18.3314 43.1558 18.2962 41.8123 18.6296C40.4688 18.963 39.3935 20.3956 39.0238 21.0702C39.8239 20.6029 40.425 20.647 40.6256 20.7276C40.2117 21.1228 39.361 22.2469 39.2696 23.5807C39.1782 24.9144 38.2252 26.0867 37.7602 26.5061C39.5313 26.061 40.5548 24.9006 40.8452 24.3759C39.9479 27.0877 39.0943 27.9031 35.9822 27.9074C33.4926 27.9109 31.836 26.6735 31.3189 26.0544C31.7052 25.7597 32.1726 25.2391 32.2572 24.8616C32.3249 24.5595 32.1866 24.6322 32.109 24.7063C30.9238 26.0757 28.8021 26.5785 27.8894 26.6587C29.2018 25.7022 29.5278 24.7229 29.6124 24.3453C29.6801 24.0433 29.5419 24.116 29.4643 24.1901C29.2521 24.6153 28.4766 25.5488 27.0724 25.8808C25.3171 26.2959 24.1966 25.5111 23.7484 25.1972C23.3002 24.8833 22.7108 24.1107 22.7317 23.2004C22.7526 22.2901 23.2183 21.8453 23.4511 21.6229C23.6374 21.4451 24.0391 21.3582 24.2167 21.337L25.8115 21.2977C25.7127 21.1942 25.4851 20.9714 25.3651 20.908C25.2451 20.8445 25.3209 20.6286 25.3739 20.5287L26.3173 19.1082L24.7756 20.1354C24.6986 20.1843 24.4835 20.2957 24.2394 20.3508C23.9341 20.4196 22.2653 20.3813 22.0377 20.3761C21.8556 20.3719 21.7113 20.2674 21.6619 20.2156L20.8466 19.3619C20.8493 19.2406 20.9524 19.162 21.0035 19.1379C22.2871 18.3325 24.8852 16.6919 25.0093 16.5733C25.1646 16.4251 25.2456 16.1992 25.0216 16.0423C24.8424 15.9167 24.9538 15.6866 25.032 15.5872ZM27.0577 23.2239C26.6713 24.1866 25.4678 24.1487 24.9144 24.0095C25.278 24.701 26.1125 24.7202 26.5729 24.5031C27.0332 24.286 27.0755 23.5533 27.0577 23.2239ZM26.8693 21.5498C26.538 22.7566 25.3518 22.6281 24.8001 22.413C24.8707 22.6424 25.5396 23.2649 26.3828 22.9048C27.0573 22.6167 26.9882 21.8815 26.8693 21.5498ZM37.589 21.1652C37.0952 20.9617 36.3978 20.9389 36.0899 21.3227C35.6978 21.8116 36.2575 22.5749 36.7543 22.7784C37.2512 22.9819 38.158 23.249 38.4528 22.6254C38.7672 21.9604 38.1929 21.414 37.589 21.1652ZM33.06 20.3852C32.7999 20.2906 32.433 20.279 32.2716 20.4557C32.066 20.6808 32.3616 21.034 32.6233 21.1286C32.885 21.2233 33.3625 21.348 33.5167 21.0606C33.6811 20.7541 33.3781 20.501 33.06 20.3852ZM36.3505 18.5037C35.9747 18.3432 35.4437 18.3257 35.2091 18.6292C34.9103 19.0159 35.4504 19.6216 35.7139 19.7794C35.9773 19.9373 36.7822 20.1504 37.0071 19.6574C37.2469 19.1316 36.81 18.6999 36.3505 18.5037ZM35.8306 16.5146C34.9224 16.0605 34.1276 15.1522 31.63 16.3443C29.6319 17.2979 28.2998 16.931 27.8835 16.6282C27.8836 16.7039 27.9403 16.9348 28.1673 17.2525C28.3943 17.5704 27.77 17.8769 27.4294 17.9905C28.3376 17.7634 28.8674 17.8391 29.0188 17.877C28.6556 17.7861 28.6782 17.4417 28.735 17.3093C30.8352 17.6499 32.2543 17.0445 32.6518 16.7417C32.243 17.7408 31.0813 18.4068 30.5515 18.615C32.1409 19.5686 33.3709 19.0879 33.7871 18.7284C33.106 19.0009 32.1787 18.6906 31.8003 18.5014C33.2535 17.9111 33.7303 16.8931 33.7871 16.4579C34.5591 16.2762 35.4711 16.42 35.8306 16.5146Z" fill="white"/>
<path fill-rule="evenodd" clip-rule="evenodd" d="M46.1431 21.7654C47.7743 23.4475 51.4852 27.4524 52.5475 31.8703C51.7887 35.2091 49.778 41.0919 44.1247 46.4395C41.8101 48.6291 39.8047 50.0964 38.0927 51.1119C38.0973 51.0426 38.1008 50.9714 38.1025 50.8984C38.1237 49.9742 37.5596 49.1561 36.8511 49.2052C36.1761 49.2519 35.5467 49.8225 35.519 51.024C35.5071 51.5404 35.5565 51.9982 35.715 52.3422C34.4101 52.9187 33.3461 53.229 32.5104 53.4825C28.8252 52.2462 24.7455 50.3995 21.0161 46.8205C21.191 46.6641 21.3324 46.4663 21.4167 46.3278C21.6533 45.9388 21.7454 45.2322 21.2961 44.9588C20.9967 44.7766 20.6165 44.8171 20.2221 45.4654C20.1559 45.5742 20.0934 45.7022 20.0428 45.8376C18.2243 43.9051 16.5083 41.521 14.9861 38.5479C16.0389 38.977 20.1192 39.7933 22.4296 39.6643C25.3176 39.503 27.3763 39.0949 28.8099 36.1677C29.2328 36.481 30.083 37.5784 30.1004 39.4612C31.129 37.6379 31.9769 33.1134 27.1392 29.6017C28.8989 30.0976 32.851 32.0708 34.5824 35.9968C34.6699 35.4928 34.7759 34.1796 34.5004 32.9589C36.0944 34.0581 39.3454 37.4726 39.5979 42.3361C40.7719 40.7945 43.0152 35.6594 42.5967 27.4524C43.2608 28.2773 44.5944 31.0202 44.6153 35.3927C45.4074 32.8555 46.3158 26.794 43.6134 22.8457L46.1431 21.7654ZM31.4733 44.8777C31.304 44.3166 30.8285 43.9227 30.4476 44.0787C30.0667 44.2348 29.9964 44.7113 30.1657 45.2724C30.3351 45.8335 30.7664 46.1996 31.2569 46.0516C31.6491 45.9332 31.6426 45.4388 31.4733 44.8777ZM41.6036 43.5566C40.9734 43.3103 40.69 43.6013 40.4139 44.3081C40.2206 44.8029 40.31 45.408 40.8048 45.6013C41.4914 45.8695 41.7876 45.1706 41.9257 44.8172C42.0913 44.3931 42.2397 43.8051 41.6036 43.5566ZM35.9755 38.1546C35.5194 38.1864 35.281 38.6484 35.2666 39.2769C35.2522 39.9053 35.5817 40.4226 36.1507 40.4357C36.6059 40.4462 36.7693 39.9402 36.7838 39.3118C36.7982 38.6834 36.4316 38.1229 35.9755 38.1546ZM46.3996 37.5628C46.1354 36.6769 45.4878 36.0984 44.8334 36.2935C44.185 36.4869 43.802 37.0834 44.1455 38.2351C44.4626 39.2982 44.9237 40.1427 45.895 39.853C46.6013 39.6423 46.796 38.8917 46.3996 37.5628Z" fill="white"/>
<path d="M33.0249 0C33.6249 0.0211191 38.2047 0.214963 41.4478 0.807617C45.0225 1.4609 50.387 3.33369 50.4019 3.33887C50.4097 3.34991 53.9399 8.32582 55.4097 13.5557C56.4332 17.198 56.6571 20.339 56.4722 24.7109C56.2732 29.414 55.6625 32.7539 54.1958 36.5479C52.5579 40.7844 51.1793 43.0857 48.2017 46.5156C40.7786 55.066 33.2869 56.5465 32.5522 56.6738V56.6836C32.5501 56.6833 32.5401 56.6816 32.5229 56.6787L32.5044 56.6816L32.4937 56.6836V56.6738C31.7579 56.5463 24.2676 55.0652 16.8452 46.5156C13.8675 43.0856 12.488 40.7845 10.8501 36.5479C9.38345 32.754 8.77271 29.414 8.57373 24.7109C8.38877 20.339 8.61268 17.198 9.63623 13.5557C10.3098 11.159 11.4191 8.81753 12.4233 6.98242C11.5306 8.62665 10.5551 10.6828 9.87744 12.8359C10.2883 13.2613 10.7444 13.642 11.2358 13.9746C11.1822 14.1485 11.1306 14.3234 11.0815 14.498C10.1241 17.9109 9.91439 20.8536 10.0874 24.9502C10.2736 29.3575 10.8451 32.4877 12.2173 36.043C13.7496 40.0129 15.0401 42.1689 17.8257 45.3828C24.7703 53.3952 31.7789 54.783 32.4663 54.9023V54.9121L32.4761 54.9102L32.4937 54.9072C32.5101 54.91 32.5193 54.9119 32.521 54.9121V54.9023C33.2083 54.783 40.2169 53.3953 47.1616 45.3828C49.9473 42.1688 51.2377 40.013 52.77 36.043C54.1423 32.4877 54.7137 29.3576 54.8999 24.9502C55.0729 20.8536 54.8632 17.9109 53.9058 14.498C53.7059 13.7857 53.465 13.0774 53.1997 12.3887C51.2006 12.0381 40.0797 10.1456 32.646 10.0918C29.9528 10.0723 26.7506 10.288 23.6655 10.585C24.1931 9.47832 24.4897 8.24028 24.4897 6.93262C24.4897 4.66183 23.5325 2.65539 22.0815 1.13086C21.74 1.21104 21.3926 1.29825 21.0435 1.38867C21.9308 1.15789 22.8078 0.952072 23.5981 0.807617C26.8408 0.21502 31.3614 0.0211639 31.9624 0H33.0249ZM36.7856 4.17969C36.4239 4.17969 36.2427 4.34733 36.2427 4.68164V5.55469H36.6733V4.55762H37.4048V6.08594H36.6851L36.6265 6.48145H37.4644V7.94434H36.644V7H36.2075V7.82031C36.2076 8.15454 36.3907 8.32129 36.7563 8.32129H37.3228C37.5506 8.32124 37.706 8.27403 37.7886 8.17969C37.871 8.08526 37.9126 7.92995 37.9126 7.71387V6.63477C37.9126 6.5286 37.8846 6.44571 37.8296 6.38672C37.7746 6.3278 37.7021 6.29018 37.6118 6.27441V6.2334C37.7728 6.18614 37.853 6.06951 37.853 5.88477V4.6875C37.853 4.34939 37.6725 4.17982 37.311 4.17969H36.7856ZM30.6313 4.17969C30.2735 4.17969 30.0942 4.34733 30.0942 4.68164V7.81445C30.0943 8.14866 30.2736 8.31543 30.6313 8.31543H31.3394C31.7008 8.31529 31.8813 8.14852 31.8813 7.81445V4.68164C31.8813 4.34746 31.7008 4.17982 31.3394 4.17969H30.6313ZM33.7173 4.17969C33.3594 4.17969 33.1802 4.34733 33.1802 4.68164V7.81445C33.1802 8.14866 33.3595 8.31543 33.7173 8.31543H34.4253C34.7868 8.31535 34.9672 8.14858 34.9673 7.81445V4.68164C34.9673 4.34741 34.7869 4.17977 34.4253 4.17969H33.7173ZM27.7056 4.17969C27.344 4.17978 27.1636 4.34741 27.1636 4.68164V5.96777H27.5942V4.55176H28.3667V5.80859C28.3667 5.92257 28.3503 6.01904 28.3188 6.09766C28.2874 6.17622 28.2285 6.25735 28.1421 6.33984C28.0556 6.42238 27.9194 6.52666 27.7349 6.65234C27.5699 6.76628 27.4443 6.87247 27.3579 6.9707C27.2714 7.06506 27.2126 7.16727 27.1812 7.27734C27.1497 7.38747 27.1333 7.52331 27.1333 7.68457V8.29785H28.8794V7.86719H27.564V7.61328C27.564 7.48759 27.5978 7.37556 27.6646 7.27734C27.7353 7.17902 27.8848 7.05471 28.1128 6.90527C28.3132 6.7677 28.4628 6.64811 28.561 6.5459C28.6592 6.43983 28.7258 6.33361 28.7612 6.22754C28.7966 6.11745 28.8149 5.97958 28.8149 5.81445V4.68164C28.8149 4.34733 28.6337 4.17969 28.272 4.17969H27.7056ZM31.4331 7.93262H30.5366V4.56348H31.4331V7.93262ZM34.519 7.93262H33.6226V4.56348H34.519V7.93262ZM30.104 1.80273C30.0512 1.80274 29.9994 1.80926 29.9487 1.82324C29.8991 1.83619 29.8539 1.85676 29.814 1.88477C29.7751 1.91179 29.743 1.94701 29.7192 1.99023C29.6954 2.03242 29.6841 2.08319 29.6841 2.1416C29.6841 2.19442 29.6939 2.23879 29.7144 2.27441C29.736 2.30903 29.7647 2.33764 29.7993 2.36035C29.835 2.38196 29.8751 2.40001 29.9194 2.41406C29.9637 2.42701 30.0089 2.4394 30.0542 2.4502C30.1005 2.45988 30.1458 2.46883 30.1899 2.47852C30.2341 2.48821 30.2736 2.50144 30.3081 2.51758C30.3438 2.53272 30.3725 2.55325 30.3931 2.57812C30.4145 2.60288 30.4252 2.63512 30.4253 2.6748C30.4253 2.71699 30.4162 2.75226 30.3989 2.7793C30.3817 2.80606 30.3594 2.82762 30.3315 2.84375C30.3035 2.85883 30.2713 2.86948 30.2358 2.87598C30.2012 2.88247 30.166 2.88574 30.1313 2.88574C30.0883 2.88572 30.0463 2.88086 30.0054 2.87012C29.9643 2.8593 29.9274 2.84205 29.896 2.81934C29.8659 2.79667 29.8412 2.76785 29.8218 2.7334C29.8035 2.69783 29.7945 2.65586 29.7944 2.60742H29.6479C29.648 2.67753 29.6612 2.73823 29.686 2.79004C29.712 2.84087 29.7463 2.88346 29.7896 2.91699C29.8339 2.9494 29.8846 2.97402 29.9419 2.99023C30.0002 3.00641 30.0617 3.01462 30.1265 3.01465C30.1794 3.01465 30.2327 3.00807 30.2856 2.99512C30.3397 2.98322 30.3889 2.96356 30.4321 2.93652C30.4753 2.90843 30.5106 2.87229 30.5376 2.8291C30.5656 2.78483 30.5796 2.7314 30.5796 2.66992C30.5795 2.6128 30.5689 2.5651 30.5474 2.52734C30.5268 2.48949 30.4981 2.45847 30.4624 2.43359C30.4278 2.40875 30.3885 2.38905 30.3442 2.375C30.2999 2.35986 30.254 2.34675 30.2075 2.33594C30.1624 2.32519 30.1178 2.31525 30.0737 2.30664C30.0296 2.29694 29.9892 2.28547 29.9536 2.27148C29.919 2.25742 29.8903 2.23941 29.8687 2.21777C29.8482 2.19507 29.8384 2.16554 29.8384 2.12988C29.8384 2.09223 29.8449 2.06093 29.8589 2.03613C29.874 2.01023 29.8938 1.98974 29.9175 1.97461C29.9422 1.95955 29.9703 1.94888 30.0015 1.94238C30.0327 1.93592 30.0649 1.93264 30.0972 1.93262C30.1771 1.93262 30.2426 1.95146 30.2935 1.98926C30.3453 2.02601 30.3756 2.08573 30.3843 2.16895H30.5308C30.5286 2.10517 30.5164 2.05029 30.4937 2.00488C30.472 1.95844 30.4417 1.9199 30.4028 1.88965C30.365 1.85936 30.3199 1.8373 30.269 1.82324C30.2184 1.80927 30.1633 1.80273 30.104 1.80273ZM33.6519 1.80273C33.5632 1.80273 33.4837 1.81818 33.4146 1.85059C33.3465 1.88191 33.2891 1.92541 33.2427 1.98047C33.1973 2.03563 33.163 2.10115 33.1392 2.17578C33.1154 2.24921 33.1031 2.32791 33.103 2.41211C33.103 2.49647 33.1136 2.57586 33.1353 2.64941C33.1579 2.7229 33.1916 2.78677 33.2358 2.84082C33.2801 2.89479 33.336 2.9374 33.4028 2.96875C33.4698 2.999 33.5485 3.01462 33.6382 3.01465C33.7863 3.01465 33.9033 2.9737 33.9888 2.89258C34.0742 2.81146 34.125 2.69777 34.1401 2.55176H33.9858C33.9826 2.59919 33.9727 2.64358 33.9565 2.68457C33.9403 2.72567 33.9174 2.76171 33.8882 2.79199C33.8601 2.82119 33.8257 2.84402 33.7856 2.86133C33.7469 2.87746 33.7024 2.8857 33.6519 2.88574C33.5828 2.88574 33.5228 2.87351 33.4731 2.84766C33.4234 2.82171 33.3825 2.78641 33.3501 2.74316C33.3187 2.69882 33.2949 2.64727 33.2798 2.58887C33.2647 2.52959 33.2573 2.46708 33.2573 2.40137C33.2573 2.3408 33.2646 2.28183 33.2798 2.22559C33.2949 2.16941 33.3188 2.11939 33.3501 2.07617C33.3825 2.03203 33.4227 1.99658 33.4712 1.9707C33.5209 1.94475 33.5807 1.93262 33.6499 1.93262C33.731 1.93263 33.8005 1.95306 33.8589 1.99414C33.9183 2.03523 33.9568 2.09657 33.9741 2.17871H34.1284C34.1198 2.11708 34.1009 2.0631 34.0728 2.0166C34.0447 1.96907 34.0094 1.92977 33.9673 1.89844C33.9253 1.86721 33.8776 1.84335 33.8237 1.82715C33.7698 1.81096 33.7123 1.80277 33.6519 1.80273ZM31.0405 2.98828H31.1948V1.83008H31.0405V2.98828ZM31.7202 2.98828H31.8657V2.05859H31.8696L32.4741 2.98828H32.6431V1.83008H32.4966V2.76953H32.4937L31.8843 1.83008H31.7202V2.98828ZM34.5981 2.98828H35.4028V2.8584H34.7524V2.45801H35.354V2.32812H34.7524V1.95996H35.3979V1.83008H34.5981V2.98828Z" fill="white"/>
<path d="M24.3198 6.93335C24.3198 4.74749 23.4131 2.80896 22.0253 1.32031C20.3521 1.7174 18.5401 2.25703 17.1357 2.7014C16.4206 2.92769 15.8119 3.1291 15.382 3.27381C15.1671 3.34616 14.9968 3.40436 14.8805 3.44444C14.8259 3.46322 14.7832 3.47792 14.7532 3.48834C14.7498 3.49316 14.7462 3.49839 14.7423 3.50397C14.717 3.54035 14.6805 3.59295 14.6342 3.66085C14.5416 3.79668 14.4094 3.99362 14.247 4.24413C13.922 4.74519 13.4759 5.46026 12.9822 6.32868C12.007 8.04387 10.849 10.3527 10.0706 12.7904C11.5803 14.3165 13.6752 15.2618 15.9913 15.2618V15.4321C13.5907 15.4321 11.4227 14.4367 9.8772 12.8362C11.4441 7.85784 14.6061 3.4002 14.6454 3.34565C14.6454 3.34565 18.6706 1.93274 22.0816 1.13184C23.5326 2.6564 24.4901 4.6625 24.4901 6.93335C24.4901 11.6271 20.685 15.4321 15.9913 15.4321V15.2618C20.5909 15.2618 24.3198 11.533 24.3198 6.93335Z" fill="white"/>
<path fill-rule="evenodd" clip-rule="evenodd" d="M22.1384 1.13184C22.7673 1.79113 23.1201 2.30646 23.2202 2.4566C23.3416 2.63867 23.372 2.78537 23.372 2.83599C23.2961 3.01305 23.0987 3.42789 22.9166 3.67072C22.8007 3.8253 22.6786 3.82412 22.5856 3.77671C22.8315 4.40116 23.123 5.73918 22.902 7.57295C22.9837 7.5412 23.0724 7.54885 23.1442 7.69246C23.1673 7.73859 23.1957 7.78995 23.2279 7.84846C23.4079 8.17493 23.7101 8.72326 23.9031 9.81715C23.9031 9.91833 23.8727 10.1814 23.7514 10.4242C23.7346 10.4576 23.716 10.4958 23.6953 10.5383C23.528 10.8813 23.2205 11.5113 22.6131 12.3212C22.2842 12.3971 21.3838 12.473 20.4126 12.1694C20.3708 12.1555 20.3107 12.1157 20.2752 12.0423C18.6274 13.0103 17.3003 13.3602 16.629 13.4403C16.6607 13.5089 16.6661 13.5918 16.6184 13.6871C16.4667 13.9906 16.239 14.3701 15.4802 15.2806C15.4297 15.3059 15.2677 15.3565 15.0249 15.3565C14.8431 15.3565 14.2261 15.2475 13.6136 15.0787C13.235 14.9658 12.8675 14.8271 12.5131 14.6649C12.2813 14.4028 11.7586 13.6135 11.4585 12.473L11.4579 12.4691C11.4577 12.4671 11.4575 12.4649 11.4573 12.4628L11.4568 12.4635C11.0792 12.2537 10.7116 11.9219 10.376 11.5474C10.396 11.4938 10.4162 11.4404 10.4365 11.387C10.7612 11.7576 11.1138 12.085 11.4717 12.2969C11.4919 12.2337 11.533 12.1793 11.6103 12.1694C12.2173 12.0936 13.5072 11.9115 13.8108 11.79C13.8786 11.7629 13.9376 11.7454 13.9886 11.7351C14.2073 10.766 14.4303 9.07545 14.5252 8.25235C14.4353 8.15378 14.2679 7.95683 14.0317 7.67894C13.74 7.33559 13.3143 6.8548 12.829 6.29741C13.8625 4.47303 14.641 3.35206 14.6455 3.34566C14.6455 3.34566 14.9272 3.22572 15.256 3.11482C15.7013 3.18499 16.3994 3.35139 17.4531 3.74655C17.4622 3.74956 17.4723 3.75341 17.4831 3.75797L19.9927 2.03707C19.9751 2.02195 19.9633 2.00945 19.9572 2.00126C19.9356 1.88576 19.9131 1.77784 19.8903 1.67686C20.6218 1.47131 21.4155 1.30365 22.1384 1.13184ZM17.8145 7.24334C17.7814 7.26952 17.7378 7.29407 17.6808 7.31307C17.453 7.38899 16.0872 7.84427 14.9491 8.37541C14.8913 8.39466 14.7721 8.41096 14.6649 8.36422C14.5662 9.20234 14.356 10.7766 14.1462 11.726C14.2167 11.7353 14.2537 11.7651 14.2661 11.79C14.6203 12.1189 15.5409 12.8676 16.3908 13.2318C16.4263 13.246 16.4693 13.269 16.5102 13.3001C17.1148 13.2484 18.4952 12.9207 20.2463 11.8831C20.2478 11.8545 20.2524 11.8235 20.2608 11.79C20.2674 11.7634 20.2758 11.7309 20.2856 11.693C20.3876 11.2994 20.6402 10.3242 20.6402 9.28598C20.6304 9.25078 20.6237 9.19883 20.6295 9.14351L17.8145 7.24334ZM20.1112 2.13973L17.621 3.84744C17.6558 3.88237 17.6808 3.925 17.6808 3.97427C17.6808 4.01973 17.7011 4.24139 17.7297 4.55212C17.7965 5.28103 17.9085 6.50016 17.9085 7.08535C17.9085 7.09485 17.9069 7.10672 17.903 7.12005L20.6823 8.99605C20.7074 8.9606 20.743 8.92929 20.7919 8.90658C21.0955 8.78011 21.8999 8.36022 22.689 7.69246C22.7012 7.69245 22.7174 7.68464 22.7365 7.67273C23.0156 5.54579 22.5944 4.08776 22.3535 3.63014L22.4001 3.60564C21.7266 2.90746 20.6511 2.34934 20.1849 2.15304C20.1469 2.13613 20.1138 2.11886 20.0855 2.10215L20.1112 2.13973Z" fill="white"/>
</svg>
