<svg width="67" height="98" viewBox="0 0 67 98" fill="none" xmlns="http://www.w3.org/2000/svg">
<path d="M57.1216 97.1956C54.0552 97.1956 51.6846 96.3936 50.0099 94.7896C48.3588 93.162 47.5332 90.9564 47.5332 88.173C47.5332 85.3895 48.3588 83.1958 50.0099 81.5918C51.6846 79.9642 54.0552 79.1504 57.1216 79.1504C60.188 79.1504 62.5586 79.9642 64.2333 81.5918C65.908 83.1958 66.7454 85.3895 66.7454 88.173C66.7454 90.9564 65.908 93.162 64.2333 94.7896C62.5586 96.3936 60.188 97.1956 57.1216 97.1956ZM57.1216 93.8696C58.7963 93.8696 60.0701 93.386 60.9428 92.4189C61.8156 91.4518 62.2519 90.0365 62.2519 88.173C62.2519 86.3331 61.8156 84.9414 60.9428 83.9978C60.0701 83.0307 58.7963 82.5471 57.1216 82.5471C55.4705 82.5471 54.1967 83.0307 53.3004 83.9978C52.4277 84.9414 51.9913 86.3331 51.9913 88.173C51.9913 90.0129 52.4277 91.4282 53.3004 92.4189C54.1967 93.386 55.4705 93.8696 57.1216 93.8696Z" fill="white"/>
<path d="M30.4477 96.6654C30.0467 96.6654 29.7636 96.5946 29.5985 96.4531C29.457 96.2879 29.3862 96.0167 29.3862 95.6393C29.3862 95.0024 29.457 94.5306 29.5985 94.2239C29.74 93.9173 30.0703 93.4927 30.5892 92.9502L40.0007 83.1491L31.0492 83.1491C30.5774 83.1491 30.2354 83.0548 30.0231 82.8661C29.8108 82.6774 29.7047 82.3589 29.7047 81.9108L29.7047 80.8847C29.7047 80.4365 29.8108 80.1298 30.0231 79.9647C30.2354 79.776 30.5774 79.6816 31.0492 79.6816L44.6711 79.6816C45.0485 79.6816 45.3079 79.7642 45.4495 79.9293C45.591 80.0709 45.6618 80.3303 45.6618 80.7077C45.6618 81.3446 45.5792 81.84 45.4141 82.1938C45.2726 82.5241 44.9659 82.9369 44.4942 83.4322L35.3657 93.2332L44.6711 93.2332C45.1428 93.2332 45.4849 93.3394 45.6971 93.5517C45.9094 93.7404 46.0156 94.0588 46.0156 94.507L46.0156 95.4623C46.0156 95.8869 45.9094 96.1936 45.6971 96.3823C45.4849 96.571 45.1428 96.6654 44.6711 96.6654L30.4477 96.6654Z" fill="white"/>
<path d="M22.2137 76.745C21.6476 76.745 21.2112 76.5799 20.9045 76.2496C20.5979 75.9194 20.4446 75.5184 20.4446 75.0466L20.4446 74.3036C20.4446 73.8318 20.5979 73.4308 20.9045 73.1006C21.2112 72.7703 21.6476 72.6052 22.2137 72.6052L23.7351 72.6052C24.3012 72.6052 24.7375 72.7703 25.0442 73.1006C25.3744 73.4308 25.5395 73.8318 25.5395 74.3036L25.5395 75.0466C25.5395 75.5184 25.3744 75.9194 25.0442 76.2496C24.7375 76.5799 24.3012 76.745 23.7351 76.745L22.2137 76.745ZM22.0721 96.6655C21.6004 96.6655 21.2584 96.5593 21.0461 96.347C20.8338 96.1347 20.7276 95.8163 20.7276 95.3917L20.7276 80.9909C20.7276 80.5428 20.8338 80.2125 21.0461 80.0002C21.2584 79.7879 21.6004 79.6818 22.0721 79.6818L23.912 79.6818C24.3837 79.6818 24.7258 79.7879 24.938 80.0002C25.1503 80.2125 25.2565 80.5428 25.2565 80.9909L25.2565 95.3917C25.2565 95.8163 25.1503 96.1347 24.938 96.347C24.7493 96.5593 24.4073 96.6655 23.912 96.6655L22.0721 96.6655Z" fill="white"/>
<path d="M1.06145 96.6654C0.660456 96.6654 0.377404 96.5946 0.21229 96.4531C0.0707634 96.2879 3.00205e-07 96.0167 3.01606e-07 95.6393C3.0397e-07 95.0024 0.0707634 94.5306 0.21229 94.2239C0.353816 93.9173 0.684044 93.4927 1.20297 92.9502L10.6145 83.1491L1.66293 83.1491C1.19118 83.1491 0.849158 83.0548 0.636869 82.8661C0.424579 82.6774 0.318435 82.3589 0.318435 81.9108L0.318435 80.8847C0.318435 80.4365 0.424579 80.1298 0.636869 79.9647C0.849158 79.776 1.19118 79.6816 1.66293 79.6816L15.2848 79.6816C15.6622 79.6816 15.9217 79.7642 16.0632 79.9293C16.2048 80.0709 16.2755 80.3303 16.2755 80.7077C16.2755 81.3446 16.193 81.84 16.0279 82.1938C15.8863 82.5241 15.5797 82.9369 15.1079 83.4322L5.97949 93.2332L15.2848 93.2332C15.7566 93.2332 16.0986 93.3394 16.3109 93.5517C16.5232 93.7404 16.6293 94.0588 16.6293 94.507L16.6293 95.4623C16.6293 95.8869 16.5232 96.1936 16.3109 96.3823C16.0986 96.571 15.7566 96.6654 15.2848 96.6654L1.06145 96.6654Z" fill="white"/>
<path d="M60.5957 14.3672L39.8088 40.628C46.7378 38.2598 61.1325 32.5024 63.2796 28.4185C65.4267 24.3347 62.385 17.3494 60.5957 14.3672Z" fill="#CAD5E2"/>
<path d="M60.3853 49.7324C57.9644 53.1533 51.9537 60.3944 43.4399 63.3096C35.6936 65.9619 33.8629 64.4147 33.9155 63.3096C33.6174 62.6815 33.7152 61.1287 36.4937 59.9414L60.3853 49.7324ZM35.7563 1.32032e-07C38.3271 0.0524706 44.6117 1.01579 49.2388 4.44238C50.5578 3.93779 51.7758 3.47203 52.8599 3.05176C55.8461 1.89426 60.7941 3.05271 57.3325 8.05176C53.4064 13.7211 33.318 39.6977 23.5474 51.8369L60.7007 37.5225C62.3211 36.7856 65.2584 33.5859 65.5952 28.9971C67.005 33.4704 67.5833 41.5569 60.7007 44.5742C54.554 47.2687 27.5121 57.6965 14.7593 62.5732C11.0645 63.9861 8.53872 62.3246 10.4858 59.0996C13.8537 53.5214 17.1585 48.9952 19.064 46.2061C20.6118 43.941 36.4763 24.0139 44.229 14.0508L6.86572 28.208C5.22336 28.9448 1.91841 30.5241 0.444824 36.418C0.0589675 34.1197 -0.0362769 29.0844 1.34033 26.5234C3.06574 23.3138 4.85502 21.6815 11.7065 18.8398C15.9533 17.0786 25.1944 13.5653 34.3276 10.1055C37.5762 8.07985 41.6441 3.75405 35.7563 1.32032e-07ZM11.9175 45.4707C10.4615 47.3126 7.55029 51.4494 7.55029 53.2598C5.83121 50.9968 2.08719 45.1025 2.17139 41.7344C2.25559 38.3663 3.39238 34.4191 10.9702 31.6299C17.0326 29.3985 25.6006 25.999 29.1265 24.5781L11.9175 45.4707ZM60.6479 14.3672C61.2794 17.2616 60.8275 24.5248 53.9653 30.4189C47.1035 36.3127 43.774 36.909 43.1772 36.418L60.6479 14.3672ZM24.4946 0.893555C26.2201 0.509379 29.4305 0.202021 30.7573 1.89355C32.8623 4.57754 30.4943 6.99846 27.4946 8.15625C25.0949 9.08248 11.3384 14.4017 4.76025 16.9453C7.16344 12.5247 14.475 3.12505 24.4946 0.893555Z" fill="white"/>
<path d="M31.073 2.26294C27.0735 3.27337 18.6009 9.87628 14.8645 13.0514C17.1274 12.1743 22.8214 9.97803 27.4945 8.20977C32.1676 6.44151 31.8273 3.50844 31.073 2.26294Z" fill="#CAD5E2"/>
<path d="M11.6029 38.5223C6.29827 42.8166 5.04229 47.6091 5.07737 49.4686L7.76116 53.5209C8.14006 49.2265 20.2327 35.5225 25.7583 28.6284C23.2323 30.0143 16.9075 34.2279 11.6029 38.5223Z" fill="#CAD5E2"/>
<path d="M48.6468 57.7311C45.9018 59.4146 38.8686 63.1692 35.3252 64.6252C34.3252 64.6252 33.0606 63.5177 34.1146 61.7308C35.1687 59.9438 38.1143 59.1853 39.911 58.4153C41.7078 57.6452 49.6917 54.0999 54.5859 52.2053C53.6912 53.6262 52.1651 55.5734 48.6468 57.7311Z" fill="#CAD5E2"/>
</svg>
