<svg width="20" height="28" viewBox="0 0 20 28" fill="none" xmlns="http://www.w3.org/2000/svg">
<path fill-rule="evenodd" clip-rule="evenodd" d="M4.6931 0.00620422C2.87071 0.163921 1.33392 1.20483 0.520219 2.83261C0.176345 3.52048 0.0144075 4.23585 0.0144075 5.06687C0.0144075 6.05247 0.250721 6.90221 0.753097 7.72302C1.04096 8.19332 1.53775 8.74844 1.94936 9.05974L2.14571 9.20823L2.00758 9.32001C1.76061 9.51985 1.53038 9.74833 1.30682 10.0155C-0.107562 11.7058 -0.399678 14.0316 0.556984 15.9858C0.889679 16.6654 1.2973 17.207 1.8377 17.6877L2.14149 17.9579L1.94724 18.1048C1.84043 18.1856 1.6348 18.37 1.4903 18.5146C0.718863 19.2867 0.243123 20.2209 0.0606339 21.3222C-0.00201025 21.7002 -0.00119498 22.4961 0.0622351 22.882C0.329579 24.5089 1.29786 25.8444 2.76385 26.6083C3.23525 26.8539 3.71356 27.0123 4.27101 27.1074C4.62964 27.1685 5.60886 27.1914 6.03215 27.1486C7.35158 27.0149 8.4973 26.4739 9.42454 25.5467C10.3503 24.621 10.9009 23.4525 11.0233 22.1543C11.0404 21.9727 11.0535 21.0435 11.0535 20.0074C11.0536 19.0028 11.0599 18.1808 11.0676 18.1808C11.0753 18.1808 11.1506 18.2249 11.235 18.2788C11.8111 18.6469 12.5337 18.9014 13.3678 19.0299C13.9108 19.1135 14.9934 19.1205 15.5219 19.0437C17.1674 18.8047 18.3608 18.0893 19.1587 16.8635C19.5782 16.219 19.8488 15.4157 19.9654 14.4693C20.0115 14.0943 20.0115 13.0686 19.9654 12.6936C19.7777 11.1696 19.189 10.0235 18.163 9.1852L18.0387 9.08361L18.2609 8.8946C19.1483 8.1399 19.7459 7.06077 19.9484 5.84765C20.0128 5.46198 20.0131 4.67075 19.949 4.28091C19.6194 2.27534 18.1582 0.659514 16.2206 0.157953C15.6003 -0.002616 15.9597 0.00666998 10.1657 0.00119735C7.21982 -0.00159718 4.75714 0.000673372 4.6931 0.00620422ZM4.5286 2.12865C4.25634 2.17794 3.89086 2.30873 3.63976 2.44674C2.64016 2.99618 2.04149 4.06419 2.09756 5.19787C2.1368 5.99085 2.44047 6.66022 3.00948 7.20801C3.44313 7.6255 3.91043 7.87145 4.49725 7.99103C4.77571 8.0478 4.88843 8.05062 6.87362 8.05062H8.95767V5.06687V2.08313L6.8545 2.08575C5.19871 2.08778 4.70393 2.09692 4.5286 2.12865ZM11.0536 5.06687V8.05062H13.1376C15.1228 8.05062 15.2355 8.0478 15.514 7.99103C16.1008 7.87145 16.5681 7.6255 17.0018 7.20801C17.8441 6.39707 18.1364 5.19507 17.7588 4.0942C17.4095 3.0758 16.5155 2.31103 15.4591 2.12679C15.2522 2.09072 14.8472 2.08313 13.1311 2.08313H11.0536V5.06687ZM4.94298 10.1935C4.27604 10.3053 3.6618 10.6184 3.15643 11.1045C2.41235 11.82 2.04798 12.7258 2.0966 13.739C2.13951 14.6331 2.46236 15.3569 3.10481 15.9994C3.60227 16.4968 4.01767 16.7337 4.72221 16.9217L5.01331 16.9994L6.98549 17.0092L8.95767 17.0191V13.5828V10.1465L7.07282 10.1495C5.59704 10.1518 5.13478 10.1614 4.94298 10.1935ZM13.8386 10.1753C13.3264 10.24 12.9407 10.3487 12.5839 10.5291C12.2649 10.6904 12.1298 10.7885 11.888 11.0343C11.3279 11.604 11.054 12.4403 11.054 13.5815C11.054 15.5378 11.8691 16.6342 13.557 16.948C13.9526 17.0215 15.0348 17.0219 15.4055 16.9485C15.7816 16.8741 16.0415 16.7937 16.3113 16.668C17.1648 16.2707 17.6622 15.5666 17.8541 14.4839C17.8953 14.2518 17.9083 14.0345 17.9083 13.5815C17.9083 12.9164 17.8626 12.5658 17.7178 12.1212C17.3762 11.0719 16.6661 10.4719 15.4793 10.2298C15.1628 10.1652 14.1775 10.1325 13.8386 10.1753ZM4.47894 19.1736C3.90687 19.2937 3.43646 19.5438 3.00948 19.9549C2.16637 20.7666 1.87458 21.9669 2.25248 23.0687C2.6018 24.0871 3.49573 24.8519 4.55218 25.0361C4.88694 25.0945 5.75016 25.0947 6.08425 25.0364C7.35457 24.8149 8.37624 23.9407 8.78267 22.7276C8.94254 22.2504 8.95744 22.0622 8.95756 20.5169L8.95767 19.1123L6.8545 19.1144C4.88051 19.1163 4.73458 19.12 4.47894 19.1736Z" fill="white"/>
</svg>
