<svg width="28" height="17" viewBox="0 0 28 17" fill="none" xmlns="http://www.w3.org/2000/svg">
<path d="M14 -6.10322e-10C10.262 -4.47366e-10 7.938 1.862 7 5.6C8.4 3.738 10.038 3.038 11.9 3.5C12.964 3.766 13.734 4.536 14.574 5.39C15.946 6.79 17.5 8.4 21 8.4C24.738 8.4 27.062 6.538 28 2.8C26.6 4.662 24.962 5.362 23.1 4.9C22.036 4.634 21.28 3.864 20.426 3.01C19.054 1.61 17.5 -7.62903e-10 14 -6.10322e-10ZM7 8.4C3.262 8.4 0.938 10.262 6.10322e-10 14C1.4 12.138 3.038 11.438 4.9 11.9C5.964 12.166 6.72 12.936 7.574 13.79C8.946 15.19 10.5 16.8 14 16.8C17.738 16.8 20.062 14.938 21 11.2C19.6 13.062 17.962 13.762 16.1 13.3C15.036 13.034 14.28 12.264 13.426 11.41C12.054 10.01 10.5 8.4 7 8.4Z" fill="#E2E8F1"/>
</svg>
